<?xml version="1.0" encoding="UTF-8"?>
<svg width="31px" height="19px" viewBox="0 0 31 19" version="1.1" xmlns="http://www.w3.org/2000/svg" xmlns:xlink="http://www.w3.org/1999/xlink">
    <!-- Generator: Sketch 47.1 (45422) - http://www.bohemiancoding.com/sketch -->
    <title>barcode</title>
    <desc>Created with Sketch.</desc>
    <defs></defs>
    <g id="KM&amp;T-–-Knowledge-Base" stroke="none" stroke-width="1" fill="none" fill-rule="evenodd">
        <g id="Edit-Proposals" transform="translate(-1002.000000, -166.000000)" fill-rule="nonzero" fill="#0070E0">
            <g id="Group-4-Copy" transform="translate(1002.000000, 158.000000)">
                <g id="barcode" transform="translate(0.000000, 8.000000)">
                    <polygon id="Shape" points="0 0 1.9 0 1.9 19 0 19"></polygon>
                    <polygon id="Shape" points="15.2 0 19 0 19 19 15.2 19"></polygon>
                    <polygon id="Shape" points="20.9 0 22.8 0 22.8 19 20.9 19"></polygon>
                    <polygon id="Shape" points="24.7 0 26.6 0 26.6 19 24.7 19"></polygon>
                    <polygon id="Shape" points="28.5 0 30.4 0 30.4 19 28.5 19"></polygon>
                    <polygon id="Shape" points="3.8 0 9.5 0 9.5 19 3.8 19"></polygon>
                    <polygon id="Shape" points="11.4 0 13.3 0 13.3 19 11.4 19"></polygon>
                </g>
            </g>
        </g>
    </g>
</svg>