<svg xmlns="http://www.w3.org/2000/svg" viewBox="0 0 25.97 33.97"><defs><style>.cls-1{fill:#d4e8f8;}.cls-2{fill:#0470e0;}</style></defs><title>proposal-active</title><g id="Layer_2" data-name="Layer 2"><g id="Web"><path class="cls-1" d="M17,34H0V0H26V25H17ZM2,32H15V23h9V2H2Z"/><path class="cls-1" d="M17.39,34H0V0H26V25.39ZM2,32H16.58L24,24.58V2H2Z"/><rect class="cls-2" x="4.98" y="18.98" width="16" height="2"/><rect class="cls-2" x="4.98" y="22.98" width="8" height="2"/><rect class="cls-2" x="4.98" y="26.98" width="8" height="2"/><path class="cls-1" d="M13.49,5V6.79a4.2,4.2,0,0,1,3.33,5.69l1.56.93A5.92,5.92,0,0,0,18.91,11,6,6,0,0,0,13.49,5Z"/><path class="cls-2" d="M12.89,15.18a4.22,4.22,0,0,1-.61-8.39V5a6,6,0,1,0,5.46,9.56l-1.57-.92A4.19,4.19,0,0,1,12.89,15.18Z"/></g></g></svg>