<svg xmlns="http://www.w3.org/2000/svg" viewBox="0 0 66.2 65.34"><defs><style>.cls-1{fill:#bad5ea;}.cls-2{fill:#22366b;}.cls-3{fill:#f04e24;}.cls-4{fill:#fff;stroke:#22366b;stroke-linecap:round;stroke-linejoin:round;}.cls-5{fill:#f04d23;}</style></defs><title>6s-expert</title><g id="Layer_2" data-name="Layer 2"><g id="final_icons_bios"><path class="cls-1" d="M16.84,19.09l-2.42-4.15c.42-.12.86-.24,1-.56.31-.53-.25-1.41-.09-2s1-1.1,1-1.7-.91-1.26-1-1.84.4-1.44.08-2S14.1,6.41,13.68,6s-.44-1.44-1-1.73-1.39.29-2,.15-1.09-1-1.7-1-1.59,1-1.75,1c-.59.14-1.45-.43-2-.15S4.79,5.59,4.36,6s-1.45.37-1.76.9.25,1.41.09,2-1,1.15-1,1.81.88,1.1,1,1.69-.41,1.44-.09,2a1.5,1.5,0,0,0,.93.53s.12.07.07.14c-.25.45-2.36,4.08-2.36,4.08a.34.34,0,0,0,.3.56l1.63.07a1.28,1.28,0,0,1,.92.54l.87,1.38a.34.34,0,0,0,.63,0L8,17.45a.09.09,0,0,1,.12,0,1.67,1.67,0,0,0,.94.45,1.5,1.5,0,0,0,.87-.45s.08-.06.11,0l2.43,4.18a.33.33,0,0,0,.62,0L14,20.25a1.31,1.31,0,0,1,.92-.54l1.63-.07A.34.34,0,0,0,16.84,19.09Zm-5.11-3.77a5.4,5.4,0,1,1-.1-9.42l0,0,.06,0a5.41,5.41,0,0,1,0,9.37Z"/><path class="cls-1" d="M11.32,6.71h0a4.55,4.55,0,0,0-4.7,7.8l.16.09a4.55,4.55,0,0,0,4.57-7.88Z"/><path class="cls-2" d="M16.62,56.26l.25-.43a.16.16,0,0,1,.24,0,2.31,2.31,0,0,0,1.06.43.58.58,0,0,0,.64-.54c0-.36-.3-.6-.89-.84s-1.32-.69-1.32-1.51A1.4,1.4,0,0,1,18.17,52a2.47,2.47,0,0,1,1.4.47.17.17,0,0,1,0,.23l-.27.4a.18.18,0,0,1-.25.08,2.31,2.31,0,0,0-1-.39.56.56,0,0,0-.62.49c0,.33.26.55.83.78s1.46.68,1.46,1.58A1.48,1.48,0,0,1,18.19,57a2.26,2.26,0,0,1-1.54-.55C16.59,56.4,16.55,56.37,16.62,56.26Z"/><path class="cls-2" d="M20.7,52.17a.14.14,0,0,1,.13-.13h.65a.14.14,0,0,1,.13.13v4.64a.14.14,0,0,1-.13.13h-.65a.14.14,0,0,1-.13-.13Z"/><path class="cls-2" d="M23.92,54.43l-1.4-2.19a.13.13,0,0,1,.12-.2h.81a.14.14,0,0,1,.11.06l.9,1.48h0l.91-1.48a.13.13,0,0,1,.11-.06h.81a.13.13,0,0,1,.12.2L25,54.43l1.46,2.32a.12.12,0,0,1-.12.2h-.76a.14.14,0,0,1-.12-.06l-1-1.6h0l-1,1.6a.16.16,0,0,1-.12.06h-.76a.13.13,0,0,1-.13-.2Z"/><path class="cls-2" d="M28.57,56.26l.25-.43a.16.16,0,0,1,.24,0,2.31,2.31,0,0,0,1.06.43.58.58,0,0,0,.64-.54c0-.36-.3-.6-.89-.84s-1.32-.69-1.32-1.51A1.4,1.4,0,0,1,30.13,52a2.47,2.47,0,0,1,1.4.47.17.17,0,0,1,0,.23l-.27.4a.18.18,0,0,1-.25.08,2.31,2.31,0,0,0-1-.39.56.56,0,0,0-.62.49c0,.33.26.55.83.78s1.46.68,1.46,1.58A1.48,1.48,0,0,1,30.15,57a2.26,2.26,0,0,1-1.54-.55C28.54,56.4,28.51,56.37,28.57,56.26Z"/><path class="cls-2" d="M32.65,52.17a.14.14,0,0,1,.13-.13h.65a.14.14,0,0,1,.13.13v4.64a.14.14,0,0,1-.13.13h-.65a.14.14,0,0,1-.13-.13Z"/><path class="cls-2" d="M37,52a2.65,2.65,0,0,1,1.71.65.14.14,0,0,1,0,.2l-.43.46a.12.12,0,0,1-.18,0,1.6,1.6,0,1,0-1.05,2.82,2.18,2.18,0,0,0,.83-.17v-.6h-.56a.13.13,0,0,1-.13-.13v-.55a.13.13,0,0,1,.13-.13h1.34a.13.13,0,0,1,.13.13v1.79a.13.13,0,0,1-.06.11A3.54,3.54,0,0,1,37,57a2.52,2.52,0,0,1,0-5Z"/><path class="cls-2" d="M40.34,52.08a.12.12,0,0,1,.13-.1h.11a.13.13,0,0,1,.12.07l1.54,3.31h0L43.8,52a.12.12,0,0,1,.12-.07H44a.12.12,0,0,1,.13.1L45,56.78a.12.12,0,0,1-.13.16h-.64a.15.15,0,0,1-.13-.1l-.41-2.65h0l-1.23,2.75a.12.12,0,0,1-.12.08h-.13a.13.13,0,0,1-.12-.08l-1.24-2.75h0l-.41,2.65a.14.14,0,0,1-.13.1h-.63a.13.13,0,0,1-.13-.16Z"/><path class="cls-2" d="M45.3,56.76,47.48,52A.13.13,0,0,1,47.6,52h.07a.12.12,0,0,1,.12.08l2.16,4.71a.12.12,0,0,1-.12.18h-.61a.2.2,0,0,1-.2-.14L48.67,56H46.58l-.34.76a.21.21,0,0,1-.2.14h-.61A.12.12,0,0,1,45.3,56.76Zm3-1.49-.7-1.54h0l-.69,1.54Z"/><path class="cls-2" d="M21.26,60.57a.13.13,0,0,1,.13-.13h2.85a.13.13,0,0,1,.13.13v.57a.13.13,0,0,1-.13.13H22.17v1.15H23.9a.14.14,0,0,1,.13.13v.58a.13.13,0,0,1-.13.13H22.17V64.5h2.07a.13.13,0,0,1,.13.13v.57a.13.13,0,0,1-.13.13H21.39a.13.13,0,0,1-.13-.13Z"/><path class="cls-2" d="M26.4,62.83,25,60.64a.13.13,0,0,1,.12-.2h.81a.14.14,0,0,1,.11.06l.9,1.48h0l.91-1.48a.13.13,0,0,1,.11-.06h.81a.13.13,0,0,1,.12.2L27.5,62.83,29,65.15a.12.12,0,0,1-.12.2h-.76a.14.14,0,0,1-.12-.06l-1-1.6h0l-1,1.6a.16.16,0,0,1-.12.06h-.76a.13.13,0,0,1-.13-.2Z"/><path class="cls-2" d="M29.8,60.57a.13.13,0,0,1,.13-.13h1.65a1.56,1.56,0,1,1,0,3.12h-.87v1.65a.14.14,0,0,1-.13.13h-.64a.13.13,0,0,1-.13-.13Zm1.72,2.14a.72.72,0,0,0,.72-.73.7.7,0,0,0-.72-.68h-.81v1.41Z"/><path class="cls-2" d="M33.94,60.57a.13.13,0,0,1,.13-.13h2.85a.13.13,0,0,1,.13.13v.57a.13.13,0,0,1-.13.13H34.85v1.15h1.73a.14.14,0,0,1,.13.13v.58a.13.13,0,0,1-.13.13H34.85V64.5h2.07a.13.13,0,0,1,.13.13v.57a.13.13,0,0,1-.13.13H34.07a.13.13,0,0,1-.13-.13Z"/><path class="cls-2" d="M38.06,60.57a.13.13,0,0,1,.13-.13h2a1.52,1.52,0,0,1,1.53,1.51,1.55,1.55,0,0,1-1,1.42l1,1.78a.13.13,0,0,1-.12.2h-.74a.12.12,0,0,1-.11-.06l-.93-1.86H39v1.79a.14.14,0,0,1-.13.13h-.64a.13.13,0,0,1-.13-.13Zm2.06,2.1a.71.71,0,0,0,.69-.71.7.7,0,0,0-.69-.68H39v1.39Z"/><path class="cls-2" d="M43.38,61.28H42.31a.13.13,0,0,1-.13-.13v-.57a.13.13,0,0,1,.13-.13h3.06a.13.13,0,0,1,.13.13v.57a.13.13,0,0,1-.13.13H44.29v3.93a.14.14,0,0,1-.13.13h-.65a.14.14,0,0,1-.13-.13Z"/><path class="cls-3" d="M43.68,39.57h-.05c-.93-.1-1.5-.21-1.53-.21a.5.5,0,0,1,.19-1s.56.11,1.44.2a.5.5,0,0,1-.05,1Z"/><path class="cls-3" d="M46.62,39.7a.5.5,0,0,1,0-1,19.89,19.89,0,0,0,2.86-.25.51.51,0,0,1,.57.41.5.5,0,0,1-.41.57,21,21,0,0,1-3,.26Zm5.78-1a.5.5,0,0,1-.18-1,9.86,9.86,0,0,0,2.45-1.34.5.5,0,1,1,.6.8,10.82,10.82,0,0,1-2.7,1.47A.49.49,0,0,1,52.4,38.7ZM57,35.15a.49.49,0,0,1-.27-.08.5.5,0,0,1-.15-.69,8.81,8.81,0,0,0,1.11-2.54.5.5,0,1,1,1,.26,9.83,9.83,0,0,1-1.23,2.83A.5.5,0,0,1,57,35.15Zm1.57-5.6h0A.5.5,0,0,1,58,29c0-.15,0-.31,0-.46a13,13,0,0,0-.2-2.35.5.5,0,1,1,1-.18,13.94,13.94,0,0,1,.21,2.53c0,.17,0,.33,0,.49A.5.5,0,0,1,58.55,29.56Zm-1.21-5.65a.5.5,0,0,1-.42-.24A5.59,5.59,0,0,0,55,21.8a.5.5,0,1,1,.52-.85,6.64,6.64,0,0,1,2.23,2.2.5.5,0,0,1-.42.76Zm-4.79-3.09h-.11a19.08,19.08,0,0,0-2.84-.41.5.5,0,0,1-.46-.54.52.52,0,0,1,.54-.46,20,20,0,0,1,3,.43.5.5,0,0,1-.11,1Zm-5.87-.55h0l-.71,0c-.76,0-1.51,0-2.25-.06a.5.5,0,0,1-.48-.52.48.48,0,0,1,.52-.48c.73,0,1.48,0,2.23.06l.71,0a.5.5,0,0,1,0,1Zm-5.89-.33h-.08a11.11,11.11,0,0,1-3-.82.5.5,0,1,1,.42-.91,10.16,10.16,0,0,0,2.7.74.5.5,0,0,1-.07,1ZM35.7,17.35a.5.5,0,0,1-.41-.21,6.81,6.81,0,0,1-1.13-2.91.5.5,0,1,1,1-.16,5.75,5.75,0,0,0,1,2.49.5.5,0,0,1-.41.79Zm-1.21-5.64h0a.5.5,0,0,1-.48-.52,10,10,0,0,1,.58-3,.5.5,0,0,1,.94.35A9,9,0,0,0,35,11.23.5.5,0,0,1,34.49,11.71Zm2.12-5.34a.5.5,0,0,1-.35-.86,8.34,8.34,0,0,1,2.61-1.7.5.5,0,0,1,.39.92A7.33,7.33,0,0,0,37,6.23.5.5,0,0,1,36.61,6.37ZM41.89,4a.5.5,0,0,1-.09-1,22.72,22.72,0,0,1,3-.31.5.5,0,1,1,0,1A21.7,21.7,0,0,0,42,4Z"/><path class="cls-3" d="M49.43,3.8h0l-1.48-.1a.5.5,0,0,1-.47-.52A.49.49,0,0,1,48,2.7l1.51.1a.5.5,0,0,1,0,1Z"/><path class="cls-3" d="M50.76,6.24a.5.5,0,0,1-.32-.88l2.28-1.94L50.86.79a.5.5,0,1,1,.82-.57l2.11,3a.5.5,0,0,1-.08.67L51.08,6.12A.49.49,0,0,1,50.76,6.24Z"/><path class="cls-1" d="M46,30.6a14.15,14.15,0,0,0-4.21-7.46.1.1,0,0,0,0,0,12.25,12.25,0,0,0-11.15-2.59c-3.74.89-6.22,2.7-7.7,5.19l-.19,0a12,12,0,0,1,.19-2.31c.73-4.13,3.71-8.11,10.55-10.32a25.23,25.23,0,0,1,3.59-1L35.38,5l-.69.13a29.33,29.33,0,0,0-3,.81c-6.18,1.78-10.87,5-14,9.52-3.35,5-4.62,11.9-2.86,19.38a20.91,20.91,0,0,0,4.8,9.48,14.28,14.28,0,0,0,1.65,1.56H40.52A14.53,14.53,0,0,0,46,30.6ZM33,41.64a5.9,5.9,0,0,1-6.14-2.17,11.8,11.8,0,0,1-2.19-4.33,5.45,5.45,0,0,1-.18-2.43,6.24,6.24,0,0,1,4.67-4.86,5.61,5.61,0,0,1,5,1,8,8,0,0,1,2.6,4.46C37.67,37.37,36.29,40.86,33,41.64Z"/><path class="cls-4" d="M45.1,29.66a14.76,14.76,0,0,0-3.27-6.52.1.1,0,0,0,0,0A12.12,12.12,0,0,0,29.7,19.57a12.07,12.07,0,0,0-6.76,3.86A11.73,11.73,0,0,0,22,24.76l-.19,0c-.06-4.91,2.62-10,10.74-12.64a25.23,25.23,0,0,1,3.59-1l-1.44-6.1L34.44,4A26.23,26.23,0,0,0,30.72,5c-6.18,1.78-10.87,5-14,9.52-3.35,5-4.62,11.9-2.86,19.38A20.27,20.27,0,0,0,19.6,44.3a13.88,13.88,0,0,0,2,1.56H38.13A14.53,14.53,0,0,0,45.1,29.66ZM23.71,34.2a5.45,5.45,0,0,1-.18-2.43,6.24,6.24,0,0,1,4.67-4.86,5.6,5.6,0,0,1,5.91,1.94,8.7,8.7,0,0,1,1.66,3.52c1,4-.42,7.54-3.73,8.32a5.69,5.69,0,0,1-5.2-1.23A10.68,10.68,0,0,1,23.71,34.2Z"/><path class="cls-2" d="M65.7,46.35H.5a.5.5,0,0,1,0-1H65.7a.5.5,0,0,1,0,1Z"/><polygon class="cls-5" points="48.29 62.34 47.35 61.03 48.96 61.08 49.91 59.79 50.36 61.33 51.88 61.84 50.55 62.74 50.55 64.34 49.28 63.36 47.74 63.85 48.29 62.34"/><polygon class="cls-5" points="15.29 62.9 13.87 62.13 15.34 61.48 15.63 59.9 16.71 61.09 18.3 60.88 17.5 62.27 18.19 63.72 16.62 63.39 15.46 64.5 15.29 62.9"/></g></g></svg>