<svg xmlns="http://www.w3.org/2000/svg" viewBox="0 0 66.53 63.1"><defs><style>.cls-1{fill:#f04e24;}.cls-2{fill:#22366b;}.cls-3{fill:#bad5ea;}.cls-4{fill:#fff;}</style></defs><title>6s-trained</title><g id="Layer_2" data-name="Layer 2"><g id="final_icons_bios"><path class="cls-1" d="M44.34,39.72h-.05c-.93-.1-1.5-.21-1.53-.21a.5.5,0,0,1,.19-1s.56.11,1.44.2a.5.5,0,0,1-.05,1Z"/><path class="cls-1" d="M47.3,39.85a.5.5,0,0,1,0-1,20,20,0,0,0,2.88-.25.5.5,0,0,1,.16,1,21,21,0,0,1-3,.26Zm5.81-1a.5.5,0,0,1-.18-1,9.9,9.9,0,0,0,2.47-1.34.5.5,0,1,1,.6.8,10.9,10.9,0,0,1-2.72,1.48A.49.49,0,0,1,53.11,38.85Zm4.6-3.56a.5.5,0,0,1-.42-.77A8.81,8.81,0,0,0,58.4,32a.5.5,0,1,1,1,.25,9.81,9.81,0,0,1-1.24,2.84A.5.5,0,0,1,57.71,35.29Zm1.58-5.62h0a.5.5,0,0,1-.48-.52c0-.16,0-.31,0-.47a13,13,0,0,0-.2-2.36.5.5,0,1,1,1-.18,13.92,13.92,0,0,1,.22,2.54c0,.17,0,.34,0,.5A.5.5,0,0,1,59.29,29.66ZM58.08,24a.5.5,0,0,1-.42-.24,5.62,5.62,0,0,0-1.91-1.88.5.5,0,0,1,.52-.85,6.69,6.69,0,0,1,2.24,2.21.5.5,0,0,1-.42.76Zm-4.82-3.11h-.11a19.14,19.14,0,0,0-2.86-.41.5.5,0,0,1-.46-.54.52.52,0,0,1,.54-.46,20,20,0,0,1,3,.43.5.5,0,0,1-.11,1Zm-5.9-.55h0l-.71,0c-.76,0-1.53,0-2.27-.06a.5.5,0,0,1-.48-.52.48.48,0,0,1,.52-.48c.74,0,1.49,0,2.25.06l.71,0a.5.5,0,0,1,0,1ZM41.44,20h-.08a11.15,11.15,0,0,1-3-.83.5.5,0,1,1,.42-.91,10.2,10.2,0,0,0,2.71.75.5.5,0,0,1-.07,1Zm-5.11-2.6a.5.5,0,0,1-.41-.21,6.87,6.87,0,0,1-1.14-2.93.5.5,0,1,1,1-.16,5.81,5.81,0,0,0,1,2.5.5.5,0,0,1-.41.79Zm-1.22-5.67h0a.5.5,0,0,1-.48-.52,10,10,0,0,1,.58-3,.5.5,0,0,1,.94.35,9,9,0,0,0-.52,2.74A.5.5,0,0,1,35.11,11.72Zm2.13-5.36a.5.5,0,0,1-.35-.86,8.36,8.36,0,0,1,2.63-1.7.5.5,0,1,1,.39.92,7.36,7.36,0,0,0-2.31,1.5A.5.5,0,0,1,37.25,6.36ZM42.56,4a.5.5,0,0,1-.08-1,22.81,22.81,0,0,1,3-.31.51.51,0,0,1,.52.48.5.5,0,0,1-.48.52,21.82,21.82,0,0,0-2.88.29Z"/><path class="cls-1" d="M50.13,3.78h0l-1.48-.1a.5.5,0,0,1-.47-.52.49.49,0,0,1,.52-.48l1.51.1a.5.5,0,0,1,0,1Z"/><path class="cls-2" d="M17.83,54.52l.24-.41a.15.15,0,0,1,.22,0,2.18,2.18,0,0,0,1,.41.55.55,0,0,0,.6-.51c0-.33-.28-.56-.83-.79s-1.23-.64-1.23-1.42a1.31,1.31,0,0,1,1.48-1.26,2.3,2.3,0,0,1,1.31.44.16.16,0,0,1,0,.22l-.25.37a.17.17,0,0,1-.23.08,2.16,2.16,0,0,0-.91-.36.52.52,0,0,0-.58.46c0,.31.24.52.77.73s1.37.64,1.37,1.48a1.39,1.39,0,0,1-1.51,1.3,2.11,2.11,0,0,1-1.44-.51C17.8,54.66,17.77,54.63,17.83,54.52Z"/><path class="cls-2" d="M21.65,50.7a.13.13,0,0,1,.13-.12h.61a.13.13,0,0,1,.13.12V55a.13.13,0,0,1-.12.12h-.61a.13.13,0,0,1-.12-.12Z"/><path class="cls-2" d="M24.66,52.81l-1.31-2.05a.12.12,0,0,1,.11-.18h.76a.13.13,0,0,1,.1.06L25.17,52h0L26,50.63a.12.12,0,0,1,.1-.06h.76a.12.12,0,0,1,.11.18l-1.32,2.05L27.05,55a.12.12,0,0,1-.11.18h-.71a.13.13,0,0,1-.11-.06l-.94-1.5h0l-.93,1.5a.14.14,0,0,1-.11.06h-.71c-.12,0-.17-.1-.12-.18Z"/><path class="cls-2" d="M29,54.52l.24-.41a.15.15,0,0,1,.22,0,2.18,2.18,0,0,0,1,.41.55.55,0,0,0,.6-.51c0-.33-.28-.56-.83-.79S29,52.54,29,51.76a1.31,1.31,0,0,1,1.48-1.26,2.3,2.3,0,0,1,1.31.44.16.16,0,0,1,0,.22l-.25.37a.17.17,0,0,1-.23.08,2.16,2.16,0,0,0-.91-.36.52.52,0,0,0-.58.46c0,.31.24.52.77.73S32,53.08,32,53.93a1.39,1.39,0,0,1-1.51,1.3,2.11,2.11,0,0,1-1.44-.51C29,54.66,29,54.63,29,54.52Z"/><path class="cls-2" d="M32.84,50.7a.13.13,0,0,1,.13-.12h.61a.13.13,0,0,1,.13.12V55a.13.13,0,0,1-.12.12H33a.13.13,0,0,1-.12-.12Z"/><path class="cls-2" d="M36.92,50.5a2.48,2.48,0,0,1,1.6.61.13.13,0,0,1,0,.18l-.41.43a.11.11,0,0,1-.17,0,1.49,1.49,0,0,0-1-.38,1.51,1.51,0,0,0,0,3,2,2,0,0,0,.78-.16v-.56h-.52a.12.12,0,0,1-.12-.12V53a.12.12,0,0,1,.13-.12h1.26a.12.12,0,0,1,.12.13v1.68a.12.12,0,0,1-.05.1,3.31,3.31,0,0,1-1.63.43,2.36,2.36,0,0,1,0-4.72Z"/><path class="cls-2" d="M40,50.6a.11.11,0,0,1,.12-.1h.1a.12.12,0,0,1,.11.07l1.44,3.1h0l1.44-3.1a.11.11,0,0,1,.11-.07h.11a.11.11,0,0,1,.12.1L44.39,55a.11.11,0,0,1-.12.15h-.6a.14.14,0,0,1-.12-.1l-.39-2.49h0L42,55.16a.11.11,0,0,1-.11.07h-.12a.12.12,0,0,1-.11-.07l-1.16-2.58h0l-.38,2.49a.13.13,0,0,1-.12.1h-.59a.12.12,0,0,1-.12-.15Z"/><path class="cls-2" d="M44.69,55l2-4.42a.12.12,0,0,1,.11-.07h.07a.11.11,0,0,1,.11.07L49,55a.12.12,0,0,1-.11.17h-.57a.19.19,0,0,1-.19-.13l-.32-.71h-2l-.32.71a.2.2,0,0,1-.19.13H44.8A.12.12,0,0,1,44.69,55Zm2.83-1.4-.66-1.44h0L46.2,53.6Z"/><path class="cls-2" d="M20.58,59.22h-1a.12.12,0,0,1-.12-.12v-.54a.12.12,0,0,1,.13-.12h2.87a.12.12,0,0,1,.13.12v.54a.12.12,0,0,1-.12.12h-1v3.68a.13.13,0,0,1-.12.12H20.7a.13.13,0,0,1-.12-.12Z"/><path class="cls-2" d="M23.24,58.56a.12.12,0,0,1,.13-.12h1.88a1.42,1.42,0,0,1,1.43,1.41,1.45,1.45,0,0,1-1,1.33l.9,1.67a.12.12,0,0,1-.11.19H25.8A.11.11,0,0,1,25.7,63l-.87-1.74H24.1v1.67A.13.13,0,0,1,24,63h-.6a.12.12,0,0,1-.12-.12Zm1.93,2a.67.67,0,0,0,.65-.67.65.65,0,0,0-.65-.64H24.1v1.31Z"/><path class="cls-2" d="M27,62.86l2-4.42a.12.12,0,0,1,.11-.07h.07a.11.11,0,0,1,.11.07l2,4.42a.12.12,0,0,1-.11.17h-.57a.19.19,0,0,1-.19-.13l-.32-.71h-2l-.32.71a.2.2,0,0,1-.19.13h-.57A.12.12,0,0,1,27,62.86Zm2.83-1.4L29.19,60h0l-.64,1.44Z"/><path class="cls-2" d="M32,58.56a.13.13,0,0,1,.13-.12h.61a.13.13,0,0,1,.13.12v4.34a.13.13,0,0,1-.12.12h-.61a.13.13,0,0,1-.13-.12Z"/><path class="cls-2" d="M34,58.49a.12.12,0,0,1,.13-.12h.16L37,61.27h0V58.56a.12.12,0,0,1,.12-.12h.6a.13.13,0,0,1,.12.12V63a.12.12,0,0,1-.12.12H37.6l-2.74-3h0v2.82a.12.12,0,0,1-.12.12h-.6a.13.13,0,0,1-.12-.12Z"/><path class="cls-2" d="M39.08,58.56a.12.12,0,0,1,.13-.12h2.67a.12.12,0,0,1,.12.12v.54a.12.12,0,0,1-.12.12H39.93V60.3h1.62a.13.13,0,0,1,.13.12V61a.12.12,0,0,1-.12.12H39.93v1.15h1.94a.12.12,0,0,1,.12.12v.54a.12.12,0,0,1-.12.12H39.2a.12.12,0,0,1-.12-.12Z"/><path class="cls-2" d="M42.93,58.56a.12.12,0,0,1,.12-.12H44.6a2.3,2.3,0,1,1,0,4.59H43a.12.12,0,0,1-.12-.12Zm1.59,3.67a1.5,1.5,0,0,0,0-3h-.75v3Z"/><path class="cls-3" d="M46.73,30.71a14.26,14.26,0,0,0-4.25-7.52l0,0a12.36,12.36,0,0,0-11.2-2.6c-3.76.89-6.25,2.71-7.74,5.22l-.19,0a12.11,12.11,0,0,1,.19-2.33c.74-4.15,3.73-8.15,10.6-10.38a28.19,28.19,0,0,1,3.6-1L36,4.94l-.69.12c-.8.17-1.75.42-3,.83-6.21,1.79-10.93,5-14.07,9.57-3.36,5-4.65,12-2.87,19.48A21.46,21.46,0,0,0,19.73,44h23.7A14.68,14.68,0,0,0,46.73,30.71ZM33.61,41.82a5.93,5.93,0,0,1-6.17-2.18,11.77,11.77,0,0,1-2.21-4.36A5.59,5.59,0,0,1,25,32.85,6.27,6.27,0,0,1,29.74,28a5.61,5.61,0,0,1,5,1,8,8,0,0,1,2.63,4.48C38.31,37.51,36.93,41,33.61,41.82Z"/><path class="cls-4" d="M24.28,34.33a5.59,5.59,0,0,1-.18-2.43A6.27,6.27,0,0,1,28.79,27a5.6,5.6,0,0,1,5.94,2,8.65,8.65,0,0,1,1.68,3.53c1,4.07-.43,7.59-3.75,8.37a5.72,5.72,0,0,1-5.23-1.23A10.74,10.74,0,0,1,24.28,34.33ZM19.73,44h21.8a14.62,14.62,0,0,0,4.24-14.25,14.83,14.83,0,0,0-3.3-6.57l0,0A12.22,12.22,0,0,0,30.3,19.62a12.13,12.13,0,0,0-6.79,3.88,11,11,0,0,0-.95,1.34l-.19,0C22.31,20,25,14.83,33.16,12.18a28.19,28.19,0,0,1,3.6-1L35.32,5.07,35.06,4a26.69,26.69,0,0,0-3.74.95c-6.21,1.79-10.93,5-14.07,9.57-3.36,5-4.65,12-2.87,19.48a20.77,20.77,0,0,0,5.29,10"/><path class="cls-2" d="M41.54,44.52H19.67a.5.5,0,0,1-.35-.15,21.27,21.27,0,0,1-5.43-10.26c-1.71-7.26-.64-14.51,2.94-19.87,3.21-4.66,8-7.95,14.35-9.77A27.59,27.59,0,0,1,35,3.5a.5.5,0,0,1,.57.38l1.71,7.21a.5.5,0,0,1-.4.61,27.58,27.58,0,0,0-3.54,1c-6.2,2-9.83,5.8-10.38,10.76l.18-.23a12.68,12.68,0,0,1,7.06-4,12.78,12.78,0,0,1,12.6,3.66l0,0a15.32,15.32,0,0,1,3.44,6.82,15.06,15.06,0,0,1-4.39,14.74A.5.5,0,0,1,41.54,44.52Zm-21.66-1H41.34a14.07,14.07,0,0,0,4-13.64,14.35,14.35,0,0,0-3.15-6.31l-.06-.06a11.79,11.79,0,0,0-11.66-3.39,11.71,11.71,0,0,0-6.52,3.71A10.56,10.56,0,0,0,23,25.1a.5.5,0,0,1-.31.23l-.19,0a.49.49,0,0,1-.43-.09.5.5,0,0,1-.19-.39c0-3.56,1.35-10,11.14-13.19,1.27-.41,2.24-.7,3.15-.89L34.68,4.57a29.79,29.79,0,0,0-3.21.85c-6.1,1.76-10.75,4.91-13.81,9.38-3.43,5.13-4.45,12.09-2.8,19.08A20.39,20.39,0,0,0,19.88,43.52Zm11.3-2A6.21,6.21,0,0,1,27.11,40a11.23,11.23,0,0,1-3.32-5.56v0a5.94,5.94,0,0,1-.18-2.66,6.77,6.77,0,0,1,5.07-5.25,6.09,6.09,0,0,1,6.44,2.12,9.21,9.21,0,0,1,1.78,3.73c1,4.46-.64,8.15-4.12,9A6.88,6.88,0,0,1,31.18,41.55ZM24.76,34.2a10.23,10.23,0,0,0,3,5.05,5.21,5.21,0,0,0,4.79,1.13c2.95-.7,4.3-3.82,3.38-7.77a8.21,8.21,0,0,0-1.58-3.32,5.08,5.08,0,0,0-5.44-1.79A5.77,5.77,0,0,0,24.59,32,5.22,5.22,0,0,0,24.76,34.2Z"/><path class="cls-2" d="M66,44.52H.5a.5.5,0,0,1,0-1H66a.5.5,0,0,1,0,1Z"/><path class="cls-1" d="M51.55,6.26a.5.5,0,0,1-.32-.88l2.29-2L51.66.79a.5.5,0,0,1,.82-.58l2.12,3a.5.5,0,0,1-.08.67L51.87,6.14A.49.49,0,0,1,51.55,6.26Z"/></g></g></svg>