<svg xmlns="http://www.w3.org/2000/svg" viewBox="0 0 65.55 59.97"><defs><style>.cls-1{fill:#22366b;}.cls-2{fill:#bad5ea;}.cls-3{fill:#f04e24;}.cls-4{fill:#fff;}</style></defs><title>data-analyst</title><g id="Layer_2" data-name="Layer 2"><g id="final_icons_bios"><path class="cls-1" d="M24.72,46.73a.13.13,0,0,1,.13-.13h1.66a2.45,2.45,0,1,1,0,4.9H24.85a.13.13,0,0,1-.13-.13Zm1.7,3.92a1.6,1.6,0,0,0,0-3.2h-.8v3.2Z"/><path class="cls-1" d="M29.21,51.32l2.18-4.71a.13.13,0,0,1,.12-.08h.07a.12.12,0,0,1,.12.08l2.16,4.71a.12.12,0,0,1-.12.18h-.61a.2.2,0,0,1-.2-.14l-.34-.76H30.48l-.34.76a.21.21,0,0,1-.2.14h-.61A.12.12,0,0,1,29.21,51.32Zm3-1.49-.7-1.54h0l-.69,1.54Z"/><path class="cls-1" d="M34.89,47.44H33.82a.13.13,0,0,1-.13-.13v-.57a.13.13,0,0,1,.13-.13h3.06a.13.13,0,0,1,.13.13v.57a.13.13,0,0,1-.13.13H35.8v3.93a.14.14,0,0,1-.13.13H35a.14.14,0,0,1-.13-.13Z"/><path class="cls-1" d="M36.83,51.32,39,46.61a.13.13,0,0,1,.12-.08h.07a.12.12,0,0,1,.12.08l2.16,4.71a.12.12,0,0,1-.12.18h-.61a.2.2,0,0,1-.2-.14l-.34-.76H38.11l-.34.76a.21.21,0,0,1-.2.14H37A.12.12,0,0,1,36.83,51.32Zm3-1.49-.7-1.54h0l-.69,1.54Z"/><path class="cls-1" d="M18.15,59.72,20.32,55a.13.13,0,0,1,.12-.08h.07a.12.12,0,0,1,.12.08l2.16,4.71a.12.12,0,0,1-.12.18h-.61a.2.2,0,0,1-.2-.14L21.52,59H19.42l-.34.76a.21.21,0,0,1-.2.14h-.61A.12.12,0,0,1,18.15,59.72Zm3-1.49-.7-1.54h0l-.69,1.54Z"/><path class="cls-1" d="M23.42,55.06a.13.13,0,0,1,.13-.13h.17L26.65,58h0V55.13a.13.13,0,0,1,.13-.13h.64a.14.14,0,0,1,.13.13v4.71a.13.13,0,0,1-.13.13h-.17l-2.93-3.21h0v3a.13.13,0,0,1-.13.13h-.64a.14.14,0,0,1-.13-.13Z"/><path class="cls-1" d="M28.2,59.72,30.38,55a.13.13,0,0,1,.12-.08h.07a.12.12,0,0,1,.12.08l2.16,4.71a.12.12,0,0,1-.12.18h-.61a.2.2,0,0,1-.2-.14L31.57,59H29.47l-.34.76a.21.21,0,0,1-.2.14h-.61A.12.12,0,0,1,28.2,59.72Zm3-1.49-.7-1.54h0l-.69,1.54Z"/><path class="cls-1" d="M33.48,55.13a.13.13,0,0,1,.13-.13h.64a.14.14,0,0,1,.13.13v3.93h1.79a.13.13,0,0,1,.13.13v.57a.13.13,0,0,1-.13.13H33.61a.13.13,0,0,1-.13-.13Z"/><path class="cls-1" d="M37.61,57.54,36,55.2a.13.13,0,0,1,.11-.2h.71a.14.14,0,0,1,.11.06l1.12,1.61,1.12-1.61A.14.14,0,0,1,39.3,55H40a.13.13,0,0,1,.11.2l-1.62,2.33v2.23a.14.14,0,0,1-.13.13h-.64a.13.13,0,0,1-.13-.13Z"/><path class="cls-1" d="M40.46,59.22l.25-.43a.16.16,0,0,1,.24,0,2.31,2.31,0,0,0,1.06.43.58.58,0,0,0,.64-.54c0-.36-.3-.6-.89-.84s-1.32-.69-1.32-1.51A1.4,1.4,0,0,1,42,54.93a2.47,2.47,0,0,1,1.4.47.17.17,0,0,1,0,.23l-.27.4a.18.18,0,0,1-.25.08,2.31,2.31,0,0,0-1-.39.56.56,0,0,0-.62.49c0,.33.26.55.83.78s1.46.68,1.46,1.58A1.48,1.48,0,0,1,42,60a2.26,2.26,0,0,1-1.54-.55C40.43,59.36,40.4,59.33,40.46,59.22Z"/><path class="cls-1" d="M45.2,55.84H44.13a.13.13,0,0,1-.13-.13v-.57a.13.13,0,0,1,.13-.13h3.06a.13.13,0,0,1,.13.13v.57a.13.13,0,0,1-.13.13H46.12v3.93a.14.14,0,0,1-.13.13h-.65a.14.14,0,0,1-.13-.13Z"/><path class="cls-1" d="M65.05,41H.5a.5.5,0,0,1,0-1H65.05a.5.5,0,0,1,0,1Z"/><path class="cls-2" d="M29.89,32.89V23.25a.6.6,0,0,0-.6-.6h-4a.6.6,0,0,0,0,1.2h3.4v9a2.6,2.6,0,1,0,1.21,0Zm-.6,3.93a1.4,1.4,0,1,1,1.4-1.4A1.4,1.4,0,0,1,29.29,36.82Z"/><path class="cls-2" d="M30.69,35.42a1.4,1.4,0,1,1-1.4-1.4A1.41,1.41,0,0,1,30.69,35.42Z"/><path class="cls-2" d="M36.29,32.89V23.25a.6.6,0,0,0-.6-.6h-4a.6.6,0,0,0,0,1.2h3.4v9a2.6,2.6,0,1,0,1.21,0Zm-.6,3.93a1.4,1.4,0,1,1,1.4-1.4A1.4,1.4,0,0,1,35.7,36.82Z"/><path class="cls-2" d="M37.1,35.42A1.4,1.4,0,1,1,35.7,34,1.41,1.41,0,0,1,37.1,35.42Z"/><path class="cls-2" d="M46.51,28.8a2.61,2.61,0,0,0-2.53,2H42.7V23.25a.6.6,0,0,0-.6-.6h-4a.6.6,0,0,0,0,1.2h3.4v7.56a.6.6,0,0,0,.61.6H44a2.6,2.6,0,1,0,2.53-3.2Zm0,4a1.4,1.4,0,1,1,1.4-1.4A1.4,1.4,0,0,1,46.51,32.81Z"/><circle class="cls-2" cx="46.51" cy="31.41" r="1.4"/><path class="cls-2" d="M49.89,13.31a6.52,6.52,0,0,0-3.13-2.13A11.38,11.38,0,0,0,25.69,5.8a5.19,5.19,0,0,0-6.63,3.86,7.22,7.22,0,0,0,1.82,14.2h1.4v7H21A2.6,2.6,0,1,0,21,32h1.87a.6.6,0,0,0,.6-.6V23.25a.6.6,0,0,0-.6-.6h-2A6,6,0,0,1,19.7,10.74a.6.6,0,0,0,.48-.51,4,4,0,0,1,5.54-3.14.6.6,0,0,0,.76-.26,10.17,10.17,0,0,1,19.08,4.82.6.6,0,0,0,.47.58,5.28,5.28,0,0,1-1.2,10.43h-.33a.6.6,0,0,0,0,1.2h.33a6.48,6.48,0,0,0,5.05-10.54ZM18.47,32.81a1.4,1.4,0,1,1,1.4-1.4,1.4,1.4,0,0,1-1.4,1.4Zm0,0"/><path class="cls-2" d="M43,12.27h0a.6.6,0,0,0,.6-.61A8.08,8.08,0,0,0,43,8.79a.6.6,0,0,0-1.12.44,6.89,6.89,0,0,1,.47,2.45.6.6,0,0,0,.6.6Zm0,0"/><path class="cls-2" d="M40.76,7.32a.6.6,0,1,0,.93-.77,8.15,8.15,0,0,0-6.3-3,.6.6,0,0,0,0,1.2,7,7,0,0,1,5.37,2.54Zm0,0"/><path class="cls-3" d="M11.73,15.87h-.45a.5.5,0,0,1-.47-.53.53.53,0,0,1,.53-.47h.34a6.46,6.46,0,0,0,2.39-.44.5.5,0,0,1,.37.93A7.4,7.4,0,0,1,11.73,15.87ZM8.45,15A.5.5,0,0,1,8.21,15a7.48,7.48,0,0,1-2.42-2.08.5.5,0,0,1,.8-.6,6.48,6.48,0,0,0,2.09,1.8.5.5,0,0,1-.24.94Zm8.28-1.3a.5.5,0,0,1-.36-.85,6.45,6.45,0,0,0,1.44-2.36.5.5,0,1,1,.95.33,7.46,7.46,0,0,1-1.67,2.72A.5.5,0,0,1,16.72,13.74ZM5,10.4a.5.5,0,0,1-.49-.4A7.46,7.46,0,0,1,5,5.28a.5.5,0,1,1,.9.43A6.36,6.36,0,0,0,5.3,8.4a6.46,6.46,0,0,0,.14,1.39.5.5,0,0,1-.38.59ZM18.61,8.25a.5.5,0,0,1-.5-.45,6.38,6.38,0,0,0-.86-2.62.5.5,0,0,1,.86-.51,7.36,7.36,0,0,1,1,3,.5.5,0,0,1-.45.55ZM7.28,3.64A.5.5,0,0,1,7,2.76,7.36,7.36,0,0,1,9.79,1.28a.5.5,0,0,1,.26,1A6.35,6.35,0,0,0,7.6,3.53.5.5,0,0,1,7.28,3.64Zm8.37-.39a.5.5,0,0,1-.28-.09,6.35,6.35,0,0,0-2.56-1,.5.5,0,0,1-.41-.58A.51.51,0,0,1,13,1.13a7.35,7.35,0,0,1,3,1.2.5.5,0,0,1-.28.91Z"/><path class="cls-2" d="M49.89,13.31a6.48,6.48,0,0,0-3.14-2.13A11.37,11.37,0,0,0,25.69,5.8a5.13,5.13,0,0,0-1.55-.24,5.22,5.22,0,0,0-5.08,4.09,7.22,7.22,0,0,0,1.82,14.2h1.39v7H21A2.61,2.61,0,1,0,21,32h1.88a.6.6,0,0,0,.6-.6V23.85H44.83a6.48,6.48,0,0,0,5.05-10.54ZM18.46,32.81a1.4,1.4,0,1,1,1.4-1.4A1.4,1.4,0,0,1,18.46,32.81Z"/><circle class="cls-2" cx="18.46" cy="31.41" r="1.4"/><path class="cls-4" d="M49,12.95a6.48,6.48,0,0,0-3.14-2.13A11.37,11.37,0,0,0,24.76,5.44a5.13,5.13,0,0,0-1.55-.24,5.22,5.22,0,0,0-5.08,4.09,7.22,7.22,0,0,0,1.82,14.2h1.39v7H20.07a2.61,2.61,0,1,0,0,1.2h1.88a.6.6,0,0,0,.6-.6V23.49H43.9A6.48,6.48,0,0,0,49,12.95ZM17.53,32.45a1.4,1.4,0,1,1,1.4-1.4A1.4,1.4,0,0,1,17.53,32.45Z"/><circle class="cls-4" cx="17.53" cy="31.05" r="1.4"/><path class="cls-1" d="M29,32.52V22.89a.6.6,0,0,0-.6-.6h-4a.6.6,0,0,0,0,1.2h3.4v9a2.6,2.6,0,1,0,1.21,0Zm-.6,3.93a1.4,1.4,0,1,1,1.4-1.4A1.4,1.4,0,0,1,28.35,36.46Z"/><path class="cls-4" d="M29.75,35.06a1.4,1.4,0,1,1-1.4-1.4A1.41,1.41,0,0,1,29.75,35.06Z"/><path class="cls-1" d="M35.36,32.52V22.89a.6.6,0,0,0-.6-.6h-4a.6.6,0,0,0,0,1.2h3.4v9a2.6,2.6,0,1,0,1.21,0Zm-.6,3.93a1.4,1.4,0,1,1,1.4-1.4A1.4,1.4,0,0,1,34.76,36.46Z"/><path class="cls-4" d="M36.16,35.06a1.4,1.4,0,1,1-1.4-1.4A1.41,1.41,0,0,1,36.16,35.06Z"/><path class="cls-1" d="M45.57,28.44a2.61,2.61,0,0,0-2.53,2H41.77V22.89a.6.6,0,0,0-.6-.6h-4a.6.6,0,0,0,0,1.2h3.4V31a.6.6,0,0,0,.61.6H43a2.6,2.6,0,1,0,2.53-3.2Zm0,4A1.4,1.4,0,1,1,47,31,1.4,1.4,0,0,1,45.57,32.45Z"/><circle class="cls-4" cx="45.57" cy="31.05" r="1.4"/><path class="cls-1" d="M49,12.95a6.52,6.52,0,0,0-3.13-2.13A11.38,11.38,0,0,0,24.76,5.43a5.19,5.19,0,0,0-6.63,3.86,7.22,7.22,0,0,0,1.82,14.2h1.4v7H20.07a2.6,2.6,0,1,0,0,1.2h1.87a.6.6,0,0,0,.6-.6V22.89a.6.6,0,0,0-.6-.6h-2a6,6,0,0,1-1.18-11.91.6.6,0,0,0,.48-.51,4,4,0,0,1,5.54-3.14.6.6,0,0,0,.76-.26,10.17,10.17,0,0,1,19.08,4.82.6.6,0,0,0,.47.58,5.28,5.28,0,0,1-1.2,10.43h-.33a.6.6,0,0,0,0,1.2h.33A6.48,6.48,0,0,0,49,12.95ZM17.53,32.45a1.4,1.4,0,1,1,1.4-1.4,1.4,1.4,0,0,1-1.4,1.4Zm0,0"/><path class="cls-1" d="M42,11.91h0a.6.6,0,0,0,.6-.61,8.08,8.08,0,0,0-.56-2.88A.6.6,0,0,0,41,8.86a6.89,6.89,0,0,1,.47,2.45.6.6,0,0,0,.6.6Zm0,0"/><path class="cls-1" d="M39.83,7a.6.6,0,1,0,.93-.77,8.15,8.15,0,0,0-6.3-3,.6.6,0,0,0,0,1.2A7,7,0,0,1,39.83,7Zm0,0"/><path class="cls-3" d="M14.56,5.7a.27.27,0,0,0-.38,0l-3.3,3L9.34,7A.26.26,0,0,0,9,7l-.59.54a.27.27,0,0,0,0,.38l2.27,2.5a.27.27,0,0,0,.38,0l4.09-3.73a.27.27,0,0,0,0-.38Zm0,0"/></g></g></svg>