<svg xmlns="http://www.w3.org/2000/svg" viewBox="0 0 70.09 60.41"><defs><style>.cls-1{fill:#f04d23;}.cls-2{fill:#22366b;}.cls-3{fill:#f04e24;}.cls-4{opacity:0.52;}.cls-5{fill:#79b1e0;}.cls-6{fill:#fff;}</style></defs><title>data-expert</title><g id="Layer_2" data-name="Layer 2"><g id="final_icons_bios"><polygon class="cls-1" points="53.08 57.51 52.14 56.2 53.75 56.25 54.7 54.96 55.15 56.5 56.67 57.01 55.34 57.91 55.34 59.52 54.06 58.53 52.53 59.02 53.08 57.51"/><polygon class="cls-1" points="18.07 58.07 16.66 57.3 18.13 56.65 18.42 55.07 19.5 56.26 21.09 56.05 20.29 57.44 20.98 58.89 19.41 58.56 18.25 59.67 18.07 58.07"/><path class="cls-2" d="M29.09,47.41a.13.13,0,0,1,.13-.13h1.64a2.42,2.42,0,1,1,0,4.84H29.21a.13.13,0,0,1-.12-.13Zm1.68,3.86a1.58,1.58,0,0,0,0-3.16H30v3.16Z"/><path class="cls-2" d="M33.52,51.94l2.15-4.65a.12.12,0,0,1,.12-.08h.07a.12.12,0,0,1,.12.08l2.13,4.65a.12.12,0,0,1-.12.18h-.6a.2.2,0,0,1-.2-.14l-.34-.75H34.78l-.34.75a.21.21,0,0,1-.2.14h-.6A.12.12,0,0,1,33.52,51.94Zm3-1.47-.69-1.52h0l-.68,1.52Z"/><path class="cls-2" d="M39.13,48.11H38.07a.13.13,0,0,1-.13-.13v-.57a.13.13,0,0,1,.13-.13h3a.13.13,0,0,1,.13.13V48a.13.13,0,0,1-.13.13H40V52a.14.14,0,0,1-.13.13h-.64a.14.14,0,0,1-.13-.13Z"/><path class="cls-2" d="M41,51.94l2.15-4.65a.12.12,0,0,1,.12-.08h.07a.12.12,0,0,1,.12.08l2.13,4.65a.12.12,0,0,1-.12.18h-.6a.2.2,0,0,1-.2-.14l-.34-.75H42.3L42,52a.21.21,0,0,1-.2.14h-.6A.12.12,0,0,1,41,51.94Zm3-1.47-.69-1.52h0l-.68,1.52Z"/><path class="cls-2" d="M25.35,55.71a.13.13,0,0,1,.13-.13h2.81a.13.13,0,0,1,.13.13v.57a.13.13,0,0,1-.13.13h-2v1.13H28a.14.14,0,0,1,.13.13v.57a.13.13,0,0,1-.13.13H26.25v1.21h2a.13.13,0,0,1,.13.13v.57a.13.13,0,0,1-.13.13H25.48a.13.13,0,0,1-.13-.13Z"/><path class="cls-2" d="M30.43,57.93,29,55.77a.12.12,0,0,1,.12-.19H30a.14.14,0,0,1,.11.06L31,57.1h0l.9-1.47a.13.13,0,0,1,.11-.06h.8a.12.12,0,0,1,.12.19l-1.39,2.16,1.44,2.29a.12.12,0,0,1-.12.19h-.75a.14.14,0,0,1-.12-.06l-1-1.58h0l-1,1.58a.15.15,0,0,1-.12.06h-.75c-.12,0-.18-.1-.12-.19Z"/><path class="cls-2" d="M33.78,55.71a.13.13,0,0,1,.13-.13h1.63a1.54,1.54,0,1,1,0,3.08h-.86v1.63a.14.14,0,0,1-.13.13h-.64a.13.13,0,0,1-.13-.13Zm1.7,2.11a.71.71,0,0,0,.71-.72.69.69,0,0,0-.71-.67h-.8v1.39Z"/><path class="cls-2" d="M37.87,55.71a.13.13,0,0,1,.13-.13h2.81a.13.13,0,0,1,.13.13v.57a.13.13,0,0,1-.13.13h-2v1.13h1.71a.14.14,0,0,1,.13.13v.57a.13.13,0,0,1-.13.13H38.77v1.21h2a.13.13,0,0,1,.13.13v.57a.13.13,0,0,1-.13.13H38a.13.13,0,0,1-.13-.13Z"/><path class="cls-2" d="M41.94,55.71a.13.13,0,0,1,.13-.13h2a1.5,1.5,0,0,1,1.51,1.49,1.53,1.53,0,0,1-1,1.4l.95,1.76a.13.13,0,0,1-.12.2h-.73a.12.12,0,0,1-.11-.06l-.92-1.83h-.77v1.76a.14.14,0,0,1-.13.13h-.64a.13.13,0,0,1-.13-.13Zm2,2.07a.7.7,0,0,0,.68-.71A.69.69,0,0,0,44,56.4H42.84v1.38Z"/><path class="cls-2" d="M47.19,56.4H46.13a.13.13,0,0,1-.13-.13v-.57a.13.13,0,0,1,.13-.13h3a.13.13,0,0,1,.13.13v.57a.13.13,0,0,1-.13.13H48.09v3.88a.14.14,0,0,1-.13.13h-.64a.14.14,0,0,1-.13-.13Z"/><path class="cls-3" d="M13.54,22.2h-.05a11.15,11.15,0,0,1-3-.75.5.5,0,0,1,.37-.93,10.12,10.12,0,0,0,2.77.68.5.5,0,0,1,0,1Zm3-.13a.5.5,0,0,1-.09-1q.43-.08.85-.2a10.23,10.23,0,0,0,1.85-.71.5.5,0,1,1,.45.89,11.22,11.22,0,0,1-2,.78q-.47.13-.94.22ZM8,20a.5.5,0,0,1-.31-.11,11.08,11.08,0,0,1-2.17-2.25.5.5,0,1,1,.81-.58,10.13,10.13,0,0,0,2,2.05A.5.5,0,0,1,8,20Zm13.77-.58a.5.5,0,0,1-.34-.87,10.16,10.16,0,0,0,1.79-2.21.5.5,0,0,1,.86.51,11.16,11.16,0,0,1-2,2.43A.5.5,0,0,1,21.82,19.42ZM4.58,15.2a.5.5,0,0,1-.47-.33q-.13-.38-.24-.77a11.16,11.16,0,0,1-.4-3V11a.5.5,0,0,1,1,0v.12a10.15,10.15,0,0,0,.37,2.71c.07.24.14.48.22.71a.5.5,0,0,1-.47.67Zm20.28-.86-.13,0a.5.5,0,0,1-.36-.61,10.09,10.09,0,0,0,.34-2.58v-.25a.5.5,0,0,1,.49-.51h0a.5.5,0,0,1,.5.49v.27A11.09,11.09,0,0,1,25.35,14,.5.5,0,0,1,24.86,14.34ZM4.42,8.54l-.15,0a.5.5,0,0,1-.33-.62A11.14,11.14,0,0,1,5.27,5.06a.5.5,0,1,1,.84.55A10.15,10.15,0,0,0,4.9,8.19.5.5,0,0,1,4.42,8.54Zm20.3-.12a.5.5,0,0,1-.48-.35A10.11,10.11,0,0,0,23,5.5a.5.5,0,1,1,.83-.55A11.08,11.08,0,0,1,25.2,7.77a.5.5,0,0,1-.33.63ZM7.65,3.58a.5.5,0,0,1-.33-.88A11.1,11.1,0,0,1,10,1a.5.5,0,0,1,.42.91A10,10,0,0,0,8,3.46.5.5,0,0,1,7.65,3.58ZM21.44,3.5a.5.5,0,0,1-.32-.12A10.2,10.2,0,0,0,18.7,1.87.5.5,0,1,1,19.1,1a11.17,11.17,0,0,1,2.65,1.66.5.5,0,0,1-.32.88ZM13,1.12a.5.5,0,0,1-.07-1,11.08,11.08,0,0,1,3.13,0,.5.5,0,0,1-.14,1,10.06,10.06,0,0,0-2.85,0Z"/><path class="cls-3" d="M19.71,6.23l-1.19-.67a.45.45,0,0,0-.62.17l-3.73,6.59-3.4-1.94a.45.45,0,0,0-.62.17l-.68,1.19a.47.47,0,0,0,.17.62l5,2.84a.45.45,0,0,0,.62-.17l4.63-8.18A.45.45,0,0,0,19.71,6.23Z"/><g class="cls-4"><path class="cls-5" d="M51.75,37.71l-10.16-31c-.12-.36-.42-.6-.66-.52l-.51.17-15.21,5-6.47,2.12c-.24.07-.34.44-.22.8l1.9,5.8,7,21.36H42.82l8.71-2.85C51.77,38.44,51.87,38.07,51.75,37.71Z"/></g><path class="cls-6" d="M50.49,37.07,40.42,6.31,40.33,6c-.12-.37-.42-.61-.66-.53L25.18,10.25l-7.7,2.52c-.24.07-.34.44-.22.8l2.28,7h0l6.82,20.84H39.6l10.67-3.49C50.51,37.8,50.61,37.43,50.49,37.07Z"/><path class="cls-2" d="M39.68,41.87H26L16.78,13.72a1.33,1.33,0,0,1,.05-1,.84.84,0,0,1,.5-.43L39.51,5a.85.85,0,0,1,.66.06,1.33,1.33,0,0,1,.63.79L51,36.91a1.4,1.4,0,0,1,0,.8.9.9,0,0,1-.57.64Zm-13-1h12.8L50,37.43a.42.42,0,0,0,0-.2h0l-10.16-31A.47.47,0,0,0,39.75,6l-22,7.22a.45.45,0,0,0,0,.19ZM17.64,13.24h0ZM39.83,6h0Z"/><path class="cls-2" d="M28.69,21.36a.5.5,0,0,1-.16-1l11.72-3.84a.5.5,0,1,1,.31,1L28.84,21.33Z"/><path class="cls-2" d="M26.77,15.5a.5.5,0,0,1-.16-1L36,11.47a.5.5,0,1,1,.31,1l-9.35,3.06Z"/><path class="cls-2" d="M29.53,23.93a.5.5,0,0,1-.16-1l11.72-3.84a.5.5,0,1,1,.31,1L29.68,23.9Z"/><path class="cls-2" d="M30.37,26.49a.5.5,0,0,1-.16-1l11.72-3.84a.5.5,0,1,1,.31,1L30.52,26.47Z"/><path class="cls-2" d="M31.21,29.06a.5.5,0,0,1-.16-1l11.72-3.84a.5.5,0,1,1,.31,1L31.36,29Z"/><path class="cls-2" d="M32,31.63a.5.5,0,0,1-.16-1l11.72-3.84a.5.5,0,1,1,.31,1L32.2,31.6Z"/><path class="cls-2" d="M32.89,34.19a.5.5,0,0,1-.16-1l11.72-3.84a.5.5,0,1,1,.31,1L33,34.17Z"/><path class="cls-2" d="M33.73,36.76a.5.5,0,0,1-.16-1L43,32.7a.5.5,0,1,1,.31,1l-9.42,3.08Z"/><circle class="cls-2" cx="23.33" cy="16.46" r="1.92" transform="translate(-3.96 8.07) rotate(-18.12)"/><path class="cls-6" d="M23.33,18.88a2.42,2.42,0,1,1,2.3-3.17h0a2.42,2.42,0,0,1-2.3,3.17Zm0-3.84a1.43,1.43,0,0,0-.44.07,1.42,1.42,0,1,0,1.79.91h0a1.42,1.42,0,0,0-1.34-1Z"/><circle class="cls-5" cx="25.44" cy="22.89" r="1.18" transform="matrix(0.95, -0.31, 0.31, 0.95, -5.86, 9.05)"/><circle class="cls-5" cx="26.97" cy="27.58" r="1.18" transform="matrix(0.95, -0.31, 0.31, 0.95, -7.24, 9.76)"/><circle class="cls-5" cx="28.51" cy="32.27" r="1.18" transform="translate(-8.63 10.47) rotate(-18.12)"/><circle class="cls-5" cx="30.05" cy="36.97" r="1.18" transform="translate(-10.01 11.18) rotate(-18.12)"/><path class="cls-2" d="M69.59,41.87H.5a.5.5,0,0,1,0-1H69.59a.5.5,0,0,1,0,1Z"/></g></g></svg>