<svg xmlns="http://www.w3.org/2000/svg" viewBox="0 0 66.18 53.59"><defs><style>.cls-1{fill:#f04d23;}.cls-2{opacity:0.52;}.cls-3{fill:#79b1e0;}.cls-4{fill:#f04e24;}.cls-5{fill:#22366b;}.cls-6{fill:#bad5ea;}</style></defs><title>expert-trainer</title><g id="Layer_2" data-name="Layer 2"><g id="final_icons_bios"><polygon class="cls-1" points="13.53 51.33 12.6 50.03 14.2 50.08 15.15 48.8 15.59 50.33 17.11 50.83 15.79 51.73 15.78 53.33 14.52 52.35 12.99 52.84 13.53 51.33"/><polygon class="cls-1" points="50.03 51.33 49.1 50.03 50.69 50.08 51.64 48.8 52.09 50.33 53.6 50.83 52.28 51.73 52.27 53.33 51.01 52.35 49.49 52.84 50.03 51.33"/><g class="cls-2"><polygon class="cls-3" points="19.77 17.81 16.59 14.68 21.02 14.06 23.02 10.06 24.98 14.08 29.4 14.74 26.18 17.85 26.91 22.26 22.96 20.16 19 22.22 19.77 17.81"/></g><path class="cls-4" d="M38,19.5h0a12.81,12.81,0,0,1-.11,1.4,3.5,3.5,0,0,0,1,.28c.06-.42.1-.85.12-1.28Zm0,2.88h-.12a.43.43,0,0,0,.23.14h.1a.45.45,0,0,0,.35-.16Zm.37-7.77a2.42,2.42,0,0,0-.08-.25h0l-.89.43,0,.08a.49.49,0,0,0,.48.36H38A.51.51,0,0,0,38.37,14.61ZM25,3.19A16,16,0,0,0,22,3.1a.5.5,0,0,0-.47.53A.53.53,0,0,0,22,4.1a14.79,14.79,0,0,1,2.9.08H25a.5.5,0,0,0,.07-1ZM19.51,4a.5.5,0,0,0-.61-.35A15.11,15.11,0,0,0,16,4.68a.49.49,0,0,0-.23.66.5.5,0,0,0,.45.29.46.46,0,0,0,.22-.06,15.51,15.51,0,0,1,2.71-1A.5.5,0,0,0,19.51,4ZM30.88,5.13a15.52,15.52,0,0,0-2.83-1.25.49.49,0,1,0-.31.94A16,16,0,0,1,30.38,6a.48.48,0,0,0,.25.07.51.51,0,0,0,.44-.26A.51.51,0,0,0,30.88,5.13ZM14.07,6.39a.52.52,0,0,0-.71-.1,16.71,16.71,0,0,0-2.27,2.1.49.49,0,0,0,0,.7.48.48,0,0,0,.33.13.48.48,0,0,0,.38-.17,15.86,15.86,0,0,1,2.13-2A.51.51,0,0,0,14.07,6.39ZM35.55,9.14h0a16,16,0,0,0-2.13-2.22.5.5,0,1,0-.65.76,15.67,15.67,0,0,1,1.48,1.46c.18.2.36.41.53.63a.49.49,0,0,0,.39.19.5.5,0,0,0,.39-.81ZM9.94,10.7a.5.5,0,0,0-.68.18,16.26,16.26,0,0,0-1.32,2.8.5.5,0,0,0,.3.63l.17,0A.48.48,0,0,0,8.88,14a14.94,14.94,0,0,1,1.24-2.62A.51.51,0,0,0,9.94,10.7ZM8.18,16.82a.5.5,0,0,0-1-.15A15.91,15.91,0,0,0,7,19.05c0,.24,0,.48,0,.71a.5.5,0,0,0,.5.48h0A.5.5,0,0,0,8,19.72c0-.22,0-.44,0-.67A15.22,15.22,0,0,1,8.18,16.82Zm1.2,8.5a15.48,15.48,0,0,1-.95-2.73.49.49,0,0,0-.6-.37.5.5,0,0,0-.37.6,15.09,15.09,0,0,0,1,2.92.49.49,0,0,0,.45.29.52.52,0,0,0,.21,0A.5.5,0,0,0,9.38,25.32Zm28.28-.81.13.65,0-.07A.51.51,0,0,0,37.66,24.51ZM12.76,30a14.7,14.7,0,0,1-1.91-2.18.51.51,0,0,0-.7-.11.5.5,0,0,0-.12.7,16.21,16.21,0,0,0,2.05,2.32.48.48,0,0,0,.34.13.49.49,0,0,0,.36-.15A.5.5,0,0,0,12.76,30ZM31.5,31.4a.49.49,0,0,0-.2.47.54.54,0,0,0,.18.11.69.69,0,0,0,.24,0,.64.64,0,0,0,.59-.4l.5-1.23A14.17,14.17,0,0,1,31.5,31.4ZM17.65,33.06a14.89,14.89,0,0,1-2.59-1.29.49.49,0,0,0-.69.16.48.48,0,0,0,.16.68A15.14,15.14,0,0,0,17.29,34a.39.39,0,0,0,.18,0,.5.5,0,0,0,.18-1Zm12,0a.51.51,0,0,0-.66-.26,14.1,14.1,0,0,1-2.76.89.5.5,0,0,0,.11,1h.11a16.26,16.26,0,0,0,2.94-.95A.51.51,0,0,0,29.63,33.07Zm-6.29,1H23a15.82,15.82,0,0,1-2.57-.21.5.5,0,0,0-.16,1A15.44,15.44,0,0,0,23,35h.36a.5.5,0,0,0,.49-.51A.5.5,0,0,0,23.34,34Z" transform="translate(0 -3.06)"/><path class="cls-5" d="M22.05,44.33a.12.12,0,0,1,.12-.12h2.65a.12.12,0,0,1,.12.12v.53a.12.12,0,0,1-.12.12H22.9v1.07h1.61a.13.13,0,0,1,.12.12v.54a.12.12,0,0,1-.12.12H22.9V48h1.93a.12.12,0,0,1,.12.12v.53a.12.12,0,0,1-.12.12H22.18a.12.12,0,0,1-.12-.12Z" transform="translate(0 -3.06)"/><path class="cls-5" d="M26.84,46.43l-1.3-2a.12.12,0,0,1,.11-.18h.76a.13.13,0,0,1,.1.06l.83,1.38h0l.85-1.38a.12.12,0,0,1,.1-.06h.76a.12.12,0,0,1,.11.18l-1.31,2,1.35,2.16a.12.12,0,0,1-.11.18h-.7a.13.13,0,0,1-.11-.06l-.93-1.49h0l-.92,1.49a.14.14,0,0,1-.11.06h-.7a.12.12,0,0,1-.12-.18Z" transform="translate(0 -3.06)"/><path class="cls-5" d="M30,44.33a.12.12,0,0,1,.12-.12h1.53a1.45,1.45,0,1,1,0,2.91h-.81v1.53a.13.13,0,0,1-.12.12h-.6a.12.12,0,0,1-.12-.12Zm1.6,2a.67.67,0,0,0,.67-.68.65.65,0,0,0-.67-.63h-.76v1.31Z" transform="translate(0 -3.06)"/><path class="cls-5" d="M33.87,44.33a.12.12,0,0,1,.12-.12h2.65a.12.12,0,0,1,.12.12v.53a.12.12,0,0,1-.12.12H34.71v1.07h1.61a.13.13,0,0,1,.12.12v.54a.12.12,0,0,1-.12.12H34.71V48h1.93a.12.12,0,0,1,.12.12v.53a.12.12,0,0,1-.12.12H34a.12.12,0,0,1-.12-.12Z" transform="translate(0 -3.06)"/><path class="cls-5" d="M37.7,44.33a.12.12,0,0,1,.12-.12h1.86a1.41,1.41,0,0,1,1.42,1.4,1.44,1.44,0,0,1-1,1.32L41,48.58a.12.12,0,0,1-.11.19h-.68a.11.11,0,0,1-.1-.06L39.27,47h-.72v1.66a.13.13,0,0,1-.12.12h-.6a.12.12,0,0,1-.12-.12Zm1.92,2a.66.66,0,0,0,.64-.66.65.65,0,0,0-.64-.63H38.55v1.3Z" transform="translate(0 -3.06)"/><path class="cls-5" d="M42.66,45h-1a.12.12,0,0,1-.12-.12v-.53a.12.12,0,0,1,.12-.12h2.85a.12.12,0,0,1,.12.12v.53a.12.12,0,0,1-.12.12h-1v3.65a.13.13,0,0,1-.12.12h-.61a.13.13,0,0,1-.12-.12Z" transform="translate(0 -3.06)"/><path class="cls-5" d="M20.7,52.81h-1a.12.12,0,0,1-.12-.12v-.53A.12.12,0,0,1,19.7,52h2.85a.12.12,0,0,1,.12.12v.53a.12.12,0,0,1-.12.12h-1v3.65a.13.13,0,0,1-.12.12h-.61a.13.13,0,0,1-.12-.12Z" transform="translate(0 -3.06)"/><path class="cls-5" d="M23.35,52.15a.12.12,0,0,1,.12-.12h1.86a1.41,1.41,0,0,1,1.42,1.4,1.44,1.44,0,0,1-1,1.32l.89,1.65a.12.12,0,0,1-.11.19h-.68a.11.11,0,0,1-.1-.06l-.87-1.73H24.2v1.66a.13.13,0,0,1-.12.12h-.6a.12.12,0,0,1-.12-.12Zm1.92,2a.66.66,0,0,0,.64-.66.65.65,0,0,0-.64-.63H24.21v1.3Z" transform="translate(0 -3.06)"/><path class="cls-5" d="M27.1,56.42l2-4.38a.12.12,0,0,1,.11-.07h.07a.11.11,0,0,1,.11.07l2,4.38a.11.11,0,0,1-.11.17h-.57a.19.19,0,0,1-.19-.13l-.32-.7H28.29l-.32.7a.19.19,0,0,1-.19.13h-.57A.11.11,0,0,1,27.1,56.42ZM29.92,55l-.65-1.43h0L28.61,55Z" transform="translate(0 -3.06)"/><path class="cls-5" d="M32,52.15a.13.13,0,0,1,.12-.12h.61a.13.13,0,0,1,.12.12v4.31a.13.13,0,0,1-.12.12h-.61a.13.13,0,0,1-.12-.12Z" transform="translate(0 -3.06)"/><path class="cls-5" d="M34.06,52.08a.12.12,0,0,1,.12-.12h.16l2.71,2.88h0V52.15a.12.12,0,0,1,.12-.12h.6a.13.13,0,0,1,.12.12v4.38a.12.12,0,0,1-.12.12h-.16l-2.72-3h0v2.8a.12.12,0,0,1-.12.12h-.59a.13.13,0,0,1-.12-.12Z" transform="translate(0 -3.06)"/><path class="cls-5" d="M39.1,52.15a.12.12,0,0,1,.12-.12h2.65a.12.12,0,0,1,.12.12v.53a.12.12,0,0,1-.12.12H39.95v1.07h1.61a.13.13,0,0,1,.12.12v.54a.12.12,0,0,1-.12.12H39.95v1.14h1.93a.12.12,0,0,1,.12.12v.53a.12.12,0,0,1-.12.12H39.22a.12.12,0,0,1-.12-.12Z" transform="translate(0 -3.06)"/><path class="cls-5" d="M42.93,52.15a.12.12,0,0,1,.12-.12h1.86a1.41,1.41,0,0,1,1.42,1.4,1.44,1.44,0,0,1-1,1.32l.89,1.65a.12.12,0,0,1-.11.19h-.68a.11.11,0,0,1-.1-.06l-.87-1.73h-.72v1.66a.13.13,0,0,1-.12.12h-.6a.12.12,0,0,1-.12-.12Zm1.92,2a.66.66,0,0,0,.64-.66.65.65,0,0,0-.64-.63H43.79v1.3Z" transform="translate(0 -3.06)"/><path class="cls-5" d="M65.68,38.18H.5a.5.5,0,0,1,0-1H65.68a.5.5,0,0,1,0,1Z" transform="translate(0 -3.06)"/><path class="cls-6" d="M31.19,0" transform="translate(0 -3.06)"/><g class="cls-2"><polygon class="cls-3" points="16.47 9.87 16.22 9.62 16.57 9.57 16.73 9.25 16.88 9.57 17.23 9.63 16.98 9.87 17.04 10.22 16.72 10.05 16.41 10.22 16.47 9.87"/></g><g class="cls-2"><polygon class="cls-3" points="21.82 26.49 21.47 26.16 21.95 26.09 22.16 25.66 22.37 26.09 22.84 26.16 22.5 26.5 22.58 26.97 22.16 26.74 21.73 26.96 21.82 26.49"/></g><g class="cls-2"><circle class="cls-3" cx="12.3" cy="13.81" r="0.27"/></g><g class="cls-2"><circle class="cls-3" cx="15.88" cy="20.57" r="0.49"/></g><path class="cls-5" d="M48.73,6.24H42.2a.64.64,0,0,0-.63.64.63.63,0,0,0,.63.63h6.53a.63.63,0,0,0,.64-.63A.64.64,0,0,0,48.73,6.24ZM55.27,13H48.73a.64.64,0,0,0,0,1.28h6.54a.64.64,0,0,0,0-1.28ZM49,15.69H47.83a.64.64,0,1,0,0,1.27H49a.64.64,0,1,0,0-1.27Zm6.23,0H52A.64.64,0,1,0,52,17h3.27a.64.64,0,0,0,0-1.27ZM40,14.29h0a3.82,3.82,0,0,0-.68-.07,3.45,3.45,0,0,0-1,.15h0a3.19,3.19,0,0,0-.89.43,3.47,3.47,0,0,0-1.57,2.91,3.52,3.52,0,0,0,3,3.48,3.43,3.43,0,0,0,.46,0A3.5,3.5,0,0,0,40,14.29Zm-.71,5.65a1.87,1.87,0,0,1-.34,0,2.13,2.13,0,0,1-1-.4h0a2.21,2.21,0,0,1-.91-1.79,2.23,2.23,0,0,1,1.09-1.91.63.63,0,0,0,0,.55.62.62,0,0,0,.86.24,3.37,3.37,0,0,0,1.08-.94,2.23,2.23,0,0,1-.84,4.29Zm3.15,5.69a.64.64,0,0,0-.64.63v.09a.64.64,0,0,0,.64.64.64.64,0,0,0,.63-.64v-.09A.63.63,0,0,0,42.46,25.63ZM58.72,9.13H32.22a.64.64,0,0,0-.64.64v14a.64.64,0,0,0,1.28,0V10.4H58.08V28.73H49a.63.63,0,0,0-.63.63A.64.64,0,0,0,49,30h9.68a.64.64,0,0,0,.63-.64V9.77A.63.63,0,0,0,58.72,9.13ZM51.58,23.06a.64.64,0,0,0-.9,0L46,27.38l-.23-.55c-.75-1.87-2.09-4.33-5-4.44H37.87c-2.91.14-4.23,2.58-5,4.44l-1.75,4.32a.63.63,0,0,0,.17.72.54.54,0,0,0,.18.11.69.69,0,0,0,.24,0,.64.64,0,0,0,.59-.4l.5-1.23,1.25-3.1c.91-2.24,2-3.35,3.43-3.59l.17.8.13.65.07.33L37.36,30a.64.64,0,0,0,.24.56l1.11.9a.65.65,0,0,0,.4.14h.4a.62.62,0,0,0,.39-.14l1.12-.9a.61.61,0,0,0,.23-.56l-.5-4.51.38-1.78c1.47.24,2.52,1.35,3.43,3.59l.57,1.42a.64.64,0,0,0,.45.38.63.63,0,0,0,.57-.16l5.39-5A.63.63,0,0,0,51.58,23.06Zm-11.74.59-.25,1.17H39l-.24-1.17Zm-.53,6.65-.64-.51.41-3.69h.46L40,29.79Z" transform="translate(0 -3.06)"/></g></g></svg>