<svg xmlns="http://www.w3.org/2000/svg" viewBox="0 0 66.53 71.54"><defs><style>.cls-1{opacity:0.52;}.cls-2{fill:#79b1e0;}.cls-3,.cls-8{fill:#fff;}.cls-4,.cls-9{fill:#22366b;}.cls-5,.cls-7{fill:#bad5ea;}.cls-6{fill:#f04e24;}.cls-7,.cls-8,.cls-9{fill-rule:evenodd;}.cls-10{fill:#f04d23;}</style></defs><title>multis-specialist</title><g id="Layer_2" data-name="Layer 2"><g id="final_icons_bios"><g class="cls-1"><path class="cls-2" d="M31.88,47.88A1.18,1.18,0,0,0,31,46.76l-.2,0L29,46.5c-.07-.24-.14-.49-.24-.72A10.32,10.32,0,0,0,28,44.15l1.14-1.46a1.18,1.18,0,0,0-.09-1.56l-.79-.79-1.19-1.18a1.17,1.17,0,0,0-1.56-.08l-1.4,1.12a10.5,10.5,0,0,0-2.5-1l-.06-.56-.14-1.19a1.17,1.17,0,0,0-.83-1,1,1,0,0,0-.35-.06H17.47a1.17,1.17,0,0,0-1.16,1.05l-.2,1.73a10.11,10.11,0,0,0-2.47,1l-1.31-1a1.19,1.19,0,0,0-1.57.09l-2,2a1.18,1.18,0,0,0-.08,1.57l1,1.28a10.9,10.9,0,0,0-1,2.44l-1.62.19a1.18,1.18,0,0,0-1,1.18v2.77a1,1,0,0,0,.06.34,1.19,1.19,0,0,0,1,.83l1,.12.57.06a9.33,9.33,0,0,0,.38,1.15h7.26a4.69,4.69,0,0,1-.72-.58,4.06,4.06,0,0,1-.39-.44,4.61,4.61,0,0,1,6.45-6.48,4.42,4.42,0,0,1,.42.36,4.61,4.61,0,0,1,0,6.51,4.2,4.2,0,0,1-.78.63h7.27A10.86,10.86,0,0,0,29,52.06l1.82-.22a1.18,1.18,0,0,0,1-1.18Z"/><path class="cls-3" d="M28.67,53.22H21.2l.15-.09a4.17,4.17,0,0,0,.77-.62,4.56,4.56,0,0,0,0-6.44,4.24,4.24,0,0,0-.41-.36,4.56,4.56,0,0,0-6.38,6.41,4,4,0,0,0,.38.44,4.64,4.64,0,0,0,.72.58l.14.09H9.07v0a9.47,9.47,0,0,1-.37-1.12L8.15,52l-1-.12a1.23,1.23,0,0,1-1-.86A1,1,0,0,1,6,50.68V47.9a1.23,1.23,0,0,1,1.08-1.23l1.59-.19a11,11,0,0,1,1-2.39l-1-1.25a1.24,1.24,0,0,1,.08-1.64l2-2a1.24,1.24,0,0,1,1.64-.1l1.29,1a10.09,10.09,0,0,1,2.42-1l.19-1.7a1.22,1.22,0,0,1,1.21-1.1h2.78a1.09,1.09,0,0,1,.37.06,1.22,1.22,0,0,1,.87,1l.2,1.72a10.57,10.57,0,0,1,2.45,1l1.37-1.1a1.22,1.22,0,0,1,1.63.08l1.2,1.18.79.79a1.22,1.22,0,0,1,.1,1.62L28.1,44.16a10.41,10.41,0,0,1,.72,1.6c.09.22.15.44.23.69l1.78.21.21,0a1.23,1.23,0,0,1,.88,1.17h0v2.78a1.22,1.22,0,0,1-1.08,1.23l-1.79.22a10.69,10.69,0,0,1-.38,1.08Zm-7.14-.1h7.07A10.69,10.69,0,0,0,29,52v0l1.86-.22a1.12,1.12,0,0,0,1-1.13V47.88A1.13,1.13,0,0,0,31,46.8l-.2,0L29,46.54v0c-.08-.27-.14-.49-.23-.72A10.26,10.26,0,0,0,28,44.18l0,0,1.16-1.49a1.13,1.13,0,0,0-.09-1.49l-.79-.79-1.2-1.18a1.12,1.12,0,0,0-1.5-.08l-1.43,1.14,0,0a10.51,10.51,0,0,0-2.49-1h0l-.21-1.79a1.12,1.12,0,0,0-.8-.94,1,1,0,0,0-.34-.05H17.47a1.12,1.12,0,0,0-1.11,1l-.2,1.76h0a10,10,0,0,0-2.46,1l0,0,0,0-1.31-1a1.14,1.14,0,0,0-1.51.09l-2,2a1.14,1.14,0,0,0-.08,1.5l1.05,1.31,0,0a10.91,10.91,0,0,0-1,2.43v0l-1.65.19a1.12,1.12,0,0,0-1,1.13v2.78a.92.92,0,0,0,.06.32,1.13,1.13,0,0,0,1,.79l1.6.18v0a9.35,9.35,0,0,0,.36,1.11H16.2a4.47,4.47,0,0,1-.6-.5,4,4,0,0,1-.39-.44,4.66,4.66,0,0,1,6.52-6.55,4.1,4.1,0,0,1,.42.37,4.66,4.66,0,0,1,0,6.58A4.25,4.25,0,0,1,21.54,53.12Z"/></g><path class="cls-3" d="M31.09,47.09a1,1,0,0,0-.06-.34,1.14,1.14,0,0,0-1-.83l-1.27-.15-.55-.06a10.67,10.67,0,0,0-1-2.34l1.14-1.46a1.18,1.18,0,0,0-.06-1.52l0,0-1.19-1.18-.79-.79a1.17,1.17,0,0,0-1.56-.08l-1.4,1.12a10.3,10.3,0,0,0-1.78-.81c-.24-.09-.48-.17-.72-.23l-.2-1.75a.8.8,0,0,0,0-.2,1.17,1.17,0,0,0-1.14-.84H16.69a1.17,1.17,0,0,0-1.16,1.05l-.2,1.73a10.11,10.11,0,0,0-2.47,1l-1.31-1a1.19,1.19,0,0,0-1.57.09l-2,2A1.18,1.18,0,0,0,7.94,42L9,43.3a10.9,10.9,0,0,0-1,2.44l-1.62.19a1.18,1.18,0,0,0-1,1.18v2.77A1.2,1.2,0,0,0,6.16,51l.21,0,1.56.18c.06.24.14.49.22.72a9.63,9.63,0,0,0,.51,1.21H27.52a11.75,11.75,0,0,0,.72-1.89l1.82-.22a1.18,1.18,0,0,0,1-1.18Zm-9.73,4.66a4.6,4.6,0,0,1-6.11.39,3.33,3.33,0,0,1-.4-.35,4.61,4.61,0,1,1,6.48-6.56,3.76,3.76,0,0,1,.37.42A4.6,4.6,0,0,1,21.36,51.75Z"/><path class="cls-4" d="M27.83,53.67H8.36l-.14-.28a10.23,10.23,0,0,1-.54-1.27l-.14-.43-1.23-.14-.26,0a1.7,1.7,0,0,1-1.25-1.6V47.12a1.68,1.68,0,0,1,1.47-1.68l1.3-.15a11.44,11.44,0,0,1,.8-1.93l-.82-1a1.67,1.67,0,0,1,.12-2.24l2-2A1.69,1.69,0,0,1,11.85,38l1.05.82a10.56,10.56,0,0,1,2-.81L15,36.6a1.67,1.67,0,0,1,1.66-1.5h2.78a1.62,1.62,0,0,1,1.62,1.2,1.25,1.25,0,0,1,.06.28L21.32,38l.44.15a10.84,10.84,0,0,1,1.55.68l1.14-.91a1.66,1.66,0,0,1,2.22.11l2,2a1.7,1.7,0,0,1,.14,2.22l-.94,1.2a11,11,0,0,1,.76,1.83l1.49.17a1.63,1.63,0,0,1,1.41,1.19,1.42,1.42,0,0,1,.08.47v2.78a1.67,1.67,0,0,1-1.48,1.68l-1.5.18A11.86,11.86,0,0,1,28,53.39Zm-6.77-1H27.2a11.32,11.32,0,0,0,.56-1.53l.09-.32L30,50.56a.67.67,0,0,0,.6-.68V47.09a.51.51,0,0,0,0-.17.66.66,0,0,0-.57-.5l-2.16-.25-.09-.32a10.1,10.1,0,0,0-.92-2.23l-.16-.29L28,41.6a.68.68,0,0,0,0-.87l-2-2a.67.67,0,0,0-.89,0L23.4,40l-.29-.17a9.76,9.76,0,0,0-1.69-.77c-.23-.08-.46-.16-.68-.22l-.33-.09-.27-2.2a.64.64,0,0,0-.65-.48H16.69a.67.67,0,0,0-.67.6l-.24,2.07-.33.09a9.55,9.55,0,0,0-2.35,1l-.29.17-1.58-1.24a.69.69,0,0,0-.91.05l-2,2a.68.68,0,0,0,0,.9l1.24,1.55-.17.29a10.38,10.38,0,0,0-1,2.33l-.09.33-2,.23a.67.67,0,0,0-.6.68v2.78a.7.7,0,0,0,.49.65l.13,0,1.91.22.09.33c.06.23.14.46.21.69a8.94,8.94,0,0,0,.35.87h6.14l-.17-.13a3.75,3.75,0,0,1-.45-.39,5.11,5.11,0,1,1,7.19-7.27,4.47,4.47,0,0,1,.42.48,5.09,5.09,0,0,1-.39,6.73A5,5,0,0,1,21.06,52.67Zm-3-8.25a4.11,4.11,0,0,0-2.89,7,2.8,2.8,0,0,0,.34.29A4.09,4.09,0,0,0,21,51.4h0A4.09,4.09,0,0,0,21.32,46,3.47,3.47,0,0,0,21,45.6,4.11,4.11,0,0,0,18.09,44.42Z"/><path class="cls-5" d="M23.15,25.9a.37.37,0,0,0,.46.18L24,26a.37.37,0,0,0,.23-.43l-.07-.27a2.14,2.14,0,0,0,.38-.35l.27.09a.37.37,0,0,0,.45-.2l.16-.34a.37.37,0,0,0-.14-.47L25,23.83a2.16,2.16,0,0,0,0-.54l.26-.13a.37.37,0,0,0,.18-.46l-.13-.35a.37.37,0,0,0-.43-.23l-.26.06a2.23,2.23,0,0,0-.38-.42l.08-.25a.37.37,0,0,0-.2-.45l-.34-.16a.37.37,0,0,0-.47.14l-.14.22a2.15,2.15,0,0,0-.56,0L22.51,21a.37.37,0,0,0-.46-.18L21.7,21a.37.37,0,0,0-.23.43l.06.24a2.23,2.23,0,0,0-.41.37l-.23-.07a.37.37,0,0,0-.45.2l-.16.34a.37.37,0,0,0,.14.47l.19.12a2.18,2.18,0,0,0,0,.59l-.21.11a.37.37,0,0,0-.18.46l.13.35a.37.37,0,0,0,.43.23l.23-.05a2.24,2.24,0,0,0,.41.44l-.08.23a.37.37,0,0,0,.2.45l.34.16a.37.37,0,0,0,.47-.14l.13-.22a2.17,2.17,0,0,0,.56,0Zm-1.26-2.11a1,1,0,1,1,1.25.58,1,1,0,0,1-1.25-.58Zm0,0"/><path class="cls-5" d="M21,20.52a.37.37,0,0,0,.49,0l.3-.23a.37.37,0,0,0,.09-.48l-.14-.24a2.14,2.14,0,0,0,.26-.45h.28a.37.37,0,0,0,.37-.32l0-.37a.37.37,0,0,0-.28-.41L22.13,18a2.16,2.16,0,0,0-.13-.52l.21-.2a.37.37,0,0,0,0-.49l-.23-.3a.37.37,0,0,0-.48-.09l-.23.14a2.23,2.23,0,0,0-.49-.29V16a.37.37,0,0,0-.32-.37l-.37,0a.37.37,0,0,0-.41.28l-.06.25a2.15,2.15,0,0,0-.55.14L18.93,16a.37.37,0,0,0-.49,0l-.3.23a.37.37,0,0,0-.09.48l.12.21a2.23,2.23,0,0,0-.28.48h-.24a.37.37,0,0,0-.37.32l0,.37a.37.37,0,0,0,.28.41l.22.06a2.18,2.18,0,0,0,.15.57l-.17.16a.37.37,0,0,0,0,.49l.23.3a.37.37,0,0,0,.48.09l.2-.12a2.24,2.24,0,0,0,.52.3v.24a.37.37,0,0,0,.32.37l.37.05a.37.37,0,0,0,.41-.28l.06-.25a2.17,2.17,0,0,0,.54-.15Zm-1.82-1.65a1,1,0,1,1,1.37.19,1,1,0,0,1-1.37-.19Zm0,0"/><path class="cls-5" d="M16.47,27.35a.5.5,0,0,0,.62.24l.48-.18a.5.5,0,0,0,.31-.59l-.09-.37A2.89,2.89,0,0,0,18.3,26l.36.12a.5.5,0,0,0,.61-.27l.21-.46a.5.5,0,0,0-.19-.64l-.32-.2a2.92,2.92,0,0,0,0-.72l.34-.17a.5.5,0,0,0,.24-.62l-.18-.48a.5.5,0,0,0-.59-.31l-.36.09a3,3,0,0,0-.52-.57l.11-.34a.5.5,0,0,0-.27-.61l-.46-.21a.5.5,0,0,0-.64.19l-.18.3a2.91,2.91,0,0,0-.76,0l-.15-.3a.5.5,0,0,0-.62-.24l-.48.18a.5.5,0,0,0-.31.59l.08.32a3,3,0,0,0-.56.51l-.3-.1a.5.5,0,0,0-.61.27l-.21.46a.5.5,0,0,0,.19.64l.26.16a3,3,0,0,0,0,.79l-.28.14a.5.5,0,0,0-.24.62l.18.48a.5.5,0,0,0,.59.31l.31-.07a3,3,0,0,0,.56.6l-.1.31a.5.5,0,0,0,.27.61l.46.21a.5.5,0,0,0,.64-.19l.18-.3a2.93,2.93,0,0,0,.76,0Zm-1.7-2.85a1.32,1.32,0,1,1,1.69.78,1.32,1.32,0,0,1-1.69-.78Zm0,0"/><path class="cls-4" d="M66,53.67H.5a.5.5,0,0,1,0-1H66a.5.5,0,0,1,0,1Z"/><path class="cls-6" d="M2.25,42.76a.5.5,0,0,1-.46-.69s.21-.5.63-1.32a.5.5,0,0,1,.89.46c-.39.76-.59,1.23-.6,1.24A.5.5,0,0,1,2.25,42.76Z"/><path class="cls-6" d="M4.29,39a.49.49,0,0,1-.17,0,.5.5,0,0,1-.3-.64,11.48,11.48,0,0,1,1.48-2.76.5.5,0,1,1,.81.59,10.47,10.47,0,0,0-1.35,2.52A.5.5,0,0,1,4.29,39Zm3.46-4.85a.5.5,0,0,1-.33-.88A15,15,0,0,1,10,31.53a.5.5,0,0,1,.48.88A14,14,0,0,0,8.08,34,.5.5,0,0,1,7.75,34.16ZM39,33.83c-.59,0-1.17,0-1.74-.08l-.72-.07a.5.5,0,0,1,.1-1l.68.07a17.06,17.06,0,0,0,2.25.07.48.48,0,0,1,.52.48.5.5,0,0,1-.48.52Zm3.58-.36a.5.5,0,0,1-.1-1,17.27,17.27,0,0,0,2.8-.82.5.5,0,1,1,.36.93,18.29,18.29,0,0,1-3,.87Zm-9-.13h-.07c-1.06-.15-2-.31-3-.54a.5.5,0,0,1,.22-1c1,.23,1.88.39,2.91.53a.5.5,0,0,1-.07,1Zm-5.87-1.27-.13,0-2.7-.73-.21-.06a.5.5,0,1,1,.26-1l.21.06,2.69.73a.5.5,0,0,1-.13,1Zm20.43-.76a.5.5,0,0,1-.26-.93,18.06,18.06,0,0,0,2.38-1.7.5.5,0,0,1,.64.76,19.09,19.09,0,0,1-2.51,1.79A.5.5,0,0,1,48.19,31.31Zm-35.2,0a.5.5,0,0,1-.15-1,18.4,18.4,0,0,1,3-.7.5.5,0,1,1,.14,1,17.4,17.4,0,0,0-2.85.66Zm8.93-.63h-.08a20.94,20.94,0,0,0-2.93-.24.5.5,0,0,1-.5-.5.49.49,0,0,1,.5-.5,21.89,21.89,0,0,1,3.07.25.5.5,0,0,1-.07,1Zm30.86-3.19a.5.5,0,0,1-.37-.83A22.86,22.86,0,0,0,54.2,24.3a.5.5,0,1,1,.83.56,23.78,23.78,0,0,1-1.87,2.43A.5.5,0,0,1,52.78,27.46Zm3.37-5a.5.5,0,0,1-.44-.73c.44-.85.87-1.75,1.25-2.68a.5.5,0,1,1,.92.38c-.4,1-.83,1.89-1.29,2.77A.5.5,0,0,1,56.16,22.49Zm2.3-5.55-.15,0a.5.5,0,0,1-.32-.63l.07-.21a.5.5,0,1,1,1,.31l-.07.21A.5.5,0,0,1,58.46,16.94Z"/><path class="cls-3" d="M62.72,45.08v4.5a1.23,1.23,0,0,1-1.23,1.24H58.68a2.27,2.27,0,0,1-.3.74,2.38,2.38,0,0,1-.24.33L58,52a2,2,0,0,1-.31.25,2,2,0,0,1-.34.2,2.07,2.07,0,0,1-.38.14,1.84,1.84,0,0,1-.38.08h-.5l-.17,0a2.53,2.53,0,0,1-.39-.11l-.19-.08a3.33,3.33,0,0,1-.5-.32h0a2.37,2.37,0,0,1-.63-.83,2.56,2.56,0,0,1-.16-.5H44.64l0,.2c0,.06,0,.13-.07.19a2.53,2.53,0,0,1-.14.3A2.47,2.47,0,0,1,44,52a2.93,2.93,0,0,1-.31.25,2.32,2.32,0,0,1-.35.2l-.19.08a2.53,2.53,0,0,1-.39.11l-.17,0h-.5a1.34,1.34,0,0,1-.27-.05l-.3-.08-.25-.11L41,52.3h0l-.15-.11h0L40.65,52a2.31,2.31,0,0,1-.5-.72,2.2,2.2,0,0,1-.17-.5H37.16a1.21,1.21,0,0,1-.59-.15l-.08-.05a1.22,1.22,0,0,1-.57-1V44.73h-.41a.42.42,0,0,1-.34-.18.39.39,0,0,1-.07-.23.31.31,0,0,1,0-.13.73.73,0,0,1,0-.1.42.42,0,0,1,.34-.18h.41v-.45h-.41a.42.42,0,0,1-.34-.18.39.39,0,0,1-.07-.23.41.41,0,0,1,.07-.23l.11-.11a.3.3,0,0,1,.1,0,.31.31,0,0,1,.13,0h.41V38.36a1.22,1.22,0,0,1,.36-.87l.18-.16h0a1.24,1.24,0,0,1,.69-.21H57.73a1.65,1.65,0,0,1,.46.07,1.54,1.54,0,0,1,.37.16l.16.1a1.81,1.81,0,0,1,.31.24,1.3,1.3,0,0,1,.16.17l.1.15v0h0L60.37,40l1.9,3.38a1.56,1.56,0,0,1,.09.18,3.45,3.45,0,0,1,.19.5c0,.14.07.27.1.4s0,.16,0,.23A3.52,3.52,0,0,1,62.72,45.08Z"/><g class="cls-1"><path class="cls-2" d="M57,35.42a1.12,1.12,0,0,0-.84-.38H53.45a1.14,1.14,0,0,0-1.13,1.13,1,1,0,0,0,.08.4,1.07,1.07,0,0,0,.46.55h0a1.06,1.06,0,0,0,.58.17h2.71a1.1,1.1,0,0,0,.59-.17h0a1.11,1.11,0,0,0,.54-1A1.12,1.12,0,0,0,57,35.42Zm-.53.75a.31.31,0,0,1-.31.3H53.45a.31.31,0,0,1-.31-.3.18.18,0,0,1,0-.06.31.31,0,0,1,.3-.25h2.71l.09,0A.3.3,0,0,1,56.46,36.17Z"/></g><g class="cls-1"><path class="cls-2" d="M62.72,43.84l-3-5.27a1.7,1.7,0,0,0-.45-.51h0a2,2,0,0,0-1.11-.41H37.62a1.24,1.24,0,0,0-1.24,1.23v4.29H36a.42.42,0,0,0-.4.32s0,.06,0,.09a.41.41,0,0,0,.21.36A.42.42,0,0,0,36,44h.41v.45H36a.4.4,0,0,0-.39.32.38.38,0,0,0,0,.09.41.41,0,0,0,.37.41h.45v4.85a1.21,1.21,0,0,0,.12.53h0a1.24,1.24,0,0,0,1.12.7h2.82a2.26,2.26,0,0,0,.36.85h0a2.2,2.2,0,0,0,.49.52h2.94a2.39,2.39,0,0,0,.86-1.38h9.37a2.34,2.34,0,0,0,.35.83h0a2.13,2.13,0,0,0,.49.53h2.94a2.37,2.37,0,0,0,.86-1.38h2.82a1.23,1.23,0,0,0,1.23-1.24v-4.5A4.12,4.12,0,0,0,62.72,43.84Zm-3.07-3.77,1.7,3h-7.6v-3ZM41.4,51.6a1.52,1.52,0,0,1-.2-.76,1.56,1.56,0,1,1,1.55,1.55A1.54,1.54,0,0,1,41.4,51.6Zm13-1.1H45.11A2.24,2.24,0,0,0,45,50a2.31,2.31,0,0,0-.69-1h0a2.37,2.37,0,0,0-3.86,1.48h-2.8a.42.42,0,0,1-.41-.41v-1h3a.2.2,0,0,0,.2-.21.2.2,0,0,0-.2-.2h-3V38.86a.42.42,0,0,1,.41-.41H58.17a1,1,0,0,1,.51.17A1,1,0,0,1,59,39l.16.28H53.34a.41.41,0,0,0-.41.41V43.5a.41.41,0,0,0,.41.41h8.47l.19.34a3.29,3.29,0,0,1,.35,1.33v3.09h-3a.21.21,0,0,0-.21.2.21.21,0,0,0,.21.21h3v1a.41.41,0,0,1-.41.41h-2.8A2.23,2.23,0,0,0,59,50a2.38,2.38,0,0,0-.69-1,2.37,2.37,0,0,0-3.88,1.47Zm1,1.1a1.52,1.52,0,0,1-.2-.76,1.55,1.55,0,0,1,2.46-1.27,1.57,1.57,0,0,1,.65,1.27,1.55,1.55,0,0,1-2.91.76Z"/></g><path class="cls-4" d="M62.69,44.65c0-.08,0-.15,0-.23s-.06-.27-.1-.4a3.45,3.45,0,0,0-.19-.5,1.53,1.53,0,0,0-.08-.18L60.37,40l-1.07-1.9h0v0l-.1-.15a1.3,1.3,0,0,0-.16-.17,1.81,1.81,0,0,0-.31-.24l-.16-.1a1.54,1.54,0,0,0-.37-.16,1.47,1.47,0,0,0-.47-.08H37.16a1.2,1.2,0,0,0-.69.21h0l-.18.16a1.22,1.22,0,0,0-.36.87v4.29h-.41l-.13,0a.3.3,0,0,0-.1,0l-.11.11a.47.47,0,0,0-.06.23.44.44,0,0,0,.06.23.42.42,0,0,0,.34.18h.41v.45h-.41a.42.42,0,0,0-.34.18.73.73,0,0,0,0,.1.41.41,0,0,0,0,.12.45.45,0,0,0,.06.23.42.42,0,0,0,.34.18h.41v4.85a1.22,1.22,0,0,0,.57,1h0l.08,0a1.21,1.21,0,0,0,.59.15H40a2.2,2.2,0,0,0,.17.5,2.31,2.31,0,0,0,.5.72l.15.13.16.12h0l.28.16.25.11.3.08.31.05h.43l.21,0a2.53,2.53,0,0,0,.39-.11l.19-.08a2.32,2.32,0,0,0,.35-.2A2.93,2.93,0,0,0,44,52a2.47,2.47,0,0,0,.41-.53,2.53,2.53,0,0,0,.14-.3c0-.06.05-.13.07-.19s0-.14.05-.2H54a2.56,2.56,0,0,0,.16.5,2.37,2.37,0,0,0,.63.83h0a3.33,3.33,0,0,0,.5.32l.19.08a2.53,2.53,0,0,0,.39.11l.21,0h.43a2.23,2.23,0,0,0,.41-.08,2.07,2.07,0,0,0,.38-.14,2,2,0,0,0,.34-.2A2,2,0,0,0,58,52l.14-.15a2.38,2.38,0,0,0,.24-.33,2.48,2.48,0,0,0,.29-.74h2.82a1.23,1.23,0,0,0,1.23-1.24v-4.5A3.52,3.52,0,0,0,62.69,44.65Zm-3.2-4.58,1.41,2.51H53.3v-3h5.91ZM40.75,50.34a1.56,1.56,0,0,1,2.93-.76,1.59,1.59,0,0,1,.19.76A1.56,1.56,0,0,1,41.4,51.6,1.54,1.54,0,0,1,40.75,50.34Zm14,0a1.56,1.56,0,1,1,1.55,1.55,1.56,1.56,0,0,1-1.55-1.55ZM58.7,50a2.36,2.36,0,0,0-.37-1A2.37,2.37,0,0,0,54,50H44.66a2.31,2.31,0,0,0-.38-1h0a2.36,2.36,0,0,0-2-1.05A2.38,2.38,0,0,0,40,50h-2.8a.42.42,0,0,1-.41-.41v-1h3a.2.2,0,0,0,.2-.21.2.2,0,0,0-.2-.2h-3V38.36a.41.41,0,0,1,.41-.41H57.72a1.16,1.16,0,0,1,.87.5l.1.17.06.12H52.89a.42.42,0,0,0-.41.41V43a.41.41,0,0,0,.41.41h8.47l.19.34.08.16a3.44,3.44,0,0,1,.27,1.17v3.09h-3a.2.2,0,0,0-.21.2.21.21,0,0,0,.21.21h3v1a.41.41,0,0,1-.41.41Z"/><path class="cls-4" d="M53.35,48.37a.21.21,0,0,1-.2.21H45.59a.21.21,0,0,1,0-.41h7.56a.21.21,0,0,1,.2.2Z"/><path class="cls-4" d="M57,35.42a1.12,1.12,0,0,0-1.05-.72H53.23a1.13,1.13,0,0,0-1.13,1.13,1.11,1.11,0,0,0,.29.75,1.12,1.12,0,0,0,.84.38h2.71a1.13,1.13,0,0,0,1.13-1.13A1,1,0,0,0,57,35.42Zm-4.07.4a.31.31,0,0,1,.31-.3h2.71a.31.31,0,0,1,.31.3.18.18,0,0,1,0,.06.31.31,0,0,1-.3.25H53.23l-.09,0A.3.3,0,0,1,52.92,35.82Z"/><g class="cls-1"><path class="cls-2" d="M47.24,41.92a.71.71,0,0,0-.43-.13h-.58v-.58a.82.82,0,0,0-.39-.7.76.76,0,0,0-.43-.13H43.89a.83.83,0,0,0-.83.83v.58h-.57a.82.82,0,0,0-.82.82v1.53a.3.3,0,0,0,0,.13.8.8,0,0,0,.8.69h.57v.58a.35.35,0,0,0,0,.14.82.82,0,0,0,.81.69h1.52a.82.82,0,0,0,.82-.82v-.58h.58a.82.82,0,0,0,.83-.82V42.6A.8.8,0,0,0,47.24,41.92Zm-5.12,1.66V42.05h1.39v-1.4H45v1.4h1.4v1.52H45V45H43.51V43.57Z"/></g><path class="cls-4" d="M47.24,41.92a.8.8,0,0,0-.8-.69h-.58v-.58a.46.46,0,0,0,0-.14.82.82,0,0,0-.81-.68H43.51a.81.81,0,0,0-.82.82v.58h-.58a.83.83,0,0,0-.83.83v1.52a.79.79,0,0,0,.39.69.71.71,0,0,0,.43.14h.58V45a.83.83,0,0,0,.38.7.77.77,0,0,0,.43.12H45a.81.81,0,0,0,.82-.82V44.4h.58a.83.83,0,0,0,.82-.82V42.05A.32.32,0,0,0,47.24,41.92Zm-.8,1.66H45V45H43.51V43.57H42.12V42.05h1.39v-1.4H45v1.4h1.4Z"/><path class="cls-7" d="M33,24.61a.46.46,0,0,1,.25-.88l5.12,1.48a.46.46,0,1,1-.25.88Zm0,0"/><path class="cls-7" d="M33,26.52a.46.46,0,0,1,.26-.88l4,1.15a.46.46,0,1,1-.26.88Zm0,0"/><path class="cls-7" d="M36.37,20.88a.46.46,0,1,1-.88-.25,24.09,24.09,0,0,0,1-4.61,13.67,13.67,0,0,0-.39-4.33.45.45,0,0,1,.34-.55.46.46,0,0,1,.55.34,14.28,14.28,0,0,1,.41,4.61,25.07,25.07,0,0,1-1,4.79Zm0,0"/><path class="cls-7" d="M38.08,21.38a.46.46,0,1,1-.88-.25,25.17,25.17,0,0,1,1.68-4.6,14.32,14.32,0,0,1,2.81-3.69.45.45,0,0,1,.64,0,.46.46,0,0,1,0,.64,13.6,13.6,0,0,0-2.64,3.46,24.19,24.19,0,0,0-1.61,4.43Zm0,0"/><path class="cls-7" d="M36.29,12a.46.46,0,0,1,.51-.76,5.84,5.84,0,0,1,.71.59l0,0c.33.3.6.55.89.42l.67-.29a.46.46,0,1,1,.35.84l-.67.29c-.83.35-1.31-.07-1.88-.6h0a4.86,4.86,0,0,0-.6-.5Zm0,0"/><path class="cls-7" d="M42.48,2.92a.46.46,0,1,1-.88-.26L42.09,1a.46.46,0,0,1,.88.26Zm0,0"/><path class="cls-7" d="M42,12.7a.46.46,0,1,1,0,.92,4.93,4.93,0,0,0-.78.1h0c-.76.14-1.39.25-1.91-.5l-.41-.59A.46.46,0,0,1,39,12a.45.45,0,0,1,.63.11l.41.6c.18.26.54.2,1,.12h0A6.27,6.27,0,0,1,42,12.7Zm0,0"/><path class="cls-7" d="M46.23,9.1a8.17,8.17,0,0,1-.39,8.52,8.25,8.25,0,0,1-1.75,1.87,28.06,28.06,0,0,1-2.67,1.82,3.71,3.71,0,0,0-2.17,2.56.46.46,0,0,1-.57.31L33.52,22.7a.46.46,0,0,1-.32-.57,3.67,3.67,0,0,0-.48-3.3,27,27,0,0,1-1.31-3,8.17,8.17,0,0,1,1.29-7.88h0a8.12,8.12,0,0,1,2.42-2,8.2,8.2,0,0,1,3-1A8.17,8.17,0,0,1,46.23,9.1ZM46,15a7.23,7.23,0,0,0-.61-5.51,7.31,7.31,0,0,0-1.82-2.16,7.25,7.25,0,0,0-5.32-1.54A7.27,7.27,0,0,0,33.44,8.5l0,0A7.18,7.18,0,0,0,32.12,11a7.22,7.22,0,0,0,.15,4.49,27.44,27.44,0,0,0,1.27,2.91h0c.67,1.35,1,2,.66,3.51l4.3,1.24c.5-1.45,1.13-1.84,2.43-2.65a27.91,27.91,0,0,0,2.59-1.78,7.2,7.2,0,0,0,1.56-1.65A7.3,7.3,0,0,0,46,15Zm0,0"/><path class="cls-7" d="M33.1,28.43a.46.46,0,1,1,.25-.88l2.85.82a.46.46,0,1,1-.25.88Zm0,0"/><path class="cls-7" d="M47,5.92a.46.46,0,0,1-.65,0,.45.45,0,0,1,0-.64L47.65,4a.45.45,0,0,1,.63.65Zm0,0"/><path class="cls-7" d="M37.07,2.58a.45.45,0,1,1-.88.22l-.43-1.73a.46.46,0,0,1,.89-.21Zm0,0"/><path class="cls-7" d="M32.22,5a.46.46,0,1,1-.66.63L30.33,4.34A.46.46,0,0,1,31,3.71Zm0,0"/><path class="cls-7" d="M49.4,10.77a.45.45,0,0,1-.22-.88l1.73-.43a.45.45,0,0,1,.55.33.46.46,0,0,1-.34.55Zm0,0"/><path class="cls-7" d="M34,13.45a.46.46,0,1,1-.91.11,6.47,6.47,0,0,1,0-1.21,6.13,6.13,0,0,1,.22-1.2.46.46,0,1,1,.88.26,4.88,4.88,0,0,0-.19,1,4.93,4.93,0,0,0,0,1Zm1.12-3.87A.46.46,0,0,1,34.41,9a6.13,6.13,0,0,1,.82-.83h0a6.51,6.51,0,0,1,1-.66,6,6,0,0,1,1.08-.46h0a6.55,6.55,0,0,1,1.14-.25,6.4,6.4,0,0,1,1.22,0A6.12,6.12,0,0,1,40.83,7a.46.46,0,0,1-.26.88,5.08,5.08,0,0,0-2-.17,5.26,5.26,0,0,0-1.89.61,5.59,5.59,0,0,0-.82.56,5.23,5.23,0,0,0-.7.71Zm0,0"/><path class="cls-8" d="M38.69,25.27a.47.47,0,0,0-.32-.56l-5.12-1.48a.46.46,0,0,0-.57.32.46.46,0,0,0,.31.56l5.13,1.48A.46.46,0,0,0,38.69,25.27Z"/><path class="cls-8" d="M37.61,26.86a.46.46,0,0,0-.32-.57l-4-1.16a.45.45,0,0,0-.56.32.46.46,0,0,0,.31.56l4,1.16A.48.48,0,0,0,37.61,26.86Z"/><path class="cls-3" d="M42.39,12.94l-.07.07"/><path class="cls-3" d="M39.2,11.42l-.08,0a.27.27,0,0,1,.12,0A0,0,0,0,0,39.2,11.42Z"/><path class="cls-8" d="M42.51,2.42,43,.71a.45.45,0,0,0-.31-.56.45.45,0,0,0-.56.31l-.5,1.71a.46.46,0,1,0,.89.26Z"/><path class="cls-3" d="M42.49,12.64h0a.35.35,0,0,1,0,.16A.41.41,0,0,0,42.49,12.64Zm-.17.37-1.06.21"/><path class="cls-8" d="M46.95,14.8a8.15,8.15,0,0,0-.69-6.21A8,8,0,0,0,44.2,6.16,7.91,7.91,0,0,0,41.37,4.7a8.17,8.17,0,0,0-6.21.69,7.88,7.88,0,0,0-2.42,2h0a8.15,8.15,0,0,0-1.46,2.83A7.91,7.91,0,0,0,31,12.81a8.08,8.08,0,0,0,.49,2.52,26.52,26.52,0,0,0,1.31,3,3.65,3.65,0,0,1,.48,3.29.47.47,0,0,0,.32.57l5.16,1.49a.46.46,0,0,0,.56-.31,3.71,3.71,0,0,1,2.17-2.57A28.43,28.43,0,0,0,44.11,19a8.31,8.31,0,0,0,1.76-1.87A8.18,8.18,0,0,0,46.95,14.8Z"/><path class="cls-8" d="M36.54,28.44a.46.46,0,0,0-.32-.57L33.38,27a.45.45,0,1,0-.26.87l2.85.83A.47.47,0,0,0,36.54,28.44Z"/><path class="cls-8" d="M48.31,3.54a.45.45,0,0,0-.64,0L46.39,4.76a.44.44,0,0,0,0,.64.46.46,0,0,0,.64,0L48.3,4.18A.45.45,0,0,0,48.31,3.54Z"/><path class="cls-8" d="M37.1,2.07,36.67.35a.45.45,0,1,0-.88.21l.43,1.72a.45.45,0,0,0,.88-.21Z"/><path class="cls-8" d="M32.24,4.49,31,3.2a.46.46,0,0,0-.67.63l1.24,1.28a.45.45,0,1,0,.65-.63Z"/><path class="cls-8" d="M51.49,9.29A.45.45,0,0,0,50.94,9l-1.73.43a.45.45,0,0,0,.21.88l1.73-.42A.47.47,0,0,0,51.49,9.29Z"/><path class="cls-8" d="M35.14,9.08"/><path class="cls-9" d="M33,24.1a.46.46,0,0,1,.25-.88l5.12,1.48a.46.46,0,1,1-.25.88Zm0,0"/><path class="cls-9" d="M33.05,26a.46.46,0,0,1,.26-.88l4,1.15a.46.46,0,1,1-.26.88Zm0,0"/><path class="cls-9" d="M36.39,20.38a.46.46,0,1,1-.88-.25,24.09,24.09,0,0,0,1-4.61,13.67,13.67,0,0,0-.39-4.33.45.45,0,0,1,.34-.55A.46.46,0,0,1,37,11a14.28,14.28,0,0,1,.41,4.61,25.07,25.07,0,0,1-1,4.79Zm0,0"/><path class="cls-9" d="M38.1,20.87a.46.46,0,1,1-.88-.25A25.17,25.17,0,0,1,38.9,16a14.32,14.32,0,0,1,2.81-3.69.45.45,0,0,1,.64,0,.46.46,0,0,1,0,.64,13.6,13.6,0,0,0-2.64,3.46,24.19,24.19,0,0,0-1.61,4.43Zm0,0"/><path class="cls-9" d="M36.31,11.46a.46.46,0,0,1,.51-.76,5.84,5.84,0,0,1,.71.59l0,0c.33.3.6.55.89.42l.67-.29a.46.46,0,1,1,.35.84l-.67.29c-.83.35-1.31-.07-1.88-.6h0a4.86,4.86,0,0,0-.6-.5Zm0,0"/><path class="cls-9" d="M42.51,2.41a.46.46,0,1,1-.88-.26L42.12.45A.46.46,0,0,1,43,.71Zm0,0"/><path class="cls-9" d="M42,12.2a.46.46,0,1,1,0,.92,4.93,4.93,0,0,0-.78.1h0c-.76.14-1.39.25-1.91-.5l-.41-.59a.46.46,0,0,1,.12-.64.45.45,0,0,1,.63.11l.41.6c.18.26.54.2,1,.12h0A6.27,6.27,0,0,1,42,12.2Zm0,0"/><path class="cls-9" d="M46.26,8.59a8.17,8.17,0,0,1-.39,8.52A8.25,8.25,0,0,1,44.11,19a28.06,28.06,0,0,1-2.67,1.82,3.71,3.71,0,0,0-2.17,2.56.46.46,0,0,1-.57.31l-5.16-1.49a.46.46,0,0,1-.32-.57,3.67,3.67,0,0,0-.48-3.3,27,27,0,0,1-1.31-3,8.17,8.17,0,0,1,1.29-7.88h0a8.12,8.12,0,0,1,2.42-2,8.2,8.2,0,0,1,3-1,8.17,8.17,0,0,1,8.05,4.17Zm-.19,6A7.23,7.23,0,0,0,45.45,9a7.31,7.31,0,0,0-1.82-2.16,7.25,7.25,0,0,0-5.32-1.54A7.27,7.27,0,0,0,33.46,8l0,0a7.18,7.18,0,0,0-1.3,2.51A7.22,7.22,0,0,0,32.3,15a27.44,27.44,0,0,0,1.27,2.91h0c.67,1.35,1,2,.66,3.51l4.3,1.24C39,21.23,39.66,20.84,41,20a27.91,27.91,0,0,0,2.59-1.78,7.2,7.2,0,0,0,1.56-1.65,7.3,7.3,0,0,0,1-2.06Zm0,0"/><path class="cls-9" d="M33.12,27.93a.46.46,0,1,1,.25-.88l2.85.82a.46.46,0,1,1-.25.88Zm0,0"/><path class="cls-9" d="M47,5.41a.46.46,0,0,1-.65,0,.45.45,0,0,1,0-.64l1.28-1.23a.45.45,0,0,1,.63.65Zm0,0"/><path class="cls-9" d="M37.09,2.07a.45.45,0,1,1-.88.22L35.78.56a.46.46,0,0,1,.89-.21Zm0,0"/><path class="cls-9" d="M32.24,4.49a.46.46,0,1,1-.66.63L30.35,3.84A.46.46,0,0,1,31,3.2Zm0,0"/><path class="cls-9" d="M49.43,10.27a.45.45,0,0,1-.22-.88L50.94,9a.45.45,0,0,1,.55.33.46.46,0,0,1-.34.55Zm0,0"/><path class="cls-9" d="M34,12.95a.46.46,0,1,1-.91.11,6.47,6.47,0,0,1,0-1.21,6.13,6.13,0,0,1,.22-1.2.46.46,0,1,1,.88.26,4.88,4.88,0,0,0-.19,1,4.93,4.93,0,0,0,0,1Zm1.12-3.87a.46.46,0,0,1-.71-.57,6.13,6.13,0,0,1,.82-.83h0a6.51,6.51,0,0,1,1-.66,6,6,0,0,1,1.08-.46h0a6.55,6.55,0,0,1,1.14-.25,6.4,6.4,0,0,1,1.22,0,6.12,6.12,0,0,1,1.19.22.46.46,0,0,1-.26.88,5.08,5.08,0,0,0-2-.17,5.26,5.26,0,0,0-1.89.61,5.59,5.59,0,0,0-.82.56,5.23,5.23,0,0,0-.7.71Zm0,0"/><path class="cls-4" d="M11.84,59a.11.11,0,0,1,.12-.1h.1a.12.12,0,0,1,.11.07l1.44,3.1h0L15.08,59a.11.11,0,0,1,.11-.07h.11a.11.11,0,0,1,.12.1l.77,4.41a.11.11,0,0,1-.12.15h-.6a.14.14,0,0,1-.12-.1L15,61h0L13.8,63.6a.11.11,0,0,1-.11.07h-.12a.12.12,0,0,1-.11-.07L12.3,61h0L11.9,63.5a.13.13,0,0,1-.12.1h-.59a.12.12,0,0,1-.12-.15Z"/><path class="cls-4" d="M17,59.13a.13.13,0,0,1,.13-.12h.62a.12.12,0,0,1,.13.12v2.68a1,1,0,1,0,1.91,0V59.13a.12.12,0,0,1,.13-.12h.62a.13.13,0,0,1,.13.12v2.73a1.83,1.83,0,0,1-3.66,0Z"/><path class="cls-4" d="M21.8,59.13a.12.12,0,0,1,.13-.12h.6a.13.13,0,0,1,.13.12v3.68h1.67a.12.12,0,0,1,.13.12v.54a.12.12,0,0,1-.12.12h-2.4a.12.12,0,0,1-.12-.12Z"/><path class="cls-4" d="M25.47,59.8h-1a.12.12,0,0,1-.12-.12v-.54a.12.12,0,0,1,.13-.12h2.87a.12.12,0,0,1,.13.12v.54a.12.12,0,0,1-.12.12h-1v3.68a.13.13,0,0,1-.12.12h-.61a.13.13,0,0,1-.12-.12Z"/><path class="cls-4" d="M28.13,59.13a.13.13,0,0,1,.13-.12h.61a.13.13,0,0,1,.13.12v4.34a.13.13,0,0,1-.12.12h-.61a.13.13,0,0,1-.12-.12Z"/><path class="cls-4" d="M31.37,63l.24-.41a.15.15,0,0,1,.22,0,2.18,2.18,0,0,0,1,.41.55.55,0,0,0,.6-.51c0-.33-.28-.56-.83-.79S31.35,61,31.35,60.2a1.31,1.31,0,0,1,1.48-1.26,2.3,2.3,0,0,1,1.31.44.16.16,0,0,1,0,.22l-.25.37a.17.17,0,0,1-.23.08,2.16,2.16,0,0,0-.91-.36.52.52,0,0,0-.58.46c0,.31.24.52.77.73s1.37.64,1.37,1.48a1.39,1.39,0,0,1-1.51,1.3,2.11,2.11,0,0,1-1.44-.51C31.34,63.1,31.31,63.07,31.37,63Z"/><path class="cls-4" d="M35.19,59.13a.12.12,0,0,1,.13-.12H38a.12.12,0,0,1,.12.12v.54a.12.12,0,0,1-.12.12H36v1.08h1.62a.13.13,0,0,1,.13.12v.54a.12.12,0,0,1-.12.12H36v1.15H38a.12.12,0,0,1,.12.12v.54a.12.12,0,0,1-.12.12H35.31a.12.12,0,0,1-.12-.12Z"/><path class="cls-4" d="M41.06,58.94a2.22,2.22,0,0,1,1.59.61.12.12,0,0,1,0,.18l-.4.41a.11.11,0,0,1-.16,0,1.55,1.55,0,0,0-1-.39,1.52,1.52,0,0,0,0,3,1.57,1.57,0,0,0,1-.37.12.12,0,0,1,.16,0l.41.42a.13.13,0,0,1,0,.18,2.25,2.25,0,0,1-1.59.64,2.36,2.36,0,1,1,0-4.72Z"/><path class="cls-4" d="M44.12,59.8h-1a.12.12,0,0,1-.12-.12v-.54a.12.12,0,0,1,.13-.12H46a.12.12,0,0,1,.13.12v.54a.12.12,0,0,1-.12.12H45v3.68a.13.13,0,0,1-.12.12h-.61a.13.13,0,0,1-.12-.12Z"/><path class="cls-4" d="M48.77,58.94a2.36,2.36,0,1,1-2.36,2.37A2.36,2.36,0,0,1,48.77,58.94Zm0,3.87a1.51,1.51,0,1,0-1.5-1.5A1.51,1.51,0,0,0,48.77,62.82Z"/><path class="cls-4" d="M52,59.13a.12.12,0,0,1,.13-.12H54a1.42,1.42,0,0,1,1.43,1.41,1.45,1.45,0,0,1-1,1.33l.9,1.67a.12.12,0,0,1-.11.19h-.69a.11.11,0,0,1-.11-.06l-.87-1.74h-.73v1.67a.13.13,0,0,1-.12.12h-.6a.12.12,0,0,1-.12-.12Zm1.93,2a.67.67,0,0,0,.65-.67.65.65,0,0,0-.65-.64H52.85V61.1Z"/><path class="cls-4" d="M16.42,70.83l.24-.41a.15.15,0,0,1,.22,0,2.18,2.18,0,0,0,1,.41.55.55,0,0,0,.6-.51c0-.33-.28-.56-.83-.79s-1.23-.64-1.23-1.42a1.31,1.31,0,0,1,1.48-1.26,2.31,2.31,0,0,1,1.31.44.16.16,0,0,1,0,.22l-.25.37a.17.17,0,0,1-.23.08,2.16,2.16,0,0,0-.91-.36.52.52,0,0,0-.58.46c0,.31.24.52.77.73s1.37.64,1.37,1.48a1.39,1.39,0,0,1-1.51,1.3A2.11,2.11,0,0,1,16.45,71C16.39,71,16.36,70.93,16.42,70.83Z"/><path class="cls-4" d="M20.24,67a.12.12,0,0,1,.13-.12H21.9a1.46,1.46,0,1,1,0,2.93h-.82v1.54a.13.13,0,0,1-.12.12h-.6a.12.12,0,0,1-.12-.12Zm1.61,2a.68.68,0,0,0,.68-.68.65.65,0,0,0-.68-.64h-.76V69Z"/><path class="cls-4" d="M24.12,67a.12.12,0,0,1,.13-.12h2.67A.12.12,0,0,1,27,67v.54a.12.12,0,0,1-.12.12H25v1.08h1.62a.13.13,0,0,1,.13.12v.54a.12.12,0,0,1-.12.12H25v1.15h1.94a.12.12,0,0,1,.12.13v.54a.12.12,0,0,1-.12.12H24.24a.12.12,0,0,1-.12-.12Z"/><path class="cls-4" d="M30,66.81a2.22,2.22,0,0,1,1.59.61.12.12,0,0,1,0,.18l-.4.41A.11.11,0,0,1,31,68a1.55,1.55,0,0,0-1-.39,1.52,1.52,0,0,0,0,3,1.57,1.57,0,0,0,1-.37.12.12,0,0,1,.16,0l.41.42a.13.13,0,0,1,0,.18,2.25,2.25,0,0,1-1.59.64,2.36,2.36,0,1,1,0-4.72Z"/><path class="cls-4" d="M32.44,67a.13.13,0,0,1,.13-.12h.61a.13.13,0,0,1,.13.12v4.34a.13.13,0,0,1-.12.12h-.61a.13.13,0,0,1-.12-.12Z"/><path class="cls-4" d="M33.89,71.3l2-4.42a.12.12,0,0,1,.11-.07h.07a.11.11,0,0,1,.11.07l2,4.42a.12.12,0,0,1-.11.17h-.57a.19.19,0,0,1-.19-.13L37,70.63h-2l-.32.71a.2.2,0,0,1-.19.13H34A.12.12,0,0,1,33.89,71.3Zm2.83-1.4-.66-1.44h0l-.64,1.44Z"/><path class="cls-4" d="M38.84,67a.12.12,0,0,1,.13-.12h.6a.13.13,0,0,1,.13.12v3.68h1.67a.12.12,0,0,1,.13.13v.54a.12.12,0,0,1-.12.12H39a.12.12,0,0,1-.12-.12Z"/><path class="cls-4" d="M42.15,67a.13.13,0,0,1,.13-.12h.61A.13.13,0,0,1,43,67v4.34a.13.13,0,0,1-.12.12h-.61a.13.13,0,0,1-.12-.12Z"/><path class="cls-4" d="M43.93,70.83l.24-.41a.15.15,0,0,1,.22,0,2.18,2.18,0,0,0,1,.41.55.55,0,0,0,.6-.51c0-.33-.28-.56-.83-.79s-1.23-.64-1.23-1.42a1.31,1.31,0,0,1,1.48-1.26,2.31,2.31,0,0,1,1.31.44.16.16,0,0,1,0,.22l-.25.37a.17.17,0,0,1-.23.08,2.16,2.16,0,0,0-.91-.36.52.52,0,0,0-.58.46c0,.31.24.52.77.73s1.37.64,1.37,1.48a1.39,1.39,0,0,1-1.51,1.3A2.11,2.11,0,0,1,44,71C43.9,71,43.87,70.93,43.93,70.83Z"/><path class="cls-4" d="M48.37,67.66h-1a.12.12,0,0,1-.12-.12V67a.12.12,0,0,1,.13-.12h2.87a.12.12,0,0,1,.13.12v.54a.12.12,0,0,1-.12.12h-1v3.68a.13.13,0,0,1-.12.12h-.61a.13.13,0,0,1-.12-.12Z"/><polygon class="cls-10" points="53.24 69.26 52.3 67.95 53.91 68 54.86 66.71 55.31 68.25 56.83 68.76 55.5 69.66 55.49 71.27 54.22 70.28 52.69 70.77 53.24 69.26"/><polygon class="cls-10" points="11.23 69.82 9.82 69.06 11.29 68.4 11.58 66.82 12.65 68.01 14.25 67.8 13.45 69.19 14.14 70.64 12.57 70.31 11.4 71.42 11.23 69.82"/></g></g></svg>