<svg xmlns="http://www.w3.org/2000/svg" viewBox="0 0 71.01 65.47"><defs><style>.cls-1{fill:#22366b;}.cls-2{fill:#fff;}.cls-3{opacity:0.52;}.cls-4{fill:#79b1e0;}.cls-5{fill:#f04e24;}</style></defs><title>healthcare-exp</title><g id="Layer_2" data-name="Layer 2"><g id="final_icons_bios"><path class="cls-1" d="M16.11,53.15a.13.13,0,0,1,.12-.12h.61a.12.12,0,0,1,.12.12v1.73h2.12V53.15a.12.12,0,0,1,.12-.12h.6a.13.13,0,0,1,.12.12v4.31a.13.13,0,0,1-.12.12h-.6a.12.12,0,0,1-.12-.12v-1.8H17v1.8a.12.12,0,0,1-.12.12h-.61a.13.13,0,0,1-.12-.12Z"/><path class="cls-1" d="M21.13,53.15a.12.12,0,0,1,.12-.12H23.9a.12.12,0,0,1,.12.12v.53a.12.12,0,0,1-.12.12H22v1.07h1.61a.13.13,0,0,1,.12.12v.54a.12.12,0,0,1-.12.12H22V56.8H23.9a.12.12,0,0,1,.12.12v.53a.12.12,0,0,1-.12.12H21.25a.12.12,0,0,1-.12-.12Z"/><path class="cls-1" d="M24.37,57.41l2-4.38a.12.12,0,0,1,.11-.07h.07a.11.11,0,0,1,.11.07l2,4.38a.11.11,0,0,1-.11.17H28a.19.19,0,0,1-.19-.13l-.32-.7H25.55l-.32.7a.19.19,0,0,1-.19.13h-.57A.11.11,0,0,1,24.37,57.41ZM27.18,56l-.65-1.43h0L25.87,56Z"/><path class="cls-1" d="M29.29,53.15a.12.12,0,0,1,.12-.12H30a.13.13,0,0,1,.12.12V56.8h1.66a.12.12,0,0,1,.12.12v.53a.12.12,0,0,1-.12.12H29.41a.12.12,0,0,1-.12-.12Z"/><path class="cls-1" d="M32.93,53.8h-1a.12.12,0,0,1-.12-.12v-.53a.12.12,0,0,1,.12-.12h2.85a.12.12,0,0,1,.12.12v.53a.12.12,0,0,1-.12.12h-1v3.65a.13.13,0,0,1-.12.12h-.61a.13.13,0,0,1-.12-.12Z"/><path class="cls-1" d="M35.58,53.15a.13.13,0,0,1,.12-.12h.61a.12.12,0,0,1,.12.12v1.73h2.12V53.15a.12.12,0,0,1,.12-.12h.6a.13.13,0,0,1,.12.12v4.31a.13.13,0,0,1-.12.12h-.6a.12.12,0,0,1-.12-.12v-1.8H36.44v1.8a.12.12,0,0,1-.12.12h-.61a.13.13,0,0,1-.12-.12Z"/><path class="cls-1" d="M42.62,53a2.21,2.21,0,0,1,1.58.61.12.12,0,0,1,0,.18l-.4.41a.1.1,0,0,1-.16,0,1.54,1.54,0,0,0-1-.38,1.51,1.51,0,0,0,0,3,1.56,1.56,0,0,0,1-.37.12.12,0,0,1,.16,0l.4.42a.12.12,0,0,1,0,.18,2.24,2.24,0,0,1-1.58.63,2.35,2.35,0,1,1,0-4.69Z"/><path class="cls-1" d="M44.47,57.41l2-4.38A.12.12,0,0,1,46.6,53h.07a.11.11,0,0,1,.11.07l2,4.38a.11.11,0,0,1-.11.17h-.57a.19.19,0,0,1-.19-.13l-.32-.7H45.65l-.32.7a.19.19,0,0,1-.19.13h-.57A.11.11,0,0,1,44.47,57.41ZM47.28,56l-.65-1.43h0L46,56Z"/><path class="cls-1" d="M49.38,53.15a.12.12,0,0,1,.12-.12h1.86a1.41,1.41,0,0,1,1.42,1.4,1.44,1.44,0,0,1-1,1.32l.89,1.65a.12.12,0,0,1-.11.19h-.68a.11.11,0,0,1-.1-.06L51,55.8h-.72v1.66a.13.13,0,0,1-.12.12h-.6a.12.12,0,0,1-.12-.12Zm1.92,2a.66.66,0,0,0,.64-.66.65.65,0,0,0-.64-.63H50.24v1.3Z"/><path class="cls-1" d="M53.72,53.15a.12.12,0,0,1,.12-.12H56.5a.12.12,0,0,1,.12.12v.53a.12.12,0,0,1-.12.12H54.57v1.07h1.61a.13.13,0,0,1,.12.12v.54a.12.12,0,0,1-.12.12H54.57V56.8H56.5a.12.12,0,0,1,.12.12v.53a.12.12,0,0,1-.12.12H53.85a.12.12,0,0,1-.12-.12Z"/><path class="cls-1" d="M17.24,61a.12.12,0,0,1,.12-.12H20a.12.12,0,0,1,.12.12v.53a.12.12,0,0,1-.12.12H18.08V62.7h1.61a.13.13,0,0,1,.12.12v.54a.12.12,0,0,1-.12.12H18.08v1.14H20a.12.12,0,0,1,.12.12v.53a.12.12,0,0,1-.12.12H17.36a.12.12,0,0,1-.12-.12Z"/><path class="cls-1" d="M22,63.07l-1.3-2a.12.12,0,0,1,.11-.18h.76a.13.13,0,0,1,.1.06l.83,1.38h0l.85-1.38a.12.12,0,0,1,.1-.06h.76a.12.12,0,0,1,.11.18l-1.31,2,1.35,2.16a.12.12,0,0,1-.11.18h-.7a.13.13,0,0,1-.11-.06l-.93-1.49h0l-.92,1.49a.14.14,0,0,1-.11.06h-.7a.12.12,0,0,1-.12-.18Z"/><path class="cls-1" d="M25.19,61a.12.12,0,0,1,.12-.12h1.53a1.45,1.45,0,1,1,0,2.91H26v1.53a.13.13,0,0,1-.12.12h-.6a.12.12,0,0,1-.12-.12Zm1.6,2a.67.67,0,0,0,.67-.68.65.65,0,0,0-.67-.63H26V63Z"/><path class="cls-1" d="M29.05,61a.12.12,0,0,1,.12-.12h2.65A.12.12,0,0,1,32,61v.53a.12.12,0,0,1-.12.12H29.9V62.7h1.61a.13.13,0,0,1,.12.12v.54a.12.12,0,0,1-.12.12H29.9v1.14h1.93a.12.12,0,0,1,.12.12v.53a.12.12,0,0,1-.12.12H29.18a.12.12,0,0,1-.12-.12Z"/><path class="cls-1" d="M32.89,61a.12.12,0,0,1,.12-.12h1.86a1.41,1.41,0,0,1,1.42,1.4,1.44,1.44,0,0,1-1,1.32l.89,1.65a.12.12,0,0,1-.11.19h-.68a.11.11,0,0,1-.1-.06l-.87-1.73h-.72v1.66a.13.13,0,0,1-.12.12H33a.12.12,0,0,1-.12-.12Zm1.92,2a.66.66,0,0,0,.64-.66.65.65,0,0,0-.64-.63H33.74v1.3Z"/><path class="cls-1" d="M37.23,61a.13.13,0,0,1,.12-.12H38a.13.13,0,0,1,.12.12v4.31a.13.13,0,0,1-.12.12h-.61a.13.13,0,0,1-.12-.12Z"/><path class="cls-1" d="M39.27,61a.12.12,0,0,1,.12-.12H42a.12.12,0,0,1,.12.12v.53a.12.12,0,0,1-.12.12H40.12V62.7h1.61a.13.13,0,0,1,.12.12v.54a.12.12,0,0,1-.12.12H40.12v1.14H42a.12.12,0,0,1,.12.12v.53a.12.12,0,0,1-.12.12H39.39a.12.12,0,0,1-.12-.12Z"/><path class="cls-1" d="M43.1,60.9a.12.12,0,0,1,.12-.12h.16l2.71,2.88h0V61a.12.12,0,0,1,.12-.12h.6A.13.13,0,0,1,47,61v4.38a.12.12,0,0,1-.12.12h-.16l-2.72-3h0v2.8a.12.12,0,0,1-.12.12h-.59a.13.13,0,0,1-.12-.12Z"/><path class="cls-1" d="M50.16,60.78a2.21,2.21,0,0,1,1.58.61.12.12,0,0,1,0,.18l-.4.41a.1.1,0,0,1-.16,0,1.54,1.54,0,0,0-1-.38,1.51,1.51,0,0,0,0,3,1.56,1.56,0,0,0,1-.37.12.12,0,0,1,.16,0l.4.42a.12.12,0,0,1,0,.18,2.24,2.24,0,0,1-1.58.63,2.35,2.35,0,1,1,0-4.69Z"/><path class="cls-1" d="M52.6,61a.12.12,0,0,1,.12-.12h2.65a.12.12,0,0,1,.12.12v.53a.12.12,0,0,1-.12.12H53.45V62.7h1.61a.13.13,0,0,1,.12.12v.54a.12.12,0,0,1-.12.12H53.45v1.14h1.93a.12.12,0,0,1,.12.12v.53a.12.12,0,0,1-.12.12H52.73a.12.12,0,0,1-.12-.12Z"/><path class="cls-2" d="M46.32,35.37v6.57a1.8,1.8,0,0,1-1.79,1.8h-4.1A3.31,3.31,0,0,1,40,44.83a3.47,3.47,0,0,1-.35.48l-.2.22a3,3,0,0,1-.45.37,2.89,2.89,0,0,1-.5.29,3,3,0,0,1-.56.2,2.69,2.69,0,0,1-.55.11h-.06l-.31,0-.31,0h-.06l-.25,0a3.69,3.69,0,0,1-.58-.16l-.27-.11a4.85,4.85,0,0,1-.74-.46h0l0,0a3.45,3.45,0,0,1-.92-1.22,3.73,3.73,0,0,1-.24-.74H20c0,.09,0,.2-.07.29s-.07.19-.1.28a3.69,3.69,0,0,1-.21.43,3.6,3.6,0,0,1-.59.77,4.26,4.26,0,0,1-.45.37,3.39,3.39,0,0,1-.51.29l-.27.11a3.69,3.69,0,0,1-.58.16l-.25,0h-.06l-.31,0-.31,0h-.06a2,2,0,0,1-.4-.08,3.27,3.27,0,0,1-.43-.12L15,46.14a3.61,3.61,0,0,1-.42-.24h0l-.22-.16h0l-.22-.2a3.36,3.36,0,0,1-.73-1,3.2,3.2,0,0,1-.25-.74H9.06a1.76,1.76,0,0,1-.86-.22l-.11-.08a1.78,1.78,0,0,1-.83-1.51V34.87H6.67a.61.61,0,0,1-.5-.26.57.57,0,0,1-.1-.33.45.45,0,0,1,0-.19,1.06,1.06,0,0,1,.07-.15.61.61,0,0,1,.5-.26h.59V33H6.67a.61.61,0,0,1-.5-.26.57.57,0,0,1-.1-.33.6.6,0,0,1,.1-.34l.16-.16a.43.43,0,0,1,.15-.07.45.45,0,0,1,.19,0h.59V25.58a1.78,1.78,0,0,1,.53-1.26,3,3,0,0,1,.26-.23h0a1.81,1.81,0,0,1,1-.3H39a2.41,2.41,0,0,1,.67.1,2.24,2.24,0,0,1,.54.23l.23.14a2.63,2.63,0,0,1,.45.35,1.89,1.89,0,0,1,.23.25l.15.22v0h0l0,0h0l1.56,2.76,2.76,4.92a2.28,2.28,0,0,1,.13.26,5,5,0,0,1,.27.73c.06.2.1.4.14.58s0,.23.07.34A5.13,5.13,0,0,1,46.32,35.37Z"/><g class="cls-3"><path class="cls-4" d="M38,21.3a1.63,1.63,0,0,0-1.23-.56H32.8a1.66,1.66,0,0,0-1.65,1.65,1.5,1.5,0,0,0,.11.58,1.56,1.56,0,0,0,.67.8h0a1.54,1.54,0,0,0,.85.25h3.94a1.6,1.6,0,0,0,.86-.25h0a1.62,1.62,0,0,0,.78-1.39A1.64,1.64,0,0,0,38,21.3Zm-.77,1.09a.45.45,0,0,1-.45.44H32.8a.45.45,0,0,1-.45-.44.26.26,0,0,1,0-.08.45.45,0,0,1,.44-.37h3.94a.3.3,0,0,1,.13,0A.44.44,0,0,1,37.19,22.39Z"/></g><g class="cls-3"><path class="cls-4" d="M35.17,31.73V28.58a.3.3,0,1,1,.6,0v3.15a.3.3,0,1,1-.6,0Z"/></g><g class="cls-3"><path class="cls-4" d="M46.32,33.57,42,25.88a2.48,2.48,0,0,0-.66-.75l0,0h0a2.84,2.84,0,0,0-1.62-.59h-30a1.8,1.8,0,0,0-1.81,1.79v6.25H7.32a.61.61,0,0,0-.59.46s0,.08,0,.13a.6.6,0,0,0,.3.52.61.61,0,0,0,.29.08h.59v.66H7.32a.59.59,0,0,0-.58.46.56.56,0,0,0,0,.13.6.6,0,0,0,.54.6h.65v7.07a1.76,1.76,0,0,0,.18.77h0a1.81,1.81,0,0,0,1.63,1h4.1a3.3,3.3,0,0,0,.53,1.24h0a3.2,3.2,0,0,0,.71.76h1.18l.31,0,.31,0h2.49a3.49,3.49,0,0,0,1.25-2H34.28a3.41,3.41,0,0,0,.51,1.22l0,0h0a3.1,3.1,0,0,0,.72.77H36.7l.31,0,.31,0h2.49a3.46,3.46,0,0,0,1.25-2h4.11A1.8,1.8,0,0,0,47,42.68V36.11A6,6,0,0,0,46.32,33.57Zm-4.47-5.5,2.48,4.4H33.24v-4.4ZM15.24,44.88a2.22,2.22,0,0,1-.29-1.1A2.27,2.27,0,1,1,17.21,46,2.24,2.24,0,0,1,15.24,44.88Zm19-1.6H20.65a3.26,3.26,0,0,0-.2-.74,3.37,3.37,0,0,0-1-1.42h0a3.45,3.45,0,0,0-5.63,2.16H9.72a.61.61,0,0,1-.6-.6V41.21h4.35a.3.3,0,0,0,.29-.3.29.29,0,0,0-.29-.29H9.12V26.31a.61.61,0,0,1,.6-.59h30a1.5,1.5,0,0,1,.75.25,1.45,1.45,0,0,1,.52.49l.24.42H32.65a.6.6,0,0,0-.6.59v5.6a.59.59,0,0,0,.6.59H45l.27.5a4.8,4.8,0,0,1,.51,1.94v4.51H41.44a.3.3,0,0,0-.31.29.31.31,0,0,0,.31.3h4.34v1.46a.6.6,0,0,1-.59.6H41.11a3.25,3.25,0,0,0-.2-.74,3.47,3.47,0,0,0-1-1.41,3.45,3.45,0,0,0-5.65,2.14Zm1.44,1.6a2.22,2.22,0,0,1-.29-1.1A2.26,2.26,0,0,1,39,41.93a2.29,2.29,0,0,1,.94,1.85,2.26,2.26,0,0,1-4.24,1.1Z"/></g><path class="cls-1" d="M46.27,34.75c0-.11,0-.22-.07-.34s-.08-.39-.14-.58a5,5,0,0,0-.27-.73,2.24,2.24,0,0,0-.12-.26l-2.77-4.92-1.56-2.76h0l0,0h0v0l-.15-.22a1.89,1.89,0,0,0-.23-.25,2.63,2.63,0,0,0-.45-.35l-.23-.14a2.24,2.24,0,0,0-.54-.23,2.14,2.14,0,0,0-.68-.11h-30a1.74,1.74,0,0,0-1,.31h0a3,3,0,0,0-.26.23,1.78,1.78,0,0,0-.53,1.26v6.25H6.67a.61.61,0,0,0-.19,0,.43.43,0,0,0-.15.07l-.16.16a.68.68,0,0,0-.09.34.64.64,0,0,0,.09.33.61.61,0,0,0,.5.26h.59v.65H6.67a.61.61,0,0,0-.5.26,1.06,1.06,0,0,0-.07.15.59.59,0,0,0,0,.18.65.65,0,0,0,.09.34.61.61,0,0,0,.5.26h.59v7.07a1.78,1.78,0,0,0,.83,1.51h0l.11.07a1.76,1.76,0,0,0,.86.22h4.1a3.2,3.2,0,0,0,.25.74,3.36,3.36,0,0,0,.73,1l.22.19.23.18h0a3.61,3.61,0,0,0,.42.24l.36.16a3.27,3.27,0,0,0,.43.12,3.77,3.77,0,0,0,.45.08h.62l.3,0a3.69,3.69,0,0,0,.58-.16l.27-.11a3.39,3.39,0,0,0,.51-.29,4.26,4.26,0,0,0,.45-.37,3.6,3.6,0,0,0,.59-.77,3.69,3.69,0,0,0,.21-.43c0-.09.08-.19.1-.28s.06-.2.08-.29H33.63a3.73,3.73,0,0,0,.24.74,3.45,3.45,0,0,0,.92,1.22l0,0h0a4.85,4.85,0,0,0,.74.46l.27.11a3.69,3.69,0,0,0,.58.16l.3,0h.62a3.25,3.25,0,0,0,.6-.11,3,3,0,0,0,.56-.2,2.89,2.89,0,0,0,.5-.29,3,3,0,0,0,.45-.37l.2-.22a3.47,3.47,0,0,0,.35-.48,3.61,3.61,0,0,0,.42-1.08h4.11a1.8,1.8,0,0,0,1.79-1.8V35.37A5.13,5.13,0,0,0,46.27,34.75Zm-4.66-6.68,2.06,3.66H32.58v-4.4h8.61ZM14.29,43a2.28,2.28,0,0,1,4.26-1.1,2.31,2.31,0,0,1,.28,1.1,2.27,2.27,0,0,1-3.59,1.84A2.24,2.24,0,0,1,14.29,43Zm20.46,0A2.27,2.27,0,1,1,37,45.31,2.28,2.28,0,0,1,34.75,43Zm5.7-.5a3.44,3.44,0,0,0-.54-1.41,3.46,3.46,0,0,0-6.31,1.41H20a3.37,3.37,0,0,0-.55-1.42h0a3.44,3.44,0,0,0-2.87-1.54,3.47,3.47,0,0,0-3.42,3H9.06a.61.61,0,0,1-.6-.6V40.48h4.35a.3.3,0,0,0,.29-.3.29.29,0,0,0-.29-.29H8.46V25.58a.6.6,0,0,1,.6-.59H39a1.69,1.69,0,0,1,1.26.74l.14.25.09.17H32a.61.61,0,0,0-.6.59v5.6a.59.59,0,0,0,.6.59H44.34l.27.5.12.24a5,5,0,0,1,.39,1.71v4.51H40.78a.3.3,0,0,0-.3.29.3.3,0,0,0,.3.3h4.34v1.46a.6.6,0,0,1-.59.6Z"/><path class="cls-1" d="M32.66,40.18a.3.3,0,0,1-.3.3h-11a.3.3,0,0,1,0-.6h11a.3.3,0,0,1,.3.3Z"/><path class="cls-1" d="M38,21.3a1.64,1.64,0,0,0-1.54-1.06H32.49a1.65,1.65,0,0,0-1.65,1.64A1.62,1.62,0,0,0,31.26,23a1.63,1.63,0,0,0,1.23.56h3.94a1.65,1.65,0,0,0,1.65-1.65A1.51,1.51,0,0,0,38,21.3ZM32,21.88a.45.45,0,0,1,.45-.44h3.94a.45.45,0,0,1,.45.44.26.26,0,0,1,0,.08.45.45,0,0,1-.44.37H32.49a.3.3,0,0,1-.13,0A.44.44,0,0,1,32,21.88Z"/><g class="cls-3"><path class="cls-4" d="M23.75,30.77a1,1,0,0,0-.63-.19h-.84v-.84a1.19,1.19,0,0,0-.57-1,1.11,1.11,0,0,0-.63-.19H18.86a1.21,1.21,0,0,0-1.21,1.21v.84h-.83a1.19,1.19,0,0,0-1.2,1.19V34a.44.44,0,0,0,0,.19,1.17,1.17,0,0,0,1.17,1h.83V36a.5.5,0,0,0,0,.2,1.19,1.19,0,0,0,1.18,1h2.22a1.19,1.19,0,0,0,1.2-1.2v-.85h.84A1.2,1.2,0,0,0,24.33,34V31.77A1.17,1.17,0,0,0,23.75,30.77Zm-7.46,2.42V31h2v-2h2.22v2h2v2.22h-2v2H18.32v-2Z"/></g><path class="cls-1" d="M23.75,30.77a1.17,1.17,0,0,0-1.17-1h-.85v-.84a.67.67,0,0,0,0-.2,1.19,1.19,0,0,0-1.18-1H18.32a1.18,1.18,0,0,0-1.19,1.19v.84h-.84A1.2,1.2,0,0,0,15.08,31v2.22a1.16,1.16,0,0,0,.58,1,1,1,0,0,0,.63.2h.84v.83a1.21,1.21,0,0,0,.56,1,1.12,1.12,0,0,0,.63.18h2.22a1.19,1.19,0,0,0,1.2-1.2v-.83h.85a1.21,1.21,0,0,0,1.2-1.2V31A.46.46,0,0,0,23.75,30.77Zm-1.17,2.42h-2v2H18.32v-2h-2V31h2v-2h2.22v2h2Z"/><path class="cls-1" d="M34.94,31.11V28a.3.3,0,1,1,.6,0v3.15a.3.3,0,1,1-.6,0Z"/><path class="cls-1" d="M34.94,31.11"/><path class="cls-5" d="M70.51,11.58a.5.5,0,0,1-.35-.14L68,9.35l-2.44,2.08a.5.5,0,1,1-.65-.76L67.71,8.3a.5.5,0,0,1,.67,0l2.47,2.4a.5.5,0,0,1-.35.86Z"/><path class="cls-5" d="M59.49,37.4h-3a.5.5,0,0,1,0-1h3a.5.5,0,0,1,0,1Zm3-.17a.5.5,0,0,1-.11-1,6.63,6.63,0,0,0,2.52-1.15.5.5,0,0,1,.6.8,7.63,7.63,0,0,1-2.9,1.32Zm-8.91-.39a.5.5,0,0,1-.2,0,7.28,7.28,0,0,1-2.57-1.9.5.5,0,0,1,.76-.65,6.25,6.25,0,0,0,2.21,1.64.5.5,0,0,1-.2,1Zm13.59-3.07a.5.5,0,0,1-.43-.75,6.62,6.62,0,0,0,.84-2.64.5.5,0,0,1,1,.1,7.63,7.63,0,0,1-1,3A.5.5,0,0,1,67.16,33.76ZM49.78,32.44a.5.5,0,0,1-.48-.37,7.22,7.22,0,0,1-.25-1.9V29a.5.5,0,1,1,1,0v1.21a6.22,6.22,0,0,0,.22,1.63.5.5,0,0,1-.35.61ZM68.1,27.93a.5.5,0,0,1-.5-.5v-3a.5.5,0,0,1,1,0v3A.5.5,0,0,1,68.1,27.93ZM49.24,26.49a.5.5,0,0,1-.49-.38,9.8,9.8,0,0,0-1.08-2.63.5.5,0,1,1,.86-.51,10.82,10.82,0,0,1,1.19,2.9.5.5,0,0,1-.36.61ZM68.1,21.93a.5.5,0,0,1-.5-.5v-3a.5.5,0,0,1,1,0v3A.5.5,0,0,1,68.1,21.93ZM46.22,21.4a.5.5,0,0,1-.34-.13,9.88,9.88,0,0,0-2.34-1.61.5.5,0,0,1,.44-.9,10.86,10.86,0,0,1,2.58,1.78.5.5,0,0,1-.34.87Zm-5.3-2.61h-.08a10,10,0,0,0-1.65-.14H37.92a.5.5,0,0,1,0-1h1.26A11,11,0,0,1,41,17.8a.5.5,0,0,1-.08,1Zm-6-.14h-3a.5.5,0,0,1,0-1h3a.5.5,0,0,1,0,1Zm-6,0h-3a.5.5,0,0,1,0-1h3a.5.5,0,0,1,0,1Zm-6,0h-3a.5.5,0,0,1,0-1h3a.5.5,0,0,1,0,1Zm-6,0h-3a.5.5,0,0,1,0-1h3a.5.5,0,0,1,0,1Zm-6,0h-3a.5.5,0,0,1-.5-.5.5.5,0,0,1,.5-.5h3a.5.5,0,0,1,0,1ZM5,17.9a.49.49,0,0,1-.24-.06,6.49,6.49,0,0,1-2.34-2.21.5.5,0,1,1,.85-.53,5.5,5.5,0,0,0,2,1.87A.5.5,0,0,1,5,17.9Zm63-2a.5.5,0,0,1-.5-.5V12.69a.5.5,0,0,1,1,0v2.74A.5.5,0,0,1,68.1,15.93ZM2,13a.5.5,0,0,1-.5-.47c0-.12,0-.25,0-.37V9.54a.5.5,0,1,1,1,0V12.2c0,.1,0,.21,0,.31A.5.5,0,0,1,2,13Z"/><path class="cls-2" d="M65.31,28c-.35-.71-1.41-.83-2.5-.28l-.32.16-.75-1.5.67-.33a1,1,0,0,0,.43-1.28L54.79,8.59c-.35-.71-2.69-.92-2.72-.92a3.2,3.2,0,0,0-1.28.22L47,.21a.38.38,0,0,0-.69.34L50.1,8.23a3.15,3.15,0,0,0-1,.89l0,.07c-1.08,2.21-1,2.42-.86,2.65L56.3,28a1,1,0,0,0,1.29.43l.67-.33.75,1.5-.33.16C57.58,30.35,57,31.26,57.4,32s1.4.83,2.5.28L64,30.19C65.13,29.65,65.67,28.74,65.31,28Z"/><g class="cls-3"><path class="cls-4" d="M65.85,28.08c-.35-.71-1.41-.83-2.5-.28L63,28l-.75-1.5.67-.33a1,1,0,0,0,.43-1.28L55.32,8.64c-.35-.71-2.69-.92-2.72-.92a3.2,3.2,0,0,0-1.28.22L47.5.26a.38.38,0,0,0-.69.34l3.82,7.68a3.15,3.15,0,0,0-1,.89l0,.07c-1.08,2.21-1,2.42-.86,2.65l8.06,16.19a1,1,0,0,0,1.29.43l.67-.33.75,1.5-.33.16c-1.09.54-1.63,1.46-1.28,2.16s1.4.83,2.5.28l4.14-2.06C65.66,29.69,66.2,28.79,65.85,28.08Zm-1.79,1.13-4.14,2.06a1.66,1.66,0,0,1-.91.21,1.64,1.64,0,0,1,.71-.59l1.35-.67L59.74,27.5a1,1,0,0,0-1.29-.43l-.67.33-1.15-2.3.06,0,2.79-1.39a.38.38,0,1,0-.34-.69l-2.79,1.39-.05,0L56,23.78l.06,0,2.1-1A.38.38,0,1,0,57.8,22l-2.1,1-.05,0-.33-.65.06,0,2.79-1.39a.38.38,0,0,0-.34-.69L55,21.76l-.05,0L49.8,11.54a3,3,0,0,1,.79-1.83,2.65,2.65,0,0,1,2-.85,6.61,6.61,0,0,1,1.81.41l7.91,15.9-.67.33a1,1,0,0,0-.43,1.29l1.34,2.71,1.36-.67a1.66,1.66,0,0,1,.91-.21A1.69,1.69,0,0,1,64.06,29.21Z"/></g><path class="cls-4" d="M53,10.64"/><path class="cls-1" d="M65.31,28c-.35-.71-1.41-.83-2.5-.28l-.32.16-.75-1.5.67-.33a1,1,0,0,0,.43-1.28L54.79,8.59c-.35-.71-2.69-.92-2.72-.92a3.2,3.2,0,0,0-1.28.22L47,.21a.38.38,0,0,0-.69.34L50.1,8.23a3.15,3.15,0,0,0-1,.89l0,.07c-1.08,2.21-1,2.42-.86,2.65L56.3,28a1,1,0,0,0,1.29.43l.67-.33.75,1.5-.33.16C57.58,30.35,57,31.26,57.4,32s1.4.83,2.5.28L64,30.19C65.13,29.65,65.67,28.74,65.31,28Zm-1.79,1.13-4.14,2.06a1.66,1.66,0,0,1-.91.21,1.64,1.64,0,0,1,.71-.59l1.35-.67L59.2,27.45A1,1,0,0,0,57.91,27l-.67.33-1.15-2.3.06,0L59,23.65a.38.38,0,1,0-.34-.69l-2.79,1.39-.05,0-.32-.66.06,0,2.1-1a.38.38,0,1,0-.34-.69l-2.1,1-.05,0-.33-.65.06,0L57.64,21a.38.38,0,0,0-.34-.69l-2.79,1.39-.05,0L49.27,11.5a3,3,0,0,1,.79-1.83,2.65,2.65,0,0,1,2-.85,6.61,6.61,0,0,1,1.81.41l7.91,15.9-.67.33a1,1,0,0,0-.43,1.29L62,29.45l1.36-.67a1.66,1.66,0,0,1,.91-.21A1.69,1.69,0,0,1,63.52,29.16Z"/><path class="cls-1" d="M52.57,10.6"/><circle class="cls-5" cx="2.08" cy="8.32" r="2.08"/><circle class="cls-2" cx="2.08" cy="8.32" r="1.14"/><path class="cls-1" d="M68.39,47H3.21a.5.5,0,0,1,0-1H68.39a.5.5,0,0,1,0,1Z"/></g></g></svg>