<svg xmlns="http://www.w3.org/2000/svg" viewBox="0 0 71 66.87"><defs><style>.cls-1{fill:#fff;}.cls-2{opacity:0.52;}.cls-3{fill:#79b1e0;}.cls-4{fill:#22366b;}.cls-5{fill:#f04e24;}.cls-6{fill:#f04d23;}</style></defs><title>healthcare-expert</title><g id="Layer_2" data-name="Layer 2"><g id="final_icons_bios"><path class="cls-1" d="M46.31,35.73v6.57a1.79,1.79,0,0,1-1.79,1.8h-4.1a3.59,3.59,0,0,1-.12.42,3.06,3.06,0,0,1-.17.41h0a4,4,0,0,1-.48.73,3.56,3.56,0,0,1-.9.74,3.22,3.22,0,0,1-.81.34,3.51,3.51,0,0,1-.55.1l-.37,0-.37,0a3.2,3.2,0,0,1-.54-.1,3.14,3.14,0,0,1-.82-.34,3.88,3.88,0,0,1-.47-.33l0,0a3.35,3.35,0,0,1-.92-1.22h0a3.94,3.94,0,0,1-.24-.74H20c0,.1,0,.2-.07.29s-.07.19-.1.28a2.76,2.76,0,0,1-.26.53,3.45,3.45,0,0,1-1.24,1.21,3.14,3.14,0,0,1-.82.34,3.2,3.2,0,0,1-.54.1l-.37,0-.37,0a3.51,3.51,0,0,1-1.84-.77,3.46,3.46,0,0,1-.94-1.24,3.37,3.37,0,0,1-.25-.74H9.06a1.8,1.8,0,0,1-1-.28l0,0a3,3,0,0,1-.26-.23,1.8,1.8,0,0,1-.53-1.27V35.23H6.66a.6.6,0,0,1-.42-.17L6.16,35a.57.57,0,0,1-.1-.33.45.45,0,0,1,0-.19.73.73,0,0,1,.07-.15.61.61,0,0,1,.5-.26h.59v-.65H6.66a.61.61,0,0,1-.5-.26.57.57,0,0,1-.1-.33.45.45,0,0,1,0-.19.73.73,0,0,1,.07-.15l.16-.16.15-.07a.45.45,0,0,1,.19,0h.59V25.94a1.79,1.79,0,0,1,1.8-1.79H39a2.88,2.88,0,0,1,2.12,1.08,1,1,0,0,1,.16.24h0l0,0h0l1.56,2.76,2.76,4.92a2.29,2.29,0,0,1,.13.26,5.05,5.05,0,0,1,.27.73c.06.2.1.4.14.58A4.65,4.65,0,0,1,46.31,35.73Z"/><g class="cls-2"><path class="cls-3" d="M38,21.63a1.65,1.65,0,0,0-1.22-.54H32.79a1.66,1.66,0,0,0-1.65,1.65,1.5,1.5,0,0,0,.11.58,1.54,1.54,0,0,0,.67.81,1.61,1.61,0,0,0,.87.25h3.94a1.67,1.67,0,0,0,1.65-1.65A1.67,1.67,0,0,0,38,21.63Zm-.76,1.11a.46.46,0,0,1-.45.45H32.79a.46.46,0,0,1-.45-.45.26.26,0,0,1,0-.08.45.45,0,0,1,.44-.36h3.94a.3.3,0,0,1,.13,0A.44.44,0,0,1,37.19,22.75Z"/></g><g class="cls-2"><path class="cls-3" d="M35.16,32.09V28.94a.3.3,0,1,1,.6,0v3.15a.3.3,0,1,1-.6,0Z"/></g><g class="cls-2"><path class="cls-3" d="M46.31,33.93,42,26.24a2.48,2.48,0,0,0-.66-.75l0,0h0a2.84,2.84,0,0,0-1.62-.59h-30a1.81,1.81,0,0,0-1.81,1.8v6.25H7.31a.58.58,0,0,0-.58.45.73.73,0,0,0,0,.14A.58.58,0,0,0,7,34a.54.54,0,0,0,.3.08h.59v.65H7.31a.59.59,0,0,0-.58.46h0s0,.08,0,.12a.61.61,0,0,0,.54.61h.65V43a1.83,1.83,0,0,0,.18.78h0a1.82,1.82,0,0,0,1.63,1h4.1a3.36,3.36,0,0,0,.53,1.24,3.29,3.29,0,0,0,.72.77h1.12l.37,0,.37,0h2.43a3.43,3.43,0,0,0,1.25-2H34.27a3.26,3.26,0,0,0,.52,1.22l0,0a3.1,3.1,0,0,0,.72.77h1.11l.37,0,.37,0h2.43a3.43,3.43,0,0,0,1.25-2h4.11A1.81,1.81,0,0,0,47,43V36.46A6,6,0,0,0,46.31,33.93Zm-4.47-5.5,2.48,4.4H33.24v-4.4ZM15.23,45.23h0a2.31,2.31,0,0,1-.27-1.08,2.27,2.27,0,0,1,3.61-1.82,2.23,2.23,0,0,1,.93,1.82,2.28,2.28,0,0,1-4.26,1.09Zm19-1.59H20.64a3.26,3.26,0,0,0-.2-.74,3.46,3.46,0,0,0-1-1.42h0a3.51,3.51,0,0,0-2.22-.79,3.46,3.46,0,0,0-3.42,3H9.72a.61.61,0,0,1-.6-.6V41.57h4.35a.29.29,0,0,0,.29-.29.3.3,0,0,0-.29-.3H9.11V26.67a.61.61,0,0,1,.6-.59h30a1.66,1.66,0,0,1,1.26.75l.24.41H32.64a.61.61,0,0,0-.6.59v5.61a.6.6,0,0,0,.6.59H45l.27.49a4.79,4.79,0,0,1,.51,1.94V41H41.43a.31.31,0,0,0-.31.3.3.3,0,0,0,.31.29h4.34V43a.6.6,0,0,1-.59.6H41.1a3.26,3.26,0,0,0-.2-.74,3.56,3.56,0,0,0-1-1.41,3.46,3.46,0,0,0-5.65,2.14Zm1.43,1.59h0a2.31,2.31,0,0,1-.27-1.08,2.26,2.26,0,0,1,2.26-2.26A2.22,2.22,0,0,1,39,42.3h0a2.26,2.26,0,1,1-3.32,2.92Z"/></g><path class="cls-4" d="M46.2,34.77c0-.19-.08-.39-.14-.58a5.05,5.05,0,0,0-.27-.73,2.26,2.26,0,0,0-.12-.26l-2.77-4.92L41.33,25.5h0l0,0h0a1,1,0,0,0-.16-.24A2.88,2.88,0,0,0,39,24.14h-30a1.79,1.79,0,0,0-1.8,1.79v6.25H6.66a.61.61,0,0,0-.19,0l-.15.07-.16.16a.73.73,0,0,0-.07.15.61.61,0,0,0,0,.19.64.64,0,0,0,.09.33.61.61,0,0,0,.5.26h.59V34H6.66a.61.61,0,0,0-.5.26.73.73,0,0,0-.07.15.55.55,0,0,0,0,.18.68.68,0,0,0,.09.34l.08.09a.57.57,0,0,0,.42.18h.59v7.06a1.8,1.8,0,0,0,.53,1.27,3,3,0,0,0,.26.23l0,0h0a1.78,1.78,0,0,0,1,.28h4.1a3.37,3.37,0,0,0,.25.74,3.46,3.46,0,0,0,.94,1.24,3.51,3.51,0,0,0,1.84.77l.37,0,.37,0a3.2,3.2,0,0,0,.54-.1,3.14,3.14,0,0,0,.82-.34,3.45,3.45,0,0,0,1.24-1.21,2.76,2.76,0,0,0,.26-.53c0-.09.08-.19.1-.28s.06-.19.08-.28H33.62a3.94,3.94,0,0,0,.24.74h0a3.35,3.35,0,0,0,.92,1.22l0,0a3.88,3.88,0,0,0,.47.33,3.14,3.14,0,0,0,.82.34,3.2,3.2,0,0,0,.54.1l.37,0,.37,0a3.51,3.51,0,0,0,.55-.1,3.22,3.22,0,0,0,.81-.34,3.56,3.56,0,0,0,.9-.74,4,4,0,0,0,.48-.73h0a3.06,3.06,0,0,0,.17-.41,3.11,3.11,0,0,0,.11-.42h4.11a1.72,1.72,0,0,0,1-.31,1.81,1.81,0,0,0,.79-1.5V35.73A4.65,4.65,0,0,0,46.2,34.77ZM41.6,28.43l2.06,3.66H32.58v-4.4h8.61ZM15.22,45.22a2.22,2.22,0,0,1-.93-1.82,2.27,2.27,0,0,1,2.27-2.26,2.26,2.26,0,0,1,2.27,2.26,2.27,2.27,0,0,1-2.27,2.26,2.22,2.22,0,0,1-1.33-.43Zm20.46,0a2.22,2.22,0,0,1-.93-1.82A2.27,2.27,0,0,1,39,42.3h0a2.31,2.31,0,0,1,.27,1.08A2.26,2.26,0,0,1,37,45.66a2.22,2.22,0,0,1-1.32-.43Zm4.23-3.73a3.46,3.46,0,0,0-6.31,1.41H20a3.36,3.36,0,0,0-.55-1.42h0a3.43,3.43,0,0,0-2.87-1.53,3.46,3.46,0,0,0-3.42,3H9.06a.6.6,0,0,1-.6-.6V40.83H12.8a.29.29,0,0,0,.29-.29.3.3,0,0,0-.29-.3H8.45V25.94a.61.61,0,0,1,.6-.59H39a1.67,1.67,0,0,1,1.26.75l.13.23.1.18H32a.61.61,0,0,0-.6.59V32.7a.6.6,0,0,0,.6.59H44.33l.27.49c0,.08.08.15.12.25a5,5,0,0,1,.39,1.7v4.51H40.77a.3.3,0,0,0-.3.3.3.3,0,0,0,.3.29h4.34v1.46a.59.59,0,0,1-.59.6H40.44A3.49,3.49,0,0,0,39.91,41.49Z"/><path class="cls-4" d="M32.66,40.53a.3.3,0,0,1-.3.3h-11a.3.3,0,0,1,0-.6h11a.3.3,0,0,1,.3.3Z"/><path class="cls-4" d="M38,21.63a1.64,1.64,0,0,0-1.53-1H32.48a1.66,1.66,0,0,0-1.65,1.65,1.67,1.67,0,0,0,1.65,1.64h3.94a1.64,1.64,0,0,0,1.65-1.64A1.48,1.48,0,0,0,38,21.63ZM32,22.25a.45.45,0,0,1,.45-.45h3.94a.45.45,0,0,1,.45.45.26.26,0,0,1,0,.08.45.45,0,0,1-.44.36H32.48a.3.3,0,0,1-.13,0A.44.44,0,0,1,32,22.25Z"/><g class="cls-2"><path class="cls-3" d="M23.75,31.12a1.11,1.11,0,0,0-.63-.19h-.84V30.1a1.2,1.2,0,0,0-.57-1,1.1,1.1,0,0,0-.63-.18H18.86a1.2,1.2,0,0,0-1.21,1.2v.84h-.83a1.2,1.2,0,0,0-1.2,1.19v2.24a.4.4,0,0,0,0,.18,1.17,1.17,0,0,0,1.17,1h.83v.84a.5.5,0,0,0,0,.2,1.19,1.19,0,0,0,1.18,1h2.22a1.19,1.19,0,0,0,1.2-1.2v-.84h.84a1.21,1.21,0,0,0,1.21-1.21V32.12A1.18,1.18,0,0,0,23.75,31.12Zm-7.46,2.42V31.32h2v-2h2.22v2h2v2.22h-2v2H18.31v-2Z"/></g><path class="cls-4" d="M23.75,31.12a1.17,1.17,0,0,0-1.17-1h-.85v-.85a.67.67,0,0,0,0-.2,1.19,1.19,0,0,0-1.18-1H18.31a1.19,1.19,0,0,0-1.19,1.19v.85h-.84a1.2,1.2,0,0,0-1.21,1.2v2.22a1.15,1.15,0,0,0,.58,1,1,1,0,0,0,.63.2h.84v.83a1.2,1.2,0,0,0,.56,1,1.13,1.13,0,0,0,.63.19h2.22a1.2,1.2,0,0,0,1.2-1.21v-.83h.85a1.2,1.2,0,0,0,1.2-1.2V31.32A.48.48,0,0,0,23.75,31.12Zm-1.17,2.42h-2v2H18.31v-2h-2V31.32h2v-2h2.22v2h2Z"/><path class="cls-4" d="M34.93,31.47V28.32a.3.3,0,1,1,.6,0v3.15a.3.3,0,1,1-.6,0Z"/><path class="cls-4" d="M34.93,31.47"/><path class="cls-5" d="M70.5,11.94a.5.5,0,0,1-.35-.14L68,9.71l-2.44,2.08a.5.5,0,0,1-.65-.76l2.79-2.38a.5.5,0,0,1,.67,0l2.47,2.4a.5.5,0,0,1-.35.86Z"/><path class="cls-5" d="M60.67,37.76h-3a.5.5,0,0,1,0-1h3a.5.5,0,0,1,0,1Zm-6-.19h-.12a7.24,7.24,0,0,1-2.86-1.42.5.5,0,1,1,.63-.78,6.25,6.25,0,0,0,2.47,1.22.5.5,0,0,1-.12,1Zm8.92-.34a.5.5,0,0,1-.19-1,6.65,6.65,0,0,0,2.3-1.55.5.5,0,0,1,.72.7,7.66,7.66,0,0,1-2.64,1.78A.5.5,0,0,1,63.6,37.23ZM2,36.18a.5.5,0,0,1-.5-.5v-3a.5.5,0,0,1,1,0v3A.5.5,0,0,1,2,36.18Zm48.21-2.27a.5.5,0,0,1-.45-.29A7.17,7.17,0,0,1,49,30.53a.51.51,0,0,1,.5-.51.49.49,0,0,1,.5.49v0a6.15,6.15,0,0,0,.6,2.66.5.5,0,0,1-.45.71ZM67.65,33a.5.5,0,0,1-.47-.67,6.67,6.67,0,0,0,.41-2.31V29.6a.5.5,0,0,1,1,0v.47a7.68,7.68,0,0,1-.47,2.65A.5.5,0,0,1,67.65,33ZM2,30.18a.5.5,0,0,1-.5-.5v-3a.5.5,0,0,1,1,0v3A.5.5,0,0,1,2,30.18ZM49.44,28a.5.5,0,0,1-.5-.44,11.17,11.17,0,0,0-.73-2.77.5.5,0,1,1,.93-.38,12.17,12.17,0,0,1,.79,3,.5.5,0,0,1-.43.56Zm18.65-.92a.5.5,0,0,1-.5-.5v-3a.5.5,0,0,1,1,0v3A.5.5,0,0,1,68.09,27.1ZM2,24.18a.5.5,0,0,1-.5-.5v-1.4a5.48,5.48,0,0,1,.28-1.73.49.49,0,0,1,.63-.32.5.5,0,0,1,.32.63,4.5,4.5,0,0,0-.23,1.41v1.4A.5.5,0,0,1,2,24.18Zm45.23-1.67a.5.5,0,0,1-.4-.2,11.34,11.34,0,0,0-2-2.06.5.5,0,0,1,.63-.78,12.31,12.31,0,0,1,2.17,2.24.5.5,0,0,1-.4.8ZM68.09,21.1a.5.5,0,0,1-.5-.5v-3a.5.5,0,0,1,1,0v3A.5.5,0,0,1,68.09,21.1ZM3.94,18.81a.5.5,0,0,1-.3-.9,5.45,5.45,0,0,1,3.05-1.12.47.47,0,0,1,.52.48.5.5,0,0,1-.47.52,4.46,4.46,0,0,0-2.5.91A.49.49,0,0,1,3.94,18.81Zm38.63,0a.5.5,0,0,1-.2,0,11.2,11.2,0,0,0-2.74-.82.5.5,0,1,1,.16-1,12.19,12.19,0,0,1,3,.9.5.5,0,0,1-.2,1Zm-5.86-1h-3a.5.5,0,0,1,0-1h3a.5.5,0,0,1,0,1Zm-6,0h-3a.5.5,0,0,1,0-1h3a.5.5,0,1,1,0,1Zm-6,0h-3a.5.5,0,0,1,0-1h3a.5.5,0,1,1,0,1Zm-6,0h-3a.5.5,0,0,1,0-1h3a.5.5,0,1,1,0,1Zm-6,0h-3a.5.5,0,0,1,0-1h3a.5.5,0,0,1,0,1ZM68.09,15.1a.5.5,0,0,1-.5-.5V13a.5.5,0,0,1,1,0V14.6A.5.5,0,0,1,68.09,15.1Z"/><path class="cls-1" d="M64.85,28.74a1.11,1.11,0,0,0-.75-.61,2.6,2.6,0,0,0-1.64.19l-.09,0L62,28.5,61.34,27l.68-.31a1,1,0,0,0,.48-1.26L55.08,8.9c-.25-.54-1.59-.84-2.28-1h0l-.38-.06a2.61,2.61,0,0,0-.85.06,2.79,2.79,0,0,0-.44.11L47.59.23a.15.15,0,0,0-.06-.08A.35.35,0,0,0,47.08,0a.37.37,0,0,0-.19.5l3.52,7.82a3.17,3.17,0,0,0-1,.86l0,.07c-1.17,2.16-1.08,2.38-1,2.61l7.42,16.49a1,1,0,0,0,1,.56h0a.73.73,0,0,0,.25-.07l.69-.31.11.25.58,1.27-.34.15c-1.11.5-1.69,1.4-1.36,2.11a1.28,1.28,0,0,0,1.28.68,3.17,3.17,0,0,0,1.2-.29l4.22-1.9C64.59,30.34,65.17,29.45,64.85,28.74Z"/><g class="cls-2"><path class="cls-3" d="M65.38,28.8a1.28,1.28,0,0,0-1.28-.68,3.17,3.17,0,0,0-1.2.29l-.33.15-.11-.25L61.88,27l.68-.31A1,1,0,0,0,63,25.46L55.61,9c-.32-.73-2.65-1-2.68-1h-.15a3.31,3.31,0,0,0-1.14.18l-.08-.18L48.12.29a.36.36,0,0,0-.5-.19l-.08,0a.37.37,0,0,0-.11.45l3.52,7.82a3.13,3.13,0,0,0-1,.86l0,.07c-1.16,2.16-1.08,2.38-1,2.61l7.42,16.5a.94.94,0,0,0,.47.48h0a1,1,0,0,0,.78,0l.26-.12.42-.19L59,30.17l-.33.14c-1.11.5-1.69,1.4-1.36,2.11a1.14,1.14,0,0,0,.75.61,2.61,2.61,0,0,0,1.74-.23L64,30.92C65.13,30.42,65.71,29.53,65.38,28.8Zm-7.11-1.36a.68.68,0,0,0-.24.07l-.68.3-.11-.25-.94-2.09h.07l2.83-1.28a.38.38,0,0,0,.2-.5.39.39,0,0,0-.51-.2l-.08,0L56,24.76l-.06,0-.12-.27-.17-.4h.06l2.14-1a.39.39,0,0,0,.2-.51.38.38,0,0,0-.51-.2l-.08,0-2.06.92,0,0-.12-.27-.18-.39.06,0L58,21.49a.38.38,0,0,0,.2-.51.39.39,0,0,0-.51-.19l-.08,0-2.75,1.24-.06,0-.12-.26L50,11.66a3,3,0,0,1,.86-1.8,2.68,2.68,0,0,1,1.85-.78h.14a6.48,6.48,0,0,1,1.79.48l7.28,16.2-.68.3a1,1,0,0,0-.48,1.26l1.12,2.51.11.25,1.39-.62.25-.1a1.54,1.54,0,0,1,.66-.08,1.7,1.7,0,0,1-.74.58l-4.22,1.89a1.63,1.63,0,0,1-.92.18,1.24,1.24,0,0,1,.11-.14,1.85,1.85,0,0,1,.62-.42l1.38-.62L59.29,28a.93.93,0,0,0-1-.55Z"/></g><path class="cls-3" d="M53.2,10.88"/><path class="cls-4" d="M64.85,28.74a1.11,1.11,0,0,0-.75-.61,2.6,2.6,0,0,0-1.64.19l-.09,0L62,28.5,61.34,27l.68-.31a1,1,0,0,0,.48-1.26L55.08,8.9c-.25-.54-1.59-.84-2.28-1h0l-.38-.06a2.61,2.61,0,0,0-.85.06,2.79,2.79,0,0,0-.44.11L47.59.23a.15.15,0,0,0-.06-.08A.35.35,0,0,0,47.08,0a.37.37,0,0,0-.19.5l3.52,7.82a3.17,3.17,0,0,0-1,.86l0,.07c-1.17,2.16-1.08,2.38-1,2.61l7.42,16.49a1,1,0,0,0,1,.56h0a.73.73,0,0,0,.25-.07l.69-.31.11.25.58,1.27-.34.15c-1.11.5-1.69,1.4-1.36,2.11a1.28,1.28,0,0,0,1.28.68,3.17,3.17,0,0,0,1.2-.29l4.22-1.9C64.59,30.34,65.17,29.45,64.85,28.74Zm-7,3.13a1.52,1.52,0,0,1,.74-.57L60,30.68l-1.25-2.75a1,1,0,0,0-.48-.48h0a1,1,0,0,0-.77,0l-.25.11-.42.19L55.75,25.4h.07l2.84-1.28a.39.39,0,0,0,.19-.51.38.38,0,0,1,0-.08.4.4,0,0,0-.46-.1l-2.48,1.11-.35.16-.06,0-.3-.67.07,0,2.14-1a.38.38,0,0,0,.19-.5.41.41,0,0,0-.06-.09.39.39,0,0,0-.45-.1l-1.77.79-.37.17,0,0-.3-.66.07,0,2.84-1.27a.39.39,0,0,0,.19-.51l-.06-.08a.36.36,0,0,0-.44-.1l-2.49,1.11-.36.16,0,0L49.45,11.59a3,3,0,0,1,.86-1.79,2.62,2.62,0,0,1,2-.77l.4.06h0a6,6,0,0,1,1.39.42l7.28,16.19-.67.3a1,1,0,0,0-.48,1.27L61.45,30l.42-.18,1-.43a1.65,1.65,0,0,1,.92-.18l-.12.14a1.71,1.71,0,0,1-.61.42l-4.21,1.9a2,2,0,0,1-.27.1A1.47,1.47,0,0,1,57.89,31.87Z"/><path class="cls-4" d="M52.79,10.82"/><path class="cls-4" d="M68.39,47.35H3.21a.5.5,0,0,1,0-1H68.39a.5.5,0,0,1,0,1Z"/><path class="cls-3" d="M15.4,5.93a2.08,2.08,0,0,1,1.13,0l3,.89a6,6,0,0,0-1.25,4l-3-.87a2.08,2.08,0,0,1,0-4m-.18-.65a2.76,2.76,0,0,0-.06,5.31L19,11.73l0-.6A5.34,5.34,0,0,1,20.31,7l.48-.5L16.72,5.3a2.75,2.75,0,0,0-1.49,0Z"/><path class="cls-3" d="M25.17,7.9,21.53,6.83l-.05,0a4.43,4.43,0,0,0-.8.82s-.24.43-.27.4a5.75,5.75,0,0,0-.62,3.65v.08L23.68,13A2.64,2.64,0,0,0,25.17,7.9Zm0,0"/><path class="cls-3" d="M31.12,10.42a1.22,1.22,0,0,1,.38-.54l1.44-1.17a3.51,3.51,0,0,0,1.51,1.93L33,11.78a1.22,1.22,0,0,1-1.92-1.36m-.37-.13a1.62,1.62,0,0,0,2.55,1.8l1.84-1.5-.31-.18a3.14,3.14,0,0,1-1.56-2L33.18,8,31.25,9.58a1.62,1.62,0,0,0-.51.72Z"/><path class="cls-3" d="M35.32,6.36l-1.73,1.4v0a2.6,2.6,0,0,0,.13.66s.13.26.1.26a3.37,3.37,0,0,0,1.56,1.52l0,0,1.84-1.5a1.55,1.55,0,0,0-2-2.41Zm0,0"/><path class="cls-3" d="M55,39.75a1.49,1.49,0,0,1,.81,0L58,40.4a4.27,4.27,0,0,0-.89,2.84L55,42.62a1.49,1.49,0,0,1,0-2.87m-.13-.47a2,2,0,0,0,0,3.8l2.77.82,0-.43a3.82,3.82,0,0,1,.94-3l.34-.36-2.91-.86a2,2,0,0,0-1.07,0Z"/><path class="cls-3" d="M62,41.16l-2.6-.77,0,0a3.16,3.16,0,0,0-.57.59s-.17.31-.19.28a4.11,4.11,0,0,0-.45,2.61V44l2.77.82A1.89,1.89,0,0,0,62,41.16Zm0,0"/><path class="cls-3" d="M28.23,2.11l2.12,4.66a2.57,2.57,0,0,0-2.12-4.66Z"/><path class="cls-3" d="M27.67,2.37A2.57,2.57,0,0,0,29.79,7Z"/><path class="cls-5" d="M2,35.44a2,2,0,1,0,2,2A2,2,0,0,0,2,35.44ZM2,38.5a1.1,1.1,0,1,1,1.09-1.09A1.1,1.1,0,0,1,2,38.5Z"/><path class="cls-4" d="M16.11,54.45a.13.13,0,0,1,.12-.12h.61a.12.12,0,0,1,.12.12v1.73h2.12V54.45a.12.12,0,0,1,.12-.12h.6a.13.13,0,0,1,.12.12v4.31a.13.13,0,0,1-.12.12h-.6a.12.12,0,0,1-.12-.12V57H17v1.8a.12.12,0,0,1-.12.12h-.61a.13.13,0,0,1-.12-.12Z"/><path class="cls-4" d="M21.12,54.45a.12.12,0,0,1,.12-.12H23.9a.12.12,0,0,1,.12.12V55a.12.12,0,0,1-.12.12H22v1.07h1.61a.13.13,0,0,1,.12.12v.54a.12.12,0,0,1-.12.12H22V58.1H23.9a.12.12,0,0,1,.12.12v.53a.12.12,0,0,1-.12.12H21.25a.12.12,0,0,1-.12-.12Z"/><path class="cls-4" d="M24.36,58.71l2-4.38a.12.12,0,0,1,.11-.07h.07a.11.11,0,0,1,.11.07l2,4.38a.11.11,0,0,1-.11.17H28a.19.19,0,0,1-.19-.13l-.32-.7H25.55l-.32.7a.19.19,0,0,1-.19.13h-.57A.11.11,0,0,1,24.36,58.71Zm2.81-1.39-.65-1.43h0l-.64,1.43Z"/><path class="cls-4" d="M29.28,54.45a.12.12,0,0,1,.12-.12H30a.13.13,0,0,1,.12.12V58.1h1.66a.12.12,0,0,1,.12.12v.53a.12.12,0,0,1-.12.12H29.4a.12.12,0,0,1-.12-.12Z"/><path class="cls-4" d="M32.92,55.11h-1A.12.12,0,0,1,31.8,55v-.53a.12.12,0,0,1,.12-.12h2.85a.12.12,0,0,1,.12.12V55a.12.12,0,0,1-.12.12h-1v3.65a.13.13,0,0,1-.12.12H33a.13.13,0,0,1-.12-.12Z"/><path class="cls-4" d="M35.58,54.45a.13.13,0,0,1,.12-.12h.61a.12.12,0,0,1,.12.12v1.73h2.12V54.45a.12.12,0,0,1,.12-.12h.6a.13.13,0,0,1,.12.12v4.31a.13.13,0,0,1-.12.12h-.6a.12.12,0,0,1-.12-.12V57H36.43v1.8a.12.12,0,0,1-.12.12H35.7a.13.13,0,0,1-.12-.12Z"/><path class="cls-4" d="M42.61,54.26a2.21,2.21,0,0,1,1.58.61.12.12,0,0,1,0,.18l-.4.41a.1.1,0,0,1-.16,0,1.54,1.54,0,0,0-1-.38,1.51,1.51,0,0,0,0,3,1.56,1.56,0,0,0,1-.37.12.12,0,0,1,.16,0l.4.42a.12.12,0,0,1,0,.18,2.24,2.24,0,0,1-1.58.63,2.35,2.35,0,1,1,0-4.69Z"/><path class="cls-4" d="M44.46,58.71l2-4.38a.12.12,0,0,1,.11-.07h.07a.11.11,0,0,1,.11.07l2,4.38a.11.11,0,0,1-.11.17H48.1a.19.19,0,0,1-.19-.13l-.32-.7H45.65l-.32.7a.19.19,0,0,1-.19.13h-.57A.11.11,0,0,1,44.46,58.71Zm2.81-1.39-.65-1.43h0L46,57.33Z"/><path class="cls-4" d="M49.38,54.45a.12.12,0,0,1,.12-.12h1.86a1.41,1.41,0,0,1,1.42,1.4,1.44,1.44,0,0,1-1,1.32l.89,1.65a.12.12,0,0,1-.11.19h-.68a.11.11,0,0,1-.1-.06l-.87-1.73h-.72v1.66a.13.13,0,0,1-.12.12h-.6a.12.12,0,0,1-.12-.12Zm1.92,2a.66.66,0,0,0,.64-.66.65.65,0,0,0-.64-.63H50.23v1.3Z"/><path class="cls-4" d="M53.72,54.45a.12.12,0,0,1,.12-.12h2.65a.12.12,0,0,1,.12.12V55a.12.12,0,0,1-.12.12H54.57v1.07h1.61a.13.13,0,0,1,.12.12v.54a.12.12,0,0,1-.12.12H54.57V58.1h1.93a.12.12,0,0,1,.12.12v.53a.12.12,0,0,1-.12.12H53.84a.12.12,0,0,1-.12-.12Z"/><path class="cls-4" d="M25.2,62.27a.12.12,0,0,1,.12-.12H28a.12.12,0,0,1,.12.12v.53a.12.12,0,0,1-.12.12H26V64h1.61a.13.13,0,0,1,.12.12v.54a.12.12,0,0,1-.12.12H26v1.14H28a.12.12,0,0,1,.12.12v.53a.12.12,0,0,1-.12.12H25.32a.12.12,0,0,1-.12-.12Z"/><path class="cls-4" d="M30,64.37l-1.3-2a.12.12,0,0,1,.11-.18h.76a.13.13,0,0,1,.1.06l.83,1.38h0l.85-1.38a.12.12,0,0,1,.1-.06h.76a.12.12,0,0,1,.11.18l-1.31,2,1.35,2.16a.12.12,0,0,1-.11.18h-.7a.13.13,0,0,1-.11-.06l-.93-1.49h0l-.92,1.49a.14.14,0,0,1-.11.06h-.7a.12.12,0,0,1-.12-.18Z"/><path class="cls-4" d="M33.16,62.27a.12.12,0,0,1,.12-.12h1.53a1.45,1.45,0,1,1,0,2.91H34v1.53a.13.13,0,0,1-.12.12h-.6a.12.12,0,0,1-.12-.12Zm1.6,2a.67.67,0,0,0,.67-.68.65.65,0,0,0-.67-.63H34v1.31Z"/><path class="cls-4" d="M37,62.27a.12.12,0,0,1,.12-.12h2.65a.12.12,0,0,1,.12.12v.53a.12.12,0,0,1-.12.12H37.86V64h1.61a.13.13,0,0,1,.12.12v.54a.12.12,0,0,1-.12.12H37.86v1.14h1.93a.12.12,0,0,1,.12.12v.53a.12.12,0,0,1-.12.12H37.14a.12.12,0,0,1-.12-.12Z"/><path class="cls-4" d="M40.85,62.27a.12.12,0,0,1,.12-.12h1.86a1.41,1.41,0,0,1,1.42,1.4,1.44,1.44,0,0,1-1,1.32l.89,1.65a.12.12,0,0,1-.11.19h-.68a.11.11,0,0,1-.1-.06l-.87-1.73H41.7v1.66a.13.13,0,0,1-.12.12H41a.12.12,0,0,1-.12-.12Zm1.92,2a.66.66,0,0,0,.64-.66.65.65,0,0,0-.64-.63H41.7v1.3Z"/><path class="cls-4" d="M45.81,62.93h-1a.12.12,0,0,1-.12-.12v-.53a.12.12,0,0,1,.12-.12h2.85a.12.12,0,0,1,.12.12v.53a.12.12,0,0,1-.12.12h-1v3.65a.13.13,0,0,1-.12.12h-.61a.13.13,0,0,1-.12-.12Z"/><polygon class="cls-6" points="50.89 64.72 49.96 63.42 51.55 63.47 52.5 62.18 52.95 63.72 54.47 64.22 53.14 65.12 53.13 66.72 51.87 65.74 50.35 66.22 50.89 64.72"/><polygon class="cls-6" points="18.06 65.28 16.65 64.52 18.11 63.87 18.4 62.29 19.47 63.48 21.06 63.27 20.26 64.66 20.95 66.1 19.39 65.77 18.23 66.87 18.06 65.28"/></g></g></svg>