<svg xmlns="http://www.w3.org/2000/svg" viewBox="0 0 66.18 66.04"><defs><style>.cls-1{fill:#22366b;}.cls-2{fill:#f04e24;}.cls-3{fill:#79b1e0;}.cls-4{fill:#fff;}</style></defs><title>improve-specialist</title><g id="Layer_2" data-name="Layer 2"><g id="final_icons_bios"><path class="cls-1" d="M10.13,53.71a.13.13,0,0,1,.12-.12h.61a.13.13,0,0,1,.12.12V58a.13.13,0,0,1-.12.12h-.61a.13.13,0,0,1-.12-.12Z"/><path class="cls-1" d="M12.64,53.62a.11.11,0,0,1,.12-.1h.1a.12.12,0,0,1,.11.06l1.43,3.08h0l1.43-3.08a.11.11,0,0,1,.11-.06h.1a.11.11,0,0,1,.12.1L17,58a.11.11,0,0,1-.12.15h-.59a.14.14,0,0,1-.12-.1l-.38-2.47h0l-1.14,2.56a.11.11,0,0,1-.11.07h-.12a.12.12,0,0,1-.11-.07l-1.15-2.56h0l-.38,2.47a.13.13,0,0,1-.12.1H12a.12.12,0,0,1-.12-.15Z"/><path class="cls-1" d="M17.86,53.71a.12.12,0,0,1,.12-.12h1.53a1.45,1.45,0,1,1,0,2.91h-.81V58a.13.13,0,0,1-.12.12H18a.12.12,0,0,1-.12-.12Zm1.6,2a.67.67,0,0,0,.67-.68.65.65,0,0,0-.67-.63h-.76V55.7Z"/><path class="cls-1" d="M21.72,53.71a.12.12,0,0,1,.12-.12h1.86A1.41,1.41,0,0,1,25.13,55a1.44,1.44,0,0,1-1,1.32L25.05,58a.12.12,0,0,1-.11.19h-.68a.11.11,0,0,1-.1-.06l-.87-1.73h-.72V58a.13.13,0,0,1-.12.12h-.6a.12.12,0,0,1-.12-.12Zm1.92,2a.66.66,0,0,0,.64-.66.65.65,0,0,0-.64-.63H22.57v1.3Z"/><path class="cls-1" d="M28.08,53.53a2.35,2.35,0,1,1-2.34,2.35A2.34,2.34,0,0,1,28.08,53.53Zm0,3.84a1.5,1.5,0,1,0-1.49-1.49A1.5,1.5,0,0,0,28.08,57.37Z"/><path class="cls-1" d="M30.65,53.76a.11.11,0,0,1,.11-.17h.67a.12.12,0,0,1,.11.07l1.25,2.8h0l1.25-2.8a.12.12,0,0,1,.11-.07h.66a.11.11,0,0,1,.11.17l-2,4.39a.12.12,0,0,1-.11.07h-.07a.12.12,0,0,1-.11-.07Z"/><path class="cls-1" d="M35.57,53.71a.12.12,0,0,1,.12-.12h2.65a.12.12,0,0,1,.12.12v.53a.12.12,0,0,1-.12.12H36.42v1.07H38a.13.13,0,0,1,.12.12v.54a.12.12,0,0,1-.12.12H36.42v1.14h1.93a.12.12,0,0,1,.12.12V58a.12.12,0,0,1-.12.12H35.69a.12.12,0,0,1-.12-.12Z"/><path class="cls-1" d="M39.88,53.62a.11.11,0,0,1,.12-.1h.1a.12.12,0,0,1,.11.06l1.43,3.08h0l1.43-3.08a.11.11,0,0,1,.11-.06h.1a.11.11,0,0,1,.12.1L44.2,58a.11.11,0,0,1-.12.15h-.59a.14.14,0,0,1-.12-.1L43,55.58h0l-1.14,2.56a.11.11,0,0,1-.11.07h-.12a.12.12,0,0,1-.11-.07l-1.15-2.56h0l-.38,2.47a.13.13,0,0,1-.12.1h-.59A.12.12,0,0,1,39.1,58Z"/><path class="cls-1" d="M45.1,53.71a.12.12,0,0,1,.12-.12h2.65a.12.12,0,0,1,.12.12v.53a.12.12,0,0,1-.12.12H45.94v1.07h1.61a.13.13,0,0,1,.12.12v.54a.12.12,0,0,1-.12.12H45.94v1.14h1.93a.12.12,0,0,1,.12.12V58a.12.12,0,0,1-.12.12H45.22A.12.12,0,0,1,45.1,58Z"/><path class="cls-1" d="M48.93,53.64a.12.12,0,0,1,.12-.12h.16l2.71,2.88h0V53.71a.12.12,0,0,1,.12-.12h.6a.13.13,0,0,1,.12.12V58.1a.12.12,0,0,1-.12.12H52.5l-2.72-3h0V58a.12.12,0,0,1-.12.12h-.59a.13.13,0,0,1-.12-.12Z"/><path class="cls-1" d="M54.58,54.37h-1a.12.12,0,0,1-.12-.12v-.53a.12.12,0,0,1,.12-.12h2.85a.12.12,0,0,1,.12.12v.53a.12.12,0,0,1-.12.12h-1V58a.13.13,0,0,1-.12.12h-.61a.13.13,0,0,1-.12-.12Z"/><path class="cls-1" d="M16.33,65.34l.23-.4a.15.15,0,0,1,.22,0,2.15,2.15,0,0,0,1,.4.54.54,0,0,0,.59-.5c0-.33-.28-.56-.83-.78s-1.22-.64-1.22-1.41a1.3,1.3,0,0,1,1.47-1.25,2.29,2.29,0,0,1,1.3.44.16.16,0,0,1,0,.21l-.25.37a.17.17,0,0,1-.23.08,2.14,2.14,0,0,0-.91-.36.52.52,0,0,0-.57.46c0,.31.24.51.77.73s1.36.63,1.36,1.47A1.38,1.38,0,0,1,17.8,66a2.1,2.1,0,0,1-1.43-.51C16.3,65.47,16.27,65.44,16.33,65.34Z"/><path class="cls-1" d="M20.13,61.54a.12.12,0,0,1,.12-.12h1.53a1.45,1.45,0,1,1,0,2.91H21v1.53a.13.13,0,0,1-.12.12h-.6a.12.12,0,0,1-.12-.12Zm1.6,2a.67.67,0,0,0,.67-.68.65.65,0,0,0-.67-.63H21v1.31Z"/><path class="cls-1" d="M24,61.54a.12.12,0,0,1,.12-.12h2.65a.12.12,0,0,1,.12.12v.53a.12.12,0,0,1-.12.12H24.84v1.07h1.61a.13.13,0,0,1,.12.12v.54a.12.12,0,0,1-.12.12H24.84v1.14h1.93a.12.12,0,0,1,.12.12v.53a.12.12,0,0,1-.12.12H24.12a.12.12,0,0,1-.12-.12Z"/><path class="cls-1" d="M29.83,61.35A2.21,2.21,0,0,1,31.4,62a.12.12,0,0,1,0,.18l-.4.41a.1.1,0,0,1-.16,0,1.54,1.54,0,0,0-1-.38,1.51,1.51,0,0,0,0,3,1.56,1.56,0,0,0,1-.37.12.12,0,0,1,.16,0l.4.42a.12.12,0,0,1,0,.18,2.24,2.24,0,0,1-1.58.63,2.35,2.35,0,1,1,0-4.69Z"/><path class="cls-1" d="M32.27,61.54a.13.13,0,0,1,.12-.12H33a.13.13,0,0,1,.12.12v4.31A.13.13,0,0,1,33,66h-.61a.13.13,0,0,1-.12-.12Z"/><path class="cls-1" d="M33.71,65.81l2-4.38a.12.12,0,0,1,.11-.07h.07a.11.11,0,0,1,.11.07l2,4.38a.11.11,0,0,1-.11.17h-.57a.19.19,0,0,1-.19-.13l-.32-.7H34.9l-.32.7a.19.19,0,0,1-.19.13h-.57A.11.11,0,0,1,33.71,65.81Zm2.81-1.39L35.88,63h0l-.64,1.43Z"/><path class="cls-1" d="M38.63,61.54a.12.12,0,0,1,.12-.12h.6a.13.13,0,0,1,.12.12v3.66h1.66a.12.12,0,0,1,.12.12v.53a.12.12,0,0,1-.12.12H38.75a.12.12,0,0,1-.12-.12Z"/><path class="cls-1" d="M41.92,61.54a.13.13,0,0,1,.12-.12h.61a.13.13,0,0,1,.12.12v4.31a.13.13,0,0,1-.12.12H42a.13.13,0,0,1-.12-.12Z"/><path class="cls-1" d="M43.7,65.34l.23-.4a.15.15,0,0,1,.22,0,2.15,2.15,0,0,0,1,.4.54.54,0,0,0,.59-.5c0-.33-.28-.56-.83-.78s-1.22-.64-1.22-1.41a1.3,1.3,0,0,1,1.47-1.25,2.29,2.29,0,0,1,1.3.44.16.16,0,0,1,0,.21l-.25.37a.17.17,0,0,1-.23.08,2.14,2.14,0,0,0-.91-.36.52.52,0,0,0-.57.46c0,.31.24.51.77.73s1.36.63,1.36,1.47A1.38,1.38,0,0,1,45.16,66a2.1,2.1,0,0,1-1.43-.51C43.67,65.47,43.64,65.44,43.7,65.34Z"/><path class="cls-1" d="M48.11,62.2h-1a.12.12,0,0,1-.12-.12v-.53a.12.12,0,0,1,.12-.12H50a.12.12,0,0,1,.12.12v.53a.12.12,0,0,1-.12.12H49v3.65a.13.13,0,0,1-.12.12h-.61a.13.13,0,0,1-.12-.12Z"/><path class="cls-1" d="M65.68,47.56H.5a.5.5,0,0,1,0-1H65.68a.5.5,0,0,1,0,1Z"/><path class="cls-2" d="M8,32.27a.5.5,0,0,1-.16-1s.49-.17,1.38-.51a.5.5,0,0,1,.36.93c-.92.36-1.42.53-1.42.53Z"/><path class="cls-2" d="M12.12,30.64a.5.5,0,0,1-.2-1c.78-.34,1.67-.73,2.64-1.19a.5.5,0,0,1,.42.91c-1,.46-1.87.86-2.66,1.2A.5.5,0,0,1,12.12,30.64Zm5.26-2.45a.5.5,0,0,1-.22-.95q1.23-.61,2.57-1.32a.5.5,0,1,1,.47.88q-1.35.72-2.59,1.33A.5.5,0,0,1,17.38,28.19Zm5.13-2.72a.5.5,0,0,1-.24-.94l1.32-.75q.58-.34,1.17-.71a.5.5,0,1,1,.54.84c-.4.26-.8.5-1.2.73l-1.33.75A.5.5,0,0,1,22.51,25.47Zm4.89-3.13a.5.5,0,0,1-.3-.9c.73-.55,1.49-1.15,2.25-1.79a.5.5,0,0,1,.65.76c-.77.65-1.54,1.27-2.29,1.83A.5.5,0,0,1,27.41,22.34Zm4.44-3.74a.5.5,0,0,1-.34-.87c.71-.66,1.4-1.33,2.07-2a.5.5,0,1,1,.71.7c-.68.69-1.38,1.37-2.1,2A.5.5,0,0,1,31.85,18.6Zm4.1-4.12a.5.5,0,0,1-.37-.84c.67-.73,1.32-1.45,1.93-2.15a.5.5,0,0,1,.75.66c-.62.71-1.27,1.44-2,2.17A.5.5,0,0,1,35.94,14.48Zm3.83-4.37a.5.5,0,0,1-.39-.82c.67-.81,1.28-1.57,1.82-2.25a.5.5,0,0,1,.79.62c-.54.69-1.16,1.46-1.83,2.27A.5.5,0,0,1,39.77,10.11Z"/><path class="cls-2" d="M43.36,5.53a.5.5,0,0,1-.4-.8c.56-.76.87-1.2.87-1.2a.5.5,0,0,1,.82.57s-.31.45-.88,1.22A.5.5,0,0,1,43.36,5.53Z"/><path class="cls-2" d="M47.09,4.31A.5.5,0,0,1,46.61,4l-.82-2.88-3.16.59a.51.51,0,0,1-.58-.4.5.5,0,0,1,.4-.58L46.05,0a.5.5,0,0,1,.57.35l.95,3.31a.5.5,0,0,1-.34.62Z"/><path class="cls-3" d="M36.88,30.29H30.75a.78.78,0,0,0-.77.77v16h7.68v-16A.78.78,0,0,0,36.88,30.29Z"/><path class="cls-3" d="M24.76,32.94H18.62a.78.78,0,0,0-.77.77V47.06h7.69V33.72A.77.77,0,0,0,24.76,32.94Z"/><path class="cls-3" d="M54.26,24.38,46.58,13.72a.7.7,0,0,0-.51-.28.79.79,0,0,0-.74.28L37.66,24.38s0,0,0,.06a.69.69,0,0,0,.65,1.1h3.8V47.06h7.75V25.55h3.81A.73.73,0,0,0,54.26,24.38Z"/><path class="cls-4" d="M35.76,29.19H29.63a.78.78,0,0,0-.77.77v17.1h7.69V30A.78.78,0,0,0,35.76,29.19Z"/><path class="cls-1" d="M37,47.56H28.36V30a1.27,1.27,0,0,1,1.27-1.27h6.13A1.28,1.28,0,0,1,37,30Zm-7.69-1H36V30a.28.28,0,0,0-.28-.27H29.63a.28.28,0,0,0-.27.27Z"/><path class="cls-4" d="M23.65,31.83H17.52a.78.78,0,0,0-.77.78V47.06h7.68V32.61A.78.78,0,0,0,23.65,31.83Z"/><path class="cls-1" d="M24.92,47.56H16.25v-15a1.28,1.28,0,0,1,1.27-1.28h6.13a1.28,1.28,0,0,1,1.27,1.28Zm-7.68-1h6.68v-14a.28.28,0,0,0-.27-.28H17.52a.28.28,0,0,0-.27.28Z"/><path class="cls-4" d="M53.16,23.26l-7.08-9.83-.6-.83a.8.8,0,0,0-1.24,0L36.55,23.26a.71.71,0,0,0,.62,1.17H41V47.06h7.76V24.44h3.8A.74.74,0,0,0,53.16,23.26Z"/><path class="cls-1" d="M49.24,47.56H40.47V24.93h-3.3A1.23,1.23,0,0,1,36,24.3,1.3,1.3,0,0,1,36.14,23l7.69-10.67a1.27,1.27,0,0,1,1-.5,1.39,1.39,0,0,1,1,.48l.62.85L53.56,23a1.28,1.28,0,0,1,.11,1.31,1.21,1.21,0,0,1-1.14.67h-3.3Zm-7.76-1h6.76V23.94h4.3c.19,0,.22-.08.24-.11a.28.28,0,0,0,0-.27h0L45.07,12.9a.36.36,0,0,0-.22-.08.28.28,0,0,0-.22.1L37,23.55a.31.31,0,0,0,0,.29c0,.08.2.09.26.09h4.3Z"/></g></g></svg>