<svg xmlns="http://www.w3.org/2000/svg" viewBox="0 0 70.65 66"><defs><style>.cls-1,.cls-6{fill:#22366b;}.cls-2{fill:#f04e24;}.cls-3{fill:#bad5ea;}.cls-3,.cls-4,.cls-6{fill-rule:evenodd;}.cls-4,.cls-5{fill:#fff;}.cls-7{fill:#79b1e0;}.cls-8{fill:#f04d23;}</style></defs><title>infra-expert</title><g id="Layer_2" data-name="Layer 2"><g id="final_icons_bios"><path class="cls-1" d="M7.07,53.85a.13.13,0,0,1,.12-.12h.6a.13.13,0,0,1,.12.12v4.27a.13.13,0,0,1-.12.12H7.2a.13.13,0,0,1-.12-.12Z"/><path class="cls-1" d="M9.09,53.78a.12.12,0,0,1,.12-.12h.16l2.69,2.85h0V53.85a.12.12,0,0,1,.12-.12h.59a.13.13,0,0,1,.12.12V58.2a.12.12,0,0,1-.12.12h-.16l-2.7-3h0v2.78a.12.12,0,0,1-.12.12H9.22a.13.13,0,0,1-.12-.12Z"/><path class="cls-1" d="M14.09,53.85a.12.12,0,0,1,.12-.12h2.63a.12.12,0,0,1,.12.12v.53a.12.12,0,0,1-.12.12H14.93v1.21h1.59a.13.13,0,0,1,.12.12v.53a.13.13,0,0,1-.12.12H14.93v1.63a.13.13,0,0,1-.12.12h-.59a.12.12,0,0,1-.12-.12Z"/><path class="cls-1" d="M17.73,53.85a.12.12,0,0,1,.12-.12H19.7a1.4,1.4,0,0,1,1.41,1.39,1.42,1.42,0,0,1-1,1.3L21,58.06a.12.12,0,0,1-.11.19h-.68a.11.11,0,0,1-.1-.06l-.86-1.71h-.72v1.65a.13.13,0,0,1-.12.12h-.59a.12.12,0,0,1-.12-.12Zm1.9,1.94a.66.66,0,0,0,.64-.66.64.64,0,0,0-.64-.63H18.57v1.28Z"/><path class="cls-1" d="M21.44,58.08l2-4.34a.11.11,0,0,1,.11-.07h.06a.11.11,0,0,1,.11.07l2,4.34a.11.11,0,0,1-.11.17h-.56a.19.19,0,0,1-.19-.13l-.32-.7H22.62l-.32.7a.19.19,0,0,1-.19.13h-.56A.11.11,0,0,1,21.44,58.08Zm2.79-1.37-.65-1.42h0l-.63,1.42Z"/><path class="cls-1" d="M26,57.62l.23-.4a.15.15,0,0,1,.22,0,2.14,2.14,0,0,0,1,.4.54.54,0,0,0,.59-.5c0-.33-.28-.56-.82-.77S26,55.67,26,54.91a1.29,1.29,0,0,1,1.45-1.24,2.28,2.28,0,0,1,1.29.43.16.16,0,0,1,0,.21l-.25.37a.17.17,0,0,1-.23.08,2.12,2.12,0,0,0-.9-.35.51.51,0,0,0-.57.45c0,.3.24.51.76.72S29,56.2,29,57a1.36,1.36,0,0,1-1.48,1.28,2.08,2.08,0,0,1-1.42-.5C26,57.75,26,57.72,26,57.62Z"/><path class="cls-1" d="M30.42,54.5h-1a.12.12,0,0,1-.12-.12v-.53a.12.12,0,0,1,.12-.12h2.82a.12.12,0,0,1,.12.12v.53a.12.12,0,0,1-.12.12h-1v3.62a.13.13,0,0,1-.12.12h-.6a.13.13,0,0,1-.12-.12Z"/><path class="cls-1" d="M33,53.85a.12.12,0,0,1,.12-.12H35a1.4,1.4,0,0,1,1.41,1.39,1.42,1.42,0,0,1-1,1.3l.88,1.64a.12.12,0,0,1-.11.19h-.68a.11.11,0,0,1-.1-.06l-.86-1.71h-.72v1.65a.13.13,0,0,1-.12.12h-.59a.12.12,0,0,1-.12-.12Zm1.9,1.94a.66.66,0,0,0,.64-.66.64.64,0,0,0-.64-.63H33.89v1.28Z"/><path class="cls-1" d="M37.28,53.85a.13.13,0,0,1,.12-.12H38a.12.12,0,0,1,.12.12v2.64a.94.94,0,1,0,1.88,0V53.85a.12.12,0,0,1,.12-.12h.61a.13.13,0,0,1,.12.12v2.69a1.8,1.8,0,0,1-3.6,0Z"/><path class="cls-1" d="M44,53.67a2.19,2.19,0,0,1,1.56.6.12.12,0,0,1,0,.18l-.39.41a.1.1,0,0,1-.16,0,1.53,1.53,0,0,0-1-.38,1.5,1.5,0,0,0,0,3,1.55,1.55,0,0,0,1-.37.12.12,0,0,1,.16,0l.4.41a.12.12,0,0,1,0,.17,2.21,2.21,0,0,1-1.57.63,2.32,2.32,0,1,1,0-4.65Z"/><path class="cls-1" d="M47,54.5H46a.12.12,0,0,1-.12-.12v-.53a.12.12,0,0,1,.12-.12h2.82a.12.12,0,0,1,.12.12v.53a.12.12,0,0,1-.12.12h-1v3.62a.13.13,0,0,1-.12.12h-.6a.13.13,0,0,1-.12-.12Z"/><path class="cls-1" d="M49.58,53.85a.13.13,0,0,1,.12-.12h.61a.12.12,0,0,1,.12.12v2.64a.94.94,0,1,0,1.88,0V53.85a.12.12,0,0,1,.12-.12h.61a.13.13,0,0,1,.12.12v2.69a1.8,1.8,0,0,1-3.6,0Z"/><path class="cls-1" d="M54.29,53.85a.12.12,0,0,1,.12-.12h1.85a1.4,1.4,0,0,1,1.41,1.39,1.42,1.42,0,0,1-1,1.3l.88,1.64a.12.12,0,0,1-.11.19H56.8a.11.11,0,0,1-.1-.06l-.86-1.71h-.72v1.65a.13.13,0,0,1-.12.12h-.59a.12.12,0,0,1-.12-.12Zm1.9,1.94a.66.66,0,0,0,.64-.66.64.64,0,0,0-.64-.63H55.13v1.28Z"/><path class="cls-1" d="M58.59,53.85a.12.12,0,0,1,.12-.12h2.63a.12.12,0,0,1,.12.12v.53a.12.12,0,0,1-.12.12H59.43v1.06H61a.13.13,0,0,1,.12.12v.54a.12.12,0,0,1-.12.12H59.43v1.13h1.91a.12.12,0,0,1,.12.12v.53a.12.12,0,0,1-.12.12H58.71a.12.12,0,0,1-.12-.12Z"/><path class="cls-1" d="M23.21,61.6a.12.12,0,0,1,.12-.12H26a.12.12,0,0,1,.12.12v.53a.12.12,0,0,1-.12.12H24.05v1.06h1.59a.13.13,0,0,1,.12.12V64a.12.12,0,0,1-.12.12H24.05v1.13H26a.12.12,0,0,1,.12.12v.53A.12.12,0,0,1,26,66H23.33a.12.12,0,0,1-.12-.12Z"/><path class="cls-1" d="M28,63.68l-1.29-2a.12.12,0,0,1,.11-.18h.75a.13.13,0,0,1,.1.06l.83,1.37h0l.84-1.37a.12.12,0,0,1,.1-.06h.75a.12.12,0,0,1,.11.18l-1.3,2,1.34,2.14a.12.12,0,0,1-.11.18h-.7a.13.13,0,0,1-.11-.06l-.92-1.48h0l-.91,1.48a.14.14,0,0,1-.11.06h-.7c-.12,0-.17-.1-.12-.18Z"/><path class="cls-1" d="M31.09,61.6a.12.12,0,0,1,.12-.12h1.52a1.44,1.44,0,1,1,0,2.88h-.81v1.52a.13.13,0,0,1-.12.12h-.59a.12.12,0,0,1-.12-.12Zm1.59,2a.67.67,0,0,0,.67-.67.64.64,0,0,0-.67-.63h-.75v1.3Z"/><path class="cls-1" d="M34.91,61.6a.12.12,0,0,1,.12-.12h2.63a.12.12,0,0,1,.12.12v.53a.12.12,0,0,1-.12.12H35.75v1.06h1.59a.13.13,0,0,1,.12.12V64a.12.12,0,0,1-.12.12H35.75v1.13h1.91a.12.12,0,0,1,.12.12v.53a.12.12,0,0,1-.12.12H35a.12.12,0,0,1-.12-.12Z"/><path class="cls-1" d="M38.71,61.6a.12.12,0,0,1,.12-.12h1.85a1.4,1.4,0,0,1,1.41,1.39,1.42,1.42,0,0,1-1,1.3L42,65.81a.12.12,0,0,1-.11.19h-.68a.11.11,0,0,1-.1-.06l-.86-1.71h-.72v1.65a.13.13,0,0,1-.12.12h-.59a.12.12,0,0,1-.12-.12Zm1.9,1.94a.66.66,0,0,0,.64-.66.64.64,0,0,0-.64-.63H39.56v1.28Z"/><path class="cls-1" d="M43.62,62.25h-1a.12.12,0,0,1-.12-.12V61.6a.12.12,0,0,1,.12-.12h2.82a.12.12,0,0,1,.12.12v.53a.12.12,0,0,1-.12.12h-1v3.62a.13.13,0,0,1-.12.12h-.6a.13.13,0,0,1-.12-.12Z"/><path class="cls-2" d="M3.82,8.45a.5.5,0,0,1-.39-.81L5.65,4.78a.5.5,0,0,1,.66-.12L9.19,6.5a.5.5,0,0,1-.54.84L6.16,5.75,4.21,8.26A.5.5,0,0,1,3.82,8.45Z"/><path class="cls-2" d="M58.29,37.49c-.39,0-.81,0-1.23,0a.5.5,0,1,1,.06-1c.41,0,.8,0,1.17,0h1.8a.5.5,0,0,1,0,1Zm4.8,0a.5.5,0,0,1,0-1h2.47a.5.5,0,0,1,0,1H63.09Zm-9-.46H54a15.76,15.76,0,0,1-2.93-1,.5.5,0,0,1,.42-.91,14.7,14.7,0,0,0,2.75.93.5.5,0,0,1-.12,1Zm-5.39-2.52a.5.5,0,0,1-.31-.11,11.67,11.67,0,0,1-2.17-2.25.5.5,0,0,1,.81-.59,10.68,10.68,0,0,0,2,2.06.5.5,0,0,1-.31.89Zm-3.51-4.77a.5.5,0,0,1-.46-.32,15.11,15.11,0,0,1-.83-3,.5.5,0,1,1,1-.17A14.12,14.12,0,0,0,45.68,29a.5.5,0,0,1-.46.68Zm-1.3-5.84a.5.5,0,0,1-.49-.39,16.88,16.88,0,0,0-.88-2.77.5.5,0,1,1,.92-.39,18,18,0,0,1,.93,2.94.5.5,0,0,1-.37.6Zm-2.37-5.46a.5.5,0,0,1-.4-.2,9.68,9.68,0,0,0-2-2,.5.5,0,1,1,.6-.8,10.67,10.67,0,0,1,2.2,2.23.5.5,0,0,1-.4.8Zm-23.14-3c-.88,0-1.72,0-2.49-.11a.5.5,0,1,1,.09-1,26.57,26.57,0,0,0,2.94.1.5.5,0,1,1,0,1ZM22,15.21a.5.5,0,0,1,0-1c1-.08,2-.19,3-.31a.5.5,0,0,1,.12,1c-1,.12-2,.23-3,.31Zm14.87-.33a.5.5,0,0,1-.17,0,11.73,11.73,0,0,0-2.8-.61.5.5,0,0,1,.1-1,12.75,12.75,0,0,1,3,.67.5.5,0,0,1-.17,1ZM13,14.74l-.13,0A11.16,11.16,0,0,1,10,13.49a.5.5,0,0,1,.53-.85,10.14,10.14,0,0,0,2.62,1.12.5.5,0,0,1-.13,1Zm14.91-.21a.5.5,0,0,1-.06-1c.93-.11,2-.24,3-.31a.51.51,0,0,1,.53.46.5.5,0,0,1-.46.53c-1,.07-2,.19-3,.3Zm-19.86-3a.5.5,0,0,1-.4-.2,9.49,9.49,0,0,1-1.43-2.8.5.5,0,1,1,1-.31,8.47,8.47,0,0,0,1.28,2.51.5.5,0,0,1-.1.7A.49.49,0,0,1,8.05,11.57Z"/><path class="cls-3" d="M52.2,27.38a.45.45,0,0,1,.25-.87L57.55,28a.45.45,0,1,1-.25.87Zm0,0"/><path class="cls-3" d="M52.27,29.29a.46.46,0,0,1,.25-.88l4,1.15a.46.46,0,1,1-.25.88Zm0,0"/><path class="cls-3" d="M55.59,23.67a.46.46,0,0,1-.87-.25,24,24,0,0,0,1-4.59,13.6,13.6,0,0,0-.38-4.31.45.45,0,0,1,.34-.54.46.46,0,0,1,.55.34,14.21,14.21,0,0,1,.41,4.59,25,25,0,0,1-1,4.76Zm0,0"/><path class="cls-3" d="M57.29,24.16a.46.46,0,1,1-.87-.25,25.05,25.05,0,0,1,1.67-4.58,14.25,14.25,0,0,1,2.8-3.67.45.45,0,0,1,.64,0,.46.46,0,0,1,0,.64,13.54,13.54,0,0,0-2.63,3.44,24.08,24.08,0,0,0-1.61,4.41Zm0,0"/><path class="cls-3" d="M55.51,14.79A.46.46,0,0,1,56,14a5.81,5.81,0,0,1,.71.59l0,0c.32.3.6.54.89.42l.67-.29a.45.45,0,1,1,.35.84L58,15.9c-.83.35-1.3-.07-1.87-.6h0a4.84,4.84,0,0,0-.6-.5Zm0,0"/><path class="cls-3" d="M61.68,5.79a.46.46,0,1,1-.88-.25l.49-1.7a.46.46,0,0,1,.88.25Zm0,0"/><path class="cls-3" d="M61.19,15.53a.46.46,0,1,1,0,.91,4.91,4.91,0,0,0-.77.1h0c-.76.14-1.39.25-1.9-.49l-.41-.59a.46.46,0,0,1,.12-.63.45.45,0,0,1,.63.11l.41.6c.18.26.54.2,1,.12h0a6.24,6.24,0,0,1,.91-.12Zm0,0"/><path class="cls-3" d="M65.41,11.94A8.13,8.13,0,0,1,65,20.42a8.22,8.22,0,0,1-1.75,1.86,27.93,27.93,0,0,1-2.65,1.81,3.69,3.69,0,0,0-2.16,2.55.46.46,0,0,1-.57.31l-5.13-1.48a.46.46,0,0,1-.31-.56A3.65,3.65,0,0,0,52,21.63a26.83,26.83,0,0,1-1.3-3,8.13,8.13,0,0,1,1.28-7.85h0a8.08,8.08,0,0,1,2.41-2,8.17,8.17,0,0,1,3-1,8.13,8.13,0,0,1,8,4.15Zm-.19,5.92a7.2,7.2,0,0,0-.61-5.48,7.28,7.28,0,0,0-1.81-2.15,7.21,7.21,0,0,0-5.3-1.53,7.24,7.24,0,0,0-4.82,2.65l0,0a7.15,7.15,0,0,0-1.29,2.5,7.19,7.19,0,0,0,.15,4.47,27.31,27.31,0,0,0,1.27,2.9h0c.66,1.35,1,2,.65,3.49L57.71,26c.5-1.44,1.13-1.83,2.42-2.63a27.78,27.78,0,0,0,2.58-1.77,7.16,7.16,0,0,0,1.55-1.65,7.27,7.27,0,0,0,1-2.05Zm0,0"/><path class="cls-3" d="M52.33,31.18a.45.45,0,1,1,.25-.87l2.83.82a.45.45,0,1,1-.25.87Zm0,0"/><path class="cls-3" d="M66.17,8.78a.46.46,0,0,1-.64,0,.45.45,0,0,1,0-.64L66.81,6.9a.45.45,0,0,1,.63.65Zm0,0"/><path class="cls-3" d="M56.29,5.45a.45.45,0,1,1-.88.22L55,3.95a.45.45,0,0,1,.88-.21Zm0,0"/><path class="cls-3" d="M51.46,7.85a.45.45,0,1,1-.66.63L49.57,7.21a.46.46,0,0,1,.66-.63Zm0,0"/><path class="cls-3" d="M68.56,13.61a.45.45,0,0,1-.22-.88l1.72-.43a.45.45,0,0,1,.55.33.46.46,0,0,1-.33.55Zm0,0"/><path class="cls-3" d="M53.23,16.28a.45.45,0,1,1-.9.11,6.44,6.44,0,0,1,0-1.2A6.1,6.1,0,0,1,52.53,14a.46.46,0,1,1,.88.25,4.86,4.86,0,0,0-.19,1,4.91,4.91,0,0,0,0,1Zm1.11-3.85a.45.45,0,0,1-.71-.57,6.1,6.1,0,0,1,.81-.83h0a6.48,6.48,0,0,1,1-.66,5.94,5.94,0,0,1,1.07-.46h0a6.52,6.52,0,0,1,1.14-.25,6.38,6.38,0,0,1,1.21,0A6.09,6.09,0,0,1,60,9.85a.46.46,0,0,1-.25.88,5.05,5.05,0,0,0-2-.17,5.23,5.23,0,0,0-1.88.61,5.56,5.56,0,0,0-.82.56,5.2,5.2,0,0,0-.7.7Zm0,0"/><path class="cls-4" d="M57.89,28a.47.47,0,0,0-.32-.56L52.48,26a.46.46,0,0,0-.57.31.45.45,0,0,0,.31.56l5.11,1.47A.46.46,0,0,0,57.89,28Z"/><path class="cls-4" d="M56.82,29.62a.46.46,0,0,0-.31-.57l-4-1.15a.45.45,0,0,0-.56.32.46.46,0,0,0,.31.56l4,1.15A.47.47,0,0,0,56.82,29.62Z"/><path class="cls-5" d="M61.58,15.77l-.07.07"/><path class="cls-5" d="M58.41,14.26l-.08,0a.26.26,0,0,1,.12,0A0,0,0,0,0,58.41,14.26Z"/><path class="cls-4" d="M61.7,5.29l.48-1.7A.45.45,0,0,0,61.88,3a.44.44,0,0,0-.56.31L60.82,5a.46.46,0,1,0,.88.25Z"/><path class="cls-5" d="M61.68,15.47h0a.35.35,0,0,1,0,.16A.41.41,0,0,0,61.68,15.47Zm-.17.37L60.46,16"/><path class="cls-4" d="M66.12,17.61a8.11,8.11,0,0,0-.69-6.18,8,8,0,0,0-2-2.42,7.88,7.88,0,0,0-2.81-1.45,8.13,8.13,0,0,0-6.18.69,7.85,7.85,0,0,0-2.41,2h0a8.11,8.11,0,0,0-1.45,2.81,7.88,7.88,0,0,0-.31,2.53,8,8,0,0,0,.49,2.51,26.4,26.4,0,0,0,1.3,3,3.63,3.63,0,0,1,.48,3.28.46.46,0,0,0,.31.57l5.13,1.48a.45.45,0,0,0,.56-.31,3.7,3.7,0,0,1,2.16-2.55,28.3,28.3,0,0,0,2.65-1.81A8.27,8.27,0,0,0,65,19.93,8.15,8.15,0,0,0,66.12,17.61Z"/><path class="cls-4" d="M55.75,31.19a.46.46,0,0,0-.31-.57l-2.83-.81a.45.45,0,1,0-.26.87l2.83.83A.46.46,0,0,0,55.75,31.19Z"/><path class="cls-4" d="M67.47,6.41a.44.44,0,0,0-.63,0L65.56,7.63a.44.44,0,0,0,0,.63.45.45,0,0,0,.64,0L67.47,7A.45.45,0,0,0,67.47,6.41Z"/><path class="cls-4" d="M56.31,5l-.42-1.71a.45.45,0,1,0-.88.21l.42,1.71A.45.45,0,0,0,56.31,5Z"/><path class="cls-4" d="M51.47,7.35,50.26,6.07a.46.46,0,0,0-.66.63L50.82,8a.45.45,0,1,0,.65-.63Z"/><path class="cls-4" d="M70.64,12.13a.45.45,0,0,0-.55-.33l-1.72.43a.45.45,0,0,0,.21.88l1.72-.42A.47.47,0,0,0,70.64,12.13Z"/><path class="cls-4" d="M54.37,11.93"/><path class="cls-6" d="M52.23,26.88a.45.45,0,0,1,.25-.87l5.1,1.47a.45.45,0,1,1-.25.87Zm0,0"/><path class="cls-6" d="M52.29,28.78a.46.46,0,0,1,.25-.88l4,1.15a.46.46,0,1,1-.25.88Zm0,0"/><path class="cls-6" d="M55.61,23.17a.46.46,0,1,1-.87-.25,24,24,0,0,0,1-4.59A13.6,13.6,0,0,0,55.35,14a.45.45,0,0,1,.34-.54.46.46,0,0,1,.55.34,14.21,14.21,0,0,1,.41,4.59,25,25,0,0,1-1,4.76Zm0,0"/><path class="cls-6" d="M57.31,23.66a.46.46,0,0,1-.87-.25,25.05,25.05,0,0,1,1.67-4.58,14.25,14.25,0,0,1,2.8-3.67.45.45,0,0,1,.64,0,.46.46,0,0,1,0,.64,13.54,13.54,0,0,0-2.63,3.44,24.08,24.08,0,0,0-1.61,4.41Zm0,0"/><path class="cls-6" d="M55.53,14.29a.46.46,0,0,1,.51-.76,5.81,5.81,0,0,1,.71.59l0,0c.32.3.6.54.89.42l.67-.29a.45.45,0,1,1,.35.84L58,15.4c-.83.35-1.3-.07-1.87-.6h0a4.84,4.84,0,0,0-.6-.5Zm0,0"/><path class="cls-6" d="M61.7,5.29A.46.46,0,1,1,60.82,5l.49-1.7a.46.46,0,0,1,.88.25Zm0,0"/><path class="cls-6" d="M61.21,15a.46.46,0,1,1,0,.91,4.91,4.91,0,0,0-.77.1h0c-.76.14-1.39.25-1.9-.49L58.13,15a.46.46,0,0,1,.12-.63.45.45,0,0,1,.63.11l.41.6c.18.26.54.2,1,.12h0a6.24,6.24,0,0,1,.91-.12Zm0,0"/><path class="cls-6" d="M65.43,11.44A8.13,8.13,0,0,1,65,19.92a8.22,8.22,0,0,1-1.75,1.86,27.93,27.93,0,0,1-2.65,1.81,3.69,3.69,0,0,0-2.16,2.55.46.46,0,0,1-.57.31L52.78,25a.46.46,0,0,1-.31-.56A3.65,3.65,0,0,0,52,21.13a26.83,26.83,0,0,1-1.3-3A8.13,8.13,0,0,1,52,10.29h0a8.08,8.08,0,0,1,2.41-2,8.17,8.17,0,0,1,3-1,8.13,8.13,0,0,1,8,4.15Zm-.19,5.92a7.2,7.2,0,0,0-.61-5.48,7.28,7.28,0,0,0-1.81-2.15,7.21,7.21,0,0,0-5.3-1.53,7.24,7.24,0,0,0-4.82,2.65l0,0a7.15,7.15,0,0,0-1.29,2.5,7.19,7.19,0,0,0,.15,4.47,27.31,27.31,0,0,0,1.27,2.9h0c.66,1.35,1,2,.65,3.49l4.28,1.24c.5-1.44,1.13-1.83,2.42-2.63a27.78,27.78,0,0,0,2.58-1.77,7.16,7.16,0,0,0,1.55-1.65,7.27,7.27,0,0,0,1-2.05Zm0,0"/><path class="cls-6" d="M52.35,30.68a.45.45,0,1,1,.25-.87l2.83.82a.45.45,0,1,1-.25.87Zm0,0"/><path class="cls-6" d="M66.19,8.27a.46.46,0,0,1-.64,0,.45.45,0,0,1,0-.64L66.84,6.4a.45.45,0,0,1,.63.65Zm0,0"/><path class="cls-6" d="M56.31,5a.45.45,0,1,1-.88.22L55,3.45a.45.45,0,0,1,.88-.21Zm0,0"/><path class="cls-6" d="M51.48,7.35a.45.45,0,1,1-.66.63L49.6,6.71a.46.46,0,0,1,.66-.63Zm0,0"/><path class="cls-6" d="M68.59,13.11a.45.45,0,0,1-.22-.88l1.72-.43a.45.45,0,0,1,.55.33.46.46,0,0,1-.33.55Zm0,0"/><path class="cls-6" d="M53.26,15.78a.45.45,0,1,1-.9.11,6.44,6.44,0,0,1,0-1.2,6.1,6.1,0,0,1,.22-1.19.46.46,0,1,1,.88.25,4.86,4.86,0,0,0-.19,1,4.91,4.91,0,0,0,0,1Zm1.11-3.85a.45.45,0,0,1-.71-.57,6.1,6.1,0,0,1,.81-.83h0a6.48,6.48,0,0,1,1-.66,5.94,5.94,0,0,1,1.07-.46h0a6.52,6.52,0,0,1,1.14-.25,6.38,6.38,0,0,1,1.21,0,6.09,6.09,0,0,1,1.19.22.46.46,0,0,1-.25.88,5.05,5.05,0,0,0-2-.17,5.23,5.23,0,0,0-1.88.61,5.56,5.56,0,0,0-.82.56,5.2,5.2,0,0,0-.7.7Zm0,0"/><path class="cls-7" d="M29,40.23H8a3.26,3.26,0,0,0,0,6.51H29a3.26,3.26,0,1,0,0-6.51Zm2.46,3.26A2.47,2.47,0,0,1,29,46H8A2.46,2.46,0,0,1,8,41H29A2.47,2.47,0,0,1,31.47,43.49Z"/><path class="cls-7" d="M32.95,43.49a4,4,0,0,1-4,4H8.08a4,4,0,0,1-4-4,.41.41,0,0,0,0-.08,4,4,0,0,1,4-3.87H29A4,4,0,0,1,32.95,43.49Zm-1.1,3.78a4.73,4.73,0,0,0,1.89-3.78A4.77,4.77,0,0,0,29,38.74H8.08a4.67,4.67,0,0,0-2.73.87,4.29,4.29,0,0,0-.66.56,1.82,1.82,0,0,0-.22.24,1.13,1.13,0,0,0-.19.24,4.6,4.6,0,0,0-1,2.83.29.29,0,0,0,0,.09,4.79,4.79,0,0,0,1,2.86,4.31,4.31,0,0,0,.87.83Z"/><path class="cls-7" d="M8.18,41.49a2,2,0,1,0,2,2A2,2,0,0,0,8.18,41.49Zm1.2,2a1.2,1.2,0,1,1-1.2-1.2A1.21,1.21,0,0,1,9.38,43.49Z"/><path class="cls-7" d="M15.07,41.49a2,2,0,1,0,2,2A2,2,0,0,0,15.07,41.49Zm1.2,2a1.2,1.2,0,1,1-1.2-1.2A1.21,1.21,0,0,1,16.27,43.49Z"/><path class="cls-7" d="M22,41.49a2,2,0,1,0,2,2A2,2,0,0,0,22,41.49Zm1.2,2a1.2,1.2,0,1,1-1.2-1.2A1.21,1.21,0,0,1,23.16,43.49Z"/><path class="cls-7" d="M28.85,41.49a2,2,0,1,0,2,2A2,2,0,0,0,28.85,41.49Zm1.2,2a1.2,1.2,0,1,1-1.2-1.2A1.21,1.21,0,0,1,30.05,43.49Z"/><path class="cls-7" d="M42.34,36a3.14,3.14,0,0,0,0-.48A3.1,3.1,0,0,0,41,32.89L38.38,20.42h0l0-.17a2.11,2.11,0,0,0-2.44-1.46l-11.11,2.3A2.4,2.4,0,0,0,22.89,20H12.51a1.67,1.67,0,0,0-1.67,1.67v2.36H6a1,1,0,0,0-1,1v11a2,2,0,0,0,2,1.85H28.48a2,2,0,0,0,2-2,1.94,1.94,0,0,0-.13-.71h0l-3.22-8.3,5.58-2.28L36.53,34a3.11,3.11,0,0,0,1.28,4.22l-1.65,5.21h0l-.73-.23a.4.4,0,0,0-.52.38v1.21a.4.4,0,0,0,.27.38A6.19,6.19,0,0,0,42.34,36ZM5.73,35.51h5.76a.4.4,0,1,0,0-.79H5.73V29h2.4a.4.4,0,0,0,0-.79H5.73V26.78h5.54a.4.4,0,0,0,0-.79H5.73V25.1A.25.25,0,0,1,6,24.85h7.7a.25.25,0,0,1,.25.25v9.23a.4.4,0,0,0,.4.4H28.48a1.19,1.19,0,1,1,0,2.38H6.92A1.2,1.2,0,0,1,5.73,36Zm20-3.53H16.67a.4.4,0,0,0,0,.79H26l.45,1.16H14.74V25.1a1.05,1.05,0,0,0-.78-1v-.51a.49.49,0,0,1,.49-.49h7.22a1,1,0,0,1,.84.57Zm2.75,2H27.34l-4.1-10.56a1.8,1.8,0,0,0-1.58-1.08H14.44a1.28,1.28,0,0,0-1.28,1.28v.47H11.63V21.69a.88.88,0,0,1,.88-.88H22.89a1.6,1.6,0,0,1,1.37.94L29,34A2,2,0,0,0,28.48,33.94Zm8.61-.65-3.67-9,3.7-1.52a2.12,2.12,0,0,0,.82-.6L40.07,32.5a3.1,3.1,0,0,0-3,.79ZM36.92,43.7l1.63-5.17A3.11,3.11,0,0,0,42,37a5.33,5.33,0,0,1,.53,2.33,5.4,5.4,0,0,1-6.82,5.21v-.37l.21.07a.8.8,0,0,0,1-.52Zm2.34-5.88a2.32,2.32,0,1,1,2.32-2.32A2.32,2.32,0,0,1,39.27,37.81ZM36.82,22.08l-10,4.1-1.69-4.35,10.93-2.26a1.32,1.32,0,0,1,.76,2.52Z"/><path class="cls-7" d="M39.27,34.07a1.43,1.43,0,1,0,1.43,1.43A1.43,1.43,0,0,0,39.27,34.07Zm.63,1.43a.63.63,0,1,1-.63-.63A.63.63,0,0,1,39.9,35.5Z"/><path class="cls-5" d="M28.45,38.16H7.53A4.76,4.76,0,0,0,2.78,42.9a.39.39,0,0,0,0,.09,4.77,4.77,0,0,0,4.75,4.66H28.45a4.75,4.75,0,1,0,0-9.49Z"/><path class="cls-5" d="M41.79,35.39a3.14,3.14,0,0,0,0-.48,3.1,3.1,0,0,0-1.42-2.61L37.84,19.84h0l0-.17a2.11,2.11,0,0,0-2.44-1.46L24.25,20.5a2.4,2.4,0,0,0-1.9-1.06H12a1.67,1.67,0,0,0-1.67,1.67v2.36H5.44a1,1,0,0,0-1,1v11a2,2,0,0,0,2,1.85H27.93a2,2,0,0,0,2-2,1.94,1.94,0,0,0-.13-.71h0l-3.22-8.3L32.14,24,36,33.44a3.11,3.11,0,0,0,1.28,4.22l-1.65,5.21h0l-.73-.23a.4.4,0,0,0-.52.38v1.21a.4.4,0,0,0,.27.38,6.19,6.19,0,0,0,7.16-9.22Z"/><path class="cls-1" d="M28.46,39.65H7.5a3.26,3.26,0,0,0,0,6.51h21a3.26,3.26,0,1,0,0-6.51Zm2.46,3.26a2.47,2.47,0,0,1-2.46,2.46H7.5a2.46,2.46,0,0,1,0-4.93h21A2.47,2.47,0,0,1,30.92,42.9Z"/><path class="cls-1" d="M28.45,38.16H7.53A4.76,4.76,0,0,0,2.78,42.9a.39.39,0,0,0,0,.09,4.77,4.77,0,0,0,4.75,4.66H28.45a4.75,4.75,0,1,0,0-9.49Zm4,4.75a4,4,0,0,1-4,4H7.53a4,4,0,0,1-4-4,.41.41,0,0,0,0-.08,4,4,0,0,1,4-3.87H28.45A4,4,0,0,1,32.4,42.9Z"/><path class="cls-1" d="M7.63,40.9a2,2,0,1,0,2,2A2,2,0,0,0,7.63,40.9Zm1.2,2a1.2,1.2,0,1,1-1.2-1.2A1.21,1.21,0,0,1,8.84,42.9Z"/><path class="cls-1" d="M14.52,40.9a2,2,0,1,0,2,2A2,2,0,0,0,14.52,40.9Zm1.2,2a1.2,1.2,0,1,1-1.2-1.2A1.21,1.21,0,0,1,15.73,42.9Z"/><path class="cls-1" d="M21.41,40.9a2,2,0,1,0,2,2A2,2,0,0,0,21.41,40.9Zm1.2,2a1.2,1.2,0,1,1-1.2-1.2A1.21,1.21,0,0,1,22.62,42.9Z"/><path class="cls-1" d="M28.3,40.9a2,2,0,1,0,2,2A2,2,0,0,0,28.3,40.9Zm1.2,2a1.2,1.2,0,1,1-1.2-1.2A1.21,1.21,0,0,1,29.51,42.9Z"/><path class="cls-1" d="M41.79,35.39a3.14,3.14,0,0,0,0-.48,3.1,3.1,0,0,0-1.42-2.61L37.84,19.84h0l0-.17a2.11,2.11,0,0,0-2.44-1.46L24.25,20.5a2.4,2.4,0,0,0-1.9-1.06H12a1.67,1.67,0,0,0-1.67,1.67v2.36H5.44a1,1,0,0,0-1,1v11a2,2,0,0,0,2,1.85H27.93a2,2,0,0,0,2-2,1.94,1.94,0,0,0-.13-.71h0l-3.22-8.3L32.14,24,36,33.44a3.11,3.11,0,0,0,1.28,4.22l-1.65,5.21h0l-.73-.23a.4.4,0,0,0-.52.38v1.21a.4.4,0,0,0,.27.38,6.19,6.19,0,0,0,7.16-9.22ZM5.18,34.93h5.76a.4.4,0,1,0,0-.79H5.18V28.37h2.4a.4.4,0,0,0,0-.79H5.18V26.2h5.54a.4.4,0,0,0,0-.79H5.18v-.89a.25.25,0,0,1,.25-.25h7.7a.25.25,0,0,1,.25.25v9.23a.4.4,0,0,0,.4.4H27.93a1.19,1.19,0,1,1,0,2.38H6.37a1.2,1.2,0,0,1-1.19-1.1Zm20-3.53H16.12a.4.4,0,0,0,0,.79h9.37l.45,1.16H14.19V24.52a1.05,1.05,0,0,0-.78-1V23a.49.49,0,0,1,.49-.49h7.22a1,1,0,0,1,.84.57Zm2.75,2H26.8L22.7,22.79a1.8,1.8,0,0,0-1.58-1.08H13.9A1.28,1.28,0,0,0,12.61,23v.47H11.08V21.11a.88.88,0,0,1,.88-.88H22.34a1.6,1.6,0,0,1,1.37.94l4.76,12.27A2,2,0,0,0,27.93,33.36Zm8.61-.65-3.67-9,3.7-1.52a2.12,2.12,0,0,0,.82-.6l2.12,10.29a3.1,3.1,0,0,0-3,.79Zm-.16,10.41L38,37.94a3.11,3.11,0,0,0,3.44-1.54A5.33,5.33,0,0,1,42,38.73a5.4,5.4,0,0,1-6.82,5.21v-.37l.21.07a.8.8,0,0,0,1-.52Zm2.34-5.88A2.32,2.32,0,1,1,41,34.92,2.32,2.32,0,0,1,38.72,37.23ZM36.27,21.49l-10,4.1-1.69-4.35L35.51,19a1.32,1.32,0,0,1,.76,2.52Z"/><path class="cls-1" d="M38.72,33.49a1.43,1.43,0,1,0,1.43,1.43A1.43,1.43,0,0,0,38.72,33.49Zm.63,1.43a.63.63,0,1,1-.63-.63A.63.63,0,0,1,39.35,34.92Z"/><path class="cls-3" d="M67,24.13l-6.55,5.08,2.24.75L59.6,34.48l6.27-5.1-2-.81Zm0,0"/><path class="cls-3" d="M48,10.74l-3.89,3,1.33.45-1.85,2.69,3.72-3-1.17-.48Zm0,0"/><path class="cls-3" d="M20.11,4.11,15.12,8l1.71.57L14.45,12l4.77-3.88-1.5-.62Zm0,0"/><path class="cls-3" d="M32,0,24.77,5.61l2.47.83-3.44,5L30.73,5.8l-2.17-.89Zm0,0"/><path class="cls-1" d="M65.05,47.77H.5a.5.5,0,0,1,0-1H65.05a.5.5,0,0,1,0,1Z"/><polygon class="cls-8" points="49.04 63.79 48.12 62.51 49.7 62.56 50.64 61.28 51.08 62.8 52.59 63.3 51.28 64.19 51.27 65.77 50.02 64.8 48.51 65.28 49.04 63.79"/><polygon class="cls-8" points="16.53 64.35 15.14 63.59 16.58 62.95 16.87 61.39 17.93 62.57 19.5 62.36 18.71 63.73 19.39 65.16 17.84 64.83 16.7 65.92 16.53 64.35"/></g></g></svg>