<svg xmlns="http://www.w3.org/2000/svg" viewBox="0 0 70.98 63.47"><defs><style>.cls-1,.cls-6{fill:#22366b;}.cls-2{fill:#f04e24;}.cls-3{fill:#bad5ea;}.cls-3,.cls-4,.cls-6{fill-rule:evenodd;}.cls-4,.cls-5{fill:#fff;}.cls-7{fill:#79b1e0;}</style></defs><title>infra-experience</title><g id="Layer_2" data-name="Layer 2"><g id="final_icons_bios"><path class="cls-1" d="M7.11,51.2a.13.13,0,0,1,.12-.12h.6A.13.13,0,0,1,8,51.2V55.5a.13.13,0,0,1-.12.12h-.6a.13.13,0,0,1-.12-.12Z"/><path class="cls-1" d="M9.14,51.13A.12.12,0,0,1,9.26,51h.16l2.7,2.87h0V51.2a.12.12,0,0,1,.12-.12h.6a.13.13,0,0,1,.12.12v4.36a.12.12,0,0,1-.12.12h-.16l-2.71-3h0V55.5a.12.12,0,0,1-.12.12H9.26a.13.13,0,0,1-.12-.12Z"/><path class="cls-1" d="M14.15,51.2a.12.12,0,0,1,.12-.12h2.64a.12.12,0,0,1,.12.12v.53a.12.12,0,0,1-.12.12H15v1.22h1.6a.13.13,0,0,1,.12.12v.53a.13.13,0,0,1-.12.12H15V55.5a.13.13,0,0,1-.12.12h-.6a.12.12,0,0,1-.12-.12Z"/><path class="cls-1" d="M17.81,51.2a.12.12,0,0,1,.12-.12h1.86a1.4,1.4,0,0,1,1.41,1.39,1.43,1.43,0,0,1-1,1.31l.89,1.65a.12.12,0,0,1-.11.19h-.68a.11.11,0,0,1-.1-.06l-.86-1.72h-.72V55.5a.13.13,0,0,1-.12.12h-.6a.12.12,0,0,1-.12-.12Zm1.91,1.95a.66.66,0,0,0,.64-.66.64.64,0,0,0-.64-.63H18.66v1.29Z"/><path class="cls-1" d="M21.54,55.45l2-4.36a.12.12,0,0,1,.11-.07h.07a.11.11,0,0,1,.11.07l2,4.36a.11.11,0,0,1-.11.17h-.56a.19.19,0,0,1-.19-.13l-.32-.7H22.72l-.32.7a.19.19,0,0,1-.19.13h-.56A.11.11,0,0,1,21.54,55.45Zm2.8-1.38-.65-1.43h0L23,54.07Z"/><path class="cls-1" d="M26.17,55l.23-.4a.15.15,0,0,1,.22,0,2.15,2.15,0,0,0,1,.4.54.54,0,0,0,.59-.5c0-.33-.28-.56-.82-.78s-1.22-.64-1.22-1.4A1.29,1.29,0,0,1,27.61,51a2.28,2.28,0,0,1,1.3.43.16.16,0,0,1,0,.21L28.7,52a.17.17,0,0,1-.23.08,2.12,2.12,0,0,0-.9-.36.52.52,0,0,0-.57.45c0,.3.24.51.77.73s1.36.63,1.36,1.47a1.37,1.37,0,0,1-1.49,1.28,2.09,2.09,0,0,1-1.43-.51C26.14,55.12,26.11,55.09,26.17,55Z"/><path class="cls-1" d="M30.56,51.86h-1a.12.12,0,0,1-.12-.12V51.2a.12.12,0,0,1,.12-.12H32.4a.12.12,0,0,1,.12.12v.53a.12.12,0,0,1-.12.12h-1V55.5a.13.13,0,0,1-.12.12h-.6a.13.13,0,0,1-.12-.12Z"/><path class="cls-1" d="M33.2,51.2a.12.12,0,0,1,.12-.12h1.86a1.4,1.4,0,0,1,1.41,1.39,1.43,1.43,0,0,1-1,1.31l.89,1.65a.12.12,0,0,1-.11.19h-.68a.11.11,0,0,1-.1-.06l-.86-1.72H34V55.5a.13.13,0,0,1-.12.12h-.6a.12.12,0,0,1-.12-.12Zm1.91,1.95a.66.66,0,0,0,.64-.66.64.64,0,0,0-.64-.63H34.05v1.29Z"/><path class="cls-1" d="M37.46,51.2a.13.13,0,0,1,.12-.12h.62a.12.12,0,0,1,.12.12v2.65a.94.94,0,1,0,1.89,0V51.2a.12.12,0,0,1,.12-.12h.62a.13.13,0,0,1,.12.12v2.7a1.81,1.81,0,0,1-3.61,0Z"/><path class="cls-1" d="M44.2,51a2.2,2.2,0,0,1,1.57.6.12.12,0,0,1,0,.18l-.4.41a.1.1,0,0,1-.16,0,1.53,1.53,0,0,0-1-.38,1.51,1.51,0,0,0,0,3,1.55,1.55,0,0,0,1-.37.12.12,0,0,1,.16,0l.4.42a.12.12,0,0,1,0,.18,2.23,2.23,0,0,1-1.58.63,2.33,2.33,0,1,1,0-4.67Z"/><path class="cls-1" d="M47.24,51.86h-1a.12.12,0,0,1-.12-.12V51.2a.12.12,0,0,1,.12-.12h2.83a.12.12,0,0,1,.12.12v.53a.12.12,0,0,1-.12.12h-1V55.5a.13.13,0,0,1-.12.12h-.6a.13.13,0,0,1-.12-.12Z"/><path class="cls-1" d="M49.81,51.2a.13.13,0,0,1,.12-.12h.62a.12.12,0,0,1,.12.12v2.65a.94.94,0,1,0,1.89,0V51.2a.12.12,0,0,1,.12-.12h.62a.13.13,0,0,1,.12.12v2.7a1.81,1.81,0,0,1-3.61,0Z"/><path class="cls-1" d="M54.54,51.2a.12.12,0,0,1,.12-.12h1.86a1.4,1.4,0,0,1,1.41,1.39,1.43,1.43,0,0,1-1,1.31l.89,1.65a.12.12,0,0,1-.11.19h-.68a.11.11,0,0,1-.1-.06l-.86-1.72h-.72V55.5a.13.13,0,0,1-.12.12h-.6a.12.12,0,0,1-.12-.12Zm1.91,1.95a.66.66,0,0,0,.64-.66.64.64,0,0,0-.64-.63H55.39v1.29Z"/><path class="cls-1" d="M58.86,51.2a.12.12,0,0,1,.12-.12h2.64a.12.12,0,0,1,.12.12v.53a.12.12,0,0,1-.12.12H59.71v1.06h1.6a.13.13,0,0,1,.12.12v.54a.12.12,0,0,1-.12.12h-1.6v1.13h1.92a.12.12,0,0,1,.12.12v.53a.12.12,0,0,1-.12.12H59a.12.12,0,0,1-.12-.12Z"/><path class="cls-1" d="M15.39,59a.12.12,0,0,1,.12-.12h2.64a.12.12,0,0,1,.12.12v.53a.12.12,0,0,1-.12.12H16.23v1.06h1.6a.13.13,0,0,1,.12.12v.54a.12.12,0,0,1-.12.12h-1.6v1.13h1.92a.12.12,0,0,1,.12.12v.53a.12.12,0,0,1-.12.12H15.51a.12.12,0,0,1-.12-.12Z"/><path class="cls-1" d="M20.16,61.08l-1.3-2a.12.12,0,0,1,.11-.18h.75a.13.13,0,0,1,.1.06l.83,1.37h0l.84-1.37a.12.12,0,0,1,.1-.06h.75a.12.12,0,0,1,.11.18l-1.3,2,1.35,2.15a.12.12,0,0,1-.11.18h-.7a.13.13,0,0,1-.11-.06l-.93-1.48h0l-.91,1.48a.14.14,0,0,1-.11.06h-.7c-.12,0-.17-.1-.12-.18Z"/><path class="cls-1" d="M23.3,59a.12.12,0,0,1,.12-.12H25a1.45,1.45,0,1,1,0,2.89h-.81v1.52a.13.13,0,0,1-.12.12h-.6a.12.12,0,0,1-.12-.12Zm1.6,2a.67.67,0,0,0,.67-.67.65.65,0,0,0-.67-.63h-.75V61Z"/><path class="cls-1" d="M27.14,59a.12.12,0,0,1,.12-.12h2.64A.12.12,0,0,1,30,59v.53a.12.12,0,0,1-.12.12H28v1.06h1.6a.13.13,0,0,1,.12.12v.54a.12.12,0,0,1-.12.12H28v1.13h1.92a.12.12,0,0,1,.12.12v.53a.12.12,0,0,1-.12.12H27.27a.12.12,0,0,1-.12-.12Z"/><path class="cls-1" d="M31,59a.12.12,0,0,1,.12-.12h1.86a1.4,1.4,0,0,1,1.41,1.39,1.43,1.43,0,0,1-1,1.31l.89,1.65a.12.12,0,0,1-.11.19h-.68a.11.11,0,0,1-.1-.06l-.86-1.72H31.8v1.65a.13.13,0,0,1-.12.12h-.6a.12.12,0,0,1-.12-.12Zm1.91,1.95a.66.66,0,0,0,.64-.66.64.64,0,0,0-.64-.63H31.81v1.29Z"/><path class="cls-1" d="M35.28,59a.13.13,0,0,1,.12-.12H36a.13.13,0,0,1,.12.12v4.29a.13.13,0,0,1-.12.12h-.6a.13.13,0,0,1-.12-.12Z"/><path class="cls-1" d="M37.31,59a.12.12,0,0,1,.12-.12h2.64a.12.12,0,0,1,.12.12v.53a.12.12,0,0,1-.12.12H38.16v1.06h1.6a.13.13,0,0,1,.12.12v.54a.12.12,0,0,1-.12.12h-1.6v1.13h1.92a.12.12,0,0,1,.12.12v.53a.12.12,0,0,1-.12.12H37.43a.12.12,0,0,1-.12-.12Z"/><path class="cls-1" d="M41.13,58.92a.12.12,0,0,1,.12-.12h.16l2.7,2.87h0V59a.12.12,0,0,1,.12-.12h.6A.13.13,0,0,1,45,59v4.36a.12.12,0,0,1-.12.12h-.16l-2.71-3h0v2.79a.12.12,0,0,1-.12.12h-.59a.13.13,0,0,1-.12-.12Z"/><path class="cls-1" d="M48.15,58.8a2.2,2.2,0,0,1,1.57.6.12.12,0,0,1,0,.18l-.4.41a.1.1,0,0,1-.16,0,1.53,1.53,0,0,0-1-.38,1.51,1.51,0,0,0,0,3,1.55,1.55,0,0,0,1-.37.12.12,0,0,1,.16,0l.4.42a.12.12,0,0,1,0,.18,2.23,2.23,0,0,1-1.58.63,2.33,2.33,0,1,1,0-4.67Z"/><path class="cls-1" d="M50.58,59a.12.12,0,0,1,.12-.12h2.64a.12.12,0,0,1,.12.12v.53a.12.12,0,0,1-.12.12H51.42v1.06H53a.13.13,0,0,1,.12.12v.54a.12.12,0,0,1-.12.12h-1.6v1.13h1.92a.12.12,0,0,1,.12.12v.53a.12.12,0,0,1-.12.12H50.7a.12.12,0,0,1-.12-.12Z"/><path class="cls-2" d="M7.72,9.14h0a.5.5,0,0,1-.5-.5L7.25,5a.5.5,0,0,1,.46-.49l3.42-.29a.51.51,0,0,1,.54.46.5.5,0,0,1-.46.54l-3,.25,0,3.19A.5.5,0,0,1,7.72,9.14Z"/><path class="cls-2" d="M58.52,34.76c-.44,0-.91,0-1.39-.05a.5.5,0,0,1-.46-.54.49.49,0,0,1,.54-.46,12.9,12.9,0,0,0,1.35,0h1.61a.5.5,0,0,1,0,1H58.52Zm4.65,0a.5.5,0,0,1,0-1h2.69a.5.5,0,0,1,0,1H63.17Zm-9-.5h-.12a15.57,15.57,0,0,1-2.92-1,.5.5,0,1,1,.43-.9,14.65,14.65,0,0,0,2.73,1,.5.5,0,0,1-.12,1Zm-5.36-2.58a.5.5,0,0,1-.32-.11,11.71,11.71,0,0,1-2.14-2.28.5.5,0,0,1,.81-.58,10.69,10.69,0,0,0,2,2.08.5.5,0,0,1-.32.89Zm-3.46-4.81a.5.5,0,0,1-.47-.32,15.26,15.26,0,0,1-.81-3,.5.5,0,1,1,1-.17,14.29,14.29,0,0,0,.75,2.79.5.5,0,0,1-.47.68ZM44.1,21a.5.5,0,0,1-.49-.39,16.52,16.52,0,0,0-.9-2.76.5.5,0,0,1,.92-.4,17.45,17.45,0,0,1,1,2.93.5.5,0,0,1-.37.6Zm-2.42-5.44a.5.5,0,0,1-.4-.2,9.79,9.79,0,0,0-2-2,.5.5,0,1,1,.59-.81,10.79,10.79,0,0,1,2.23,2.2.5.5,0,0,1-.4.8ZM36.9,12.09a.49.49,0,0,1-.17,0,12.66,12.66,0,0,0-2.81-.64.5.5,0,0,1-.44-.55.51.51,0,0,1,.55-.44,13.62,13.62,0,0,1,3,.69.5.5,0,0,1-.17,1ZM25,11.37h0c-1.11,0-2.1-.06-3-.13a.5.5,0,0,1-.46-.54.51.51,0,0,1,.54-.46c.91.07,1.88.12,3,.13a.5.5,0,0,1,0,1Zm3,0a.5.5,0,0,1,0-1h.56l2.44,0h0a.5.5,0,0,1,0,1l-2.43,0H28Zm-9-.49h-.09a27.3,27.3,0,0,1-3-.7.5.5,0,0,1,.29-1,26.25,26.25,0,0,0,2.86.68.5.5,0,0,1-.09,1ZM13.28,9.15a.5.5,0,0,1-.2,0,27.5,27.5,0,0,1-2.73-1.37.5.5,0,1,1,.5-.87,26.45,26.45,0,0,0,2.63,1.32.5.5,0,0,1-.2,1Z"/><path class="cls-3" d="M52.45,24.61a.46.46,0,0,1,.25-.88l5.12,1.48a.46.46,0,1,1-.25.88Zm0,0"/><path class="cls-3" d="M52.51,26.52a.46.46,0,0,1,.26-.88l4,1.15a.46.46,0,1,1-.26.88Zm0,0"/><path class="cls-3" d="M55.85,20.88a.46.46,0,0,1-.88-.25A24.09,24.09,0,0,0,56,16a13.67,13.67,0,0,0-.39-4.33.45.45,0,0,1,.34-.55.46.46,0,0,1,.55.34,14.28,14.28,0,0,1,.41,4.61,25.07,25.07,0,0,1-1,4.79Zm0,0"/><path class="cls-3" d="M57.56,21.38a.46.46,0,1,1-.88-.25,25.17,25.17,0,0,1,1.68-4.6,14.32,14.32,0,0,1,2.81-3.69.45.45,0,0,1,.64,0,.46.46,0,0,1,0,.64,13.6,13.6,0,0,0-2.64,3.46,24.19,24.19,0,0,0-1.61,4.43Zm0,0"/><path class="cls-3" d="M55.77,12a.46.46,0,0,1,.51-.76,5.84,5.84,0,0,1,.71.59l0,0c.33.3.6.55.89.42l.67-.29a.46.46,0,1,1,.35.84l-.67.29c-.83.35-1.31-.07-1.88-.6h0a4.86,4.86,0,0,0-.6-.5Zm0,0"/><path class="cls-3" d="M62,2.92a.46.46,0,1,1-.88-.26L61.57,1a.46.46,0,0,1,.88.26Zm0,0"/><path class="cls-3" d="M61.47,12.7a.46.46,0,1,1,0,.92,4.93,4.93,0,0,0-.78.1h0c-.76.14-1.39.25-1.91-.5l-.41-.59A.46.46,0,0,1,58.5,12a.45.45,0,0,1,.63.11l.41.6c.18.26.54.2,1,.12h0a6.27,6.27,0,0,1,.92-.12Zm0,0"/><path class="cls-3" d="M65.71,9.1a8.17,8.17,0,0,1-.39,8.52,8.25,8.25,0,0,1-1.75,1.87,28.06,28.06,0,0,1-2.67,1.82,3.71,3.71,0,0,0-2.17,2.56.46.46,0,0,1-.57.31L53,22.7a.46.46,0,0,1-.32-.57,3.67,3.67,0,0,0-.48-3.3,27,27,0,0,1-1.31-3,8.17,8.17,0,0,1,1.29-7.88h0a8.12,8.12,0,0,1,2.42-2,8.2,8.2,0,0,1,3-1A8.17,8.17,0,0,1,65.71,9.1Zm-.19,6a7.23,7.23,0,0,0-.61-5.51,7.31,7.31,0,0,0-1.82-2.16,7.25,7.25,0,0,0-5.32-1.54A7.27,7.27,0,0,0,52.92,8.5l0,0A7.18,7.18,0,0,0,51.6,11a7.22,7.22,0,0,0,.15,4.49A27.44,27.44,0,0,0,53,18.43h0c.67,1.35,1,2,.66,3.51L58,23.18c.5-1.45,1.13-1.84,2.43-2.65A27.91,27.91,0,0,0,63,18.76a7.2,7.2,0,0,0,1.56-1.65,7.3,7.3,0,0,0,1-2.06Zm0,0"/><path class="cls-3" d="M52.58,28.43a.46.46,0,1,1,.25-.88l2.85.82a.46.46,0,1,1-.25.88Zm0,0"/><path class="cls-3" d="M66.48,5.92a.46.46,0,0,1-.65,0,.45.45,0,0,1,0-.64L67.12,4a.45.45,0,0,1,.63.65Zm0,0"/><path class="cls-3" d="M56.55,2.58a.45.45,0,1,1-.88.22l-.43-1.73a.46.46,0,0,1,.89-.21Zm0,0"/><path class="cls-3" d="M51.7,5a.46.46,0,1,1-.66.63L49.8,4.34a.46.46,0,0,1,.66-.63Zm0,0"/><path class="cls-3" d="M68.88,10.77a.45.45,0,0,1-.22-.88l1.73-.43a.45.45,0,0,1,.55.33.46.46,0,0,1-.34.55Zm0,0"/><path class="cls-3" d="M53.48,13.45a.46.46,0,1,1-.91.11,6.47,6.47,0,0,1,0-1.21,6.13,6.13,0,0,1,.22-1.2.46.46,0,1,1,.88.26,4.88,4.88,0,0,0-.19,1,4.93,4.93,0,0,0,0,1ZM54.6,9.59A.46.46,0,0,1,53.89,9a6.13,6.13,0,0,1,.82-.83h0a6.51,6.51,0,0,1,1-.66,6,6,0,0,1,1.08-.46h0A6.55,6.55,0,0,1,57.9,6.8a6.4,6.4,0,0,1,1.22,0A6.12,6.12,0,0,1,60.31,7a.46.46,0,0,1-.26.88,5.08,5.08,0,0,0-2-.17,5.26,5.26,0,0,0-1.89.61,5.59,5.59,0,0,0-.82.56,5.23,5.23,0,0,0-.7.71Zm0,0"/><path class="cls-4" d="M58.16,25.27a.47.47,0,0,0-.32-.56l-5.12-1.48a.46.46,0,0,0-.57.32.46.46,0,0,0,.31.56l5.13,1.48A.46.46,0,0,0,58.16,25.27Z"/><path class="cls-4" d="M57.09,26.86a.46.46,0,0,0-.32-.57l-4-1.16a.45.45,0,0,0-.56.32.46.46,0,0,0,.31.56l4,1.16A.48.48,0,0,0,57.09,26.86Z"/><path class="cls-5" d="M61.87,12.94,61.8,13"/><path class="cls-5" d="M58.68,11.42l-.08,0a.27.27,0,0,1,.12,0A0,0,0,0,0,58.68,11.42Z"/><path class="cls-4" d="M62,2.42,62.47.71a.45.45,0,0,0-.31-.56.45.45,0,0,0-.56.31l-.5,1.71a.46.46,0,1,0,.89.26Z"/><path class="cls-5" d="M62,12.64h0a.35.35,0,0,1,0,.16A.41.41,0,0,0,62,12.64ZM61.8,13l-1.06.21"/><path class="cls-4" d="M66.43,14.8a8.15,8.15,0,0,0-.69-6.21,8,8,0,0,0-2.05-2.43A7.91,7.91,0,0,0,60.85,4.7a8.17,8.17,0,0,0-6.21.69,7.88,7.88,0,0,0-2.42,2h0a8.15,8.15,0,0,0-1.46,2.83,7.91,7.91,0,0,0-.31,2.54,8.08,8.08,0,0,0,.49,2.52,26.52,26.52,0,0,0,1.31,3,3.65,3.65,0,0,1,.48,3.29.47.47,0,0,0,.32.57l5.16,1.49a.46.46,0,0,0,.56-.31,3.71,3.71,0,0,1,2.17-2.57A28.43,28.43,0,0,0,63.58,19a8.31,8.31,0,0,0,1.76-1.87A8.18,8.18,0,0,0,66.43,14.8Z"/><path class="cls-4" d="M56,28.44a.46.46,0,0,0-.32-.57L52.85,27a.45.45,0,1,0-.26.87l2.85.83A.47.47,0,0,0,56,28.44Z"/><path class="cls-4" d="M67.78,3.54a.45.45,0,0,0-.64,0L65.87,4.76a.44.44,0,0,0,0,.64.46.46,0,0,0,.64,0l1.28-1.24A.45.45,0,0,0,67.78,3.54Z"/><path class="cls-4" d="M56.57,2.07,56.15.35a.45.45,0,1,0-.88.21l.43,1.72a.45.45,0,0,0,.88-.21Z"/><path class="cls-4" d="M51.71,4.49,50.49,3.2a.46.46,0,0,0-.67.63l1.24,1.28a.45.45,0,1,0,.65-.63Z"/><path class="cls-4" d="M71,9.29A.45.45,0,0,0,70.42,9l-1.73.43a.45.45,0,0,0,.21.88l1.73-.42A.47.47,0,0,0,71,9.29Z"/><path class="cls-4" d="M54.62,9.08"/><path class="cls-6" d="M52.47,24.1a.46.46,0,0,1,.25-.88l5.12,1.48a.46.46,0,1,1-.25.88Zm0,0"/><path class="cls-6" d="M52.53,26a.46.46,0,0,1,.26-.88l4,1.15a.46.46,0,1,1-.26.88Zm0,0"/><path class="cls-6" d="M55.87,20.38a.46.46,0,1,1-.88-.25,24.09,24.09,0,0,0,1-4.61,13.67,13.67,0,0,0-.39-4.33.45.45,0,0,1,.34-.55.46.46,0,0,1,.55.34,14.28,14.28,0,0,1,.41,4.61,25.07,25.07,0,0,1-1,4.79Zm0,0"/><path class="cls-6" d="M57.58,20.87a.46.46,0,1,1-.88-.25A25.17,25.17,0,0,1,58.38,16a14.32,14.32,0,0,1,2.81-3.69.45.45,0,0,1,.64,0,.46.46,0,0,1,0,.64,13.6,13.6,0,0,0-2.64,3.46,24.19,24.19,0,0,0-1.61,4.43Zm0,0"/><path class="cls-6" d="M55.79,11.46a.46.46,0,0,1,.51-.76,5.84,5.84,0,0,1,.71.59l0,0c.33.3.6.55.89.42l.67-.29a.46.46,0,1,1,.35.84l-.67.29c-.83.35-1.31-.07-1.88-.6h0a4.86,4.86,0,0,0-.6-.5Zm0,0"/><path class="cls-6" d="M62,2.41a.46.46,0,1,1-.88-.26L61.6.45a.46.46,0,0,1,.88.26Zm0,0"/><path class="cls-6" d="M61.5,12.2a.46.46,0,1,1,0,.92,4.93,4.93,0,0,0-.78.1h0c-.76.14-1.39.25-1.91-.5l-.41-.59a.46.46,0,0,1,.12-.64.45.45,0,0,1,.63.11l.41.6c.18.26.54.2,1,.12h0a6.27,6.27,0,0,1,.92-.12Zm0,0"/><path class="cls-6" d="M65.73,8.59a8.17,8.17,0,0,1-.39,8.52A8.25,8.25,0,0,1,63.59,19a28.06,28.06,0,0,1-2.67,1.82,3.71,3.71,0,0,0-2.17,2.56.46.46,0,0,1-.57.31L53,22.19a.46.46,0,0,1-.32-.57,3.67,3.67,0,0,0-.48-3.3,27,27,0,0,1-1.31-3,8.17,8.17,0,0,1,1.29-7.88h0a8.12,8.12,0,0,1,2.42-2,8.2,8.2,0,0,1,3-1,8.17,8.17,0,0,1,8.05,4.17Zm-.19,6A7.23,7.23,0,0,0,64.93,9a7.31,7.31,0,0,0-1.82-2.16,7.25,7.25,0,0,0-5.32-1.54A7.27,7.27,0,0,0,52.94,8l0,0a7.18,7.18,0,0,0-1.3,2.51A7.22,7.22,0,0,0,51.78,15a27.44,27.44,0,0,0,1.27,2.91h0c.67,1.35,1,2,.66,3.51L58,22.68c.5-1.45,1.13-1.84,2.43-2.65A27.91,27.91,0,0,0,63,18.26a7.2,7.2,0,0,0,1.56-1.65,7.3,7.3,0,0,0,1-2.06Zm0,0"/><path class="cls-6" d="M52.6,27.93a.46.46,0,1,1,.25-.88l2.85.82a.46.46,0,1,1-.25.88Zm0,0"/><path class="cls-6" d="M66.5,5.41a.46.46,0,0,1-.65,0,.45.45,0,0,1,0-.64l1.28-1.23a.45.45,0,0,1,.63.65Zm0,0"/><path class="cls-6" d="M56.57,2.07a.45.45,0,1,1-.88.22L55.26.56a.46.46,0,0,1,.89-.21Zm0,0"/><path class="cls-6" d="M51.72,4.49a.46.46,0,1,1-.66.63L49.83,3.84a.46.46,0,0,1,.66-.63Zm0,0"/><path class="cls-6" d="M68.9,10.27a.45.45,0,0,1-.22-.88L70.41,9a.45.45,0,0,1,.55.33.46.46,0,0,1-.34.55Zm0,0"/><path class="cls-6" d="M53.51,12.95a.46.46,0,1,1-.91.11,6.47,6.47,0,0,1,0-1.21,6.13,6.13,0,0,1,.22-1.2.46.46,0,1,1,.88.26,4.88,4.88,0,0,0-.19,1,4.93,4.93,0,0,0,0,1Zm1.12-3.87a.46.46,0,0,1-.71-.57,6.13,6.13,0,0,1,.82-.83h0a6.51,6.51,0,0,1,1-.66,6,6,0,0,1,1.08-.46h0a6.55,6.55,0,0,1,1.14-.25,6.4,6.4,0,0,1,1.22,0,6.12,6.12,0,0,1,1.19.22.46.46,0,0,1-.26.88,5.08,5.08,0,0,0-2-.17,5.26,5.26,0,0,0-1.89.61,5.59,5.59,0,0,0-.82.56,5.23,5.23,0,0,0-.7.71Zm0,0"/><path class="cls-7" d="M31.23,38.28h0a3.27,3.27,0,0,0-2.08-.75H8.08a3.2,3.2,0,0,0-1.87.59,2.32,2.32,0,0,0-.35.27c-.1.1-.21.21-.3.32l-.08.11a3.22,3.22,0,0,0,0,3.89l0,0a3.22,3.22,0,0,0,2.63,1.34H29.14A2.79,2.79,0,0,0,29.7,44a3.25,3.25,0,0,0,2.63-2.5.13.13,0,0,0,0-.06,3.15,3.15,0,0,0,.07-.67A3.23,3.23,0,0,0,31.23,38.28Zm-25.57,2a2.48,2.48,0,0,1,2.42-1.93H29.14a2.47,2.47,0,0,1,1.51.52,2.45,2.45,0,0,1,.54,3.34,1.93,1.93,0,0,1-.28.34,2.16,2.16,0,0,1-.38.33l0,0a2.46,2.46,0,0,1-1.35.4H8.08a2.49,2.49,0,0,1-2.42-3Z"/><path class="cls-7" d="M31.74,37.8a4,4,0,0,0-2.61-1h-21A3.82,3.82,0,0,0,7,37a4,4,0,0,0-2.7,2.64,3.84,3.84,0,0,0-.19,1.09.26.26,0,0,1,0,.08A4,4,0,0,0,7,44.59h23.3a4.06,4.06,0,0,0,1.08-.51l.31-.23a3.6,3.6,0,0,0,.54-.54,3.67,3.67,0,0,0,.23-.3,4,4,0,0,0-.69-5.21Zm.59-.54A4.71,4.71,0,0,0,29.13,36h-21a4.67,4.67,0,0,0-2.73.87,4.32,4.32,0,0,0-.84.75,2.83,2.83,0,0,0-.21.26,4.64,4.64,0,0,0-1,2.88s0,.07,0,.09a4.68,4.68,0,0,0,1,2.84,4.28,4.28,0,0,0,.88.86H32a4.76,4.76,0,0,0,1.9-3.8A4.7,4.7,0,0,0,32.33,37.27Z"/><path class="cls-7" d="M9.37,39.15A2,2,0,0,0,7,39.2a.38.38,0,0,0-.11.09l-.08.08,0,0a2,2,0,0,0-.55,1.38,1.88,1.88,0,0,0,.3,1,1.92,1.92,0,0,0,1,.84,1.93,1.93,0,0,0,1.35,0,2,2,0,0,0,.48-3.52Zm-.29,2.47a.35.35,0,0,1-.12.11.25.25,0,0,1-.08.07,1.24,1.24,0,0,1-.67.2,1.22,1.22,0,0,1-1.11-.72,1.2,1.2,0,0,1-.1-.49,1.21,1.21,0,0,1,1.21-1.21,1.1,1.1,0,0,1,.55.14,1.2,1.2,0,0,1,.45,1.75A.75.75,0,0,1,9.08,41.62Z"/><path class="cls-7" d="M16.3,39.15a2,2,0,0,0-1.16-.38,1.93,1.93,0,0,0-1.22.42.62.62,0,0,0-.17.14l0,0a2,2,0,0,0,.74,3.3,1.93,1.93,0,0,0,1.35,0,2,2,0,0,0,.49-3.52ZM16,41.65a.61.61,0,0,1-.17.14A1.21,1.21,0,0,1,14,41.27a1.19,1.19,0,0,1-.1-.48,1.21,1.21,0,0,1,1.21-1.21,1.06,1.06,0,0,1,.56.15,1.2,1.2,0,0,1,.31,1.9Z"/><path class="cls-7" d="M23.21,39.13a2,2,0,0,0-1.15-.36,2,2,0,0,0-1.22.41l-.08.07a.46.46,0,0,0-.12.11l0,0a2,2,0,0,0-.55,1.38,2,2,0,0,0,1.33,1.89,1.93,1.93,0,0,0,1.35,0,2,2,0,0,0,1.33-1.89A2,2,0,0,0,23.21,39.13Zm-.28,2.49a.35.35,0,0,1-.12.11.37.37,0,0,1-.09.08,1.19,1.19,0,0,1-.65.19A1.22,1.22,0,0,1,21,41.28a1.2,1.2,0,0,1-.1-.49,1.21,1.21,0,0,1,1.21-1.21,1.1,1.1,0,0,1,.55.14,1.2,1.2,0,0,1,.45,1.75A.75.75,0,0,1,22.93,41.62Z"/><path class="cls-7" d="M30.14,39.16A2,2,0,0,0,29,38.78a2,2,0,0,0-1.22.42.62.62,0,0,0-.17.14l0,0A2,2,0,0,0,27,40.79a1.88,1.88,0,0,0,.3,1,1.92,1.92,0,0,0,1,.84,1.8,1.8,0,0,0,.68.12,2,2,0,0,0,2-2v0A2,2,0,0,0,30.14,39.16Zm0,1.62a1.2,1.2,0,0,1-.34.84l0,0a.61.61,0,0,1-.17.14,1.21,1.21,0,0,1-1.78-.53,1.19,1.19,0,0,1-.1-.48A1.21,1.21,0,0,1,29,39.58a1.06,1.06,0,0,1,.56.15A1.19,1.19,0,0,1,30.19,40.79Z"/><path class="cls-7" d="M42.53,33.24a2.75,2.75,0,0,0,0-.48,3.07,3.07,0,0,0-1.13-2.39h0l-.29-.21,0-.16L38.56,17.61h0c0-.06,0-.11,0-.17A2.11,2.11,0,0,0,36.07,16L24.91,18.28A2.4,2.4,0,0,0,23,17.22H12.56a1.66,1.66,0,0,0-1,.33l-.19.16a.74.74,0,0,0-.11.14,1.58,1.58,0,0,0-.38,1v2.37H6a1,1,0,0,0-.65.23.24.24,0,0,0-.09.08,1.09,1.09,0,0,0-.31.75v11a1.93,1.93,0,0,0,.29.89,2,2,0,0,0,1.7,1H28.61a2,2,0,0,0,1.86-2.7h0l-3.24-8.34,5.34-2.19.26-.1,3.87,9.43a3.11,3.11,0,0,0,.22,3.3,2.77,2.77,0,0,0,.47.53,3,3,0,0,0,.6.41l-1.64,5.21v0h0l-.72-.23a.39.39,0,0,0-.52.38v1.21a.39.39,0,0,0,.27.38,6.24,6.24,0,0,0,8.18-5.91A6.16,6.16,0,0,0,42.53,33.24Zm-5.59-3.49-3.36-8.21L37.29,20a1.77,1.77,0,0,0,.47-.26,2.06,2.06,0,0,0,.37-.34l2.13,10.33a2.93,2.93,0,0,0-.81-.1,3.1,3.1,0,0,0-1.85.61,1.58,1.58,0,0,0-.34.28ZM24.37,19l4.78,12.32a2.1,2.1,0,0,0-.54-.08H27.47l-.23-.58-3.9-10a1.63,1.63,0,0,0-.64-.77,1.69,1.69,0,0,0-.94-.32H14.51a1.22,1.22,0,0,0-.78.28l-.07,0-.07.07a.09.09,0,0,0,0,0,1.25,1.25,0,0,0-.34.86v.47H11.68V18.89a.89.89,0,0,1,.88-.88H23a1.49,1.49,0,0,1,.77.24A1.56,1.56,0,0,1,24.37,19ZM14,20.79a.49.49,0,0,1,.49-.5h7.27a.71.71,0,0,1,.33.08.94.94,0,0,1,.51.5l3.25,8.35H16.75a.4.4,0,0,0-.35.21.34.34,0,0,0-.06.19.4.4,0,0,0,.4.4h9.41l.45,1.16H14.81V22.32a1.08,1.08,0,0,0-.61-1h0L14,21.3ZM29.55,33.92a.86.86,0,0,1-.23.23l-.06,0a1.2,1.2,0,0,1-.66.2H6.95a1.19,1.19,0,0,1-1.1-.73,1,1,0,0,1-.09-.37v-.51h5.78a.4.4,0,1,0,0-.8H5.76v-5.8h2.4a.4.4,0,1,0,0-.8H5.76V24h5.57a.4.4,0,1,0,0-.8H5.76v-.88A.26.26,0,0,1,6,22.06h7.74a.26.26,0,0,1,.25.26V31.6a.4.4,0,0,0,.39.39H28.61a1.1,1.1,0,0,1,.55.14h0a1.18,1.18,0,0,1,.43,1.72ZM26.94,23.39l-.27-.7L25.25,19l11-2.27a1.34,1.34,0,0,1,1.53.92,1.34,1.34,0,0,1-.19,1.15l0,0a1.22,1.22,0,0,1-.29.29.39.39,0,0,1-.13.08.65.65,0,0,1-.14.07ZM37.51,34a2.23,2.23,0,0,1-.39-1.28,2.33,2.33,0,0,1,2.33-2.32,2.31,2.31,0,0,1,1.79,3.79,1.22,1.22,0,0,1-.15.17l-.22.2a.57.57,0,0,1-.12.08A2.31,2.31,0,0,1,37.51,34Zm3.23,6.74c-.11.09-.23.19-.35.27l-.08.06a2.41,2.41,0,0,1-.33.21A5.47,5.47,0,0,1,37.3,42a5.18,5.18,0,0,1-1.43-.2v-.38l.22.08a.77.77,0,0,0,.61-.06l.07,0A.81.81,0,0,0,37.1,41l1.63-5.2A3.11,3.11,0,0,0,42,34.59c.08-.1.14-.22.21-.33a5.26,5.26,0,0,1,.53,2.33A5.39,5.39,0,0,1,41.47,40,6,6,0,0,1,40.74,40.78Z"/><path class="cls-7" d="M40.18,31.54a1.4,1.4,0,0,0-1.58.08l-.16.13a.24.24,0,0,0-.08.09,1.4,1.4,0,0,0-.35.92,1.38,1.38,0,0,0,.16.65,1.4,1.4,0,0,0,1.27.79,1.43,1.43,0,0,0,1.44-1.44A1.4,1.4,0,0,0,40.18,31.54Zm-.28,1.67-.13.1a.6.6,0,0,1-.32.08.64.64,0,0,1-.64-.59v0a.65.65,0,0,1,.64-.64h.09a.64.64,0,0,1,.54.63.68.68,0,0,1-.09.35Z"/><path class="cls-5" d="M32.33,37.27a4.72,4.72,0,0,0-3.75-1.83h-21A4.78,4.78,0,0,0,2.79,40.2a.26.26,0,0,0,0,.08,4.74,4.74,0,0,0,1.58,3.44,4.34,4.34,0,0,0,1.33.86H30.46a4.13,4.13,0,0,0,.88-.51l.31-.23a3.6,3.6,0,0,0,.54-.54,3.67,3.67,0,0,0,.23-.3,4.64,4.64,0,0,0,.93-2.81A4.73,4.73,0,0,0,32.33,37.27Z"/><path class="cls-5" d="M42,32.66a4.11,4.11,0,0,0,0-.48,3.07,3.07,0,0,0-.58-1.81h0a2.46,2.46,0,0,0-.33-.37,2.53,2.53,0,0,0-.52-.43L38,17h0c0-.06,0-.12,0-.18a1.82,1.82,0,0,0-.25-.53,2.1,2.1,0,0,0-2.2-.93L24.36,17.7a2.42,2.42,0,0,0-1.91-1.07H12a1.68,1.68,0,0,0-1.68,1.68v2.37H5.47a1,1,0,0,0-1.05,1.05v11a2,2,0,0,0,.84,1.48,2,2,0,0,0,1.15.38H28.06a2,2,0,0,0,1.21-.4l.06,0,.23-.23,0-.06a2,2,0,0,0,.33-2h0l-3.23-8.34,5.6-2.3.28.69,3.58,8.75a3.14,3.14,0,0,0-.38,1.48,3.05,3.05,0,0,0,1.15,2.4,2.88,2.88,0,0,0,.53.36l-.06.17-1.61,5.07h0L35,40a.4.4,0,0,0-.36.06.4.4,0,0,0-.16.32v1.21a.39.39,0,0,0,.27.38l.27.08a5.94,5.94,0,0,0,1.67.23A6.09,6.09,0,0,0,40,41.31a2.41,2.41,0,0,0,.33-.21l.08-.06c.12-.08.23-.18.35-.27a6,6,0,0,0,.73-.73A6.15,6.15,0,0,0,43,36,6.23,6.23,0,0,0,42,32.66Z"/><path class="cls-1" d="M31.23,38.28h0a3.24,3.24,0,0,0-2.63-1.34H7.54A2.35,2.35,0,0,0,7,37a3.27,3.27,0,0,0-2.7,2.64,3,3,0,0,0-.06.59,3.21,3.21,0,0,0,1.17,2.5l0,0a3.25,3.25,0,0,0,2.08.75H28.59a3.24,3.24,0,0,0,1.9-.61l0,0a3.23,3.23,0,0,0,.38-.33,1.93,1.93,0,0,0,.28-.34,3.15,3.15,0,0,0,.68-2A3.28,3.28,0,0,0,31.23,38.28ZM31,40.79v0a2.48,2.48,0,0,1-2.39,1.87H7.54A2.47,2.47,0,0,1,6,42.15a2.45,2.45,0,0,1-.95-1.94,2.5,2.5,0,0,1,.42-1.39l.08-.11a2,2,0,0,1,.3-.32,1.93,1.93,0,0,1,.35-.27,2.45,2.45,0,0,1,1.32-.38H28.59a2.48,2.48,0,0,1,2.47,2.48A2.35,2.35,0,0,1,31,40.79Z"/><path class="cls-1" d="M32.33,37.27a4.72,4.72,0,0,0-3.75-1.83h-21A4.78,4.78,0,0,0,2.79,40.2a.26.26,0,0,0,0,.08,4.74,4.74,0,0,0,1.58,3.44,4.34,4.34,0,0,0,1.33.86H30.46a4.13,4.13,0,0,0,.88-.51l.31-.23a3.6,3.6,0,0,0,.54-.54,3.67,3.67,0,0,0,.23-.3,4.64,4.64,0,0,0,.93-2.81A4.73,4.73,0,0,0,32.33,37.27Zm0,4.19a.13.13,0,0,1,0,.06A4,4,0,0,1,29.7,44a3.7,3.7,0,0,1-1.12.17h-21a4,4,0,0,1-4-4,.26.26,0,0,0,0-.08,4,4,0,0,1,.74-2.22,2.83,2.83,0,0,1,.21-.26,4.32,4.32,0,0,1,.84-.75,4,4,0,0,1,2.19-.66h21a3.94,3.94,0,0,1,3.15,1.57,3.89,3.89,0,0,1,.82,2.4A3.67,3.67,0,0,1,32.35,41.45Z"/><path class="cls-1" d="M9.37,39.15a2,2,0,0,0-1-.84,1.75,1.75,0,0,0-.67-.12,2,2,0,0,0-2,2v0a2,2,0,0,0,.84,1.58,2,2,0,0,0,1.16.38,2,2,0,0,0,1.21-.41A.25.25,0,0,0,9,41.74l.12-.11a.75.75,0,0,0,.14-.16,2,2,0,0,0,.45-1.26A2,2,0,0,0,9.37,39.15ZM6.46,40.2a1.18,1.18,0,0,1,.3-.8l0,0,.08-.08A.38.38,0,0,1,7,39.2,1.18,1.18,0,0,1,7.67,39a1.21,1.21,0,0,1,1.1.72,1.21,1.21,0,0,1-1.1,1.7,1.14,1.14,0,0,1-.56-.14A1.21,1.21,0,0,1,6.46,40.2Z"/><path class="cls-1" d="M16.3,39.15a2,2,0,0,0-1-.84,1.93,1.93,0,0,0-1.35,0,2,2,0,0,0,.68,3.9,1.93,1.93,0,0,0,1.22-.42.61.61,0,0,0,.17-.14l0,0a2,2,0,0,0,.29-2.47ZM13.38,40.2a1.2,1.2,0,0,1,.34-.84l0,0a.62.62,0,0,1,.17-.14,1.21,1.21,0,0,1,1.78.53,1.19,1.19,0,0,1,.1.48,1.21,1.21,0,0,1-1.21,1.21,1.06,1.06,0,0,1-.56-.15A1.19,1.19,0,0,1,13.38,40.2Z"/><path class="cls-1" d="M23.21,39.13a2,2,0,0,0-1-.82,1.8,1.8,0,0,0-.68-.12,1.75,1.75,0,0,0-.67.12,2,2,0,1,0,1.87,3.49.37.37,0,0,0,.09-.08l.12-.11a.75.75,0,0,0,.14-.16,2,2,0,0,0,.45-1.26A2,2,0,0,0,23.21,39.13Zm-1.7,2.28a1.13,1.13,0,0,1-.55-.14,1.2,1.2,0,0,1-.65-1.07,1.18,1.18,0,0,1,.3-.8l0,0a.46.46,0,0,1,.12-.11l.08-.07a1.24,1.24,0,0,1,.67-.2,1.21,1.21,0,0,1,1.11.72,1.21,1.21,0,0,1-1.11,1.7Z"/><path class="cls-1" d="M30.14,39.16a1.92,1.92,0,0,0-1-.84,1.93,1.93,0,0,0-1.35,0,2,2,0,0,0-1.33,1.89,2,2,0,0,0,2,2,2,2,0,0,0,1.22-.42.61.61,0,0,0,.17-.14l0,0a2,2,0,0,0,.59-1.42A1.88,1.88,0,0,0,30.14,39.16Zm-2.92,1a1.2,1.2,0,0,1,.34-.84l0,0a.62.62,0,0,1,.17-.14,1.21,1.21,0,0,1,1.78.53,1.19,1.19,0,0,1,.1.48,1.21,1.21,0,0,1-1.21,1.21,1.06,1.06,0,0,1-.56-.15A1.19,1.19,0,0,1,27.22,40.2Z"/><path class="cls-1" d="M42,32.66a4.11,4.11,0,0,0,0-.48,3.07,3.07,0,0,0-.58-1.81h0a2.46,2.46,0,0,0-.33-.37,2.53,2.53,0,0,0-.52-.43L38,17h0c0-.06,0-.12,0-.18a1.82,1.82,0,0,0-.25-.53,2.1,2.1,0,0,0-2.2-.93L24.36,17.7a2.42,2.42,0,0,0-1.91-1.07H12a1.68,1.68,0,0,0-1.68,1.68v2.37H5.47a1,1,0,0,0-1.05,1.05v11a2,2,0,0,0,.84,1.48,2,2,0,0,0,1.15.38H28.06a2,2,0,0,0,1.21-.4l.06,0,.23-.23,0-.06a2,2,0,0,0,.33-2h0l-3.23-8.34,5.6-2.3.28.69,3.58,8.75a3.14,3.14,0,0,0-.38,1.48,3.05,3.05,0,0,0,1.15,2.4,2.88,2.88,0,0,0,.53.36l-.06.17-1.61,5.07h0L35,40a.4.4,0,0,0-.36.06.4.4,0,0,0-.16.32v1.21a.39.39,0,0,0,.27.38l.27.08a5.94,5.94,0,0,0,1.67.23A6.09,6.09,0,0,0,40,41.31a2.41,2.41,0,0,0,.33-.21l.08-.06c.12-.08.23-.18.35-.27a6,6,0,0,0,.73-.73A6.15,6.15,0,0,0,43,36,6.23,6.23,0,0,0,42,32.66ZM33,21l3.72-1.52a1.4,1.4,0,0,0,.38-.22.39.39,0,0,0,.13-.08,2.84,2.84,0,0,0,.29-.29l0,0,.19.93,2,9.41a3.34,3.34,0,0,0-.81-.1,3.09,3.09,0,0,0-2,.69l-.23.21ZM26.4,22.8l-1.7-4.36,11-2.27a1.32,1.32,0,0,1,1.45.73,1,1,0,0,1,.07.18,1.31,1.31,0,0,1-.76,1.61l-9.77,4Zm-15-5.1a.63.63,0,0,1,.19-.16.92.92,0,0,1,.45-.12H22.45a1.6,1.6,0,0,1,1.31.83.64.64,0,0,1,.06.11L28.6,30.69a2.12,2.12,0,0,0-.54-.08H26.92L22.8,20a1.07,1.07,0,0,0-.09-.18,1.8,1.8,0,0,0-1.49-.9H14a1.28,1.28,0,0,0-1.29,1.29v.48H11.14V18.31a.85.85,0,0,1,.13-.46A.74.74,0,0,1,11.38,17.7Zm2.82,3.65h0a.91.91,0,0,0-.17-.29,1.05,1.05,0,0,0-.54-.35V20.2a.45.45,0,0,1,.08-.27.09.09,0,0,1,0,0l.07-.07.07,0a.4.4,0,0,1,.23-.07h7.26a1,1,0,0,1,.84.57l0,.09,3.2,8.27H16.2a.39.39,0,1,0,0,.79h9.41l.23.59.23.58H14.26V21.73A1.26,1.26,0,0,0,14.2,21.36Zm15,10.79a1.26,1.26,0,0,1,.09.46,1.2,1.2,0,0,1-1.2,1.19H6.4a1.13,1.13,0,0,1-.55-.14,1.16,1.16,0,0,1-.64-1v-.51H11a.39.39,0,0,0,.35-.22.43.43,0,0,0,0-.19A.4.4,0,0,0,11,31.4H5.21V25.6h2.4A.38.38,0,0,0,8,25.39.34.34,0,0,0,8,25.2a.4.4,0,0,0-.39-.4H5.21V23.42h5.57a.39.39,0,0,0,.35-.22.43.43,0,0,0,0-.19.4.4,0,0,0-.39-.39H5.21v-.89a.22.22,0,0,1,.06-.16.24.24,0,0,1,.09-.08l.1,0H13.2a.26.26,0,0,1,.26.25V31a.4.4,0,0,0,.39.4h14.2a1.21,1.21,0,0,1,1.11.72Zm7.41,0a2.32,2.32,0,0,1,.69-1.64,1.58,1.58,0,0,1,.34-.28,2.3,2.3,0,0,1,3.25.67,2.26,2.26,0,0,1,.38,1.26,2.33,2.33,0,0,1-2.33,2.33A2.24,2.24,0,0,1,37.51,34,2.28,2.28,0,0,1,36.57,32.18Zm.19,9.26h0a5.54,5.54,0,0,1-1.42-.19v-.38l.21.07a.79.79,0,0,0,.62-.06.62.62,0,0,0,.16-.11h0l0,0a.71.71,0,0,0,.2-.32l1.64-5.19a3.07,3.07,0,0,0,2.56-.54.57.57,0,0,0,.12-.08l.22-.2a1.22,1.22,0,0,0,.15-.17,2.68,2.68,0,0,0,.4-.56,4.71,4.71,0,0,1,.34.92A5.11,5.11,0,0,1,42.17,36,5.43,5.43,0,0,1,36.76,41.43Z"/><path class="cls-1" d="M40.18,31.54a1.42,1.42,0,0,0-1.28-.8,1.44,1.44,0,0,0-1.44,1.44,1.42,1.42,0,0,0,.71,1.23,1.38,1.38,0,0,0,.72.21,1.42,1.42,0,0,0,.86-.3l.13-.1.09-.1a1.42,1.42,0,0,0,.35-.93A1.37,1.37,0,0,0,40.18,31.54Zm-1.91.64a.6.6,0,0,1,.1-.34.24.24,0,0,1,.08-.09.45.45,0,0,1,.16-.13.62.62,0,0,1,.3-.08.64.64,0,0,1,.64.59v0a.65.65,0,0,1-.64.64h-.09A.65.65,0,0,1,38.26,32.18Z"/><path class="cls-1" d="M65.35,45.09H.5a.5.5,0,0,1,0-1H65.35a.5.5,0,0,1,0,1Z"/></g></g></svg>