<svg xmlns="http://www.w3.org/2000/svg" viewBox="0 0 65.85 62.68"><defs><style>.cls-1{fill:#22366b;}.cls-2{fill:#fff;}.cls-3{fill:none;}.cls-4{fill:#bad5ea;}.cls-5{fill:#f04e24;}</style></defs><title>int-experience</title><g id="Layer_2" data-name="Layer 2"><g id="final_icons_bios"><path class="cls-1" d="M8.23,50.41a.13.13,0,0,1,.12-.12H9a.13.13,0,0,1,.12.12V54.7a.13.13,0,0,1-.12.12h-.6a.13.13,0,0,1-.12-.12Z"/><path class="cls-1" d="M10.26,50.34a.12.12,0,0,1,.12-.12h.16l2.7,2.87h0V50.41a.12.12,0,0,1,.12-.12H14a.13.13,0,0,1,.12.12v4.36a.12.12,0,0,1-.12.12h-.16l-2.71-3h0V54.7a.12.12,0,0,1-.12.12h-.59a.13.13,0,0,1-.12-.12Z"/><path class="cls-1" d="M15.88,51.07h-1a.12.12,0,0,1-.12-.12v-.53a.12.12,0,0,1,.12-.12h2.83a.12.12,0,0,1,.12.12v.53a.12.12,0,0,1-.12.12h-1V54.7a.13.13,0,0,1-.12.12H16a.13.13,0,0,1-.12-.12Z"/><path class="cls-1" d="M18.53,50.41a.12.12,0,0,1,.12-.12h2.64a.12.12,0,0,1,.12.12v.53a.12.12,0,0,1-.12.12H19.37v1.06H21a.13.13,0,0,1,.12.12v.54a.12.12,0,0,1-.12.12h-1.6V54h1.92a.12.12,0,0,1,.12.12v.53a.12.12,0,0,1-.12.12H18.65a.12.12,0,0,1-.12-.12Z"/><path class="cls-1" d="M22.34,50.41a.12.12,0,0,1,.12-.12h1.86a1.4,1.4,0,0,1,1.41,1.39,1.43,1.43,0,0,1-1,1.31l.89,1.65a.12.12,0,0,1-.11.19h-.68a.11.11,0,0,1-.1-.06l-.86-1.72h-.72V54.7a.13.13,0,0,1-.12.12h-.6a.12.12,0,0,1-.12-.12Zm1.91,1.95a.66.66,0,0,0,.64-.66.64.64,0,0,0-.64-.63H23.19v1.29Z"/><path class="cls-1" d="M26.66,50.34a.12.12,0,0,1,.12-.12h.16l2.7,2.87h0V50.41a.12.12,0,0,1,.12-.12h.6a.13.13,0,0,1,.12.12v4.36a.12.12,0,0,1-.12.12h-.16l-2.71-3h0V54.7a.12.12,0,0,1-.12.12h-.59a.13.13,0,0,1-.12-.12Z"/><path class="cls-1" d="M31.09,54.66l2-4.36a.12.12,0,0,1,.11-.07h.07a.11.11,0,0,1,.11.07l2,4.36a.11.11,0,0,1-.11.17h-.56a.19.19,0,0,1-.19-.13l-.32-.7H32.27l-.32.7a.19.19,0,0,1-.19.13H31.2A.11.11,0,0,1,31.09,54.66Zm2.8-1.38-.65-1.43h0l-.64,1.43Z"/><path class="cls-1" d="M36.35,51.07h-1a.12.12,0,0,1-.12-.12v-.53a.12.12,0,0,1,.12-.12h2.83a.12.12,0,0,1,.12.12v.53a.12.12,0,0,1-.12.12h-1V54.7a.13.13,0,0,1-.12.12h-.6a.13.13,0,0,1-.12-.12Z"/><path class="cls-1" d="M39,50.41a.13.13,0,0,1,.12-.12h.6a.13.13,0,0,1,.12.12V54.7a.13.13,0,0,1-.12.12h-.6A.13.13,0,0,1,39,54.7Z"/><path class="cls-1" d="M43,50.22a2.33,2.33,0,1,1-2.33,2.34A2.33,2.33,0,0,1,43,50.22ZM43,54a1.49,1.49,0,1,0-1.48-1.48A1.49,1.49,0,0,0,43,54Z"/><path class="cls-1" d="M46.21,50.34a.12.12,0,0,1,.12-.12h.16l2.7,2.87h0V50.41a.12.12,0,0,1,.12-.12h.6a.13.13,0,0,1,.12.12v4.36a.12.12,0,0,1-.12.12h-.16l-2.71-3h0V54.7a.12.12,0,0,1-.12.12h-.59a.13.13,0,0,1-.12-.12Z"/><path class="cls-1" d="M50.64,54.66l2-4.36a.12.12,0,0,1,.11-.07h.07a.11.11,0,0,1,.11.07l2,4.36a.11.11,0,0,1-.11.17h-.56a.19.19,0,0,1-.19-.13l-.32-.7H51.82l-.32.7a.19.19,0,0,1-.19.13h-.56A.11.11,0,0,1,50.64,54.66Zm2.8-1.38-.65-1.43h0l-.64,1.43Z"/><path class="cls-1" d="M55.53,50.41a.12.12,0,0,1,.12-.12h.6a.13.13,0,0,1,.12.12V54H58a.12.12,0,0,1,.12.12v.53a.12.12,0,0,1-.12.12H55.65a.12.12,0,0,1-.12-.12Z"/><path class="cls-1" d="M14,58.2a.12.12,0,0,1,.12-.12h2.64a.12.12,0,0,1,.12.12v.53a.12.12,0,0,1-.12.12H14.86v1.06h1.6a.13.13,0,0,1,.12.12v.54a.12.12,0,0,1-.12.12h-1.6v1.13h1.92a.12.12,0,0,1,.12.12v.53a.12.12,0,0,1-.12.12H14.14a.12.12,0,0,1-.12-.12Z"/><path class="cls-1" d="M18.78,60.29l-1.3-2a.12.12,0,0,1,.11-.18h.75a.13.13,0,0,1,.1.06l.83,1.37h0l.84-1.37a.12.12,0,0,1,.1-.06H21a.12.12,0,0,1,.11.18l-1.3,2,1.35,2.15a.12.12,0,0,1-.11.18h-.7a.13.13,0,0,1-.11-.06l-.93-1.48h0l-.91,1.48a.14.14,0,0,1-.11.06h-.7c-.12,0-.17-.1-.12-.18Z"/><path class="cls-1" d="M21.93,58.2a.12.12,0,0,1,.12-.12h1.52a1.45,1.45,0,1,1,0,2.89h-.81v1.52a.13.13,0,0,1-.12.12h-.6a.12.12,0,0,1-.12-.12Zm1.6,2a.67.67,0,0,0,.67-.67.65.65,0,0,0-.67-.63h-.75v1.3Z"/><path class="cls-1" d="M25.77,58.2a.12.12,0,0,1,.12-.12h2.64a.12.12,0,0,1,.12.12v.53a.12.12,0,0,1-.12.12H26.61v1.06h1.6a.13.13,0,0,1,.12.12v.54a.12.12,0,0,1-.12.12h-1.6v1.13h1.92a.12.12,0,0,1,.12.12v.53a.12.12,0,0,1-.12.12H25.89a.12.12,0,0,1-.12-.12Z"/><path class="cls-1" d="M29.58,58.2a.12.12,0,0,1,.12-.12h1.86A1.4,1.4,0,0,1,33,59.47a1.43,1.43,0,0,1-1,1.31l.89,1.65a.12.12,0,0,1-.11.19h-.68a.11.11,0,0,1-.1-.06l-.86-1.72h-.72v1.65a.13.13,0,0,1-.12.12h-.6a.12.12,0,0,1-.12-.12Zm1.91,1.95a.66.66,0,0,0,.64-.66.64.64,0,0,0-.64-.63H30.43v1.29Z"/><path class="cls-1" d="M33.91,58.2a.13.13,0,0,1,.12-.12h.6a.13.13,0,0,1,.12.12v4.29a.13.13,0,0,1-.12.12H34a.13.13,0,0,1-.12-.12Z"/><path class="cls-1" d="M35.94,58.2a.12.12,0,0,1,.12-.12H38.7a.12.12,0,0,1,.12.12v.53a.12.12,0,0,1-.12.12H36.78v1.06h1.6a.13.13,0,0,1,.12.12v.54a.12.12,0,0,1-.12.12h-1.6v1.13H38.7a.12.12,0,0,1,.12.12v.53a.12.12,0,0,1-.12.12H36.06a.12.12,0,0,1-.12-.12Z"/><path class="cls-1" d="M39.75,58.13a.12.12,0,0,1,.12-.12H40l2.7,2.87h0V58.2a.12.12,0,0,1,.12-.12h.6a.13.13,0,0,1,.12.12v4.36a.12.12,0,0,1-.12.12h-.16l-2.71-3h0v2.79a.12.12,0,0,1-.12.12h-.59a.13.13,0,0,1-.12-.12Z"/><path class="cls-1" d="M46.78,58a2.2,2.2,0,0,1,1.57.6.12.12,0,0,1,0,.18l-.4.41a.1.1,0,0,1-.16,0,1.53,1.53,0,0,0-1-.38,1.51,1.51,0,0,0,0,3,1.55,1.55,0,0,0,1-.37.12.12,0,0,1,.16,0l.4.42a.12.12,0,0,1,0,.18,2.23,2.23,0,0,1-1.58.63,2.33,2.33,0,1,1,0-4.67Z"/><path class="cls-1" d="M49.21,58.2a.12.12,0,0,1,.12-.12H52a.12.12,0,0,1,.12.12v.53a.12.12,0,0,1-.12.12H50v1.06h1.6a.13.13,0,0,1,.12.12v.54a.12.12,0,0,1-.12.12H50v1.13H52a.12.12,0,0,1,.12.12v.53a.12.12,0,0,1-.12.12H49.33a.12.12,0,0,1-.12-.12Z"/><path class="cls-2" d="M53.58,22.7a20,20,0,0,0-4.81-9.39h0c-.33-.36-.67-.7-1-1l0,0h0l-.12-.12-.5-.44a.08.08,0,0,0,0,0,.29.29,0,0,0-.1-.08L46.31,11a1,1,0,0,0-.16-.12c-.23-.18-.46-.35-.69-.51l-.78-.53c-.26-.17-.53-.33-.8-.48a18.24,18.24,0,0,0-1.65-.84c-.28-.13-.57-.25-.86-.37l-.28-.11L40.81,8a.84.84,0,0,0-.22-.08s0,0,0,0l-.62-.21a.07.07,0,0,0-.06,0l-.48-.14a.07.07,0,0,0-.06,0l-.41-.11h0c-.23-.07-.46-.12-.69-.17l-.2,0h0l-.21,0a1.19,1.19,0,0,0-.26,0L36.85,7c-.63-.09-1.26-.15-1.9-.19a3.61,3.61,0,0,0-.45,0c-.4,0-.81,0-1.21,0l-.54,0h0l-.65,0-.33,0L31.21,7l-.71.11-.13,0-.54.1-.21,0-.36.08L29,7.39l-.16,0-.66.19h0L28,7.69a2.25,2.25,0,0,0-.36.11l-.08,0c-.32.1-.63.22-.94.34l-.35.14L26,8.43l-.41.19-.4.19-.57.29-.32.17L24,9.39h0l0,0s0,0,0,0l0,0c-.23.13-.45.26-.67.4a17.38,17.38,0,0,0-1.45,1,3.42,3.42,0,0,0-.29.23l-.07.06-.11.09q-.37.28-.7.59l-.36.33c-.21.19-.41.39-.61.59s-.39.41-.58.62l-.25.28-.09.1,0,0c-.17.19-.33.38-.48.58l-.06.07-.08.11a16.69,16.69,0,0,0-1.15,1.65l-.25.42a11.63,11.63,0,0,0-.61,1.12c-.1.19-.2.38-.29.58s-.15.32-.22.48-.08.2-.12.29-.15.36-.22.54a1.36,1.36,0,0,0-.08.21c-.08.19-.14.38-.21.57a19.72,19.72,0,0,0-.84,9.3c.06.41.13.82.22,1.23a20,20,0,0,0,4,8.5c.29.35.56.67.86,1l0,0,.11.12a19.65,19.65,0,0,0,3.9,3.21H44.66A20.05,20.05,0,0,0,53.58,22.7Z"/><path class="cls-2" d="M48.76,13.31A17.88,17.88,0,0,1,43.82,17a41.83,41.83,0,0,1-11.13,3.91,41.84,41.84,0,0,1-11.75.89,18.19,18.19,0,0,1-6-1.36,20.05,20.05,0,0,1,33.82-7.12Z"/><path class="cls-2" d="M51.58,33.07a21.93,21.93,0,0,0-4.66-.82h0c-.38,0-.76-.06-1.15-.07a43.85,43.85,0,0,0-10.5,1l-.19,0c-.27,0-.54.11-.8.18a40.54,40.54,0,0,0-10,3.63l-.37.2a18,18,0,0,0-4.54,3.36h0a19.65,19.65,0,0,0,3.9,3.21H44.66a20,20,0,0,0,8.2-10.26A13.46,13.46,0,0,0,51.58,33.07Z"/><path class="cls-2" d="M46.35,24.22q-.13-.62-.28-1.21a28.76,28.76,0,0,0-2.24-6h0c-.21-.43-.44-.84-.69-1.25s-.37-.62-.56-.92-.38-.6-.59-.88-.27-.38-.41-.56a19.24,19.24,0,0,0-2.32-2.57l0,0c-2.83-2.59-6.12-3.83-9.3-3.16l-.2,0a5.67,5.67,0,0,0-.78.23C24.55,9.36,21.63,14.42,21,20.8c0,.32-.06.66-.08,1a29,29,0,0,0,.37,6.43c.08.4.15.82.23,1.22a29.25,29.25,0,0,0,2.07,6.31c.2.44.41.86.64,1.28a22.87,22.87,0,0,0,3.28,4.74l0,0a17.21,17.21,0,0,0,2.18,2H42.24a6.15,6.15,0,0,0,.54-.56h0c2.32-2.53,3.79-6.44,4.11-11,0-.31,0-.63.06-.95A29.45,29.45,0,0,0,46.35,24.22Z"/><line class="cls-3" x1="14.05" y1="31.01" x2="53.45" y2="22.74"/><polyline class="cls-3" points="37.31 43.8 35.08 33.21 34.82 31.98 33.75 26.87 33.49 25.65 32.5 20.93 32.24 19.7 29.7 7.64 29.62 7.24 29.61 7.18"/><path class="cls-2" d="M52.75,22.88c-.06-.41-.13-.82-.22-1.23a19.91,19.91,0,0,0-3.86-8.26c-.3-.38-.61-.75-.93-1.11l0,0h0l-.12-.12c-.13-.15-.27-.3-.43-.45l-.32-.32A19.09,19.09,0,0,0,43.89,9a2.75,2.75,0,0,0-.35-.23A19.14,19.14,0,0,0,40,7l0,0-.35-.12h0a.37.37,0,0,0-.13,0l-.3-.1-.57-.18-.14,0A2.42,2.42,0,0,0,38,6.38l-.06,0-.84-.2-.17,0L36.08,6a18.38,18.38,0,0,0-1.91-.22h0l-.25,0a19.93,19.93,0,0,0-5.13.4l-.19,0-.64.15-.23.06-.45.13c-.22.06-.43.12-.64.2-.42.13-.84.29-1.25.45s-.55.23-.83.36l-.38.18c-.39.18-.78.38-1.16.6-.56.32-1.11.67-1.63,1l-.21.14,0,0-.26.2h0l-.22.18L20.5,10c-.2.15-.38.31-.57.47l-.08.06-.11.1-.37.33c-.16.14-.31.29-.46.44l-.4.4A15.94,15.94,0,0,0,17.44,13c-.16.19-.31.38-.46.57s-.3.39-.44.6a.33.33,0,0,0,0,.08.09.09,0,0,0,0,0c-.16.23-.31.45-.46.69s-.26.42-.38.64-.16.26-.23.4a2,2,0,0,0-.13.24.35.35,0,0,0-.06.09l0,.08,0,0h0a18.84,18.84,0,0,0-.8,1.71c-.16.39-.31.8-.45,1.2a20,20,0,0,0,4.39,20.15c.3.32.61.63.93.92l0,0,.12.11a20,20,0,0,0,4.72,3.22H41.71c.37-.18.73-.37,1.08-.56h0a20.07,20.07,0,0,0,8.78-10.16c.08-.2.16-.38.23-.58A20,20,0,0,0,52.75,22.88Z"/><path class="cls-2" d="M47.7,12.25a17.88,17.88,0,0,1-4.94,3.67,41.83,41.83,0,0,1-11.13,3.91,41.84,41.84,0,0,1-11.75.89,18.19,18.19,0,0,1-6-1.36A20.05,20.05,0,0,1,47.7,12.25Z"/><path class="cls-2" d="M47,31.3l-1.11-.1h0a41.22,41.22,0,0,0-11,.78l-.61.12-.18,0a42.46,42.46,0,0,0-10.41,3.6L23.2,36h0a19.15,19.15,0,0,0-4.84,3.5l-.07.07c.3.32.61.63.93.92l0,0,.12.11a20,20,0,0,0,4.72,3.22H41.71c.37-.18.73-.37,1.08-.56h0a20.07,20.07,0,0,0,8.78-10.16c.08-.2.16-.38.23-.58A17.36,17.36,0,0,0,47,31.3Z"/><path class="cls-2" d="M45.86,31.2q0,.51-.08,1c-.57,5.21-2.7,9.5-5.91,11.61H30.27a14.34,14.34,0,0,1-2.7-2l0,0a20.52,20.52,0,0,1-3.64-4.54c-.24-.4-.48-.83-.7-1.26a28.26,28.26,0,0,1-2.42-6.35c-.1-.4-.2-.81-.28-1.22a29.29,29.29,0,0,1-.63-6.71c0-.31,0-.63,0-.94C20.16,16.07,21.63,12,24,9.42l0,0h0a9.07,9.07,0,0,1,4.63-2.82l.2,0a8.72,8.72,0,0,1,4.44.25,14,14,0,0,1,5.91,4l0,0a23,23,0,0,1,3.52,5.14c.22.41.42.84.61,1.28a29.74,29.74,0,0,1,1.91,6c.08.41.17.82.23,1.23A28.49,28.49,0,0,1,45.86,31.2Z"/><line class="cls-3" x1="13" y1="29.96" x2="52.39" y2="21.68"/><polyline class="cls-3" points="36.48 43.8 34.28 33.39 34.03 32.14 32.95 27.04 32.7 25.82 31.7 21.09 31.45 19.88 28.92 7.86 28.83 7.43 28.65 6.58 28.58 6.19 28.56 6.12"/><path class="cls-4" d="M23,44.22A20.14,20.14,0,0,1,19,41h-.28v-.31c-.26-.28-.51-.57-.76-.87a20.6,20.6,0,0,1-4.13-8.72c-.09-.43-.16-.84-.22-1.26a20.35,20.35,0,0,1,.86-9.53c.07-.2.14-.4.22-.6a19.69,19.69,0,0,1,1.57-3.29c.1-.19.21-.38.33-.56a20.25,20.25,0,0,1,2.68-3.38l.24-.25.12-.11c.36-.36.77-.72,1.23-1.1.21-.17.43-.35.65-.51a17.63,17.63,0,0,1,1.49-1l.51-.31V8.91h.37c.34-.2.7-.38,1.05-.55L25.77,8a1,1,0,0,1,.2-.08l.28-.12.15-.06c.29-.11.59-.22.89-.32l.07,0h.11c.38-.13.75-.24,1.13-.35l.22-.06.7-.16.1,0,.1,0c.41-.09.81-.15,1.22-.21l.82-.11.25,0,.71,0,.56,0c.59,0,1.15,0,1.69,0,.73,0,1.36.11,1.94.19l.87.15.17,0c.2,0,.4.08.6.12l.52.13.41.11.62.19c.25.07.52.16.77.26s.46.16.69.26.58.24.88.37A18.82,18.82,0,0,1,44.14,9c.27.15.55.32.82.49l.8.54.67.5a.83.83,0,0,1,.17.13c.2.15.44.35.67.55s.43.37.64.57h0l.16.16c.31.29.61.59.91.9h0l.15.16a20.56,20.56,0,0,1-4.22,31.24l-.53-.85a19.56,19.56,0,0,0,4.17-29.56h-.28v-.3c-.25-.26-.49-.52-.75-.76h-.07l-.16-.23-.67-.59c-.23-.2-.46-.38-.68-.56l-.09-.06c-.22-.17-.45-.34-.67-.49l-.76-.51c-.25-.16-.51-.32-.77-.46A17.94,17.94,0,0,0,42,9c-.28-.13-.56-.25-.84-.36s-.43-.17-.64-.25-.49-.18-.74-.25L39.22,8l-.41-.11-.48-.12c-.19,0-.37-.09-.56-.12l-.12,0c-.33-.07-.61-.11-.88-.15-.56-.08-1.17-.14-1.86-.18-.5,0-1,0-1.62,0l-.51,0-.67,0H32c-.35,0-.61.07-.87.12s-.78.12-1.16.2l-.11,0-.1,0-.65.15-.12,0c-.46.13-.82.24-1.19.36l-.09,0c-.31.1-.61.21-.91.33l-.1,0-.31.13-.13.05-.85.39c-.29.14-.58.29-.86.45h0l-.26.14c-.24.13-.49.28-.72.43a16.84,16.84,0,0,0-1.43,1c-.21.16-.42.32-.61.49a15.43,15.43,0,0,0-1.16,1l-.12.12-.22.22a19.36,19.36,0,0,0-2.56,3.23c-.11.17-.21.33-.3.51A18.78,18.78,0,0,0,15.61,20c-.08.19-.14.37-.2.56a19.38,19.38,0,0,0-.81,9.07c.06.41.13.8.21,1.2a19.58,19.58,0,0,0,3.92,8.29c.24.28.47.55.71.82h0l.25.3a19.22,19.22,0,0,0,3.79,3.11Z"/><path class="cls-4" d="M23.61,22.39c-.93,0-1.83,0-2.7-.11a18.76,18.76,0,0,1-6.17-1.4l-.41-.19.14-.43A20.55,20.55,0,0,1,49.13,13l.3.33-.3.34a18.24,18.24,0,0,1-5.08,3.78,42.24,42.24,0,0,1-11.27,4A45.14,45.14,0,0,1,23.61,22.39Zm-8-2.24A18.74,18.74,0,0,0,21,21.29a41.3,41.3,0,0,0,11.6-.88,41.26,41.26,0,0,0,11-3.86,18.44,18.44,0,0,0,4.49-3.23,19.55,19.55,0,0,0-32.51,6.84Z"/><path class="cls-4" d="M23,44.22a20.14,20.14,0,0,1-4-3.29l-.34-.36.36-.34a18.37,18.37,0,0,1,4.66-3.45l.37-.2A41.19,41.19,0,0,1,34.17,32.9c.28-.07.55-.14.83-.18l.2,0a44.36,44.36,0,0,1,10.59-1c.39,0,.78,0,1.16.07a22.31,22.31,0,0,1,4.77.84,13.88,13.88,0,0,1,1.33.49l.43.18-.16.44a20.61,20.61,0,0,1-8.41,10.52l-.53-.85a19.61,19.61,0,0,0,7.83-9.56l-.79-.27a21.33,21.33,0,0,0-4.54-.8c-.38,0-.75-.06-1.13-.06a43.31,43.31,0,0,0-10.39,1l-.13,0c-.32.06-.57.12-.81.18a40.27,40.27,0,0,0-9.93,3.59l-.37.2A18.53,18.53,0,0,0,20,40.59a19.12,19.12,0,0,0,3.47,2.79Z"/><path class="cls-4" d="M29.45,44.19a17.73,17.73,0,0,1-2.24-2.06L27.09,42a23.42,23.42,0,0,1-3.28-4.77c-.23-.42-.45-.85-.65-1.31a29.76,29.76,0,0,1-2.11-6.41c-.07-.35-.14-.71-.21-1.07l0-.16a29.44,29.44,0,0,1-.37-6.55c0-.34,0-.69.08-1,.64-6.72,3.8-11.84,8.24-13.35a6.07,6.07,0,0,1,.84-.24l.23-.05c3.18-.67,6.62.48,9.66,3.24l0,0,.1.12A19,19,0,0,1,42,13.06c.14.18.29.38.43.59s.4.58.6.89.39.61.58.94.44.75.61,1.08l.1.18a29.26,29.26,0,0,1,2.28,6.14c.1.4.2.81.29,1.23a29.89,29.89,0,0,1,.64,7.2c0,.32,0,.65-.06,1-.33,4.64-1.83,8.64-4.24,11.27l-.15.16c-.14.15-.29.3-.44.44l-.67-.74a5.73,5.73,0,0,0,.5-.52l.17-.17c2.18-2.46,3.54-6.18,3.84-10.52,0-.31,0-.62.05-.93a28.84,28.84,0,0,0-.62-7c-.08-.41-.17-.8-.28-1.19a28.33,28.33,0,0,0-2.07-5.66h0l-.15-.28A13.48,13.48,0,0,0,42.7,16c-.18-.32-.36-.61-.55-.9s-.38-.59-.58-.86-.27-.38-.4-.55a18.85,18.85,0,0,0-2.26-2.51l0,0C36,8.55,32.91,7.48,30,8.08l-.16,0a5.54,5.54,0,0,0-.75.21c-4.07,1.39-7,6.18-7.58,12.51,0,.32-.06.65-.07,1a28.51,28.51,0,0,0,.36,6.32l0,.15c.06.35.13.7.2,1a28.73,28.73,0,0,0,2,6.2c.19.44.41.85.62,1.25a22.37,22.37,0,0,0,3.21,4.64l0,0a16.81,16.81,0,0,0,2.11,1.94Z"/><rect class="cls-4" x="13.62" y="26.37" width="40.26" height="1" transform="translate(-4.79 7.49) rotate(-11.84)"/><polygon class="cls-4" points="36.82 43.9 29.13 7.35 29.61 7.18 30.1 7.11 37.8 43.69 36.82 43.9"/><path class="cls-5" d="M14.4,44.3a.5.5,0,0,1-.39-.18c-.28-.34-.6-.74-.94-1.2a.5.5,0,0,1,.8-.59c.33.45.64.83.91,1.16a.5.5,0,0,1-.39.82Z"/><path class="cls-5" d="M11.78,40.57a.5.5,0,0,1-.43-.24c-.53-.89-1-1.81-1.47-2.74a.5.5,0,0,1,.9-.43c.43.9.91,1.8,1.42,2.66a.5.5,0,0,1-.43.76ZM9.16,35a.5.5,0,0,1-.47-.33,29.21,29.21,0,0,1-.88-3,.5.5,0,1,1,1-.23,28,28,0,0,0,.85,2.89.5.5,0,0,1-.3.64Zm-1.4-6a.5.5,0,0,1-.5-.44,26.62,26.62,0,0,1-.19-3.12.5.5,0,0,1,.5-.5h0a.5.5,0,0,1,.5.5,25.9,25.9,0,0,0,.18,3,.5.5,0,0,1-.44.56Zm0-6.12H7.7a.5.5,0,0,1-.44-.55,27.37,27.37,0,0,1,.54-3.07.5.5,0,1,1,1,.23,26.52,26.52,0,0,0-.52,3A.5.5,0,0,1,7.75,23Zm1.39-6L9,17a.5.5,0,0,1-.31-.64q.3-.86.67-1.75c.19-.39.38-.76.59-1.14a.5.5,0,0,1,.88.48q-.3.54-.55,1.06c-.23.54-.44,1.11-.64,1.66A.5.5,0,0,1,9.14,17ZM12,11.6a.49.49,0,0,1-.29-.1.5.5,0,0,1-.11-.7,27.7,27.7,0,0,1,2-2.42.5.5,0,0,1,.74.67,26.59,26.59,0,0,0-1.9,2.33A.5.5,0,0,1,12,11.6Zm4.13-4.52a.5.5,0,0,1-.33-.88A26.52,26.52,0,0,1,18.29,4.3a.5.5,0,0,1,.56.83A25.4,25.4,0,0,0,16.47,7,.5.5,0,0,1,16.14,7.09ZM21.2,3.65A.5.5,0,0,1,21,2.71a24.79,24.79,0,0,1,2.87-1.25.5.5,0,0,1,.34.94,23.76,23.76,0,0,0-2.75,1.2A.5.5,0,0,1,21.2,3.65Zm20.85-1-.16,0c-1-.32-1.95-.6-2.9-.83a.5.5,0,1,1,.23-1c1,.24,2,.53,3,.86a.5.5,0,0,1-.16,1ZM27,1.57a.5.5,0,0,1-.11-1A25,25,0,0,1,29.93.1a.5.5,0,1,1,.09,1,23.93,23.93,0,0,0-3,.46Zm9.14-.32H36A27.38,27.38,0,0,0,33,1a.5.5,0,0,1-.49-.51A.52.52,0,0,1,33.05,0a28.61,28.61,0,0,1,3.11.26.5.5,0,0,1-.07,1Z"/><path class="cls-5" d="M46.32,4.37a.5.5,0,0,1-.21,0l-1.36-.6a.5.5,0,0,1,.39-.92l1.39.62a.5.5,0,0,1-.21,1Z"/><path class="cls-5" d="M46.46,7.51a.5.5,0,0,1-.16-1l3.17-1.08-.9-3.1a.5.5,0,0,1,1-.28l1,3.56a.5.5,0,0,1-.32.61L46.63,7.49Z"/><path class="cls-1" d="M41.93,44.25l-.44-.9c.34-.17.68-.34,1-.52l.1-.1h.08a19.61,19.61,0,0,0,8.45-9.84c.08-.2.16-.37.22-.56A19.62,19.62,0,0,0,52.25,23c-.06-.41-.13-.8-.21-1.2a19.3,19.3,0,0,0-3.76-8.05c-.28-.35-.56-.69-.85-1l-.08-.07.25-.46-.33.38c-.18-.2-.31-.34-.46-.48l-.31-.31a18.67,18.67,0,0,0-2.88-2.31,2.67,2.67,0,0,0-.31-.21l-.21-.13-.44-.26-.1-.05-.31-.17L42,8.5l-.18-.1-.25-.12a17.49,17.49,0,0,0-1.82-.79l-.11,0-.2-.07-.19-.07-.3-.1c-.21-.07-.38-.13-.56-.17l.1-.49-.2.46-.41-.11-.1,0L37,6.65l-.18,0c-.27-.06-.54-.11-.83-.15-.6-.1-1.18-.17-1.74-.2h-.11l-.28,0a19.54,19.54,0,0,0-5,.39l-.13,0-.67.16L27.41,7c-.22.06-.42.12-.62.19-.43.14-.84.29-1.24.45s-.54.22-.79.34l-.36.17c-.41.19-.78.39-1.16.6s-1,.63-1.59,1l-.23.16-.6.46c-.21.16-.39.32-.58.47L20,11l-.33.3c-.16.14-.29.28-.43.42a4.06,4.06,0,0,0-.39.39,15.81,15.81,0,0,0-1.06,1.18l-.31.38-.15.19c-.14.18-.27.35-.4.54l-.06.15-.09.07-.4.61-.22.36-.09.14-.07.13a7,7,0,0,0-.35.61l-.06.09h0l0,.05,0,.06c-.3.57-.56,1.13-.78,1.66s-.3.78-.44,1.18a19.54,19.54,0,0,0,4.28,19.65c.25.27.51.53.78.78h0l.27.26a19.51,19.51,0,0,0,4.59,3.12l-.44.9A20.52,20.52,0,0,1,19,41H19l-.12-.19c-.31-.28-.62-.59-.91-.91a20.54,20.54,0,0,1-4.5-20.66c.14-.41.3-.82.46-1.23s.47-1.08.76-1.64v0l.08-.13a1,1,0,0,1,.13-.22,5.18,5.18,0,0,1,.34-.61l0-.09.12-.19.21-.35.4-.61v-.35h.25l.35-.48.16-.2.33-.4c.37-.45.73-.86,1.1-1.22a4.43,4.43,0,0,1,.43-.43c.14-.14.29-.29.46-.44l.38-.34.23-.19c.15-.13.34-.3.55-.45l.18-.13.44-.34.25-.18c.59-.41,1.14-.76,1.69-1.07.4-.22.8-.44,1.2-.62l.38-.18c.27-.13.55-.26.85-.37s.84-.32,1.27-.46c.2-.07.43-.14.66-.2l.43-.12.31-.08.59-.14.22-.05a20.43,20.43,0,0,1,5-.42h0l.53,0a18.75,18.75,0,0,1,2,.22c.31,0,.6.1.9.17l.21,0,.75.17.15,0,.35.1a.87.87,0,0,1,.2.06,5.35,5.35,0,0,1,.55.17,2.26,2.26,0,0,1,.31.1l.08,0h.09l.07.06.21.07h.11l.09.08A17.7,17.7,0,0,1,42,7.36l.28.14a1.93,1.93,0,0,1,.29.16s.06,0,.13.06l.3.16a.76.76,0,0,1,.14.08l.45.27.19.12a3.23,3.23,0,0,1,.38.25,19.4,19.4,0,0,1,3,2.4c.11.1.23.22.34.34s.27.27.4.41h0l.16.16c.36.4.68.78,1,1.17a20.31,20.31,0,0,1,4,8.46c.09.43.16.84.22,1.27a20.61,20.61,0,0,1-1,9.84c-.07.2-.15.4-.24.61A20.61,20.61,0,0,1,43.1,43.63l-.1.1h-.08C42.6,43.91,42.26,44.08,41.93,44.25Z"/><path class="cls-1" d="M22.55,21.33c-.93,0-1.83,0-2.7-.11a18.78,18.78,0,0,1-6.17-1.4l-.41-.19.14-.43a20.55,20.55,0,0,1,34.66-7.29l.3.33-.3.34A18.22,18.22,0,0,1,43,16.36a42.25,42.25,0,0,1-11.27,4A45.14,45.14,0,0,1,22.55,21.33Zm-8-2.24a18.74,18.74,0,0,0,5.42,1.14,41.33,41.33,0,0,0,11.6-.88,41.27,41.27,0,0,0,11-3.86A18.44,18.44,0,0,0,47,12.25a19.55,19.55,0,0,0-32.51,6.84Z"/><path class="cls-1" d="M41.93,44.25l-.44-.9c.34-.17.68-.34,1-.52l.1-.1h.08a19.61,19.61,0,0,0,8.45-9.84l.05-.12a17.66,17.66,0,0,0-4.25-1l-1.09-.1a40.86,40.86,0,0,0-10.91.77l-.1,0-.49.1-.21,0a42,42,0,0,0-10.26,3.56l-.42.21-.12.06A19.39,19.39,0,0,0,19,39.53l.45.44h0l.27.26a19.51,19.51,0,0,0,4.59,3.12l-.44.9A20.52,20.52,0,0,1,19,41H19l-.12-.19c-.31-.28-.62-.59-.91-.91l-.34-.36.41-.39h0a19.73,19.73,0,0,1,5-3.6l.12-.06.34-.17a43,43,0,0,1,10.51-3.64l.2,0,.5-.1A42,42,0,0,1,45.9,30.7l1.13.1A17.73,17.73,0,0,1,52,32l.42.18-.15.44c-.07.21-.15.41-.24.62A20.61,20.61,0,0,1,43.1,43.63l-.1.1h-.08C42.6,43.91,42.26,44.08,41.93,44.25Z"/><path class="cls-1" d="M40,44.3H30.14L30,44.23a14.93,14.93,0,0,1-2.8-2.07l-.08-.07a21,21,0,0,1-3.69-4.61c-.25-.41-.49-.84-.72-1.28a28.72,28.72,0,0,1-2.46-6.46c-.1-.41-.2-.82-.29-1.24a29.82,29.82,0,0,1-.64-6.83c0-.31,0-.64,0-1,.27-4.78,1.77-8.91,4.22-11.62L23.7,9a9.52,9.52,0,0,1,4.84-2.91L28.78,6a9.15,9.15,0,0,1,4.66.27,14.47,14.47,0,0,1,6.07,4h0l.1.12a23.33,23.33,0,0,1,3.58,5.23c.22.42.43.86.62,1.3a30.2,30.2,0,0,1,1.95,6.06c.09.46.17.85.24,1.25a29,29,0,0,1,.34,6.91c0,.35,0,.68-.09,1-.6,5.43-2.83,9.8-6.14,12Zm-9.6-1h9.3c3-2,5-6.09,5.57-11.17,0-.31.06-.63.08-1h0A27.94,27.94,0,0,0,45,24.49c-.06-.39-.14-.77-.22-1.16a29.27,29.27,0,0,0-1.89-5.91c-.18-.43-.38-.85-.6-1.25a22.47,22.47,0,0,0-3.42-5l-.07-.07a13.54,13.54,0,0,0-5.7-3.83A8.19,8.19,0,0,0,29,7l-.15,0a8.58,8.58,0,0,0-4.41,2.68l-.09.08c-2.25,2.51-3.65,6.41-3.91,10.94,0,.3,0,.61,0,.91A28.76,28.76,0,0,0,21,28.28c.08.41.18.8.28,1.2a27.71,27.71,0,0,0,2.38,6.24c.22.43.45.84.69,1.23a20,20,0,0,0,3.55,4.43l.08.08A14.22,14.22,0,0,0,30.41,43.3Z"/><rect class="cls-1" x="12.57" y="25.32" width="40.26" height="1" transform="translate(-4.6 7.26) rotate(-11.84)"/><polygon class="cls-1" points="35.99 43.9 28.09 6.29 29.04 6 29.41 7.76 36.97 43.69 35.99 43.9"/><path class="cls-1" d="M65.35,44.3H.5a.5.5,0,0,1,0-1H65.35a.5.5,0,0,1,0,1Z"/></g></g></svg>