<svg xmlns="http://www.w3.org/2000/svg" viewBox="0 0 64.8 63.98"><defs><style>.cls-1{fill:#22366b;}.cls-2{fill:#79b1e0;}.cls-3{fill:#fff;}.cls-4{fill:#bad5ea;}.cls-5{fill:#f04e24;}</style></defs><title>m-experience</title><g id="Layer_2" data-name="Layer 2"><g id="final_icons_bios"><path class="cls-1" d="M6,51.8a.11.11,0,0,1,.12-.1h.1a.12.12,0,0,1,.11.06l1.41,3h0l1.41-3a.11.11,0,0,1,.11-.06h.1a.11.11,0,0,1,.12.1l.75,4.3a.11.11,0,0,1-.12.15H9.53a.14.14,0,0,1-.12-.1L9,53.73H9L7.9,56.24a.11.11,0,0,1-.11.07H7.67a.12.12,0,0,1-.11-.07L6.43,53.73h0L6,56.15a.12.12,0,0,1-.12.1H5.35a.12.12,0,0,1-.12-.15Z"/><path class="cls-1" d="M10.52,56.08l2-4.3a.12.12,0,0,1,.11-.07h.06a.11.11,0,0,1,.11.07l2,4.3a.11.11,0,0,1-.11.17H14.1a.18.18,0,0,1-.19-.13l-.31-.69H11.69l-.31.69a.19.19,0,0,1-.19.13h-.56A.11.11,0,0,1,10.52,56.08Zm2.76-1.36-.64-1.41h0L12,54.72Z"/><path class="cls-1" d="M15.34,51.82a.12.12,0,0,1,.12-.12h.16l2.66,2.83h0V51.89a.12.12,0,0,1,.12-.12H19a.13.13,0,0,1,.12.12v4.3a.12.12,0,0,1-.12.12h-.15l-2.67-2.93h0v2.75a.12.12,0,0,1-.12.12h-.58a.13.13,0,0,1-.12-.12Z"/><path class="cls-1" d="M20.22,51.89a.13.13,0,0,1,.12-.12h.61a.12.12,0,0,1,.12.12v2.61a.93.93,0,1,0,1.86,0V51.89a.12.12,0,0,1,.12-.12h.61a.13.13,0,0,1,.12.12v2.66a1.78,1.78,0,0,1-3.56,0Z"/><path class="cls-1" d="M24.88,51.89a.12.12,0,0,1,.12-.12h2.6a.12.12,0,0,1,.12.12v.52a.12.12,0,0,1-.12.12H25.71v1.2h1.58a.13.13,0,0,1,.12.12v.52a.13.13,0,0,1-.12.12H25.71v1.62a.13.13,0,0,1-.12.12H25a.12.12,0,0,1-.12-.12Z"/><path class="cls-1" d="M27.74,56.08l2-4.3a.12.12,0,0,1,.11-.07h.06a.11.11,0,0,1,.11.07l2,4.3a.11.11,0,0,1-.11.17h-.56a.18.18,0,0,1-.19-.13l-.31-.69H28.9l-.31.69a.19.19,0,0,1-.19.13h-.56A.11.11,0,0,1,27.74,56.08Zm2.76-1.36-.64-1.41h0l-.63,1.41Z"/><path class="cls-1" d="M34.51,51.71a2.16,2.16,0,0,1,1.55.59.12.12,0,0,1,0,.18l-.39.4a.1.1,0,0,1-.16,0,1.51,1.51,0,0,0-1-.38,1.48,1.48,0,0,0,0,3,1.54,1.54,0,0,0,1-.36.12.12,0,0,1,.16,0l.4.41a.12.12,0,0,1,0,.17,2.19,2.19,0,0,1-1.55.62,2.3,2.3,0,1,1,0-4.6Z"/><path class="cls-1" d="M37.5,52.54h-1a.12.12,0,0,1-.12-.12v-.52a.12.12,0,0,1,.12-.12h2.79a.12.12,0,0,1,.12.12v.52a.12.12,0,0,1-.12.12h-1v3.59a.13.13,0,0,1-.12.12h-.59a.13.13,0,0,1-.12-.12Z"/><path class="cls-1" d="M40,51.89a.13.13,0,0,1,.12-.12h.61a.12.12,0,0,1,.12.12v2.61a.93.93,0,1,0,1.86,0V51.89a.12.12,0,0,1,.12-.12h.61a.13.13,0,0,1,.12.12v2.66a1.78,1.78,0,0,1-3.56,0Z"/><path class="cls-1" d="M44.69,51.89a.12.12,0,0,1,.12-.12h1.83A1.39,1.39,0,0,1,48,53.15a1.41,1.41,0,0,1-.95,1.29L48,56.06a.12.12,0,0,1-.11.19h-.67a.11.11,0,0,1-.1-.06l-.85-1.69h-.71v1.63a.13.13,0,0,1-.12.12h-.59a.12.12,0,0,1-.12-.12Zm1.88,1.92a.65.65,0,0,0,.63-.65.64.64,0,0,0-.63-.62h-1v1.27Z"/><path class="cls-1" d="M48.95,51.89a.13.13,0,0,1,.12-.12h.59a.13.13,0,0,1,.12.12v4.23a.13.13,0,0,1-.12.12h-.59a.13.13,0,0,1-.12-.12Z"/><path class="cls-1" d="M50.95,51.82a.12.12,0,0,1,.12-.12h.16l2.66,2.83h0V51.89a.12.12,0,0,1,.12-.12h.59a.13.13,0,0,1,.12.12v4.3a.12.12,0,0,1-.12.12h-.15l-2.67-2.93h0v2.75a.12.12,0,0,1-.12.12h-.58a.13.13,0,0,1-.12-.12Z"/><path class="cls-1" d="M57.86,51.71a2.42,2.42,0,0,1,1.56.59.12.12,0,0,1,0,.18l-.4.42a.11.11,0,0,1-.17,0,1.45,1.45,0,0,0-1-.37,1.47,1.47,0,0,0,0,2.95,2,2,0,0,0,.76-.16v-.54h-.51a.12.12,0,0,1-.12-.11v-.51a.12.12,0,0,1,.12-.12h1.23a.12.12,0,0,1,.12.12v1.64a.12.12,0,0,1-.05.1,3.23,3.23,0,0,1-1.58.42,2.3,2.3,0,0,1,0-4.6Z"/><path class="cls-1" d="M13.77,59.56a.12.12,0,0,1,.12-.12h2.6a.12.12,0,0,1,.12.12v.52a.12.12,0,0,1-.12.12H14.6v1h1.58a.13.13,0,0,1,.12.12v.53a.12.12,0,0,1-.12.12H14.6v1.12H16.5a.12.12,0,0,1,.12.12v.52a.12.12,0,0,1-.12.12h-2.6a.12.12,0,0,1-.12-.12Z"/><path class="cls-1" d="M18.47,61.62l-1.28-2a.11.11,0,0,1,.11-.18H18a.13.13,0,0,1,.1.06L19,60.85h0l.83-1.36a.12.12,0,0,1,.1-.06h.74a.11.11,0,0,1,.11.18l-1.29,2,1.33,2.12a.11.11,0,0,1-.11.18H20a.13.13,0,0,1-.11-.06L19,62.39h0l-.9,1.46a.14.14,0,0,1-.11.06h-.69a.12.12,0,0,1-.12-.18Z"/><path class="cls-1" d="M21.57,59.56a.12.12,0,0,1,.12-.12h1.5a1.43,1.43,0,1,1,0,2.85h-.8v1.5a.13.13,0,0,1-.12.12h-.59a.12.12,0,0,1-.12-.12Zm1.57,2a.66.66,0,0,0,.66-.67.64.64,0,0,0-.66-.62H22.4v1.29Z"/><path class="cls-1" d="M25.35,59.56a.12.12,0,0,1,.12-.12h2.6a.12.12,0,0,1,.12.12v.52a.12.12,0,0,1-.12.12H26.18v1h1.58a.13.13,0,0,1,.12.12v.53a.12.12,0,0,1-.12.12H26.18v1.12h1.89a.12.12,0,0,1,.12.12v.52a.12.12,0,0,1-.12.12h-2.6a.12.12,0,0,1-.12-.12Z"/><path class="cls-1" d="M29.11,59.56a.12.12,0,0,1,.12-.12h1.83a1.39,1.39,0,0,1,1.39,1.38,1.41,1.41,0,0,1-.95,1.29l.88,1.62a.12.12,0,0,1-.11.19H31.6a.11.11,0,0,1-.1-.06l-.85-1.69h-.71v1.63a.13.13,0,0,1-.12.12h-.59a.12.12,0,0,1-.12-.12ZM31,61.48a.65.65,0,0,0,.63-.65.64.64,0,0,0-.63-.62h-1v1.27Z"/><path class="cls-1" d="M33.37,59.56a.13.13,0,0,1,.12-.12h.59a.13.13,0,0,1,.12.12v4.23a.13.13,0,0,1-.12.12h-.59a.13.13,0,0,1-.12-.12Z"/><path class="cls-1" d="M35.37,59.56a.12.12,0,0,1,.12-.12h2.6a.12.12,0,0,1,.12.12v.52a.12.12,0,0,1-.12.12H36.2v1h1.58a.13.13,0,0,1,.12.12v.53a.12.12,0,0,1-.12.12H36.2v1.12h1.89a.12.12,0,0,1,.12.12v.52a.12.12,0,0,1-.12.12h-2.6a.12.12,0,0,1-.12-.12Z"/><path class="cls-1" d="M39.12,59.49a.12.12,0,0,1,.12-.12h.16l2.66,2.83h0V59.56a.12.12,0,0,1,.12-.12h.59a.13.13,0,0,1,.12.12v4.3a.12.12,0,0,1-.12.12h-.15L40,61h0v2.75a.12.12,0,0,1-.12.12h-.58a.13.13,0,0,1-.12-.12Z"/><path class="cls-1" d="M46,59.38a2.16,2.16,0,0,1,1.55.59.12.12,0,0,1,0,.18l-.39.4a.1.1,0,0,1-.16,0,1.51,1.51,0,0,0-1-.38,1.48,1.48,0,0,0,0,3,1.53,1.53,0,0,0,1-.36.12.12,0,0,1,.16,0l.4.41a.12.12,0,0,1,0,.17A2.19,2.19,0,0,1,46,64a2.3,2.3,0,1,1,0-4.6Z"/><path class="cls-1" d="M48.43,59.56a.12.12,0,0,1,.12-.12h2.6a.12.12,0,0,1,.12.12v.52a.12.12,0,0,1-.12.12H49.26v1h1.58a.13.13,0,0,1,.12.12v.53a.12.12,0,0,1-.12.12H49.26v1.12h1.89a.12.12,0,0,1,.12.12v.52a.12.12,0,0,1-.12.12h-2.6a.12.12,0,0,1-.12-.12Z"/><path class="cls-2" d="M59.26,41.11,59,41l-.67-.37c0-.13,0-.26,0-.39a8.34,8.34,0,0,0,0-1.86l.92-.51A1.44,1.44,0,0,0,59.88,36l-.56-1.37a1.38,1.38,0,0,0-.88-.8,1.43,1.43,0,0,0-.86,0l-1,.28a6.38,6.38,0,0,0-.85-.94,2.71,2.71,0,0,0-.34-.31,3.91,3.91,0,0,0-.38-.31l0-.08.25-.85a1.46,1.46,0,0,0-.84-1.75l-.11,0L53.1,29.3a1.44,1.44,0,0,0-1.83.63l-.45.82a9.57,9.57,0,0,0-2.18,0l-.46-.81c0-.06-.06-.1-.09-.15a1.49,1.49,0,0,0-.67-.5,1.43,1.43,0,0,0-1.05,0L45,29.87a1.45,1.45,0,0,0-.84,1.74l.24.85a8.75,8.75,0,0,0-1.64,1.62l-.88-.25a1.47,1.47,0,0,0-1.75.85L39.58,36a1.48,1.48,0,0,0,0,1,1.42,1.42,0,0,0,.5.67l.17.11.8.45a8.39,8.39,0,0,0,0,2.36l-.81.46a1.45,1.45,0,0,0-.64,1.81l.53,1.27,0,.1a1.47,1.47,0,0,0,1.75.85l.93-.28h0c.06.07.12.15.19.22l0,0a3.67,3.67,0,0,0,.41.44,9.16,9.16,0,0,0,1,.83l0,.14-.09.31H55.17l-.08-.31L55,46.32a9.12,9.12,0,0,0,1.5-1.49l1.07.31a1.47,1.47,0,0,0,1.75-.85l.55-1.36A1.42,1.42,0,0,0,59.26,41.11Zm-6-.23a3.83,3.83,0,0,1-5,2.06,3.71,3.71,0,0,1-1.67-1.34h0a3.82,3.82,0,0,1,4.6-5.71,3.76,3.76,0,0,1,.74.4A3.85,3.85,0,0,1,53.22,40.88Z"/><path class="cls-2" d="M37.38,40.32a1.38,1.38,0,0,0-1-1.32l-.24-.06L34,38.69c-.08-.29-.17-.57-.28-.85a12.14,12.14,0,0,0-.86-1.9l1.34-1.72a1.38,1.38,0,0,0-.11-1.83l-.92-.92-1.41-1.39A1.38,1.38,0,0,0,29.93,30l-1.65,1.31a12.35,12.35,0,0,0-2.94-1.22l-.07-.66L25.1,28a1.37,1.37,0,0,0-1-1.16,1.23,1.23,0,0,0-.42-.06H20.43A1.38,1.38,0,0,0,19.06,28l-.23,2a11.89,11.89,0,0,0-2.9,1.2l-1.54-1.21a1.4,1.4,0,0,0-1.85.11l-2.3,2.33a1.39,1.39,0,0,0-.09,1.85l1.21,1.51a12.82,12.82,0,0,0-1.18,2.88L8.27,39A1.38,1.38,0,0,0,7,40.34v3.26a1.13,1.13,0,0,0,.07.4A1.39,1.39,0,0,0,8.3,45l1.17.14.67.07a11,11,0,0,0,.44,1.35h8.54a5.51,5.51,0,0,1-.85-.68,4.78,4.78,0,0,1-.45-.52,5.42,5.42,0,0,1,7.59-7.62,5.19,5.19,0,0,1,.49.43,5.42,5.42,0,0,1,0,7.66,4.94,4.94,0,0,1-.92.74h8.55a12.78,12.78,0,0,0,.45-1.3L36.17,45a1.38,1.38,0,0,0,1.22-1.39Z"/><path class="cls-3" d="M33.6,46.58H24.86L25,46.5a4.85,4.85,0,0,0,.91-.73,5.38,5.38,0,0,0,0-7.59,5.17,5.17,0,0,0-.49-.42,5.37,5.37,0,0,0-7.53,7.55,4.73,4.73,0,0,0,.45.51,5.48,5.48,0,0,0,.84.68l.13.08H10.55v0a11,11,0,0,1-.44-1.32l-.63-.07L8.3,45a1.43,1.43,0,0,1-1.21-1A1.15,1.15,0,0,1,7,43.61V40.34a1.42,1.42,0,0,1,1.26-1.43l1.87-.22a12.89,12.89,0,0,1,1.16-2.83l-1.19-1.48a1.44,1.44,0,0,1,.1-1.91l2.3-2.33A1.44,1.44,0,0,1,14.41,30l1.52,1.19A11.84,11.84,0,0,1,18.79,30L19,28a1.42,1.42,0,0,1,1.41-1.28H23.7a1.26,1.26,0,0,1,.43.07,1.43,1.43,0,0,1,1,1.19l.24,2a12.47,12.47,0,0,1,2.89,1.2l1.62-1.29a1.42,1.42,0,0,1,1.9.09l1.41,1.39.92.92a1.44,1.44,0,0,1,.12,1.89l-1.32,1.7a12.27,12.27,0,0,1,.85,1.89c.11.27.19.55.27.82l2.11.25.25.06a1.43,1.43,0,0,1,1,1.37h0v3.27A1.42,1.42,0,0,1,36.17,45l-2.11.26a12.63,12.63,0,0,1-.45,1.28Zm-8.43-.09h8.36A12.71,12.71,0,0,0,34,45.22v0l2.18-.26a1.33,1.33,0,0,0,1.18-1.34V40.32a1.34,1.34,0,0,0-1-1.28L36.13,39,34,38.73v0c-.08-.28-.16-.57-.28-.85a12.09,12.09,0,0,0-.86-1.9l0,0,1.36-1.74a1.34,1.34,0,0,0-.11-1.77l-.92-.92-1.41-1.39A1.33,1.33,0,0,0,30,30l-1.67,1.33,0,0a12.36,12.36,0,0,0-2.93-1.22h0l-.08-.69L25.05,28a1.33,1.33,0,0,0-.95-1.12,1.19,1.19,0,0,0-.4-.06H20.43A1.33,1.33,0,0,0,19.11,28l-.23,2.07h0A11.76,11.76,0,0,0,16,31.31l0,0,0,0L14.36,30.1a1.35,1.35,0,0,0-1.79.11l-2.3,2.33a1.35,1.35,0,0,0-.09,1.79l1.23,1.53,0,0a12.79,12.79,0,0,0-1.18,2.86v0L8.27,39a1.33,1.33,0,0,0-1.18,1.34v3.26a1.07,1.07,0,0,0,.07.38,1.34,1.34,0,0,0,1.14.94l1.87.22v0a10.94,10.94,0,0,0,.43,1.32H19a5.3,5.3,0,0,1-.73-.61,4.72,4.72,0,0,1-.46-.52,5.46,5.46,0,0,1,7.66-7.68,5.35,5.35,0,0,1,.49.43,5.47,5.47,0,0,1,0,7.72A4.91,4.91,0,0,1,25.17,46.49Z"/><path class="cls-4" d="M43.67,23.82a1.71,1.71,0,0,0,2.27,0l1.27-1.18a1.7,1.7,0,0,0,.22-2.26l-.76-1a9.86,9.86,0,0,0,1-2.17l1.3-.1a1.7,1.7,0,0,0,1.57-1.64l.06-1.73a1.7,1.7,0,0,0-1.45-1.75l-1.27-.2A10,10,0,0,0,47,9.39l.86-1a1.71,1.71,0,0,0,0-2.27L46.66,4.85a1.7,1.7,0,0,0-2.26-.22l-1,.74A10.27,10.27,0,0,0,41,4.25L40.9,3a1.7,1.7,0,0,0-1.64-1.57l-1.73-.06a1.71,1.71,0,0,0-1.75,1.45L35.6,4a9.91,9.91,0,0,0-2.45.89l-.86-.74a1.71,1.71,0,0,0-2.27,0L28.75,5.4a1.7,1.7,0,0,0-.22,2.26l.66.9a10.28,10.28,0,0,0-1.09,2.32L27,11a1.7,1.7,0,0,0-1.57,1.64l-.06,1.73a1.7,1.7,0,0,0,1.45,1.75l1,.16a10,10,0,0,0,.93,2.55l-.7.82a1.71,1.71,0,0,0,0,2.27l1.18,1.27a1.7,1.7,0,0,0,2.26.22l.87-.63A10.31,10.31,0,0,0,35,23.87l.08,1.1a1.7,1.7,0,0,0,1.64,1.57l1.74.06a1.71,1.71,0,0,0,1.75-1.45L40.36,24A10,10,0,0,0,42.76,23Zm-9.1-6.74a4.49,4.49,0,1,1,6.35.24,4.5,4.5,0,0,1-6.35-.24Zm0,0"/><path class="cls-3" d="M36.45,39.39a1.17,1.17,0,0,0-.07-.4,1.35,1.35,0,0,0-1.16-1l-1.49-.18-.65-.07A12.55,12.55,0,0,0,31.94,35l1.34-1.72a1.39,1.39,0,0,0-.07-1.79l0,0-1.41-1.39-.92-.92A1.38,1.38,0,0,0,29,29.06l-1.65,1.31a12.11,12.11,0,0,0-2.09-1c-.28-.1-.56-.19-.85-.27l-.24-2.06a.94.94,0,0,0-.06-.23,1.37,1.37,0,0,0-1.34-1H19.51a1.38,1.38,0,0,0-1.37,1.24l-.23,2a11.89,11.89,0,0,0-2.9,1.2l-1.54-1.21a1.4,1.4,0,0,0-1.85.11l-2.3,2.33a1.39,1.39,0,0,0-.09,1.85l1.21,1.51a12.82,12.82,0,0,0-1.18,2.88L7.34,38a1.38,1.38,0,0,0-1.22,1.39v3.26a1.41,1.41,0,0,0,1,1.32l.25,0,1.84.21c.07.29.17.57.26.85a11.33,11.33,0,0,0,.6,1.42H32.25a13.83,13.83,0,0,0,.85-2.23l2.14-.26a1.38,1.38,0,0,0,1.22-1.39ZM25,44.87a5.41,5.41,0,0,1-7.18.46,3.91,3.91,0,0,1-.47-.41A5.42,5.42,0,1,1,25,37.22a4.42,4.42,0,0,1,.43.5A5.41,5.41,0,0,1,25,44.87Z"/><path class="cls-1" d="M32.54,47H9.79l-.13-.26A11.62,11.62,0,0,1,9,45.26c-.06-.19-.13-.38-.18-.58l-1.53-.18L7,44.46A1.87,1.87,0,0,1,5.67,42.7V39.42a1.85,1.85,0,0,1,1.62-1.85l1.61-.19a13.31,13.31,0,0,1,1-2.4l-1-1.27A1.84,1.84,0,0,1,9,31.25l2.3-2.33a1.86,1.86,0,0,1,2.46-.15l1.3,1a12.24,12.24,0,0,1,2.44-1l.2-1.72a1.84,1.84,0,0,1,1.83-1.65h3.27a1.82,1.82,0,0,1,1.79,1.32,1.3,1.3,0,0,1,.07.31l.2,1.75.59.2a12.46,12.46,0,0,1,1.88.83l1.4-1.12a1.83,1.83,0,0,1,2.45.12l2.33,2.32a1.87,1.87,0,0,1,.15,2.44l-1.15,1.48a13,13,0,0,1,.94,2.29l1.83.21a1.8,1.8,0,0,1,1.56,1.31,1.53,1.53,0,0,1,.09.52v3.27a1.84,1.84,0,0,1-1.63,1.85l-1.84.22a14,14,0,0,1-.79,2Zm-8.29-.92H32a13.46,13.46,0,0,0,.7-1.89l.09-.29,2.45-.3a.92.92,0,0,0,.81-.92V39.39a.7.7,0,0,0,0-.24.9.9,0,0,0-.78-.68l-2.45-.29-.08-.3a12,12,0,0,0-1.09-2.65L31.39,35l1.53-2a.92.92,0,0,0,0-1.19l-2.36-2.34a.91.91,0,0,0-1.22-.06l-1.9,1.51-.27-.16a11.54,11.54,0,0,0-2-.92c-.27-.1-.54-.19-.82-.26L24,29.52l-.28-2.38a.47.47,0,0,0,0-.12.89.89,0,0,0-.9-.69H19.51a.91.91,0,0,0-.91.82l-.27,2.35-.31.08a11.33,11.33,0,0,0-2.79,1.15l-.27.16-1.79-1.4a.94.94,0,0,0-1.24.07L9.64,31.9a.93.93,0,0,0-.06,1.23L11,34.89l-.15.27a12.38,12.38,0,0,0-1.14,2.77l-.08.3-2.21.26a.92.92,0,0,0-.81.92v3.27a1,1,0,0,0,.67.88l.17,0,2.16.25.08.31c.07.28.16.55.25.82a10.46,10.46,0,0,0,.45,1.11h7.71a5.94,5.94,0,0,1-.54-.38,4.28,4.28,0,0,1-.51-.44,5.89,5.89,0,1,1,8.28-8.37,5,5,0,0,1,.48.55,5.9,5.9,0,0,1-1.54,8.63Zm-3.08-10a5,5,0,0,0-3.48,8.49,3.43,3.43,0,0,0,.42.36,4.94,4.94,0,0,0,6.58-.41h0A4.94,4.94,0,0,0,25.05,38a4.09,4.09,0,0,0-.4-.46A5,5,0,0,0,21.16,36.12Z"/><path class="cls-3" d="M59,41a1.4,1.4,0,0,0-.63-.76l0,0-.93-.52a8.7,8.7,0,0,0,0-2.25l.92-.51A1.44,1.44,0,0,0,59,35.09l-.52-1.25,0-.12a1.46,1.46,0,0,0-1.74-.83l-.91.26-.07,0-.27-.33c-.11-.13-.22-.26-.35-.39a7.55,7.55,0,0,0-1-.84l.28-.93a1.39,1.39,0,0,0,0-.87,1.42,1.42,0,0,0-.81-.88l-1.36-.55a1.44,1.44,0,0,0-1.83.63l-.45.82a10.84,10.84,0,0,0-1.81,0l-.37,0-.31-.54L47.25,29a1.46,1.46,0,0,0-1.82-.63l-1.36.57a1.45,1.45,0,0,0-.84,1.74l.24.85a8.75,8.75,0,0,0-1.64,1.62L41,32.9a1.47,1.47,0,0,0-1.75.85l-.55,1.37a1.44,1.44,0,0,0,.64,1.81l.26.15.55.31c0,.12,0,.24,0,.36a9,9,0,0,0,.06,2l-.81.46A1.45,1.45,0,0,0,38.65,42l.57,1.37a1.43,1.43,0,0,0,.88.82,1.46,1.46,0,0,0,.87,0l1-.29a8.52,8.52,0,0,0,.89.93,2.41,2.41,0,0,0,.23.21l0,0,.43.35,0,.09-.23.8.64.18H54.42a.27.27,0,0,0,0-.09l-.3-1.05a9.12,9.12,0,0,0,1.5-1.49l1.07.31a1.47,1.47,0,0,0,1.75-.85L59,42A1.37,1.37,0,0,0,59,41Zm-12.46.63A3.82,3.82,0,0,1,50.21,35a3.7,3.7,0,0,1,1.66,1.32A3.82,3.82,0,0,1,47.3,42a3.7,3.7,0,0,1-.75-.42Z"/><path class="cls-1" d="M54.88,47l-11.1,0-1.09-.3.3-1-.21-.17-.11-.1-.19-.18a8.26,8.26,0,0,1-.7-.71l-.68.2a1.94,1.94,0,0,1-2.31-1.12l-.57-1.36a1.9,1.9,0,0,1,.84-2.4l.54-.31a9.42,9.42,0,0,1,0-1.79v-.07l-.53-.3a1.89,1.89,0,0,1-.84-2.39l.55-1.37a1.93,1.93,0,0,1,2.3-1.12l.59.17a9.29,9.29,0,0,1,1.28-1.26l-.16-.55a1.91,1.91,0,0,1,1.11-2.29l1.35-.57a1.92,1.92,0,0,1,2.4.82l.31.55h.09a11.13,11.13,0,0,1,1.59,0l.31-.56a1.9,1.9,0,0,1,2.42-.83l1.35.55a1.87,1.87,0,0,1,1.08,1.16,1.85,1.85,0,0,1,0,1.14l-.19.64a7.45,7.45,0,0,1,.76.7c.13.13.25.26.36.4l.09.11.68-.19a1.91,1.91,0,0,1,2.29,1.1l.57,1.37a1.91,1.91,0,0,1-.83,2.4l-.65.36a9.14,9.14,0,0,1,0,1.74l.75.42a1.85,1.85,0,0,1,.78,1,1.83,1.83,0,0,1-.05,1.39l-.54,1.34a1.94,1.94,0,0,1-2.3,1.12l-.79-.23a9.52,9.52,0,0,1-1.14,1.12l.21.76a.49.49,0,0,1,0,.22ZM44,46.08h9.84l-.24-.85.24-.19a8.6,8.6,0,0,0,1.42-1.41l.19-.25,1.37.4A1,1,0,0,0,58,43.19l.54-1.36a.92.92,0,0,0,0-.71h0a.94.94,0,0,0-.42-.51l-1.23-.68,0-.31a8.24,8.24,0,0,0,0-2.13l0-.31,1.19-.66a1,1,0,0,0,.43-1.24L58,33.89a1,1,0,0,0-1.19-.55l-1.21.34-.26-.24-.24-.3c-.11-.13-.21-.25-.33-.37a7.12,7.12,0,0,0-.9-.8l-.26-.19.37-1.24a.93.93,0,0,0,0-.57,1,1,0,0,0-.55-.61L52,28.8a1,1,0,0,0-1.25.43l-.6,1.09-.31,0a10.5,10.5,0,0,0-1.73,0l-.66.06-.61-1.07a1,1,0,0,0-1.24-.43l-1.36.57a1,1,0,0,0-.58,1.19L44,31.71l-.25.19a8.31,8.31,0,0,0-1.55,1.53l-.19.25-1.18-.34a1,1,0,0,0-1.2.59l-.55,1.36a1,1,0,0,0,.43,1.23l1.09.61-.05.32c0,.11,0,.22,0,.33a8.56,8.56,0,0,0,.05,1.9l0,.31-1.09.62a1,1,0,0,0-.44,1.23l.57,1.37a1,1,0,0,0,.6.56,1,1,0,0,0,.6,0l1.26-.37.19.24a7.91,7.91,0,0,0,.84.88,1.57,1.57,0,0,0,.17.16l.11.1.39.31.26.19-.22.74Zm-.57-1.29.08.11A.41.41,0,0,0,43.4,44.78Zm5.35-2a4.28,4.28,0,0,1-1.63-.32,4.18,4.18,0,0,1-.72-.38h0L46.24,42a4.28,4.28,0,0,1,4.15-7.42A4.14,4.14,0,0,1,52.25,36a4.28,4.28,0,0,1-3.5,6.76ZM46.7,41.14h0l.12.09a3.25,3.25,0,0,0,.66.36,3.36,3.36,0,0,0,4-5A3.22,3.22,0,0,0,50,35.38a3.36,3.36,0,0,0-3.34,5.76Zm-.16.45h0Z"/><path class="cls-3" d="M42.75,22.9a1.71,1.71,0,0,0,2.27,0l1.27-1.18a1.7,1.7,0,0,0,.22-2.26l-.76-1a9.86,9.86,0,0,0,1-2.17l1.3-.1a1.7,1.7,0,0,0,1.57-1.64l.06-1.73A1.7,1.7,0,0,0,48.21,11l-1.27-.2a10,10,0,0,0-.84-2.33l.86-1a1.71,1.71,0,0,0,0-2.27L45.73,3.93a1.7,1.7,0,0,0-2.26-.22l-1,.74a10.27,10.27,0,0,0-2.39-1.12L40,2.1A1.7,1.7,0,0,0,38.34.53L36.61.47a1.71,1.71,0,0,0-1.75,1.45L34.68,3.1A9.91,9.91,0,0,0,32.23,4l-.86-.74a1.71,1.71,0,0,0-2.27,0L27.82,4.47a1.7,1.7,0,0,0-.22,2.26l.66.9A10.28,10.28,0,0,0,27.18,10L26.09,10a1.7,1.7,0,0,0-1.57,1.64l-.06,1.73a1.7,1.7,0,0,0,1.45,1.75l1,.16a10,10,0,0,0,.93,2.55l-.7.82a1.71,1.71,0,0,0,0,2.27l1.18,1.27a1.7,1.7,0,0,0,2.26.22l.87-.63A10.31,10.31,0,0,0,34,22.95l.08,1.1a1.7,1.7,0,0,0,1.64,1.57l1.74.06a1.71,1.71,0,0,0,1.75-1.45l.18-1.18a10,10,0,0,0,2.41-.94Zm-9.1-6.74A4.49,4.49,0,1,1,40,16.4a4.5,4.5,0,0,1-6.35-.24Zm0,0"/><path class="cls-1" d="M37.56,26.15h-.08l-1.74-.06a2.17,2.17,0,0,1-2.08-2l-.06-.79a10.78,10.78,0,0,1-2.07-.93l-.62.45A2.16,2.16,0,0,1,28,22.53l-1.17-1.26a2.16,2.16,0,0,1-.06-2.89l.5-.58a10.56,10.56,0,0,1-.76-2.07l-.72-.11A2.17,2.17,0,0,1,24,13.39l.06-1.73a2.17,2.17,0,0,1,2-2.08l.79-.06a10.81,10.81,0,0,1,.87-1.86L27.23,7a2.16,2.16,0,0,1,.28-2.87L28.78,3a2.16,2.16,0,0,1,2.89-.06l.63.54a10.41,10.41,0,0,1,2-.72l.14-.88A2.15,2.15,0,0,1,36.63,0l1.73.06a2.17,2.17,0,0,1,2.08,2l.07.92a10.78,10.78,0,0,1,1.93.91l.76-.56a2.16,2.16,0,0,1,2.87.28l1.17,1.27a2.16,2.16,0,0,1,.06,2.89l-.66.77a10.5,10.5,0,0,1,.67,1.85l1,.15a2.17,2.17,0,0,1,1.84,2.23l-.06,1.73a2.17,2.17,0,0,1-2,2.08l-1,.08a10.32,10.32,0,0,1-.77,1.71l.58.79A2.16,2.16,0,0,1,46.6,22l-1.26,1.17a2.17,2.17,0,0,1-2.89.06l-.67-.58a10.48,10.48,0,0,1-1.93.75l-.13.88A2.17,2.17,0,0,1,37.56,26.15Zm-6.08-4.9.27.17a9.86,9.86,0,0,0,2.42,1.09l.31.09L34.59,24a1.24,1.24,0,0,0,1.19,1.15l1.74.06a1.24,1.24,0,0,0,1.28-1.06L39,22.68l.3-.07a9.55,9.55,0,0,0,2.29-.89l.28-.16,1.16,1a1.24,1.24,0,0,0,1.66,0L46,21.34a1.24,1.24,0,0,0,.16-1.65l-.94-1.28.16-.26a9.41,9.41,0,0,0,.93-2.07l.09-.3L48,15.64a1.24,1.24,0,0,0,1.15-1.19l.06-1.73a1.25,1.25,0,0,0-1.06-1.28l-1.58-.25-.07-.3a9.54,9.54,0,0,0-.8-2.22l-.14-.28L46.6,7.16a1.24,1.24,0,0,0,0-1.66L45.39,4.24a1.24,1.24,0,0,0-1.65-.16L42.48,5l-.27-.17a9.88,9.88,0,0,0-2.28-1.07l-.29-.09-.12-1.53A1.25,1.25,0,0,0,38.32,1L36.6.93A1.24,1.24,0,0,0,35.32,2l-.23,1.5-.31.07a9.49,9.49,0,0,0-2.33.85l-.28.15-1.1-.95a1.24,1.24,0,0,0-1.65,0L28.14,4.81A1.24,1.24,0,0,0,28,6.46l.84,1.16-.17.27a9.79,9.79,0,0,0-1,2.22l-.1.3-1.4.11A1.25,1.25,0,0,0,25,11.69l-.06,1.73A1.25,1.25,0,0,0,26,14.7l1.34.21.07.31a9.61,9.61,0,0,0,.89,2.43l.15.28L27.51,19a1.24,1.24,0,0,0,0,1.66l1.18,1.27a1.24,1.24,0,0,0,1.65.16ZM37,18.06a5,5,0,1,1,3.37-1.32A5,5,0,0,1,37,18.06Zm0-9a4,4,0,1,0,3,1.29A4,4,0,0,0,36.94,9.07Z"/><path class="cls-1" d="M64.34,47H.46a.46.46,0,1,1,0-.92H64.34a.46.46,0,1,1,0,.92Z"/><path class="cls-5" d="M5.17,21.9a.46.46,0,0,1-.1-.91s.51-.12,1.39-.27a.46.46,0,0,1,.15.91c-.84.14-1.33.25-1.33.25Z"/><path class="cls-5" d="M36.66,28.77a11,11,0,0,1-2.74-.33.46.46,0,0,1,.22-.9,10,10,0,0,0,2.44.3.5.5,0,0,1,.5.46.43.43,0,0,1-.42.47Zm2.64-.27a.46.46,0,0,1-.08-.92A21.11,21.11,0,0,0,41.73,27a.46.46,0,1,1,.27.88,22,22,0,0,1-2.63.65Zm-7.76-.93a.46.46,0,0,1-.19,0c-.74-.33-1.52-.74-2.39-1.25a.46.46,0,0,1,.46-.8c.85.49,1.6.88,2.31,1.2a.46.46,0,0,1-.19.88Zm12.83-.62a.46.46,0,0,1-.18-.89c.76-.32,1.56-.7,2.37-1.12a.46.46,0,1,1,.43.82c-.83.43-1.65.82-2.43,1.15A.46.46,0,0,1,44.36,26.94Zm-17.44-2a.46.46,0,0,1-.25-.07l-1.47-1q-.36-.24-.73-.46a.46.46,0,1,1,.46-.8q.4.23.79.49l1.46,1a.46.46,0,0,1-.25.85Zm22.16-.45a.46.46,0,0,1-.24-.86q1.09-.65,2.23-1.4a.46.46,0,0,1,.51.77q-1.16.76-2.27,1.42A.46.46,0,0,1,49.07,24.5ZM22.28,22.39l-.16,0a19.44,19.44,0,0,0-2.49-.72.46.46,0,1,1,.2-.9,20.22,20.22,0,0,1,2.61.75.46.46,0,0,1-.16.9Zm31.23-.79a.46.46,0,0,1-.27-.84q1-.74,2.14-1.55a.46.46,0,1,1,.55.74q-1.11.82-2.16,1.56A.46.46,0,0,1,53.51,21.59ZM9.16,21.28a.46.46,0,0,1,0-.92c.9-.09,1.8-.16,2.68-.2a.46.46,0,0,1,.48.44.46.46,0,0,1-.44.48c-.86,0-1.74.1-2.62.2Zm8,0h-.05c-.84-.09-1.71-.15-2.61-.17a.46.46,0,0,1-.45-.47.5.5,0,0,1,.47-.45c.92,0,1.83.08,2.69.18a.46.46,0,0,1-.05.92Z"/><path class="cls-5" d="M57.81,18.41a.46.46,0,0,1-.28-.83l1.09-.85a.46.46,0,1,1,.57.73l-1.1.85A.46.46,0,0,1,57.81,18.41Z"/><path class="cls-5" d="M61.45,18.76h0a.46.46,0,0,1-.45-.48l.1-3-3.15-.4a.46.46,0,0,1,.12-.92l3.56.46a.46.46,0,0,1,.4.47l-.12,3.38A.46.46,0,0,1,61.45,18.76Z"/></g></g></svg>