<svg xmlns="http://www.w3.org/2000/svg" viewBox="0 0 66.18 61.32"><defs><style>.cls-1{fill:#f04e24;}.cls-2{fill:#bad5ea;}.cls-2,.cls-4{fill-rule:evenodd;}.cls-3,.cls-4{fill:#22366b;}</style></defs><title>nhs-experience</title><g id="Layer_2" data-name="Layer 2"><g id="final_icons_bios"><path class="cls-1" d="M18.88,20.76h0a10.37,10.37,0,0,1-3.08-.62.5.5,0,0,1,.34-.94,9.37,9.37,0,0,0,2.78.56.5.5,0,0,1,0,1Zm3-.31a.5.5,0,0,1-.13-1,9.36,9.36,0,0,0,2.61-1.12.5.5,0,1,1,.53.85A10.34,10.34,0,0,1,22,20.43Zm-8.52-1.71a.49.49,0,0,1-.3-.1,10.48,10.48,0,0,1-2.18-2.25.5.5,0,0,1,.81-.58,9.52,9.52,0,0,0,2,2,.5.5,0,0,1-.3.9Zm13.54-1.42a.5.5,0,0,1-.38-.83A9.42,9.42,0,0,0,28,14.09a.5.5,0,0,1,.92.4,10.46,10.46,0,0,1-1.67,2.66A.5.5,0,0,1,26.87,17.32Zm-17-3.4a.5.5,0,0,1-.48-.34,10.45,10.45,0,0,1-.49-2.46c0-.26,0-.53,0-.78A10.39,10.39,0,0,1,9.19,8a.5.5,0,0,1,1,.23,9.35,9.35,0,0,0-.24,2.12c0,.23,0,.47,0,.71a9.37,9.37,0,0,0,.44,2.23.5.5,0,0,1-.32.63Zm19.31-2h-.05a.5.5,0,0,1-.44-.55,9.34,9.34,0,0,0,.05-1q0-.35,0-.71a9.63,9.63,0,0,0-.15-1.13.5.5,0,1,1,1-.19,10.78,10.78,0,0,1,.17,1.25c0,.26,0,.53,0,.79a10.29,10.29,0,0,1-.06,1.1A.5.5,0,0,1,29.22,11.9ZM28.07,6.1a.5.5,0,0,1-.44-.26,9.42,9.42,0,0,0-1.71-2.26.5.5,0,1,1,.7-.72,10.39,10.39,0,0,1,1.9,2.5.5.5,0,0,1-.44.74ZM10.78,5.82a.5.5,0,0,1-.43-.75,10.42,10.42,0,0,1,2-2.44.5.5,0,1,1,.67.74,9.4,9.4,0,0,0-1.79,2.2A.5.5,0,0,1,10.78,5.82ZM23.84,2a.5.5,0,0,1-.23-.05A9.36,9.36,0,0,0,20.92,1a.5.5,0,0,1-.41-.58.51.51,0,0,1,.58-.41,10.37,10.37,0,0,1,3,1,.5.5,0,0,1-.23.95Zm-8.69-.14a.5.5,0,0,1-.21-1,10.4,10.4,0,0,1,3-.88.5.5,0,0,1,.56.43.5.5,0,0,1-.43.56,9.37,9.37,0,0,0-2.72.8A.5.5,0,0,1,15.14,1.84Z"/><path class="cls-1" d="M24,5.94a.42.42,0,0,0-.6,0l-4.62,5.36L16,9a.42.42,0,0,0-.6,0l-.83,1a.42.42,0,0,0,0,.6l4.05,3.51a.43.43,0,0,0,.6,0L25,7.38a.43.43,0,0,0,0-.6Zm0,0"/><path class="cls-2" d="M61,15.38l-.88.1-54.34,6L8.09,42.7l.12,1.1,55.22-6.07ZM52.6,17.06a14.64,14.64,0,0,1,5.6.19L58,18a6.05,6.05,0,0,1,1.16.25L58.43,22a9.15,9.15,0,0,0-4.06-.38c-1.9.2-3.42.65-3.26,2.1a1.41,1.41,0,0,0,0,.2c1.57.74,4.51.84,5.94,2.89A4.28,4.28,0,0,1,58.87,30c.55,5-3.93,6.77-8.1,7.22a20.3,20.3,0,0,1-5.67-.31l.16-.82c-.41,0-.8-.11-1.16-.18l.73-3.79a9.41,9.41,0,0,0,4.55.55c1.49-.17,3.81-.71,3.6-2.56a1.12,1.12,0,0,0-.09-.37c-1.64-.83-4.66-.86-6-2.88A3.76,3.76,0,0,1,45.24,24C44.73,19.33,48.65,17.49,52.6,17.06ZM33.79,19.44l-.11,1.12,1.11-.12-.55,5.92,4.58-.51.67-7,4.81-.53-.11,1.12,1.11-.12-1.76,18.4-4.82.53.11-1.12-1.11.12.65-6.76L33.78,31,33,38.84l-4.82.53.11-1.12-1.11.12L29,20ZM10.39,22l6-.66.44,1.06.56-.06,4.2,10,1.07-11.72,4.53-.5-.11,1.12,1.11-.12L26.36,39.57l-6,.66-.45-1.06-.55.06-4.27-10-1,11.71-4.54.5.11-1.12-1.11.12Z"/><path class="cls-3" d="M26.89,48.92A.12.12,0,0,1,27,48.8h.16l2.71,2.88h0V49a.12.12,0,0,1,.12-.12h.6a.13.13,0,0,1,.12.12v4.38a.12.12,0,0,1-.12.12h-.16l-2.72-3h0v2.8a.12.12,0,0,1-.12.12H27a.13.13,0,0,1-.12-.12Z"/><path class="cls-3" d="M31.93,49a.13.13,0,0,1,.12-.12h.61a.12.12,0,0,1,.12.12v1.73h2.12V49a.12.12,0,0,1,.12-.12h.6a.13.13,0,0,1,.12.12V53.3a.13.13,0,0,1-.12.12H35a.12.12,0,0,1-.12-.12v-1.8H32.78v1.8a.12.12,0,0,1-.12.12h-.61a.13.13,0,0,1-.12-.12Z"/><path class="cls-3" d="M36.68,52.79l.23-.4a.15.15,0,0,1,.22,0,2.15,2.15,0,0,0,1,.4.54.54,0,0,0,.59-.5c0-.33-.28-.56-.83-.78s-1.22-.64-1.22-1.41a1.3,1.3,0,0,1,1.47-1.25,2.29,2.29,0,0,1,1.3.44.16.16,0,0,1,0,.21l-.25.37a.17.17,0,0,1-.23.08,2.14,2.14,0,0,0-.91-.36.52.52,0,0,0-.57.46c0,.31.24.51.77.73s1.36.63,1.36,1.47a1.38,1.38,0,0,1-1.5,1.29A2.1,2.1,0,0,1,36.71,53C36.65,52.93,36.62,52.89,36.68,52.79Z"/><path class="cls-3" d="M14.08,56.82a.12.12,0,0,1,.12-.12h2.65a.12.12,0,0,1,.12.12v.53a.12.12,0,0,1-.12.12H14.93v1.07h1.61a.13.13,0,0,1,.12.12v.54a.12.12,0,0,1-.12.12H14.93v1.14h1.93a.12.12,0,0,1,.12.12v.53a.12.12,0,0,1-.12.12H14.2a.12.12,0,0,1-.12-.12Z"/><path class="cls-3" d="M18.87,58.91l-1.3-2a.12.12,0,0,1,.11-.18h.76a.13.13,0,0,1,.1.06l.83,1.38h0l.85-1.38a.12.12,0,0,1,.1-.06h.76a.12.12,0,0,1,.11.18l-1.31,2,1.35,2.16a.12.12,0,0,1-.11.18h-.7a.13.13,0,0,1-.11-.06l-.93-1.49h0l-.92,1.49a.14.14,0,0,1-.11.06h-.7a.12.12,0,0,1-.12-.18Z"/><path class="cls-3" d="M22,56.82a.12.12,0,0,1,.12-.12h1.53a1.45,1.45,0,1,1,0,2.91h-.81v1.53a.13.13,0,0,1-.12.12h-.6a.12.12,0,0,1-.12-.12Zm1.6,2a.67.67,0,0,0,.67-.68.65.65,0,0,0-.67-.63h-.76V58.8Z"/><path class="cls-3" d="M25.9,56.82a.12.12,0,0,1,.12-.12h2.65a.12.12,0,0,1,.12.12v.53a.12.12,0,0,1-.12.12H26.74v1.07h1.61a.13.13,0,0,1,.12.12v.54a.12.12,0,0,1-.12.12H26.74v1.14h1.93a.12.12,0,0,1,.12.12v.53a.12.12,0,0,1-.12.12H26a.12.12,0,0,1-.12-.12Z"/><path class="cls-3" d="M29.73,56.82a.12.12,0,0,1,.12-.12h1.86a1.41,1.41,0,0,1,1.42,1.4,1.44,1.44,0,0,1-1,1.32l.89,1.65a.12.12,0,0,1-.11.19h-.68a.11.11,0,0,1-.1-.06l-.87-1.73h-.72v1.66a.13.13,0,0,1-.12.12h-.6a.12.12,0,0,1-.12-.12Zm1.92,2a.66.66,0,0,0,.64-.66.65.65,0,0,0-.64-.63H30.58v1.3Z"/><path class="cls-3" d="M34.07,56.82a.13.13,0,0,1,.12-.12h.61a.13.13,0,0,1,.12.12v4.31a.13.13,0,0,1-.12.12H34.2a.13.13,0,0,1-.12-.12Z"/><path class="cls-3" d="M36.11,56.82a.12.12,0,0,1,.12-.12h2.65a.12.12,0,0,1,.12.12v.53a.12.12,0,0,1-.12.12H37v1.07h1.61a.13.13,0,0,1,.12.12v.54a.12.12,0,0,1-.12.12H37v1.14h1.93a.12.12,0,0,1,.12.12v.53a.12.12,0,0,1-.12.12H36.24a.12.12,0,0,1-.12-.12Z"/><path class="cls-3" d="M39.95,56.74a.12.12,0,0,1,.12-.12h.16l2.71,2.88h0V56.82a.12.12,0,0,1,.12-.12h.6a.13.13,0,0,1,.12.12V61.2a.12.12,0,0,1-.12.12h-.16l-2.72-3h0v2.8a.12.12,0,0,1-.12.12h-.59a.13.13,0,0,1-.12-.12Z"/><path class="cls-3" d="M47,56.63a2.21,2.21,0,0,1,1.58.61.12.12,0,0,1,0,.18l-.4.41a.1.1,0,0,1-.16,0,1.54,1.54,0,0,0-1-.38,1.51,1.51,0,0,0,0,3,1.57,1.57,0,0,0,1-.37.12.12,0,0,1,.16,0l.4.42a.12.12,0,0,1,0,.18,2.24,2.24,0,0,1-1.58.63,2.35,2.35,0,1,1,0-4.69Z"/><path class="cls-3" d="M49.45,56.82a.12.12,0,0,1,.12-.12h2.65a.12.12,0,0,1,.12.12v.53a.12.12,0,0,1-.12.12H50.29v1.07H51.9a.13.13,0,0,1,.12.12v.54a.12.12,0,0,1-.12.12H50.29v1.14h1.93a.12.12,0,0,1,.12.12v.53a.12.12,0,0,1-.12.12H49.57a.12.12,0,0,1-.12-.12Z"/><path class="cls-3" d="M65.68,42.84H.5a.5.5,0,0,1,0-1H65.68a.5.5,0,0,1,0,1Z"/><path class="cls-4" d="M60.09,15.48,60,14.38,4.75,20.45,7.21,42.8l.88-.1,54.34-6ZM19.37,39.23l-4.27-10-.86-2h0L13.06,39.93l-3.43.38-1.11.12L10.39,22l6-.66.44,1.06,4.62,11h0l.09-1,1.07-11.72,4.53-.5-.11,1.12L25.36,38.57l-5.44.6Zm19-8.78.11-1.12-5.7.63L32,37.84l-3.71.41-1.11.12L29,20l4.82-.53-.11,1.12-.55,5.92,1.11-.12,4.58-.51.67-7,4.81-.53-.11,1.12L42.54,36.68l-3.71.41-1.11.12Zm6.46,1.65a9.41,9.41,0,0,0,4.55.55c1.49-.17,3.81-.71,3.6-2.56a1.12,1.12,0,0,0-.09-.37c-.6-1.68-3.94-1.43-6-2.88A3.76,3.76,0,0,1,45.24,24c-.51-4.64,3.41-6.48,7.36-6.91a14.64,14.64,0,0,1,5.6.19L58,18l-.61,3a9.15,9.15,0,0,0-4.06-.38c-1.9.2-3.42.65-3.26,2.1a1.53,1.53,0,0,0,1,1.2c1.57.74,4.51.84,5.94,2.89A4.64,4.64,0,0,1,57.87,29c.55,5-3.93,6.77-8.1,7.22a18.88,18.88,0,0,1-4.51-.13c-.41,0-.8-.11-1.16-.18Z"/></g></g></svg>