<svg xmlns="http://www.w3.org/2000/svg" viewBox="0 0 70.55 55.82"><defs><style>.cls-1{fill:#f04d23;}.cls-2{fill:#22366b;}.cls-3{fill:#f04e24;}.cls-4{fill:#bad5ea;}</style></defs><title>ps-search-expert</title><g id="Layer_2" data-name="Layer 2"><g id="final_icons_bios"><polygon class="cls-1" points="50.6 53.66 49.66 52.35 51.27 52.4 52.22 51.11 52.67 52.65 54.19 53.16 52.86 54.06 52.85 55.67 51.58 54.68 50.05 55.17 50.6 53.66"/><polygon class="cls-1" points="17.59 54.22 16.18 53.46 17.65 52.8 17.94 51.22 19.02 52.41 20.61 52.2 19.81 53.59 20.5 55.04 18.93 54.71 17.76 55.82 17.59 54.22"/><path class="cls-2" d="M2.33,43.33A2.33,2.33,0,1,1,0,45.67,2.33,2.33,0,0,1,2.33,43.33Zm0,3.83A1.49,1.49,0,1,0,.84,45.67,1.49,1.49,0,0,0,2.33,47.15Z"/><path class="cls-2" d="M5.51,43.52a.12.12,0,0,1,.12-.12H7.16a1.45,1.45,0,1,1,0,2.89H6.36v1.52a.13.13,0,0,1-.12.12h-.6a.12.12,0,0,1-.12-.12Zm1.6,2a.67.67,0,0,0,.67-.67.65.65,0,0,0-.67-.63H6.36v1.3Z"/><path class="cls-2" d="M9.36,43.52a.12.12,0,0,1,.12-.12H11a1.45,1.45,0,1,1,0,2.89H10.2v1.52a.13.13,0,0,1-.12.12h-.6a.12.12,0,0,1-.12-.12Zm1.6,2a.67.67,0,0,0,.67-.67.65.65,0,0,0-.67-.63H10.2v1.3Z"/><path class="cls-2" d="M15.2,43.33a2.33,2.33,0,1,1-2.33,2.34A2.33,2.33,0,0,1,15.2,43.33Zm0,3.83a1.49,1.49,0,1,0-1.48-1.48A1.49,1.49,0,0,0,15.2,47.15Z"/><path class="cls-2" d="M18.39,43.52a.12.12,0,0,1,.12-.12h1.86a1.4,1.4,0,0,1,1.41,1.39,1.43,1.43,0,0,1-1,1.31l.89,1.65a.12.12,0,0,1-.11.19h-.68a.11.11,0,0,1-.1-.06L20,46.16h-.72v1.65a.13.13,0,0,1-.12.12h-.6a.12.12,0,0,1-.12-.12Zm1.91,1.95a.66.66,0,0,0,.64-.66.64.64,0,0,0-.64-.63H19.24v1.29Z"/><path class="cls-2" d="M23.32,44.17h-1A.12.12,0,0,1,22.2,44v-.53a.12.12,0,0,1,.12-.12h2.83a.12.12,0,0,1,.12.12V44a.12.12,0,0,1-.12.12h-1v3.64a.13.13,0,0,1-.12.12h-.6a.13.13,0,0,1-.12-.12Z"/><path class="cls-2" d="M25.89,43.52a.13.13,0,0,1,.12-.12h.62a.12.12,0,0,1,.12.12v2.65a.94.94,0,1,0,1.89,0V43.52a.12.12,0,0,1,.12-.12h.62a.13.13,0,0,1,.12.12v2.7a1.81,1.81,0,0,1-3.61,0Z"/><path class="cls-2" d="M30.62,43.44a.12.12,0,0,1,.12-.12h.16l2.7,2.87h0V43.52a.12.12,0,0,1,.12-.12h.6a.13.13,0,0,1,.12.12v4.36a.12.12,0,0,1-.12.12h-.16l-2.71-3h0v2.79a.12.12,0,0,1-.12.12h-.59a.13.13,0,0,1-.12-.12Z"/><path class="cls-2" d="M35.64,43.52a.13.13,0,0,1,.12-.12h.6a.13.13,0,0,1,.12.12v4.29a.13.13,0,0,1-.12.12h-.6a.13.13,0,0,1-.12-.12Z"/><path class="cls-2" d="M38.28,44.17h-1a.12.12,0,0,1-.12-.12v-.53a.12.12,0,0,1,.12-.12h2.83a.12.12,0,0,1,.12.12V44a.12.12,0,0,1-.12.12h-1v3.64a.13.13,0,0,1-.12.12h-.6a.13.13,0,0,1-.12-.12Z"/><path class="cls-2" d="M42,45.75l-1.48-2.17a.12.12,0,0,1,.1-.19h.66a.13.13,0,0,1,.1.06l1,1.49,1-1.49a.13.13,0,0,1,.1-.06h.67a.12.12,0,0,1,.1.19l-1.5,2.16v2.07a.13.13,0,0,1-.12.12h-.6a.12.12,0,0,1-.12-.12Z"/><path class="cls-2" d="M46.08,47.3l.23-.4a.15.15,0,0,1,.22,0,2.15,2.15,0,0,0,1,.4.54.54,0,0,0,.59-.5c0-.33-.28-.56-.82-.78s-1.22-.64-1.22-1.4a1.29,1.29,0,0,1,1.46-1.25,2.28,2.28,0,0,1,1.3.43.16.16,0,0,1,0,.21l-.25.37a.17.17,0,0,1-.23.08,2.12,2.12,0,0,0-.9-.36.52.52,0,0,0-.57.45c0,.3.24.51.77.73S49,45.88,49,46.71A1.37,1.37,0,0,1,47.54,48a2.09,2.09,0,0,1-1.43-.51C46.06,47.43,46,47.4,46.08,47.3Z"/><path class="cls-2" d="M49.87,43.52a.12.12,0,0,1,.12-.12h2.64a.12.12,0,0,1,.12.12V44a.12.12,0,0,1-.12.12H50.71v1.06h1.6a.13.13,0,0,1,.12.12v.54a.12.12,0,0,1-.12.12h-1.6v1.13h1.92a.12.12,0,0,1,.12.12v.53a.12.12,0,0,1-.12.12H50a.12.12,0,0,1-.12-.12Z"/><path class="cls-2" d="M53.09,47.76l2-4.36a.12.12,0,0,1,.11-.07h.07a.11.11,0,0,1,.11.07l2,4.36a.11.11,0,0,1-.11.17h-.56a.19.19,0,0,1-.19-.13l-.32-.7H54.27l-.32.7a.19.19,0,0,1-.19.13H53.2A.11.11,0,0,1,53.09,47.76Zm2.8-1.38L55.25,45h0l-.64,1.43Z"/><path class="cls-2" d="M58,43.52a.12.12,0,0,1,.12-.12H60a1.4,1.4,0,0,1,1.41,1.39,1.43,1.43,0,0,1-1,1.31l.89,1.65a.12.12,0,0,1-.11.19h-.68a.11.11,0,0,1-.1-.06l-.86-1.72h-.72v1.65a.13.13,0,0,1-.12.12h-.6a.12.12,0,0,1-.12-.12Zm1.91,1.95a.66.66,0,0,0,.64-.66.64.64,0,0,0-.64-.63H58.83v1.29Z"/><path class="cls-2" d="M64.32,43.33a2.2,2.2,0,0,1,1.57.6.12.12,0,0,1,0,.18l-.4.41a.1.1,0,0,1-.16,0,1.53,1.53,0,0,0-1-.38,1.51,1.51,0,0,0,0,3,1.55,1.55,0,0,0,1-.37.12.12,0,0,1,.16,0l.4.42a.12.12,0,0,1,0,.18,2.23,2.23,0,0,1-1.58.63,2.33,2.33,0,1,1,0-4.67Z"/><path class="cls-2" d="M66.74,43.52a.13.13,0,0,1,.12-.12h.6a.12.12,0,0,1,.12.12v1.72h2.11V43.52a.12.12,0,0,1,.12-.12h.6a.13.13,0,0,1,.12.12v4.29a.13.13,0,0,1-.12.12h-.6a.12.12,0,0,1-.12-.12V46H67.59v1.79a.12.12,0,0,1-.12.12h-.6a.13.13,0,0,1-.12-.12Z"/><path class="cls-2" d="M24.46,51.3a.12.12,0,0,1,.12-.12h2.64a.12.12,0,0,1,.12.12v.53a.12.12,0,0,1-.12.12H25.3V53h1.6a.13.13,0,0,1,.12.12v.54a.12.12,0,0,1-.12.12H25.3v1.13h1.92a.12.12,0,0,1,.12.12v.53a.12.12,0,0,1-.12.12H24.58a.12.12,0,0,1-.12-.12Z"/><path class="cls-2" d="M29.23,53.39l-1.3-2a.12.12,0,0,1,.11-.18h.75a.13.13,0,0,1,.1.06l.83,1.37h0l.84-1.37a.12.12,0,0,1,.1-.06h.75a.12.12,0,0,1,.11.18l-1.3,2,1.35,2.15a.12.12,0,0,1-.11.18h-.7a.13.13,0,0,1-.11-.06l-.93-1.48h0l-.91,1.48a.14.14,0,0,1-.11.06H28c-.12,0-.17-.1-.12-.18Z"/><path class="cls-2" d="M32.37,51.3a.12.12,0,0,1,.12-.12H34a1.45,1.45,0,1,1,0,2.89h-.81V55.6a.13.13,0,0,1-.12.12h-.6a.12.12,0,0,1-.12-.12Zm1.6,2a.67.67,0,0,0,.67-.67A.65.65,0,0,0,34,52h-.75v1.3Z"/><path class="cls-2" d="M36.21,51.3a.12.12,0,0,1,.12-.12H39a.12.12,0,0,1,.12.12v.53A.12.12,0,0,1,39,52H37.06V53h1.6a.13.13,0,0,1,.12.12v.54a.12.12,0,0,1-.12.12h-1.6v1.13H39a.12.12,0,0,1,.12.12v.53a.12.12,0,0,1-.12.12H36.34a.12.12,0,0,1-.12-.12Z"/><path class="cls-2" d="M40,51.3a.12.12,0,0,1,.12-.12H42a1.4,1.4,0,0,1,1.41,1.39,1.43,1.43,0,0,1-1,1.31l.89,1.65a.12.12,0,0,1-.11.19h-.68a.11.11,0,0,1-.1-.06l-.86-1.72h-.72V55.6a.13.13,0,0,1-.12.12h-.6A.12.12,0,0,1,40,55.6Zm1.91,1.95a.66.66,0,0,0,.64-.66.64.64,0,0,0-.64-.63H40.88v1.29Z"/><path class="cls-2" d="M45,52H44a.12.12,0,0,1-.12-.12V51.3a.12.12,0,0,1,.12-.12H46.8a.12.12,0,0,1,.12.12v.53a.12.12,0,0,1-.12.12h-1V55.6a.13.13,0,0,1-.12.12h-.6A.13.13,0,0,1,45,55.6Z"/><path class="cls-2" d="M67.49,37.4H2.64a.5.5,0,0,1,0-1H67.49a.5.5,0,0,1,0,1Z"/><path class="cls-2" d="M52.3,29.24,44,20.9a.51.51,0,0,0-.72,0l-.6.6-1.21-1.21a12.09,12.09,0,1,0-.72.72l1.21,1.21-.6.6a.51.51,0,0,0,0,.72l8.34,8.34a.51.51,0,0,0,.72,0L52.3,30a.51.51,0,0,0,0-.72Zm-27.62-9.3a11.08,11.08,0,1,1,7.83,3.24,11,11,0,0,1-7.83-3.24ZM50,30.8l-7.62-7.62L43.59,22l7.62,7.62Zm0,0"/><path class="cls-3" d="M32.51,9.54a2.56,2.56,0,1,0,2.56,2.56,2.56,2.56,0,0,0-2.56-2.56Zm0,4.09A1.53,1.53,0,1,1,34,12.1a1.54,1.54,0,0,1-1.53,1.53Zm0,0"/><path class="cls-3" d="M36.66,10.12l1.21-1.21a.51.51,0,0,0,.05-.66,6.66,6.66,0,0,0-1.57-1.57.51.51,0,0,0-.66.05L34.49,7.95,34,7.76V6.05a.51.51,0,0,0-.43-.5,6.6,6.6,0,0,0-2.21,0,.51.51,0,0,0-.43.5V7.76l-.45.19L29.32,6.74a.51.51,0,0,0-.66-.05,6.66,6.66,0,0,0-1.57,1.57.51.51,0,0,0,.06.66l1.21,1.21a4.5,4.5,0,0,0-.19.45H26.46A.51.51,0,0,0,26,11a6.6,6.6,0,0,0,0,2.21.51.51,0,0,0,.5.43h1.71a4.53,4.53,0,0,0,.19.45l-1.21,1.21a.51.51,0,0,0-.06.66,6.67,6.67,0,0,0,1.57,1.57.51.51,0,0,0,.66-.05l1.21-1.21.45.19v1.71a.51.51,0,0,0,.43.5,6.6,6.6,0,0,0,2.21,0,.51.51,0,0,0,.43-.5V16.44l.45-.19,1.21,1.21a.51.51,0,0,0,.66.05,6.66,6.66,0,0,0,1.57-1.57.51.51,0,0,0-.05-.66l-1.21-1.21a4.5,4.5,0,0,0,.19-.45h1.71a.51.51,0,0,0,.5-.43,6.6,6.6,0,0,0,0-2.21.51.51,0,0,0-.5-.43H36.85a4.62,4.62,0,0,0-.19-.45Zm1.47,2c0,.17,0,.34,0,.51H36.47A.51.51,0,0,0,36,13a3.55,3.55,0,0,1-.38.92.51.51,0,0,0,.08.62l1.16,1.16a5.66,5.66,0,0,1-.72.72l-1.16-1.16a.51.51,0,0,0-.62-.08,3.54,3.54,0,0,1-.92.38.51.51,0,0,0-.38.5V17.7a5.52,5.52,0,0,1-1,0V16.06a.51.51,0,0,0-.38-.5,3.54,3.54,0,0,1-.92-.38.51.51,0,0,0-.62.08l-1.16,1.16a5.66,5.66,0,0,1-.72-.72l1.16-1.16a.51.51,0,0,0,.08-.62A3.54,3.54,0,0,1,29,13a.51.51,0,0,0-.5-.38H26.91c0-.17,0-.34,0-.51s0-.34,0-.51h1.64a.51.51,0,0,0,.5-.38,3.55,3.55,0,0,1,.38-.92.51.51,0,0,0-.08-.62L28.19,8.5a5.66,5.66,0,0,1,.72-.72l1.16,1.16a.51.51,0,0,0,.62.08,3.56,3.56,0,0,1,.92-.38.51.51,0,0,0,.38-.5V6.5a5.47,5.47,0,0,1,1,0V8.14a.51.51,0,0,0,.38.5,3.54,3.54,0,0,1,.92.38.51.51,0,0,0,.62-.08L36.1,7.78a5.64,5.64,0,0,1,.72.72L35.67,9.66a.51.51,0,0,0-.08.62,3.56,3.56,0,0,1,.38.92.51.51,0,0,0,.5.38h1.64c0,.17,0,.34,0,.51Zm0,0"/><path class="cls-2" d="M51.6,10.23a1.87,1.87,0,1,0,1.87,1.87,1.87,1.87,0,0,0-1.87-1.87Zm0,3a1.12,1.12,0,1,1,1.12-1.12,1.12,1.12,0,0,1-1.12,1.12Zm0,0"/><path class="cls-2" d="M54.63,10.65l.88-.88a.37.37,0,0,0,0-.48,4.87,4.87,0,0,0-1.14-1.14.37.37,0,0,0-.48,0L53,9.07l-.33-.14V7.68a.37.37,0,0,0-.31-.37,4.82,4.82,0,0,0-1.62,0,.37.37,0,0,0-.31.37V8.93l-.33.14-.88-.88a.37.37,0,0,0-.48,0,4.87,4.87,0,0,0-1.14,1.14.37.37,0,0,0,0,.48l.88.88a3.29,3.29,0,0,0-.14.33H47.18a.37.37,0,0,0-.37.31,4.82,4.82,0,0,0,0,1.62.37.37,0,0,0,.37.31h1.25a3.31,3.31,0,0,0,.14.33l-.88.88a.37.37,0,0,0,0,.48,4.88,4.88,0,0,0,1.14,1.14.37.37,0,0,0,.48,0l.88-.88.33.14v1.25a.37.37,0,0,0,.31.37,4.82,4.82,0,0,0,1.62,0,.37.37,0,0,0,.31-.37V15.27l.33-.14.88.88a.37.37,0,0,0,.48,0,4.87,4.87,0,0,0,1.14-1.14.37.37,0,0,0,0-.48l-.88-.88a3.29,3.29,0,0,0,.14-.33H56a.37.37,0,0,0,.37-.31,4.82,4.82,0,0,0,0-1.62A.37.37,0,0,0,56,11H54.77a3.37,3.37,0,0,0-.14-.33Zm1.08,1.45c0,.12,0,.25,0,.37H54.5a.37.37,0,0,0-.36.28,2.6,2.6,0,0,1-.28.67.37.37,0,0,0,.06.45l.85.85a4.14,4.14,0,0,1-.53.53l-.85-.85a.37.37,0,0,0-.45-.06,2.59,2.59,0,0,1-.67.28A.37.37,0,0,0,52,15v1.2a4,4,0,0,1-.75,0V15a.37.37,0,0,0-.28-.36,2.59,2.59,0,0,1-.67-.28.37.37,0,0,0-.45.06l-.85.85a4.14,4.14,0,0,1-.53-.53l.85-.85a.37.37,0,0,0,.06-.45,2.59,2.59,0,0,1-.28-.67.37.37,0,0,0-.36-.28h-1.2c0-.13,0-.25,0-.37s0-.25,0-.37h1.2a.37.37,0,0,0,.36-.28,2.59,2.59,0,0,1,.28-.67.37.37,0,0,0-.06-.45l-.85-.85A4.13,4.13,0,0,1,49,8.94l.85.85a.37.37,0,0,0,.45.06,2.6,2.6,0,0,1,.67-.28.37.37,0,0,0,.28-.36V8A4,4,0,0,1,52,8V9.2a.37.37,0,0,0,.28.36,2.59,2.59,0,0,1,.67.28.37.37,0,0,0,.45-.06l.85-.85a4.12,4.12,0,0,1,.53.53l-.85.85a.37.37,0,0,0-.06.45,2.6,2.6,0,0,1,.28.67.37.37,0,0,0,.36.28h1.2c0,.13,0,.25,0,.37Zm0,0"/><path class="cls-2" d="M13.59,10.23a1.87,1.87,0,1,0,1.87,1.87,1.87,1.87,0,0,0-1.87-1.87Zm0,3a1.12,1.12,0,1,1,1.12-1.12,1.12,1.12,0,0,1-1.12,1.12Zm0,0"/><path class="cls-2" d="M16.62,10.65l.88-.88a.37.37,0,0,0,0-.48A4.87,4.87,0,0,0,16.4,8.14a.37.37,0,0,0-.48,0L15,9.07l-.33-.14V7.68a.37.37,0,0,0-.31-.37,4.82,4.82,0,0,0-1.62,0,.37.37,0,0,0-.31.37V8.93l-.33.14-.88-.88a.37.37,0,0,0-.48,0A4.87,4.87,0,0,0,9.63,9.29a.37.37,0,0,0,0,.48l.88.88a3.29,3.29,0,0,0-.14.33H9.17a.37.37,0,0,0-.37.31,4.82,4.82,0,0,0,0,1.62.37.37,0,0,0,.37.31h1.25a3.31,3.31,0,0,0,.14.33l-.88.88a.37.37,0,0,0,0,.48,4.88,4.88,0,0,0,1.14,1.14.37.37,0,0,0,.48,0l.88-.88.33.14v1.25a.37.37,0,0,0,.31.37,4.82,4.82,0,0,0,1.62,0,.37.37,0,0,0,.31-.37V15.27l.33-.14.88.88a.37.37,0,0,0,.48,0,4.87,4.87,0,0,0,1.14-1.14.37.37,0,0,0,0-.48l-.88-.88a3.29,3.29,0,0,0,.14-.33H18a.37.37,0,0,0,.37-.31,4.82,4.82,0,0,0,0-1.62A.37.37,0,0,0,18,11H16.76a3.37,3.37,0,0,0-.14-.33ZM17.7,12.1c0,.12,0,.25,0,.37h-1.2a.37.37,0,0,0-.36.28,2.6,2.6,0,0,1-.28.67.37.37,0,0,0,.06.45l.85.85a4.14,4.14,0,0,1-.53.53l-.85-.85a.37.37,0,0,0-.45-.06,2.59,2.59,0,0,1-.67.28A.37.37,0,0,0,14,15v1.2a4,4,0,0,1-.75,0V15a.37.37,0,0,0-.28-.36,2.59,2.59,0,0,1-.67-.28.37.37,0,0,0-.45.06l-.85.85a4.14,4.14,0,0,1-.53-.53l.85-.85a.37.37,0,0,0,.06-.45,2.59,2.59,0,0,1-.28-.67.37.37,0,0,0-.36-.28H9.5c0-.13,0-.25,0-.37s0-.25,0-.37h1.2a.37.37,0,0,0,.36-.28,2.59,2.59,0,0,1,.28-.67.37.37,0,0,0-.06-.45l-.85-.85A4.13,4.13,0,0,1,11,8.94l.85.85a.37.37,0,0,0,.45.06,2.6,2.6,0,0,1,.67-.28.37.37,0,0,0,.28-.36V8A4,4,0,0,1,14,8V9.2a.37.37,0,0,0,.28.36,2.59,2.59,0,0,1,.67.28.37.37,0,0,0,.45-.06l.85-.85a4.12,4.12,0,0,1,.53.53l-.85.85a.37.37,0,0,0-.06.45,2.6,2.6,0,0,1,.28.67.37.37,0,0,0,.36.28h1.2c0,.13,0,.25,0,.37Zm0,0"/><path class="cls-2" d="M39.86,6.28a.51.51,0,1,0-.8.64,8.35,8.35,0,1,1-1.36-1.36.51.51,0,1,0,.64-.8,9.37,9.37,0,1,0,1.53,1.53Zm0,0"/><path class="cls-4" d="M36.85,30.19a.37.37,0,0,0,.49.08l.32-.2a.37.37,0,0,0,.13-.47l-.12-.25a2.14,2.14,0,0,0,.29-.43l.28,0a.37.37,0,0,0,.4-.29l.08-.37a.37.37,0,0,0-.24-.43l-.26-.09a2.16,2.16,0,0,0-.09-.53l.22-.18a.37.37,0,0,0,.08-.49l-.2-.32a.37.37,0,0,0-.47-.13l-.24.12a2.23,2.23,0,0,0-.47-.33l0-.27a.37.37,0,0,0-.29-.4l-.37-.08a.37.37,0,0,0-.43.24l-.08.25a2.15,2.15,0,0,0-.56.1l-.16-.19a.37.37,0,0,0-.49-.08l-.32.2a.37.37,0,0,0-.13.47l.11.22a2.23,2.23,0,0,0-.32.45l-.24,0a.37.37,0,0,0-.4.29l-.08.37a.37.37,0,0,0,.24.43l.21.07a2.18,2.18,0,0,0,.1.58l-.18.15a.37.37,0,0,0-.08.49l.2.32a.37.37,0,0,0,.47.13l.21-.1a2.24,2.24,0,0,0,.5.34l0,.24a.37.37,0,0,0,.29.4l.37.08a.37.37,0,0,0,.43-.24l.08-.24a2.17,2.17,0,0,0,.55-.11Zm-1.69-1.79a1,1,0,1,1,1.35.29,1,1,0,0,1-1.35-.29Zm0,0"/><path class="cls-4" d="M25.27,27.88a.37.37,0,0,0,.49-.07l.24-.29A.37.37,0,0,0,26,27l-.19-.2a2.14,2.14,0,0,0,.15-.49l.28-.06a.37.37,0,0,0,.3-.39l0-.37a.37.37,0,0,0-.36-.34h-.28a2.16,2.16,0,0,0-.24-.48l.16-.24A.37.37,0,0,0,25.7,24l-.29-.24a.37.37,0,0,0-.49,0l-.2.19a2.23,2.23,0,0,0-.54-.18l-.05-.26a.37.37,0,0,0-.39-.3l-.37,0a.37.37,0,0,0-.34.36v.26a2.15,2.15,0,0,0-.5.26l-.21-.14a.37.37,0,0,0-.49.07l-.24.29a.37.37,0,0,0,0,.49l.17.18a2.23,2.23,0,0,0-.17.53l-.23,0a.37.37,0,0,0-.3.39l0,.37a.37.37,0,0,0,.36.34h.23a2.18,2.18,0,0,0,.27.52l-.13.19a.37.37,0,0,0,.07.49l.29.24a.37.37,0,0,0,.49,0l.17-.16a2.24,2.24,0,0,0,.58.18l0,.23a.37.37,0,0,0,.39.3l.38,0a.37.37,0,0,0,.34-.36V28a2.17,2.17,0,0,0,.49-.26Zm-2.14-1.21a1,1,0,1,1,1.37-.11,1,1,0,0,1-1.37.11Zm0,0"/><path class="cls-4" d="M30.64,33.05a.5.5,0,0,0,.66.1l.43-.27a.5.5,0,0,0,.18-.64l-.16-.34a2.89,2.89,0,0,0,.39-.58l.38,0A.5.5,0,0,0,33,31l.11-.5a.5.5,0,0,0-.33-.58l-.36-.12a2.92,2.92,0,0,0-.12-.72l.3-.25a.5.5,0,0,0,.1-.66l-.27-.43a.5.5,0,0,0-.64-.18l-.33.16a3,3,0,0,0-.63-.45l0-.36a.5.5,0,0,0-.39-.54l-.5-.11a.5.5,0,0,0-.58.33l-.11.33a2.91,2.91,0,0,0-.75.13l-.21-.26a.5.5,0,0,0-.66-.1l-.43.27a.5.5,0,0,0-.18.64l.14.29a3,3,0,0,0-.43.62l-.32,0a.5.5,0,0,0-.54.39l-.11.5a.5.5,0,0,0,.33.58l.29.1a3,3,0,0,0,.14.78l-.25.2a.5.5,0,0,0-.1.66l.27.43a.5.5,0,0,0,.64.18l.28-.14a3,3,0,0,0,.67.46l0,.32a.5.5,0,0,0,.39.54l.5.11a.5.5,0,0,0,.58-.33l.11-.33a2.93,2.93,0,0,0,.74-.15Zm-2.28-2.42a1.32,1.32,0,1,1,1.82.4,1.32,1.32,0,0,1-1.82-.4Zm0,0"/></g></g></svg>