<svg xmlns="http://www.w3.org/2000/svg" viewBox="0 0 70.18 67.82"><defs><style>.cls-1{fill:#22366b;}.cls-2{fill:#fff;}.cls-3{fill:#f04e24;}</style></defs><title>pps</title><g id="Layer_2" data-name="Layer 2"><g id="final_icons_bios"><path class="cls-1" d="M.24,54.58a.13.13,0,0,1,.13-.13H2a1.56,1.56,0,1,1,0,3.12H1.15v1.65a.14.14,0,0,1-.13.13H.37a.13.13,0,0,1-.13-.13ZM2,56.71A.72.72,0,0,0,2.68,56,.7.7,0,0,0,2,55.31H1.15v1.41Z"/><path class="cls-1" d="M4.38,54.58a.13.13,0,0,1,.13-.13h2A1.52,1.52,0,0,1,8,55.95a1.54,1.54,0,0,1-1,1.41l1,1.78a.13.13,0,0,1-.12.2H7.11A.12.12,0,0,1,7,59.28l-.93-1.86H5.29v1.79a.14.14,0,0,1-.13.13H4.52a.13.13,0,0,1-.13-.13Zm2.06,2.1A.71.71,0,0,0,7.14,56a.7.7,0,0,0-.69-.68H5.3v1.39Z"/><path class="cls-1" d="M8.41,59.16l2.18-4.71a.13.13,0,0,1,.12-.08h.07a.12.12,0,0,1,.12.08l2.16,4.71a.12.12,0,0,1-.12.18h-.61a.2.2,0,0,1-.2-.14l-.34-.76H9.68l-.34.76a.21.21,0,0,1-.2.14H8.53A.12.12,0,0,1,8.41,59.16Zm3-1.49-.7-1.54h0L10,57.67Z"/><path class="cls-1" d="M15.82,54.37a2.37,2.37,0,0,1,1.7.65.13.13,0,0,1,0,.2l-.43.44a.11.11,0,0,1-.17,0,1.65,1.65,0,0,0-1.08-.41,1.63,1.63,0,0,0,0,3.25,1.68,1.68,0,0,0,1.07-.4.13.13,0,0,1,.17,0l.43.45a.13.13,0,0,1,0,.19,2.41,2.41,0,0,1-1.7.68,2.52,2.52,0,1,1,0-5Z"/><path class="cls-1" d="M19.1,55.28H18a.13.13,0,0,1-.13-.13v-.57a.13.13,0,0,1,.13-.13h3.06a.13.13,0,0,1,.13.13v.57a.13.13,0,0,1-.13.13H20v3.93a.14.14,0,0,1-.13.13h-.65a.14.14,0,0,1-.13-.13Z"/><path class="cls-1" d="M21.94,54.58a.14.14,0,0,1,.13-.13h.65a.14.14,0,0,1,.13.13v4.64a.14.14,0,0,1-.13.13h-.65a.14.14,0,0,1-.13-.13Z"/><path class="cls-1" d="M26.31,54.37A2.37,2.37,0,0,1,28,55a.13.13,0,0,1,0,.2l-.43.44a.11.11,0,0,1-.17,0,1.65,1.65,0,0,0-1.08-.41,1.63,1.63,0,0,0,0,3.25,1.68,1.68,0,0,0,1.07-.4.13.13,0,0,1,.17,0l.43.45a.13.13,0,0,1,0,.19,2.41,2.41,0,0,1-1.7.68,2.52,2.52,0,1,1,0-5Z"/><path class="cls-1" d="M28.29,59.16l2.18-4.71a.13.13,0,0,1,.12-.08h.07a.12.12,0,0,1,.12.08l2.16,4.71a.12.12,0,0,1-.12.18H32.2a.2.2,0,0,1-.2-.14l-.34-.76H29.56l-.34.76a.21.21,0,0,1-.2.14h-.61A.12.12,0,0,1,28.29,59.16Zm3-1.49-.7-1.54h0l-.69,1.54Z"/><path class="cls-1" d="M33.56,54.58a.13.13,0,0,1,.13-.13h.64a.14.14,0,0,1,.13.13v3.93h1.79a.13.13,0,0,1,.13.13v.57a.13.13,0,0,1-.13.13H33.7a.13.13,0,0,1-.13-.13Z"/><path class="cls-1" d="M38.65,54.58a.13.13,0,0,1,.13-.13h1.65a1.56,1.56,0,1,1,0,3.12h-.87v1.65a.14.14,0,0,1-.13.13h-.64a.13.13,0,0,1-.13-.13Zm1.72,2.14a.72.72,0,0,0,.72-.73.7.7,0,0,0-.72-.68h-.81v1.41Z"/><path class="cls-1" d="M42.79,54.58a.13.13,0,0,1,.13-.13h2a1.52,1.52,0,0,1,1.53,1.51,1.54,1.54,0,0,1-1,1.41l1,1.78a.13.13,0,0,1-.12.2h-.74a.12.12,0,0,1-.11-.06l-.93-1.86H43.7v1.79a.14.14,0,0,1-.13.13h-.64a.13.13,0,0,1-.13-.13Zm2.06,2.1a.71.71,0,0,0,.69-.71.7.7,0,0,0-.69-.68H43.71v1.39Z"/><path class="cls-1" d="M49.62,54.37A2.52,2.52,0,1,1,47.1,56.9,2.52,2.52,0,0,1,49.62,54.37Zm0,4.13A1.61,1.61,0,1,0,48,56.9,1.61,1.61,0,0,0,49.62,58.51Z"/><path class="cls-1" d="M53.05,54.58a.13.13,0,0,1,.13-.13h1.6a1.37,1.37,0,0,1,1.48,1.29,1.33,1.33,0,0,1-.77,1.11A1.26,1.26,0,0,1,56.41,58a1.42,1.42,0,0,1-1.53,1.35h-1.7a.13.13,0,0,1-.13-.13Zm1.65,1.93a.6.6,0,0,0,.6-.63.57.57,0,0,0-.6-.6H54V56.5Zm.1,2a.63.63,0,0,0,.63-.64.68.68,0,0,0-.71-.61H54v1.25Z"/><path class="cls-1" d="M57.37,54.58a.13.13,0,0,1,.13-.13h.64a.14.14,0,0,1,.13.13v3.93h1.79a.13.13,0,0,1,.13.13v.57a.13.13,0,0,1-.13.13H57.51a.13.13,0,0,1-.13-.13Z"/><path class="cls-1" d="M60.91,54.58a.13.13,0,0,1,.13-.13h2.85a.13.13,0,0,1,.13.13v.57a.13.13,0,0,1-.13.13H61.82v1.15h1.73a.14.14,0,0,1,.13.13v.58a.13.13,0,0,1-.13.13H61.82v1.23h2.07a.13.13,0,0,1,.13.13v.57a.13.13,0,0,1-.13.13H61a.13.13,0,0,1-.13-.13Z"/><path class="cls-1" d="M65.53,54.48a.12.12,0,0,1,.13-.11h.11a.13.13,0,0,1,.12.07l1.54,3.31h0L69,54.44a.12.12,0,0,1,.12-.07h.11a.12.12,0,0,1,.13.11l.83,4.71a.12.12,0,0,1-.13.16h-.64a.15.15,0,0,1-.13-.11l-.41-2.65h0l-1.23,2.75a.12.12,0,0,1-.12.08h-.13a.13.13,0,0,1-.12-.08L66,56.59h0l-.41,2.65a.14.14,0,0,1-.13.11h-.63a.13.13,0,0,1-.13-.16Z"/><path class="cls-1" d="M22.57,67.06l.25-.43a.16.16,0,0,1,.24,0,2.32,2.32,0,0,0,1.06.43.58.58,0,0,0,.64-.54c0-.36-.3-.6-.89-.84s-1.32-.69-1.32-1.51a1.4,1.4,0,0,1,1.58-1.34,2.47,2.47,0,0,1,1.4.47.17.17,0,0,1,0,.23l-.27.4a.18.18,0,0,1-.25.08,2.31,2.31,0,0,0-1-.38.56.56,0,0,0-.62.49c0,.33.26.55.83.78s1.46.68,1.46,1.58a1.48,1.48,0,0,1-1.61,1.39,2.25,2.25,0,0,1-1.54-.55C22.54,67.21,22.5,67.17,22.57,67.06Z"/><path class="cls-1" d="M28.81,62.77A2.52,2.52,0,1,1,26.3,65.3,2.52,2.52,0,0,1,28.81,62.77Zm0,4.13a1.61,1.61,0,1,0-1.6-1.6A1.61,1.61,0,0,0,28.81,66.91Z"/><path class="cls-1" d="M32.25,63a.13.13,0,0,1,.13-.13H33a.14.14,0,0,1,.13.13v3.93h1.79a.13.13,0,0,1,.13.13v.57a.13.13,0,0,1-.13.13H32.38a.13.13,0,0,1-.13-.13Z"/><path class="cls-1" d="M34.46,63a.12.12,0,0,1,.12-.18h.71a.13.13,0,0,1,.12.08l1.34,3h0l1.34-3a.13.13,0,0,1,.12-.08H39a.12.12,0,0,1,.12.18l-2.17,4.71a.13.13,0,0,1-.12.08h-.07a.13.13,0,0,1-.12-.08Z"/><path class="cls-1" d="M39.74,63a.13.13,0,0,1,.13-.13h2.85a.13.13,0,0,1,.13.13v.57a.13.13,0,0,1-.13.13H40.65v1.15h1.73a.14.14,0,0,1,.13.13v.58a.13.13,0,0,1-.13.13H40.65v1.23h2.07a.13.13,0,0,1,.13.13v.57a.13.13,0,0,1-.13.13H39.87a.13.13,0,0,1-.13-.13Z"/><path class="cls-1" d="M43.85,63a.13.13,0,0,1,.13-.13h2a1.52,1.52,0,0,1,1.53,1.51,1.55,1.55,0,0,1-1,1.41l1,1.78a.13.13,0,0,1-.12.2h-.74a.12.12,0,0,1-.11-.06l-.93-1.86h-.78v1.79a.14.14,0,0,1-.13.13H44a.13.13,0,0,1-.13-.13Zm2.06,2.1a.71.71,0,0,0,.69-.71.7.7,0,0,0-.69-.68H44.77v1.39Z"/><path class="cls-1" d="M19.32,15.27a1.11,1.11,0,0,0-1-1.24l-4-.5a1.11,1.11,0,0,0-.28,2.2l4,.5A1.11,1.11,0,0,0,19.32,15.27Z"/><path class="cls-2" d="M18.22,16.74H18l-4-.5a1.61,1.61,0,0,1-.78-2.87A1.59,1.59,0,0,1,14.46,13l4,.5a1.61,1.61,0,0,1,1.39,1.8h0A1.61,1.61,0,0,1,18.22,16.74Zm-4-2.72a.61.61,0,0,0-.6.53.61.61,0,0,0,.53.68l4,.5a.61.61,0,0,0,.68-.53h0a.61.61,0,0,0-.53-.68l-4-.5Z"/><path class="cls-1" d="M58.21,20.2a.73.73,0,0,1-.82.64l-4-.5a.73.73,0,0,1-.63-.82.71.71,0,0,1,.27-.49.75.75,0,0,1,.45-.16h.1l4,.5A.73.73,0,0,1,58.21,20.2Z"/><path class="cls-1" d="M20.66,30.08,17.41,32.6a.7.7,0,0,1-.54.14.71.71,0,0,1-.49-.27.73.73,0,0,1,.13-1l3.25-2.52a.72.72,0,0,1,.45-.15h.09a.76.76,0,0,1,.49.28A.73.73,0,0,1,20.66,30.08Z"/><path class="cls-1" d="M53.24,4.57a.76.76,0,0,1-.28.49L49.8,7.5a.73.73,0,0,1-1-.13.73.73,0,0,1-.15-.54.79.79,0,0,1,.28-.49L52.06,3.9a.75.75,0,0,1,.45-.16h.09a.69.69,0,0,1,.49.28A.75.75,0,0,1,53.24,4.57Z"/><path class="cls-1" d="M25.88,4.47a.72.72,0,0,1-.55.14.69.69,0,0,1-.48-.28L22.4,1.18a.73.73,0,1,1,1.16-.9L26,3.44A.74.74,0,0,1,25.88,4.47Z"/><path class="cls-1" d="M51.12,36.35a.6.6,0,0,1-.68.53.59.59,0,0,1-.4-.23l-2.51-3.23a.62.62,0,0,1,.11-.86.58.58,0,0,1,.37-.13.63.63,0,0,1,.49.24L51,35.9A.61.61,0,0,1,51.12,36.35Z"/><path class="cls-1" d="M37.46,5.86a13,13,0,0,0-1.64-.1A14,14,0,0,0,22.24,18.22a19.16,19.16,0,0,0,2.21,11.17A14.32,14.32,0,0,1,26.19,38l-.88,6.92a1.85,1.85,0,0,0,.37,1.36,1.83,1.83,0,0,0,1.23.7l1,.13,7.89,1h2.66a1.16,1.16,0,0,0,.28-.17,1.77,1.77,0,0,0,.6-.83,1.8,1.8,0,0,0,.1-.4l.88-6.92a14.38,14.38,0,0,1,3.82-7.88A19,19,0,0,0,49.1,21.63C50.09,13.88,44.86,6.8,37.46,5.86ZM26.72,45.45,27,43.27l5.62.71a.71.71,0,0,0,.54-.14.75.75,0,0,0,.28-.49.73.73,0,0,0-.64-.82l-5.62-.72.28-2.18L38.7,41.06,38,46.88Zm6.37-20.27-1.25-3.89,7.2.91-2.18,3.46a.6.6,0,0,0-.1.25L34.2,39l-1.87-.24.8-13.32A.84.84,0,0,0,33.09,25.18Zm14.55-3.73a17.79,17.79,0,0,1-4.55,9.45,17.29,17.29,0,0,0-2.75,4,14.74,14.74,0,0,0-1.4,4.38l-.06.36-3.22-.41,2.55-12.92L40.9,22a.7.7,0,0,0,0-.7.72.72,0,0,0-.57-.42l-9.49-1.2a.73.73,0,0,0-.66.26.72.72,0,0,0-.13.69l1.56,4.86v.07l-.78,13-3.22-.41,0-.36a15.81,15.81,0,0,0-1.94-9.11,17.93,17.93,0,0,1-2-10.29A13,13,0,0,1,28.33,10a11.72,11.72,0,0,1,8.94-2.63C43.87,8.16,48.53,14.5,47.64,21.45Z"/><circle class="cls-2" cx="12.52" cy="13.27" r="7.41" transform="translate(-0.85 25.68) rotate(-89.57)"/><path class="cls-3" d="M11.39,21.09h-.08a7.83,7.83,0,0,1-3-1.1.5.5,0,0,1,.53-.85,6.84,6.84,0,0,0,2.6,1,.5.5,0,0,1-.07,1Zm3-.15a.5.5,0,0,1-.12-1,6.86,6.86,0,0,0,2.5-1.22.5.5,0,0,1,.61.79,7.87,7.87,0,0,1-2.86,1.4ZM6.44,18A.5.5,0,0,1,6,17.79a7.83,7.83,0,0,1-1.26-2.92.5.5,0,1,1,1-.2,6.84,6.84,0,0,0,1.1,2.55.5.5,0,0,1-.41.79ZM19,17.38a.5.5,0,0,1-.44-.74A6.82,6.82,0,0,0,19.39,14a.51.51,0,0,1,.55-.45.5.5,0,0,1,.45.55,7.81,7.81,0,0,1-1,3A.5.5,0,0,1,19,17.38ZM5.11,13.71h0a.5.5,0,0,1-.5-.5,7.86,7.86,0,0,1,.66-3.11.5.5,0,0,1,.92.4,6.87,6.87,0,0,0-.58,2.72A.5.5,0,0,1,5.11,13.71Zm14.49-2.14a.5.5,0,0,1-.48-.35,6.85,6.85,0,0,0-1.34-2.43.5.5,0,0,1,.76-.65,7.85,7.85,0,0,1,1.54,2.79.5.5,0,0,1-.33.63ZM7.44,8.37A.5.5,0,0,1,7.1,7.5,7.86,7.86,0,0,1,9.81,5.84a.5.5,0,0,1,.34.94A6.89,6.89,0,0,0,7.79,8.23.5.5,0,0,1,7.44,8.37Zm8.36-1.24a.5.5,0,0,1-.22-.05,6.83,6.83,0,0,0-2.68-.71.5.5,0,1,1,.05-1A7.82,7.82,0,0,1,16,6.18a.5.5,0,0,1-.22.95Z"/><path class="cls-3" d="M15.55,11a.28.28,0,0,0-.4,0l-3.53,3.21L10,12.32a.28.28,0,0,0-.41,0l-.64.58a.28.28,0,0,0,0,.4L11.33,16a.29.29,0,0,0,.41,0l4.38-4a.29.29,0,0,0,0-.41Zm0,0"/><path class="cls-1" d="M70.09,47.59a.5.5,0,0,1-.5.5H.5a.5.5,0,0,1,0-1H69.59A.5.5,0,0,1,70.09,47.59Z"/></g></g></svg>