<svg xmlns="http://www.w3.org/2000/svg" viewBox="0 0 65.55 57.5"><defs><style>.cls-1{fill:#f04e24;}.cls-2{fill:#22366b;}.cls-3{fill:#fff;}</style></defs><title>project-management</title><g id="Layer_2" data-name="Layer 2"><g id="final_icons_bios"><path class="cls-1" d="M22.82,19.6h-.41a.5.5,0,0,1-.48-.52.49.49,0,0,1,.52-.48,8.79,8.79,0,0,0,2.81-.34.5.5,0,1,1,.28,1A9.81,9.81,0,0,1,22.82,19.6ZM19.5,19a.5.5,0,0,1-.18,0,9.81,9.81,0,0,1-2.72-1.58.5.5,0,1,1,.63-.77A8.76,8.76,0,0,0,19.68,18a.5.5,0,0,1-.18,1Zm8.59-1a.5.5,0,0,1-.28-.91,8.84,8.84,0,0,0,2-2,.5.5,0,0,1,.8.6,9.86,9.86,0,0,1-2.27,2.18A.5.5,0,0,1,28.09,18ZM14.94,15.25a.5.5,0,0,1-.42-.23,9.72,9.72,0,0,1-1.23-2.9.5.5,0,0,1,.37-.6.49.49,0,0,1,.6.37,8.69,8.69,0,0,0,1.1,2.6.5.5,0,0,1-.42.77Zm16.69-2-.16,0a.5.5,0,0,1-.32-.63,8.78,8.78,0,0,0,.45-2.79.5.5,0,0,1,1,0,9.78,9.78,0,0,1-.5,3.11A.5.5,0,0,1,31.64,13.25ZM13.55,9.52h0A.5.5,0,0,1,13.05,9a9.7,9.7,0,0,1,.76-3.06.5.5,0,0,1,.92.4A8.7,8.7,0,0,0,14,9.07.5.5,0,0,1,13.55,9.52ZM32,8.85a.5.5,0,0,1-.49-.42,8.73,8.73,0,0,0-.88-2.68.5.5,0,1,1,.89-.46,9.71,9.71,0,0,1,1,3,.5.5,0,0,1-.42.57ZM15.88,4.11a.5.5,0,0,1-.37-.83,9.84,9.84,0,0,1,2.44-2,.5.5,0,0,1,.5.87,8.84,8.84,0,0,0-2.2,1.78A.5.5,0,0,1,15.88,4.11Zm13.41-.49a.5.5,0,0,1-.35-.14,8.81,8.81,0,0,0-2.32-1.62.5.5,0,0,1,.43-.9,9.77,9.77,0,0,1,2.58,1.8.5.5,0,0,1-.35.86ZM21,1.18a.5.5,0,0,1-.1-1A9.94,9.94,0,0,1,24,.07a.5.5,0,0,1-.12,1,8.93,8.93,0,0,0-2.83.1Z"/><path class="cls-2" d="M19.7,45.29a.12.12,0,0,1,.12-.12h1.52a1.44,1.44,0,1,1,0,2.88h-.81v1.52a.13.13,0,0,1-.12.12h-.59a.12.12,0,0,1-.12-.12Zm1.59,2a.67.67,0,0,0,.67-.67.64.64,0,0,0-.67-.63h-.75v1.3Z"/><path class="cls-2" d="M23.53,45.29a.12.12,0,0,1,.12-.12H25.5a1.4,1.4,0,0,1,1.41,1.39,1.42,1.42,0,0,1-1,1.3l.88,1.64a.12.12,0,0,1-.11.19H26a.11.11,0,0,1-.1-.06l-.86-1.71h-.72v1.65a.13.13,0,0,1-.12.12h-.59a.12.12,0,0,1-.12-.12Zm1.9,1.94a.66.66,0,0,0,.64-.66.64.64,0,0,0-.64-.63H24.37v1.28Z"/><path class="cls-2" d="M29.82,45.1a2.32,2.32,0,1,1-2.32,2.33A2.32,2.32,0,0,1,29.82,45.1Zm0,3.81a1.48,1.48,0,1,0-1.48-1.48A1.49,1.49,0,0,0,29.82,48.91Z"/><path class="cls-2" d="M32.21,49.12l.34-.34a.12.12,0,0,1,.19,0,.56.56,0,0,0,.43.21c.25,0,.52-.21.52-.65v-3a.12.12,0,0,1,.12-.12h.61a.12.12,0,0,1,.12.12v3a1.31,1.31,0,0,1-1.36,1.41,1.24,1.24,0,0,1-1-.47A.14.14,0,0,1,32.21,49.12Z"/><path class="cls-2" d="M35.59,45.29a.12.12,0,0,1,.12-.12h2.63a.12.12,0,0,1,.12.12v.53a.12.12,0,0,1-.12.12H36.43V47H38a.13.13,0,0,1,.12.12v.54a.12.12,0,0,1-.12.12H36.43v1.13h1.91a.12.12,0,0,1,.12.12v.53a.12.12,0,0,1-.12.12H35.71a.12.12,0,0,1-.12-.12Z"/><path class="cls-2" d="M41.37,45.1a2.19,2.19,0,0,1,1.56.6.12.12,0,0,1,0,.18l-.39.41a.1.1,0,0,1-.16,0,1.53,1.53,0,0,0-1-.38,1.5,1.5,0,0,0,0,3,1.55,1.55,0,0,0,1-.37.12.12,0,0,1,.16,0l.4.41a.12.12,0,0,1,0,.17,2.21,2.21,0,0,1-1.57.63,2.32,2.32,0,1,1,0-4.65Z"/><path class="cls-2" d="M44.39,45.94h-1a.12.12,0,0,1-.12-.12v-.53a.12.12,0,0,1,.12-.12h2.82a.12.12,0,0,1,.12.12v.53a.12.12,0,0,1-.12.12h-1v3.62a.13.13,0,0,1-.12.12h-.6a.13.13,0,0,1-.12-.12Z"/><path class="cls-2" d="M11.22,52.95a.11.11,0,0,1,.12-.1h.1a.12.12,0,0,1,.11.06L13,56h0l1.42-3a.11.11,0,0,1,.11-.06h.1a.11.11,0,0,1,.12.1l.76,4.34a.11.11,0,0,1-.12.15H14.8a.14.14,0,0,1-.12-.1l-.38-2.45h0l-1.13,2.54a.11.11,0,0,1-.11.07h-.12a.12.12,0,0,1-.11-.07l-1.14-2.54h0l-.37,2.45a.13.13,0,0,1-.12.1h-.58a.12.12,0,0,1-.12-.15Z"/><path class="cls-2" d="M15.8,57.27l2-4.34a.11.11,0,0,1,.11-.07H18a.11.11,0,0,1,.11.07l2,4.34a.11.11,0,0,1-.11.17h-.56a.19.19,0,0,1-.19-.13l-.32-.7H17l-.32.7a.19.19,0,0,1-.19.13h-.56A.11.11,0,0,1,15.8,57.27Zm2.79-1.37-.65-1.42h0l-.63,1.42Z"/><path class="cls-2" d="M20.67,53a.12.12,0,0,1,.12-.12H21l2.69,2.85h0V53a.12.12,0,0,1,.12-.12h.59a.13.13,0,0,1,.12.12v4.34a.12.12,0,0,1-.12.12h-.16l-2.7-3h0v2.78a.12.12,0,0,1-.12.12H20.8a.13.13,0,0,1-.12-.12Z"/><path class="cls-2" d="M25.08,57.27l2-4.34a.11.11,0,0,1,.11-.07h.06a.11.11,0,0,1,.11.07l2,4.34a.11.11,0,0,1-.11.17h-.56a.18.18,0,0,1-.19-.13l-.32-.7H26.25l-.32.7a.19.19,0,0,1-.19.13h-.56A.11.11,0,0,1,25.08,57.27Zm2.79-1.37-.65-1.42h0l-.63,1.42Z"/><path class="cls-2" d="M31.91,52.85a2.44,2.44,0,0,1,1.57.6.12.12,0,0,1,0,.18l-.4.42a.11.11,0,0,1-.17,0,1.46,1.46,0,0,0-1-.37,1.49,1.49,0,0,0,0,3,2,2,0,0,0,.77-.16v-.55h-.52a.12.12,0,0,1-.12-.12v-.51a.12.12,0,0,1,.12-.12h1.24a.12.12,0,0,1,.12.12V57a.13.13,0,0,1-.05.1,3.26,3.26,0,0,1-1.6.42,2.32,2.32,0,0,1,0-4.64Z"/><path class="cls-2" d="M34.51,53a.12.12,0,0,1,.12-.12h2.63a.12.12,0,0,1,.12.12v.53a.12.12,0,0,1-.12.12H35.35v1.06h1.59a.13.13,0,0,1,.12.12v.54a.12.12,0,0,1-.12.12H35.35v1.13h1.91a.12.12,0,0,1,.12.12v.53a.12.12,0,0,1-.12.12H34.64a.12.12,0,0,1-.12-.12Z"/><path class="cls-2" d="M38.78,52.95a.11.11,0,0,1,.12-.1H39a.12.12,0,0,1,.11.06l1.42,3h0l1.42-3a.11.11,0,0,1,.11-.06h.1a.11.11,0,0,1,.12.1l.76,4.34a.11.11,0,0,1-.12.15h-.59a.14.14,0,0,1-.12-.1l-.38-2.45h0l-1.13,2.54a.11.11,0,0,1-.11.07h-.12a.12.12,0,0,1-.11-.07l-1.14-2.54h0l-.37,2.45a.13.13,0,0,1-.12.1h-.58a.12.12,0,0,1-.12-.15Z"/><path class="cls-2" d="M43.95,53a.12.12,0,0,1,.12-.12H46.7a.12.12,0,0,1,.12.12v.53a.12.12,0,0,1-.12.12H44.79v1.06h1.59a.13.13,0,0,1,.12.12v.54a.12.12,0,0,1-.12.12H44.79v1.13H46.7a.12.12,0,0,1,.12.12v.53a.12.12,0,0,1-.12.12H44.07a.12.12,0,0,1-.12-.12Z"/><path class="cls-2" d="M47.75,53a.12.12,0,0,1,.12-.12H48l2.69,2.85h0V53a.12.12,0,0,1,.12-.12h.59a.13.13,0,0,1,.12.12v4.34a.12.12,0,0,1-.12.12h-.16l-2.7-3h0v2.78a.12.12,0,0,1-.12.12h-.59a.13.13,0,0,1-.12-.12Z"/><path class="cls-2" d="M53.35,53.69h-1a.12.12,0,0,1-.12-.12V53a.12.12,0,0,1,.12-.12h2.82a.12.12,0,0,1,.12.12v.53a.12.12,0,0,1-.12.12h-1v3.62a.13.13,0,0,1-.12.12h-.6a.13.13,0,0,1-.12-.12Z"/><path class="cls-2" d="M65.05,39.2H.5a.5.5,0,0,1,0-1H65.05a.5.5,0,0,1,0,1Z"/><path class="cls-3" d="M46.07,15.79a.59.59,0,0,0-.45-.21H44.4V9a.82.82,0,0,0-.82-.82H29.32L28.17,6.22a.82.82,0,0,0-.7-.4H21a.82.82,0,0,0-.82.82v8.94H19a.6.6,0,0,0-.45.2.59.59,0,0,0-.14.47l2.29,15.09a.59.59,0,0,0,.58.5h22.1a.59.59,0,0,0,.59-.5l2.29-15.08a.59.59,0,0,0-.14-.47ZM43,30.92"/><path class="cls-2" d="M46.07,15.79a.59.59,0,0,0-.45-.21H44.4V9a.82.82,0,0,0-.82-.82H29.32L28.17,6.22a.82.82,0,0,0-.7-.4H21a.82.82,0,0,0-.82.82v8.94H19a.6.6,0,0,0-.45.2.59.59,0,0,0-.14.47l2.29,15.09a.59.59,0,0,0,.58.5h22.1a.59.59,0,0,0,.59-.5l2.29-15.08a.59.59,0,0,0-.14-.47Zm-24.92-9H27.4l1.16,1.92a.83.83,0,0,0,.71.4H43.47v6.51H43V13.72h-.46v-1.4h-.47V10.93H22.55v1.39h-.46v1.4h-.46v1.86h-.47Zm1.39,7.9H42.07v.93H22.55ZM23,13.26H41.61v.47H23Zm18.13-.93H23.48v-.46H41.14ZM43,30.92H21.54L19.35,16.51H45.23Zm0,0"/><path class="cls-2" d="M30.9,28.6h9.76V22.09H30.9ZM31.83,23h7.9v4.65h-7.9Zm0,0"/><path class="cls-2" d="M33.22,24.88h1.86a.47.47,0,0,0,0-.93H33.22a.47.47,0,0,0,0,.93Zm0,0"/><path class="cls-2" d="M36.94,24.88h.47a.47.47,0,0,0,0-.93h-.47a.47.47,0,1,0,0,.93Zm0,0"/><path class="cls-2" d="M38.33,25.81H33.22a.46.46,0,1,0,0,.93h5.11a.46.46,0,1,0,0-.93Zm0,0"/></g></g></svg>