<svg xmlns="http://www.w3.org/2000/svg" viewBox="0 0 67.21 64.44"><defs><style>.cls-1{fill:#22366b;}.cls-2{fill:#f04d23;}.cls-3{fill:#bad5ea;}.cls-4{fill:#fff;}.cls-5{fill:#f04e24;}</style></defs><title>rail-expert</title><g id="Layer_2" data-name="Layer 2"><g id="final_icons_bios"><path class="cls-1" d="M28.55,52.18a.12.12,0,0,1,.12-.12h1.87A1.41,1.41,0,0,1,32,53.46a1.44,1.44,0,0,1-1,1.32l.89,1.66a.12.12,0,0,1-.11.19h-.68a.11.11,0,0,1-.1-.06l-.87-1.73h-.72V56.5a.13.13,0,0,1-.12.12h-.6a.12.12,0,0,1-.12-.12Zm1.92,2a.66.66,0,0,0,.65-.67.65.65,0,0,0-.65-.63H29.4v1.3Z"/><path class="cls-1" d="M32.3,56.45l2-4.39a.12.12,0,0,1,.11-.07h.07a.11.11,0,0,1,.11.07l2,4.39a.12.12,0,0,1-.11.17h-.57a.19.19,0,0,1-.19-.13l-.32-.7H33.48l-.32.7a.2.2,0,0,1-.19.13h-.57A.12.12,0,0,1,32.3,56.45Zm2.82-1.39-.65-1.43h0l-.64,1.43Z"/><path class="cls-1" d="M37.21,52.18a.13.13,0,0,1,.12-.12h.61a.13.13,0,0,1,.12.12V56.5a.13.13,0,0,1-.12.12h-.61a.13.13,0,0,1-.12-.12Z"/><path class="cls-1" d="M39.25,52.18a.12.12,0,0,1,.12-.12H40a.13.13,0,0,1,.12.12v3.66h1.66a.12.12,0,0,1,.12.12v.54a.12.12,0,0,1-.12.12H39.38a.12.12,0,0,1-.12-.12Z"/><path class="cls-1" d="M23.92,60a.12.12,0,0,1,.12-.12h2.65a.12.12,0,0,1,.12.12v.53a.12.12,0,0,1-.12.12H24.76v1.07h1.61a.13.13,0,0,1,.12.12v.54a.12.12,0,0,1-.12.12H24.76v1.14h1.93a.12.12,0,0,1,.12.12v.54a.12.12,0,0,1-.12.12H24a.12.12,0,0,1-.12-.12Z"/><path class="cls-1" d="M28.71,62.1l-1.3-2a.12.12,0,0,1,.11-.18h.76a.13.13,0,0,1,.1.06l.83,1.38h0l.85-1.38a.12.12,0,0,1,.1-.06h.76a.12.12,0,0,1,.11.18l-1.31,2,1.36,2.16a.12.12,0,0,1-.11.18h-.7a.13.13,0,0,1-.11-.06l-.93-1.49h0l-.92,1.49a.14.14,0,0,1-.11.06h-.7c-.12,0-.17-.1-.12-.18Z"/><path class="cls-1" d="M31.87,60a.12.12,0,0,1,.12-.12h1.53a1.45,1.45,0,1,1,0,2.91h-.81v1.53a.13.13,0,0,1-.12.12H32a.12.12,0,0,1-.12-.12Zm1.6,2a.67.67,0,0,0,.67-.68.65.65,0,0,0-.67-.63h-.76V62Z"/><path class="cls-1" d="M35.73,60a.12.12,0,0,1,.12-.12h2.65a.12.12,0,0,1,.12.12v.53a.12.12,0,0,1-.12.12H36.58v1.07h1.61a.13.13,0,0,1,.12.12v.54a.12.12,0,0,1-.12.12H36.58v1.14h1.93a.12.12,0,0,1,.12.12v.54a.12.12,0,0,1-.12.12H35.86a.12.12,0,0,1-.12-.12Z"/><path class="cls-1" d="M39.57,60a.12.12,0,0,1,.12-.12h1.87A1.41,1.41,0,0,1,43,61.28a1.44,1.44,0,0,1-1,1.32l.89,1.66a.12.12,0,0,1-.11.19h-.68a.11.11,0,0,1-.1-.06l-.87-1.73h-.72v1.66a.13.13,0,0,1-.12.12h-.6a.12.12,0,0,1-.12-.12Zm1.92,2a.66.66,0,0,0,.65-.67.65.65,0,0,0-.65-.63H40.42V62Z"/><path class="cls-1" d="M44.52,60.66h-1a.12.12,0,0,1-.12-.12V60a.12.12,0,0,1,.12-.12h2.85a.12.12,0,0,1,.12.12v.53a.12.12,0,0,1-.12.12h-1v3.66a.13.13,0,0,1-.12.12h-.61a.13.13,0,0,1-.12-.12Z"/><polygon class="cls-2" points="16.74 62.31 15.81 61.01 17.41 61.06 18.35 59.77 18.8 61.31 20.32 61.81 19 62.71 18.98 64.31 17.72 63.33 16.2 63.81 16.74 62.31"/><polygon class="cls-2" points="50.24 62.31 49.3 61.01 50.9 61.06 51.85 59.77 52.3 61.31 53.81 61.81 52.49 62.71 52.48 64.31 51.22 63.33 49.7 63.81 50.24 62.31"/><path class="cls-3" d="M52.93,36.42v0c-.09-.19-.2-.37-.32-.57l0,0c-.12-.19-.25-.39-.41-.58L52,35.07l-.38-.42-.2-.19A4.28,4.28,0,0,0,51,34l-.12-.11-2.76-2.25-1.91-1.56A14,14,0,0,0,44.74,29a8.57,8.57,0,0,0-4.46-1.68H8.77a3.32,3.32,0,0,0-3.32,3.31v9a4.21,4.21,0,0,0,1.43,3.16h0a4.35,4.35,0,0,0,1.34.78,3.57,3.57,0,0,0,.57.16,3.33,3.33,0,0,0,.59,1.28,4.12,4.12,0,0,0,.39.43h0a3.48,3.48,0,0,0,.72.5h3.12a3.24,3.24,0,0,0,.9-.7l.07-.07.27.28a3.22,3.22,0,0,0,.69.48h3.12a3.58,3.58,0,0,0,1.11-.94,3.32,3.32,0,0,0,.58-1.19h16a3.32,3.32,0,0,0,.58,1.19,3.44,3.44,0,0,0,.43.47A3.49,3.49,0,0,0,38,46h3.12a3.23,3.23,0,0,0,.9-.7l.07-.07.27.28a3.22,3.22,0,0,0,.69.48h3.12a3.58,3.58,0,0,0,1.11-.94,3.15,3.15,0,0,0,.57-1.19h1.67a4.19,4.19,0,0,0,4-4.12A6.23,6.23,0,0,0,52.93,36.42Z"/><path class="cls-4" d="M52.28,36h0l0,0a5.74,5.74,0,0,0-.32-.57l0,0a3.17,3.17,0,0,0-.2-.29l-.22-.28s-.08-.09-.12-.15L51,34.19a1.87,1.87,0,0,0-.2-.19,5.54,5.54,0,0,0-.49-.43l-.12-.1-2.76-2.25-1.91-1.56c-.25-.22-.52-.43-.8-.64a9.34,9.34,0,0,0-5.11-2.14H8.12a3.29,3.29,0,0,0-2.34,1,3.53,3.53,0,0,0-.58.76,2,2,0,0,0-.14.28,3.43,3.43,0,0,0-.25,1.29v9a4.21,4.21,0,0,0,2.08,3.63h0a4.22,4.22,0,0,0,1.25.48,1.58,1.58,0,0,0,.08.3,3.41,3.41,0,0,0,.94,1.44,2.81,2.81,0,0,0,.6.43h0a3.29,3.29,0,0,0,1.63.42,3.35,3.35,0,0,0,2.25-.87l.27-.28a2,2,0,0,0,.28.28,2.46,2.46,0,0,0,.3.25,2.08,2.08,0,0,0,.34.22,3.36,3.36,0,0,0,4.85-2.11h16a2.68,2.68,0,0,0,.16.46,3.29,3.29,0,0,0,.84,1.19,3.35,3.35,0,0,0,.66.47,3.43,3.43,0,0,0,1.58.4,3.35,3.35,0,0,0,2.25-.87l.27-.28a2,2,0,0,0,.28.28,2.46,2.46,0,0,0,.3.25,2.09,2.09,0,0,0,.34.22,3.35,3.35,0,0,0,3.85-.46,3.51,3.51,0,0,0,1-1.65h1.66a4.19,4.19,0,0,0,4-4.13A6.21,6.21,0,0,0,52.28,36Z"/><path class="cls-1" d="M52.28,36v0a5.74,5.74,0,0,0-.32-.57l0,0a3.1,3.1,0,0,0-.19-.29l-.22-.28s-.08-.09-.12-.15L51,34.19a1.87,1.87,0,0,0-.2-.19,5.54,5.54,0,0,0-.49-.43l-.12-.1-2.76-2.25-1.91-1.56c-.25-.22-.52-.43-.8-.64a9.34,9.34,0,0,0-5.11-2.14H8.12a3.29,3.29,0,0,0-2.34,1,2.9,2.9,0,0,0-.58.76,2,2,0,0,0-.14.28,3.26,3.26,0,0,0-.26,1.29v9a4.21,4.21,0,0,0,2.08,3.63h0a4.22,4.22,0,0,0,1.25.48,1.58,1.58,0,0,0,.08.3,3.41,3.41,0,0,0,.94,1.44,2.81,2.81,0,0,0,.6.43h0a3.29,3.29,0,0,0,1.63.42,3.35,3.35,0,0,0,2.25-.87l.27-.28a2,2,0,0,0,.28.28,2.46,2.46,0,0,0,.3.25,2.08,2.08,0,0,0,.34.22,3.36,3.36,0,0,0,4.85-2.11h16a2.68,2.68,0,0,0,.16.46,3.29,3.29,0,0,0,.84,1.19,3.35,3.35,0,0,0,.66.47,3.43,3.43,0,0,0,1.58.4,3.35,3.35,0,0,0,2.25-.87l.27-.28a2,2,0,0,0,.28.28,2.46,2.46,0,0,0,.3.25,2.09,2.09,0,0,0,.34.22,3.35,3.35,0,0,0,3.85-.46,3.51,3.51,0,0,0,1-1.65h1.66a4.19,4.19,0,0,0,4-4.13A6.21,6.21,0,0,0,52.28,36Zm-6.43-4.82,1.06.86,2.73,2.23,0,0a7,7,0,0,1,.82.75h0l-9.14,0h-.13a1.59,1.59,0,0,1-1.43-1.57V31.13Zm-32.61,13a2.41,2.41,0,0,1-4.08-.76H13.9Zm3.23.82a2.41,2.41,0,0,1-1.81-.83L14,43.4h4.73A2.39,2.39,0,0,1,16.46,45Zm24.27-.82a2.4,2.4,0,0,1-4.07-.76h4.74ZM44,45a2.41,2.41,0,0,1-1.81-.83l-.66-.75h4.73A2.4,2.4,0,0,1,44,45Zm8-5.82v.09a3.26,3.26,0,0,1-3.16,3.21H8.65l-.31-.07a3.28,3.28,0,0,1-2.59-3.18v-9a2.37,2.37,0,0,1,2.38-2.37h31.5c1.65,0,3.69,1.23,5.08,2.37h-5a.83.83,0,0,0-.83.83v2.39a2.51,2.51,0,0,0,2.29,2.5l.21,0,9.87,0A5.32,5.32,0,0,1,52,39.16Z"/><path class="cls-1" d="M36.35,30.19H9a.84.84,0,0,0-.83.83v2.43A2.51,2.51,0,0,0,10.64,36h24a2.5,2.5,0,0,0,2.5-2.5V31A.83.83,0,0,0,36.35,30.19Zm-.11,3.26A1.56,1.56,0,0,1,34.68,35h-24a1.57,1.57,0,0,1-1.57-1.56V31.13H36.24Z"/><path class="cls-5" d="M9.73,5.38a.47.47,0,0,1-.35-.15L7.33,3,4.77,5a.47.47,0,1,1-.57-.75L7.1,2a.47.47,0,0,1,.63.05l2.34,2.53a.47.47,0,0,1-.35.79Z"/><path class="cls-5" d="M63.46,37.51H60.63a.47.47,0,0,0-.47.47.47.47,0,0,0,.47.47h2.83a.48.48,0,0,0,.47-.47A.47.47,0,0,0,63.46,37.51Zm-5.38-.41a3.77,3.77,0,0,1-1.71-1.78.48.48,0,0,0-.63-.23.46.46,0,0,0-.23.62,4.76,4.76,0,0,0,2.14,2.23.55.55,0,0,0,.21,0,.47.47,0,0,0,.42-.25A.47.47,0,0,0,58.08,37.1Zm-2.75-7.27a.47.47,0,0,0-.89.32A10.11,10.11,0,0,1,55,32.79a.48.48,0,0,0,.47.42h0a.47.47,0,0,0,.42-.51A11.07,11.07,0,0,0,55.34,29.83ZM54,27.22A11.39,11.39,0,0,0,52,25a.46.46,0,0,0-.66,0,.48.48,0,0,0,0,.67,10.49,10.49,0,0,1,1.82,2,.48.48,0,0,0,.66.11A.48.48,0,0,0,54,27.22Zm-4.45-3.77a11.27,11.27,0,0,0-2.79-.92.48.48,0,0,0-.56.38.47.47,0,0,0,.38.55,10.62,10.62,0,0,1,2.57.84.4.4,0,0,0,.21,0,.47.47,0,0,0,.2-.9Zm-5.7-1.11H41a.47.47,0,0,0-.47.47.47.47,0,0,0,.47.47h2.83a.47.47,0,0,0,.47-.47A.48.48,0,0,0,43.83,22.33Zm-5.67,0H35.33a.47.47,0,0,0-.47.47.47.47,0,0,0,.47.47h2.83a.47.47,0,0,0,.47-.47A.47.47,0,0,0,38.16,22.33Zm-5.66,0H29.66a.48.48,0,0,0-.47.47.47.47,0,0,0,.47.47H32.5A.47.47,0,0,0,33,22.8.48.48,0,0,0,32.5,22.33Zm-5.67,0h-.38a20.14,20.14,0,0,1-2.39-.14.48.48,0,0,0-.53.42.47.47,0,0,0,.42.52,20.1,20.1,0,0,0,2.5.15h.38a.47.47,0,0,0,.47-.47A.47.47,0,0,0,26.83,22.33Zm-5.48-.66a19.82,19.82,0,0,1-2.61-.89.48.48,0,0,0-.62.25.47.47,0,0,0,.25.61,20,20,0,0,0,2.75.93l.12,0a.47.47,0,0,0,.11-.93Zm-5.08-2.12A21.11,21.11,0,0,1,14,18a.46.46,0,0,0-.66.08.47.47,0,0,0,.08.66,20.84,20.84,0,0,0,2.38,1.64.46.46,0,0,0,.25.07.48.48,0,0,0,.41-.24A.47.47,0,0,0,16.26,19.55ZM12,16.11a16.32,16.32,0,0,1-1.69-2.17.47.47,0,0,0-.65-.13.46.46,0,0,0-.14.65,16.84,16.84,0,0,0,1.79,2.29.47.47,0,0,0,.34.15.5.5,0,0,0,.32-.12A.47.47,0,0,0,12,16.11ZM9,11.53a15.88,15.88,0,0,1-.89-2.59.48.48,0,0,0-.58-.35.47.47,0,0,0-.34.58,17.76,17.76,0,0,0,.93,2.75.48.48,0,0,0,.43.28.42.42,0,0,0,.19,0A.47.47,0,0,0,9,11.53ZM7.58,4.91a.47.47,0,0,0-.94,0q0,.69.06,1.39a.47.47,0,0,0,.47.43h0a.48.48,0,0,0,.43-.51C7.59,5.78,7.58,5.35,7.58,4.91Z"/><path class="cls-3" d="M60.67,6.74h0a1.83,1.83,0,0,0-1-.27H53.4a1.44,1.44,0,0,0-.18-.66h0a1.38,1.38,0,0,0-.62-.58A1.35,1.35,0,0,0,51.94,5H50.1l1.29-.66,1.21-.61a.49.49,0,0,0,.26-.43.47.47,0,0,0-.26-.42l-.41-.21h0L48.3.73a.44.44,0,0,0-.43,0l-4.3,2.19a.48.48,0,0,0-.26.4v0a.49.49,0,0,0,.26.43l1.19.6L46.07,5H44.22a1.44,1.44,0,0,0-1.44,1.42H36.49A1.94,1.94,0,0,0,34.56,8.4v7.69h0a2.4,2.4,0,0,0,.4,1.34h0a2.43,2.43,0,0,0,1.08.9h0a2,2,0,0,0,.46.15,1.81,1.81,0,0,0,.24.58,1.91,1.91,0,0,0,1.67,1,2,2,0,0,0,1.47-.67,1.95,1.95,0,0,0,3.36-.8h10.2A2,2,0,0,0,55.33,20a2,2,0,0,0,1.47-.67,2,2,0,0,0,3.37-.8h1a.49.49,0,0,0,.49-.48V8.4A1.93,1.93,0,0,0,60.67,6.74Zm-8.24-.27h-8.7A.48.48,0,0,1,44.22,6h7.73A.49.49,0,0,1,52.43,6.46Z"/><path class="cls-4" d="M60.67,6.74a.44.44,0,0,0-.06-.08,1.71,1.71,0,0,0-.24-.28A1.88,1.88,0,0,0,59,5.79H52.73v0a1.35,1.35,0,0,0-.12-.52l0,0A.89.89,0,0,0,52.47,5a1.89,1.89,0,0,0-.18-.21,1.37,1.37,0,0,0-.9-.41h-2l2.5-1.27a.44.44,0,0,0,.25-.3.16.16,0,0,0,0-.07v0h0v0a.47.47,0,0,0-.26-.43L47.63.06l-.1,0a.41.41,0,0,0-.33,0L42.9,2.25a.49.49,0,0,0-.26.43.47.47,0,0,0,.26.42l.41.21L45.4,4.38H43.56a1.46,1.46,0,0,0-1.33.87,1.5,1.5,0,0,0-.12.55H35.82a1.94,1.94,0,0,0-1.93,1.93v7.69h0a2.35,2.35,0,0,0,.5,1.47,2.21,2.21,0,0,0,.35.38l.22.16h0l.1.08a2.41,2.41,0,0,0,.77.3h0a1.72,1.72,0,0,0,.1.31l.06.12,0,.08.08.11a1,1,0,0,0,.17.24,1.77,1.77,0,0,0,.46.38,1.9,1.9,0,0,0,1,.28,2,2,0,0,0,1.47-.67,2,2,0,0,0,1.47.67,1.9,1.9,0,0,0,.94-.25,2.57,2.57,0,0,0,.33-.23,1.9,1.9,0,0,0,.61-1h10.2a1.91,1.91,0,0,0,.32.67.7.7,0,0,0,.13.16,1.23,1.23,0,0,0,.23.22,1.61,1.61,0,0,0,.21.14A1.94,1.94,0,0,0,56,18.82l.07-.07.07-.08h0a2,2,0,0,0,1.46.66,1.87,1.87,0,0,0,.94-.25,1.86,1.86,0,0,0,.5-.4,2,2,0,0,0,.45-.83h1a.48.48,0,0,0,.48-.48V7.73A1.92,1.92,0,0,0,60.67,6.74Zm-9.4-1.4a.49.49,0,0,1,.34.14.47.47,0,0,1,.15.31h-8.7a.18.18,0,0,1,0-.07v0a.25.25,0,0,1,.07-.13h0l.06-.08.07,0a.27.27,0,0,1,.17-.07.14.14,0,0,1,.08,0Z"/><path class="cls-1" d="M60.67,6.74h0a.38.38,0,0,0,0-.08,1.71,1.71,0,0,0-.24-.28A1.94,1.94,0,0,0,59,5.8H52.73v0a1.35,1.35,0,0,0-.12-.52l0,0A.89.89,0,0,0,52.47,5a1.89,1.89,0,0,0-.18-.21,1.37,1.37,0,0,0-.9-.41h-2l2.5-1.27a.44.44,0,0,0,.25-.3.16.16,0,0,0,0-.07,0,0,0,0,0,0,0v0a.47.47,0,0,0-.26-.43L47.63.06l-.1,0a.5.5,0,0,0-.33,0L42.9,2.25a.49.49,0,0,0-.26.43.47.47,0,0,0,.26.42l.41.21L45.4,4.38H43.56a1.46,1.46,0,0,0-1.33.87,1.5,1.5,0,0,0-.12.55H35.83A1.93,1.93,0,0,0,33.9,7.73v7.7a2.44,2.44,0,0,0,.49,1.47,2.21,2.21,0,0,0,.35.38l.22.16h0l.1.08a2.66,2.66,0,0,0,.77.31,1.72,1.72,0,0,0,.1.31l.06.12a.2.2,0,0,0,0,.08.7.7,0,0,0,.07.11,1,1,0,0,0,.17.24,1.77,1.77,0,0,0,.46.38,1.9,1.9,0,0,0,1,.28,2,2,0,0,0,1.47-.67,2,2,0,0,0,1.47.67,1.9,1.9,0,0,0,.94-.25,2.57,2.57,0,0,0,.33-.23,2,2,0,0,0,.39-.45,1.89,1.89,0,0,0,.24-.55H52.77a1.91,1.91,0,0,0,.32.67.7.7,0,0,0,.13.16,1.23,1.23,0,0,0,.23.22,1.61,1.61,0,0,0,.21.14A1.94,1.94,0,0,0,56,18.82l.07-.07.08-.07a2,2,0,0,0,1.46.66,1.87,1.87,0,0,0,.94-.25,1.86,1.86,0,0,0,.5-.4,2,2,0,0,0,.45-.83h1a.48.48,0,0,0,.48-.48V7.73A1.92,1.92,0,0,0,60.67,6.74ZM43.08,5.79a.16.16,0,0,1,0-.07v0a.35.35,0,0,1,.07-.13h0l.06-.08.07,0a.63.63,0,0,1,.17-.07h7.82a.49.49,0,0,1,.48.44H43.08Zm1.1-3.11L47.42,1l3.24,1.65L47.42,4.32Zm-9.32,6h1.46v3.36a.49.49,0,0,1-.49.49h-1Zm2.89,9.69a1,1,0,0,1-.86-.51h1.73A1,1,0,0,1,37.75,18.39Zm2.94,0a1,1,0,0,1-.86-.51h1.72A1,1,0,0,1,40.69,18.39Zm14,0a1,1,0,0,1-.86-.51h1.72A1,1,0,0,1,54.67,18.39Zm2.93,0a1,1,0,0,1-.86-.51h1.73A1,1,0,0,1,57.6,18.39ZM60,12.56H59a.49.49,0,0,1-.49-.49V8.7H60Zm0-4.82H58a.48.48,0,0,0-.48.48v3.84a1.46,1.46,0,0,0,1.34,1.45l.11,0h1V14H59.5a.48.48,0,1,0,0,1H60v1.92H36.35a1.49,1.49,0,0,1-1.49-1.48v-.08h0V15h.48a.48.48,0,1,0,0-1h-.48v-.51h1l.11,0a1.46,1.46,0,0,0,1.34-1.45V8.22a.48.48,0,0,0-.48-.48H34.86a1,1,0,0,1,1-1H59a1,1,0,0,1,1,1Z"/><path class="cls-1" d="M56.12,7.74H38.73a.48.48,0,0,0-.48.48v3.84a1.47,1.47,0,0,0,1.34,1.45l.12,0H55.15l.11,0a1.46,1.46,0,0,0,1.34-1.45V8.22A.48.48,0,0,0,56.12,7.74Zm-.48,4.32a.49.49,0,0,1-.49.49H39.71a.49.49,0,0,1-.49-.49V8.7H55.64Z"/><polygon class="cls-3" points="19.39 13.18 18.06 11.34 20.33 11.41 21.68 9.58 22.31 11.76 24.46 12.48 22.59 13.75 22.57 16.02 20.78 14.63 18.62 15.32 19.39 13.18"/><polygon class="cls-3" points="61.9 26.22 60.81 24.69 62.69 24.75 63.8 23.24 64.33 25.05 66.11 25.64 64.56 26.69 64.54 28.57 63.06 27.42 61.27 27.99 61.9 26.22"/><polygon class="cls-3" points="65.47 16.84 65.02 16.21 65.79 16.24 66.25 15.61 66.47 16.36 67.21 16.6 66.56 17.04 66.56 17.82 65.95 17.34 65.21 17.57 65.47 16.84"/><polygon class="cls-3" points="28.03 5.21 26.98 3.75 28.78 3.81 29.85 2.35 30.35 4.08 32.06 4.65 30.57 5.67 30.56 7.47 29.14 6.36 27.42 6.91 28.03 5.21"/><polygon class="cls-3" points="4.25 22.05 3.2 20.58 5.01 20.64 6.08 19.19 6.58 20.92 8.29 21.49 6.8 22.5 6.79 24.3 5.36 23.2 3.64 23.74 4.25 22.05"/><polygon class="cls-3" points="2.1 12.75 1.45 11.84 2.56 11.88 3.22 10.98 3.53 12.05 4.59 12.4 3.67 13.02 3.66 14.14 2.78 13.46 1.72 13.79 2.1 12.75"/><polygon class="cls-3" points="15.2 3.77 14.78 3.17 15.51 3.2 15.94 2.61 16.15 3.31 16.84 3.54 16.24 3.95 16.23 4.69 15.65 4.24 14.96 4.46 15.2 3.77"/><path class="cls-1" d="M66.12,45.53a.47.47,0,0,1-.47.47H.47A.47.47,0,0,1,0,45.53a.48.48,0,0,1,.47-.47H65.65A.47.47,0,0,1,66.12,45.53Z"/></g></g></svg>