<svg xmlns="http://www.w3.org/2000/svg" viewBox="0 0 65.82 64.21"><defs><style>.cls-1{fill:#22366b;}.cls-2{fill:#bad5ea;}.cls-3{fill:#fff;}.cls-4{fill:#f04e24;}</style></defs><title>rail-experience</title><g id="Layer_2" data-name="Layer 2"><g id="final_icons_bios"><path class="cls-1" d="M28.41,51.93a.12.12,0,0,1,.12-.12h1.86a1.41,1.41,0,0,1,1.41,1.4,1.43,1.43,0,0,1-1,1.31l.89,1.65a.12.12,0,0,1-.11.19h-.68a.11.11,0,0,1-.1-.06L30,54.57h-.72v1.66a.13.13,0,0,1-.12.12h-.6a.12.12,0,0,1-.12-.12Zm1.91,1.95a.66.66,0,0,0,.64-.66.65.65,0,0,0-.64-.63H29.26v1.29Z"/><path class="cls-1" d="M32.14,56.18l2-4.37a.12.12,0,0,1,.11-.07h.07a.11.11,0,0,1,.11.07l2,4.37a.11.11,0,0,1-.11.17h-.56a.19.19,0,0,1-.19-.13l-.32-.7H33.32l-.32.7a.2.2,0,0,1-.19.13h-.56A.11.11,0,0,1,32.14,56.18Zm2.8-1.38-.65-1.43h0l-.64,1.43Z"/><path class="cls-1" d="M37,51.93a.13.13,0,0,1,.12-.12h.6a.13.13,0,0,1,.12.12v4.3a.13.13,0,0,1-.12.12h-.6a.13.13,0,0,1-.12-.12Z"/><path class="cls-1" d="M39.07,51.93a.12.12,0,0,1,.12-.12h.6a.13.13,0,0,1,.12.12v3.64h1.65a.12.12,0,0,1,.12.12v.53a.12.12,0,0,1-.12.12H39.19a.12.12,0,0,1-.12-.12Z"/><path class="cls-1" d="M15.87,59.72A.12.12,0,0,1,16,59.6h2.64a.12.12,0,0,1,.12.12v.53a.12.12,0,0,1-.12.12H16.71v1.06h1.6a.13.13,0,0,1,.12.12v.54a.12.12,0,0,1-.12.12h-1.6v1.14h1.92a.12.12,0,0,1,.12.12V64a.12.12,0,0,1-.12.12H16a.12.12,0,0,1-.12-.12Z"/><path class="cls-1" d="M20.64,61.81l-1.3-2a.12.12,0,0,1,.11-.18h.75a.13.13,0,0,1,.1.06L21.14,61h0L22,59.66a.12.12,0,0,1,.1-.06h.75a.12.12,0,0,1,.11.18l-1.3,2L23,64a.12.12,0,0,1-.11.18h-.7a.13.13,0,0,1-.11-.06l-.93-1.49h0l-.92,1.49a.14.14,0,0,1-.11.06h-.7c-.12,0-.17-.1-.12-.18Z"/><path class="cls-1" d="M23.78,59.72a.12.12,0,0,1,.12-.12h1.53a1.45,1.45,0,1,1,0,2.9h-.81V64a.13.13,0,0,1-.12.12h-.6a.12.12,0,0,1-.12-.12Zm1.6,2a.67.67,0,0,0,.67-.67.65.65,0,0,0-.67-.63h-.75V61.7Z"/><path class="cls-1" d="M27.63,59.72a.12.12,0,0,1,.12-.12h2.64a.12.12,0,0,1,.12.12v.53a.12.12,0,0,1-.12.12H28.47v1.06h1.6a.13.13,0,0,1,.12.12v.54a.12.12,0,0,1-.12.12h-1.6v1.14h1.92a.12.12,0,0,1,.12.12V64a.12.12,0,0,1-.12.12H27.75a.12.12,0,0,1-.12-.12Z"/><path class="cls-1" d="M31.44,59.72a.12.12,0,0,1,.12-.12h1.86A1.41,1.41,0,0,1,34.84,61a1.43,1.43,0,0,1-1,1.31L34.77,64a.12.12,0,0,1-.11.19H34a.11.11,0,0,1-.1-.06L33,62.36h-.72V64a.13.13,0,0,1-.12.12h-.6a.12.12,0,0,1-.12-.12Zm1.91,1.95A.66.66,0,0,0,34,61a.65.65,0,0,0-.64-.63H32.29v1.29Z"/><path class="cls-1" d="M35.77,59.72a.13.13,0,0,1,.12-.12h.6a.13.13,0,0,1,.12.12V64a.13.13,0,0,1-.12.12h-.6a.13.13,0,0,1-.12-.12Z"/><path class="cls-1" d="M37.8,59.72a.12.12,0,0,1,.12-.12h2.64a.12.12,0,0,1,.12.12v.53a.12.12,0,0,1-.12.12H38.64v1.06h1.6a.13.13,0,0,1,.12.12v.54a.12.12,0,0,1-.12.12h-1.6v1.14h1.92a.12.12,0,0,1,.12.12V64a.12.12,0,0,1-.12.12H37.92A.12.12,0,0,1,37.8,64Z"/><path class="cls-1" d="M41.61,59.65a.12.12,0,0,1,.12-.12h.16l2.7,2.87h0V59.72a.12.12,0,0,1,.12-.12h.6a.13.13,0,0,1,.12.12v4.37a.12.12,0,0,1-.12.12h-.16l-2.71-3h0V64a.12.12,0,0,1-.12.12h-.59a.13.13,0,0,1-.12-.12Z"/><path class="cls-1" d="M48.64,59.53a2.19,2.19,0,0,1,1.57.6.12.12,0,0,1,0,.18l-.4.41a.1.1,0,0,1-.16,0,1.53,1.53,0,0,0-1-.38,1.51,1.51,0,0,0,0,3,1.56,1.56,0,0,0,1-.37.12.12,0,0,1,.16,0l.4.42a.12.12,0,0,1,0,.18,2.23,2.23,0,0,1-1.58.63,2.34,2.34,0,1,1,0-4.67Z"/><path class="cls-1" d="M51.07,59.72a.12.12,0,0,1,.12-.12h2.64a.12.12,0,0,1,.12.12v.53a.12.12,0,0,1-.12.12H51.92v1.06h1.6a.13.13,0,0,1,.12.12v.54a.12.12,0,0,1-.12.12h-1.6v1.14h1.92a.12.12,0,0,1,.12.12V64a.12.12,0,0,1-.12.12H51.19a.12.12,0,0,1-.12-.12Z"/><path class="cls-1" d="M65.35,45.79H.47a.47.47,0,0,1,0-.94H65.35a.47.47,0,0,1,0,.94Z"/><path class="cls-2" d="M52.69,36.25h0l0,0a6.44,6.44,0,0,0-.31-.56l0,0a6.71,6.71,0,0,0-.41-.57l-.12-.14q-.17-.21-.37-.41l-.19-.19q-.23-.22-.49-.43l-.12-.1-2.75-2.24L46,30c-1.54-1.34-3.89-2.78-5.89-2.78H8.73a3.3,3.3,0,0,0-3.3,3.3v9a4.2,4.2,0,0,0,3.33,4.1A3.33,3.33,0,0,0,14.52,45a3.33,3.33,0,0,0,5.75-1.37H36.16A3.33,3.33,0,0,0,41.9,45a3.33,3.33,0,0,0,5.75-1.37h1.66a4.18,4.18,0,0,0,4-4.11A6.19,6.19,0,0,0,52.69,36.25Z"/><path class="cls-3" d="M52,35.79h0l0,0a6.44,6.44,0,0,0-.31-.56l0,0a6.71,6.71,0,0,0-.41-.57l-.12-.14q-.17-.21-.37-.41l-.19-.19q-.23-.22-.49-.43l-.12-.1-2.75-2.24-1.9-1.55c-1.54-1.34-3.89-2.78-5.89-2.78H8.08A3.3,3.3,0,0,0,4.78,30v9a4.2,4.2,0,0,0,3.33,4.1,3.33,3.33,0,0,0,5.77,1.46,3.33,3.33,0,0,0,5.75-1.37H35.51a3.33,3.33,0,0,0,5.74,1.37A3.33,3.33,0,0,0,47,43.2h1.66a4.18,4.18,0,0,0,4-4.11A6.19,6.19,0,0,0,52,35.79Z"/><path class="cls-1" d="M52,35.79h0l0,0a6.44,6.44,0,0,0-.31-.56l0,0a6.71,6.71,0,0,0-.41-.57l-.12-.14q-.17-.21-.37-.41l-.19-.19q-.23-.22-.49-.43l-.12-.1-2.75-2.24-1.9-1.55c-1.54-1.34-3.89-2.78-5.89-2.78H8.08A3.3,3.3,0,0,0,4.78,30v9a4.2,4.2,0,0,0,3.33,4.1,3.33,3.33,0,0,0,5.77,1.46,3.33,3.33,0,0,0,5.75-1.37H35.51a3.33,3.33,0,0,0,5.74,1.37A3.33,3.33,0,0,0,47,43.2h1.66a4.18,4.18,0,0,0,4-4.11A6.19,6.19,0,0,0,52,35.79ZM45.63,31l1.05.85,2.72,2.21,0,0a6.79,6.79,0,0,1,.81.74h0l-9.1,0H41a1.57,1.57,0,0,1-1.43-1.55V31ZM11.36,44.77a2.41,2.41,0,0,1-2.24-1.58h4.71l-.66.75A2.4,2.4,0,0,1,11.36,44.77Zm5,0a2.4,2.4,0,0,1-1.81-.82l-.66-.75h4.71A2.39,2.39,0,0,1,16.39,44.77Zm22.36,0a2.39,2.39,0,0,1-2.24-1.58h4.71l-.66.75A2.4,2.4,0,0,1,38.74,44.77Zm5,0A2.4,2.4,0,0,1,42,43.95l-.66-.75H46A2.39,2.39,0,0,1,43.77,44.77Zm8-5.8v.1a3.24,3.24,0,0,1-3.14,3.19h-40l-.31-.06A3.26,3.26,0,0,1,5.72,39h0V30a2.36,2.36,0,0,1,2.36-2.36H39.43c1.64,0,3.67,1.22,5,2.36h-5a.83.83,0,0,0-.83.83v2.38A2.5,2.5,0,0,0,41,35.74l.21,0,9.81,0A5.23,5.23,0,0,1,51.73,39Z"/><path class="cls-1" d="M36.18,30H8.92a.83.83,0,0,0-.83.83V33.3a2.49,2.49,0,0,0,2.5,2.49H34.52A2.49,2.49,0,0,0,37,33.3V30.88A.83.83,0,0,0,36.18,30Zm-.11,3.25a1.55,1.55,0,0,1-1.55,1.55H10.59A1.56,1.56,0,0,1,9,33.3V31h27Z"/><path class="cls-4" d="M9.68,5.35a.47.47,0,0,1-.34-.15L7.3,3,4.74,5a.47.47,0,0,1-.57-.75L7.06,2A.47.47,0,0,1,7.69,2L10,4.56a.47.47,0,0,1-.34.79Z"/><path class="cls-4" d="M63.16,38.27H60.34a.47.47,0,1,1,0-.94h2.82a.47.47,0,0,1,0,.94Zm-5.56-.46a.47.47,0,0,1-.21-.05,4.71,4.71,0,0,1-2.13-2.21.47.47,0,0,1,.85-.39,3.77,3.77,0,0,0,1.71,1.77.47.47,0,0,1-.21.89Zm-2.35-4.75a.47.47,0,0,1-.47-.43A10.35,10.35,0,0,0,54.2,30a.47.47,0,1,1,.88-.32,11.31,11.31,0,0,1,.64,2.86.47.47,0,0,1-.43.51Zm-1.91-5.23a.47.47,0,0,1-.39-.2,10.49,10.49,0,0,0-1.81-2,.47.47,0,1,1,.61-.72,11.43,11.43,0,0,1,2,2.17.47.47,0,0,1-.38.74ZM49.1,24.22a.47.47,0,0,1-.2,0,10.31,10.31,0,0,0-2.55-.83.47.47,0,0,1,.17-.92,11.28,11.28,0,0,1,2.79.91.47.47,0,0,1-.2.89Zm-5.47-1.06H40.8a.47.47,0,1,1,0-.94h2.82a.47.47,0,1,1,0,.94Zm-5.64,0H35.16a.47.47,0,1,1,0-.94H38a.47.47,0,1,1,0,.94Zm-5.64,0H29.52a.47.47,0,0,1,0-.94h2.82a.47.47,0,1,1,0,.94Zm-5.64,0h-.38A20.88,20.88,0,0,1,23.84,23a.47.47,0,0,1,.11-.93,20,20,0,0,0,2.38.14h.38a.47.47,0,1,1,0,.94Zm-5.58-.67-.12,0a21,21,0,0,1-2.73-.92.47.47,0,1,1,.36-.87,20,20,0,0,0,2.6.88.47.47,0,0,1-.12.92Zm-5.18-2.17a.47.47,0,0,1-.24-.07,20.83,20.83,0,0,1-2.37-1.63.47.47,0,0,1,.59-.73,19.86,19.86,0,0,0,2.26,1.56.47.47,0,0,1-.24.87Zm-4.39-3.5a.47.47,0,0,1-.34-.15,17.4,17.4,0,0,1-1.78-2.28.47.47,0,1,1,.79-.51A16.42,16.42,0,0,0,11.9,16a.47.47,0,0,1-.34.79ZM8.49,12.13a.47.47,0,0,1-.43-.28,17.35,17.35,0,0,1-.94-2.74A.47.47,0,1,1,8,8.89a16.42,16.42,0,0,0,.89,2.59.47.47,0,0,1-.43.66ZM7.12,6.69a.47.47,0,0,1-.47-.43Q6.6,5.58,6.6,4.88a.47.47,0,0,1,.47-.47h0a.47.47,0,0,1,.47.47q0,.65.05,1.3a.47.47,0,0,1-.43.51Z"/><path class="cls-2" d="M59.4,6.43H53.14A1.45,1.45,0,0,0,51.7,5H49.87l2.49-1.27a.48.48,0,0,0,.26-.43.47.47,0,0,0-.26-.42L48.07.72a.44.44,0,0,0-.43,0L43.36,2.9a.47.47,0,0,0-.26.42.48.48,0,0,0,.26.43L45.85,5H44a1.44,1.44,0,0,0-1.44,1.41H36.32a1.93,1.93,0,0,0-1.93,1.93V16h0a2.44,2.44,0,0,0,1.94,2.39,1.94,1.94,0,0,0,3.36.85,1.94,1.94,0,0,0,3.34-.8H53.19a1.94,1.94,0,0,0,3.34.8,1.95,1.95,0,0,0,3.35-.8h.95a.48.48,0,0,0,.49-.48V8.35A1.93,1.93,0,0,0,59.4,6.43Zm-15.87,0A.48.48,0,0,1,44,6H51.7a.48.48,0,0,1,.49.45Z"/><path class="cls-3" d="M58.74,5.77H52.48A1.45,1.45,0,0,0,51,4.36H49.21l2.49-1.27A.48.48,0,0,0,52,2.66a.47.47,0,0,0-.26-.42L47.41.06a.44.44,0,0,0-.43,0L42.7,2.23a.47.47,0,0,0-.26.42.48.48,0,0,0,.26.43l2.49,1.27H43.35a1.44,1.44,0,0,0-1.44,1.41H35.65a1.93,1.93,0,0,0-1.93,1.93v7.65h0a2.44,2.44,0,0,0,1.94,2.39,1.94,1.94,0,0,0,3.36.85,1.94,1.94,0,0,0,3.34-.8H52.53a1.94,1.94,0,0,0,3.34.8,1.95,1.95,0,0,0,3.35-.8h.95a.48.48,0,0,0,.49-.48V7.69A1.93,1.93,0,0,0,58.74,5.77Zm-15.87,0a.48.48,0,0,1,.48-.45H51a.48.48,0,0,1,.49.45Z"/><path class="cls-1" d="M58.73,5.77H52.48A1.44,1.44,0,0,0,51,4.36H49.2l2.49-1.27a.48.48,0,0,0,0-.86L47.41.06a.48.48,0,0,0-.44,0L42.7,2.23a.48.48,0,0,0,0,.86l2.49,1.27H43.35a1.44,1.44,0,0,0-1.44,1.41H35.66a1.93,1.93,0,0,0-1.92,1.92v7.65h0a2.45,2.45,0,0,0,1.94,2.39,1.94,1.94,0,0,0,3.36.85,1.94,1.94,0,0,0,3.35-.8H52.53a1.94,1.94,0,0,0,3.35.8,1.94,1.94,0,0,0,3.35-.8h1a.48.48,0,0,0,.48-.48V7.69a1.93,1.93,0,0,0-1.92-1.92ZM47.19,1l3.22,1.64L47.19,4.3,44,2.66ZM59.7,12.5h-1a.49.49,0,0,1-.49-.49V8.66H59.7ZM43.35,5.32H51a.48.48,0,0,1,.48.45H42.87a.48.48,0,0,1,.48-.45ZM34.69,8.66h1.45V12a.49.49,0,0,1-.49.49h-1Zm2.87,9.64a1,1,0,0,1-.86-.5h1.71a1,1,0,0,1-.86.5Zm2.93,0a1,1,0,0,1-.86-.5h1.71a1,1,0,0,1-.86.5Zm13.91,0a1,1,0,0,1-.86-.5h1.71a1,1,0,0,1-.86.5Zm2.93,0a1,1,0,0,1-.86-.5h1.71a1,1,0,0,1-.86.5Zm1.47-1.46H36.17a1.48,1.48,0,0,1-1.48-1.47v-.08h0v-.34h.48a.48.48,0,0,0,0-1h-.48v-.51h1.08A1.45,1.45,0,0,0,37.11,12V8.18a.48.48,0,0,0-.48-.48H34.69a1,1,0,0,1,1-1H58.73a1,1,0,0,1,1,1H57.76a.48.48,0,0,0-.48.48V12a1.45,1.45,0,0,0,1.33,1.45H59.7V14h-.48a.48.48,0,1,0,0,1h.48v1.9Zm0,0"/><path class="cls-1" d="M55.86,7.7H38.55a.48.48,0,0,0-.48.48V12a1.45,1.45,0,0,0,1.33,1.45H55A1.45,1.45,0,0,0,56.34,12V8.18a.48.48,0,0,0-.48-.48ZM55.38,12a.49.49,0,0,1-.49.49H39.52A.49.49,0,0,1,39,12V8.66H55.38Zm0,0"/></g></g></svg>