<svg xmlns="http://www.w3.org/2000/svg" viewBox="0 0 66.18 63.06"><defs><style>.cls-1{fill:#f04e24;}.cls-2{fill:#22366b;}.cls-3{fill:#f04d23;}.cls-4{fill:#bad5ea;}.cls-5{fill:#fff;}.cls-6{opacity:0.52;}.cls-7{fill:#79b1e0;}</style></defs><title>smc</title><g id="Layer_2" data-name="Layer 2"><g id="final_icons_bios"><path class="cls-1" d="M33,41.45a16.19,16.19,0,0,1-2.73-.23.5.5,0,1,1,.17-1,15.19,15.19,0,0,0,2.56.22h.33a.5.5,0,1,1,0,1Zm3.32-.36a.5.5,0,0,1-.11-1A14.87,14.87,0,0,0,39,39.22a.5.5,0,1,1,.4.92,15.9,15.9,0,0,1-2.94,1Zm-8.85-.66a.5.5,0,0,1-.18,0A16,16,0,0,1,24.53,39a.5.5,0,1,1,.53-.85,14.94,14.94,0,0,0,2.59,1.29.5.5,0,0,1-.18,1Zm14.32-1.71a.5.5,0,0,1-.28-.91,15.06,15.06,0,0,0,2.22-1.87.5.5,0,1,1,.71.7,16.09,16.09,0,0,1-2.36,2A.5.5,0,0,1,41.79,38.72ZM22.42,37.27a.5.5,0,0,1-.34-.14,16.14,16.14,0,0,1-2-2.32.5.5,0,1,1,.81-.59,15.15,15.15,0,0,0,1.92,2.18.5.5,0,0,1-.34.86ZM46,34.46a.5.5,0,0,1-.42-.77,15,15,0,0,0,1.35-2.56.5.5,0,1,1,.93.38,16.05,16.05,0,0,1-1.44,2.74A.5.5,0,0,1,46,34.46Zm-27-2a.5.5,0,0,1-.45-.29,15.9,15.9,0,0,1-1-2.92.5.5,0,0,1,1-.23,14.88,14.88,0,0,0,1,2.74.5.5,0,0,1-.45.71Zm29.28-3.5h-.1a.5.5,0,0,1-.39-.59A15.15,15.15,0,0,0,48,25.46q0-.67-.06-1.32a.5.5,0,0,1,1-.09c0,.46.06.93.06,1.41a16.12,16.12,0,0,1-.3,3.08A.5.5,0,0,1,48.21,28.94Zm-30.68-2.3a.5.5,0,0,1-.5-.48c0-.23,0-.47,0-.71a16.17,16.17,0,0,1,.18-2.38.5.5,0,1,1,1,.15A15.24,15.24,0,0,0,18,25.46q0,.33,0,.66a.5.5,0,0,1-.48.52Zm30.36-5a.5.5,0,0,1-.48-.36,14.86,14.86,0,0,0-1.07-2.69.5.5,0,1,1,.89-.46A16,16,0,0,1,48.37,21a.5.5,0,0,1-.34.62Zm-29.48-.9a.49.49,0,0,1-.17,0,.5.5,0,0,1-.3-.64,16,16,0,0,1,1.32-2.8.5.5,0,1,1,.86.51,15,15,0,0,0-1.23,2.62A.5.5,0,0,1,18.42,20.75Zm26.74-4.4a.5.5,0,0,1-.39-.19,15.11,15.11,0,0,0-2-2.09.5.5,0,0,1,.65-.76,16.08,16.08,0,0,1,2.14,2.23.5.5,0,0,1-.39.81Zm-23.69-.72a.5.5,0,0,1-.37-.83,16.06,16.06,0,0,1,2.27-2.09.5.5,0,0,1,.6.8,15.16,15.16,0,0,0-2.13,2A.5.5,0,0,1,21.47,15.63Zm19.17-3.16a.5.5,0,0,1-.25-.06,14.92,14.92,0,0,0-2.65-1.18.5.5,0,1,1,.31-.95,15.93,15.93,0,0,1,2.83,1.26.5.5,0,0,1-.25.94ZM26.22,12a.5.5,0,0,1-.22-.95A15.89,15.89,0,0,1,28.9,10a.5.5,0,0,1,.26,1,14.86,14.86,0,0,0-2.71,1A.5.5,0,0,1,26.22,12ZM35,10.59h-.06A15.2,15.2,0,0,0,32,10.5a.52.52,0,0,1-.53-.47A.5.5,0,0,1,32,9.5,16.41,16.41,0,0,1,35,9.6a.5.5,0,0,1-.06,1Z"/><path class="cls-2" d="M21.41,54.53l.23-.4a.15.15,0,0,1,.22,0,2.15,2.15,0,0,0,1,.4.54.54,0,0,0,.59-.5c0-.33-.28-.56-.83-.78s-1.22-.64-1.22-1.41a1.3,1.3,0,0,1,1.47-1.25,2.29,2.29,0,0,1,1.3.44.16.16,0,0,1,0,.21l-.25.37a.17.17,0,0,1-.23.08,2.14,2.14,0,0,0-.91-.36.52.52,0,0,0-.57.46c0,.31.24.51.77.73s1.36.63,1.36,1.47a1.38,1.38,0,0,1-1.5,1.29,2.1,2.1,0,0,1-1.43-.51C21.38,54.67,21.35,54.64,21.41,54.53Z"/><path class="cls-2" d="M25.21,50.73a.12.12,0,0,1,.12-.12H28a.12.12,0,0,1,.12.12v.53a.12.12,0,0,1-.12.12H26.06v1.07h1.61a.13.13,0,0,1,.12.12v.54a.12.12,0,0,1-.12.12H26.06v1.14H28a.12.12,0,0,1,.12.12V55a.12.12,0,0,1-.12.12H25.33a.12.12,0,0,1-.12-.12Z"/><path class="cls-2" d="M29,50.66a.12.12,0,0,1,.12-.12h.16L32,53.42h0V50.73a.12.12,0,0,1,.12-.12h.6a.13.13,0,0,1,.12.12v4.38a.12.12,0,0,1-.12.12h-.16l-2.72-3h0V55a.12.12,0,0,1-.12.12h-.59A.13.13,0,0,1,29,55Z"/><path class="cls-2" d="M34.09,50.73a.13.13,0,0,1,.12-.12h.61a.13.13,0,0,1,.12.12V55a.13.13,0,0,1-.12.12h-.61a.13.13,0,0,1-.12-.12Z"/><path class="cls-2" d="M38.14,50.54A2.35,2.35,0,1,1,35.8,52.9,2.34,2.34,0,0,1,38.14,50.54Zm0,3.84a1.5,1.5,0,1,0-1.49-1.49A1.5,1.5,0,0,0,38.14,54.39Z"/><path class="cls-2" d="M41.34,50.73a.12.12,0,0,1,.12-.12h1.86A1.41,1.41,0,0,1,44.75,52a1.44,1.44,0,0,1-1,1.32L44.68,55a.12.12,0,0,1-.11.19h-.68a.11.11,0,0,1-.1-.06l-.87-1.73h-.72V55a.13.13,0,0,1-.12.12h-.6a.12.12,0,0,1-.12-.12Zm1.92,2A.66.66,0,0,0,43.9,52a.65.65,0,0,0-.64-.63H42.2v1.3Z"/><path class="cls-2" d="M18.07,58.47a.11.11,0,0,1,.12-.1h.1a.12.12,0,0,1,.11.06l1.43,3.08h0l1.43-3.08a.11.11,0,0,1,.11-.06h.1a.11.11,0,0,1,.12.1l.77,4.38a.11.11,0,0,1-.12.15h-.59a.14.14,0,0,1-.12-.1l-.38-2.47h0L20,63a.11.11,0,0,1-.11.07h-.12a.12.12,0,0,1-.11-.07l-1.15-2.56h0l-.38,2.47A.13.13,0,0,1,18,63h-.59a.12.12,0,0,1-.12-.15Z"/><path class="cls-2" d="M22.7,62.83l2-4.38a.12.12,0,0,1,.11-.07h.07a.11.11,0,0,1,.11.07l2,4.38a.11.11,0,0,1-.11.17h-.57a.19.19,0,0,1-.19-.13l-.32-.7H23.88l-.32.7a.19.19,0,0,1-.19.13h-.57A.11.11,0,0,1,22.7,62.83Zm2.81-1.39L24.86,60h0l-.64,1.43Z"/><path class="cls-2" d="M27.61,58.49a.12.12,0,0,1,.12-.12h.16l2.71,2.88h0V58.56a.12.12,0,0,1,.12-.12h.6a.13.13,0,0,1,.12.12v4.38a.12.12,0,0,1-.12.12h-.16l-2.72-3h0v2.8a.12.12,0,0,1-.12.12h-.59a.13.13,0,0,1-.12-.12Z"/><path class="cls-2" d="M32.06,62.83l2-4.38a.12.12,0,0,1,.11-.07h.07a.11.11,0,0,1,.11.07l2,4.38a.11.11,0,0,1-.11.17H35.7a.19.19,0,0,1-.19-.13l-.32-.7H33.25l-.32.7a.19.19,0,0,1-.19.13h-.57A.11.11,0,0,1,32.06,62.83Zm2.81-1.39L34.22,60h0l-.64,1.43Z"/><path class="cls-2" d="M39,58.37a2.46,2.46,0,0,1,1.59.61.13.13,0,0,1,0,.18l-.4.42a.11.11,0,0,1-.17,0,1.48,1.48,0,0,0-1-.38,1.5,1.5,0,0,0,0,3,2,2,0,0,0,.78-.16v-.55h-.52a.12.12,0,0,1-.12-.12v-.51a.12.12,0,0,1,.12-.12h1.25a.12.12,0,0,1,.12.12v1.67a.13.13,0,0,1-.05.1,3.29,3.29,0,0,1-1.62.42,2.34,2.34,0,0,1,0-4.68Z"/><path class="cls-2" d="M41.59,58.56a.12.12,0,0,1,.12-.12h2.65a.12.12,0,0,1,.12.12v.53a.12.12,0,0,1-.12.12H42.43v1.07H44a.13.13,0,0,1,.12.12v.54a.12.12,0,0,1-.12.12H42.43v1.14h1.93a.12.12,0,0,1,.12.12v.53a.12.12,0,0,1-.12.12H41.71a.12.12,0,0,1-.12-.12Z"/><path class="cls-2" d="M45.42,58.56a.12.12,0,0,1,.12-.12h1.86a1.41,1.41,0,0,1,1.42,1.4,1.44,1.44,0,0,1-1,1.32l.89,1.65a.12.12,0,0,1-.11.19H48a.11.11,0,0,1-.1-.06L47,61.21h-.72v1.66a.13.13,0,0,1-.12.12h-.6a.12.12,0,0,1-.12-.12Zm1.92,2a.66.66,0,0,0,.64-.66.65.65,0,0,0-.64-.63H46.28v1.3Z"/><path class="cls-2" d="M65.68,44.58H.5a.5.5,0,0,1,0-1H65.68a.5.5,0,0,1,0,1Z"/><polygon class="cls-3" points="11.02 60.86 10.09 59.56 11.69 59.62 12.63 58.33 13.08 59.86 14.6 60.37 13.27 61.26 13.26 62.86 12 61.88 10.48 62.37 11.02 60.86"/><polygon class="cls-3" points="52.52 60.86 51.58 59.56 53.18 59.62 54.13 58.33 54.57 59.86 56.09 60.37 54.77 61.26 54.76 62.86 53.5 61.88 51.97 62.37 52.52 60.86"/><path class="cls-4" d="M23.55,35.53a12.89,12.89,0,0,1-2.25-1.09l-1.08,3.43-.15.47L19.59,37c1.11-1.55-.09-1.63-.29-1.63S17.89,35.41,19,37l-.48,1.37-.15-.47-1.09-3.43A12.89,12.89,0,0,1,15,35.53c-1.55.56-1.45,1.84-1.49,4.23H25c0-2.39.05-3.67-1.49-4.23Zm0,0"/><path class="cls-4" d="M16.85,32.26a2.87,2.87,0,0,0,1.77,2.19,2,2,0,0,0,1.29,0,2.91,2.91,0,0,0,1.77-2.18c.14,0,.31-.2.5-.88.26-.92,0-1.06-.25-1A3.71,3.71,0,0,0,22,30c.4-2.4-.79-2.49-.79-2.49a1.76,1.76,0,0,0-.71-.66,2.4,2.4,0,0,0-1.46-.31,2.08,2.08,0,0,0-.58.11,2.35,2.35,0,0,0-.64.33,3.3,3.3,0,0,0-.66.54,2.67,2.67,0,0,0-.72,1.25,2.64,2.64,0,0,0,0,1.22,3.21,3.21,0,0,0,.1.38c-.23,0-.52.11-.25,1,.18.68.36.87.49.88Zm0,0"/><path class="cls-5" d="M22.88,35.06A12.89,12.89,0,0,1,20.62,34l-1.08,3.43-.15.47-.48-1.37c1.11-1.55-.09-1.63-.29-1.63s-1.41.08-.29,1.63l-.48,1.37-.15-.47L16.61,34a12.89,12.89,0,0,1-2.25,1.09c-1.55.56-1.45,1.84-1.49,4.23h11.5c0-2.39.05-3.67-1.49-4.23Zm0,0"/><path class="cls-2" d="M24.62,39.53h-12v-.75c0-2.11,0-3.39,1.64-4a12.74,12.74,0,0,0,2.2-1.06l.28-.18,1.11,3.49.19-.54c-.42-.62-.54-1.1-.36-1.46a1.16,1.16,0,0,1,1.86,0c.18.36.07.83-.36,1.46l.19.54,1.1-3.49.28.18A12.8,12.8,0,0,0,23,34.82c1.6.58,1.62,1.86,1.65,4ZM13.12,39h11v-.22c0-2.18-.09-3.08-1.32-3.52h0a14.41,14.41,0,0,1-2-.94l-1.36,4.31-.78-2.2.08-.11c.49-.68.44-1,.39-1s-.35-.19-.48-.19-.41,0-.48.19-.1.36.39,1l.08.11-.78,2.2-1.36-4.31a14.42,14.42,0,0,1-2,.94c-1.24.45-1.29,1.34-1.32,3.51Z"/><path class="cls-5" d="M16.17,31.79A2.87,2.87,0,0,0,17.94,34a2,2,0,0,0,1.29,0A2.91,2.91,0,0,0,21,31.8c.14,0,.31-.2.5-.88.26-.92,0-1.06-.25-1a3.71,3.71,0,0,0,.1-.38c.4-2.4-.79-2.49-.79-2.49a1.76,1.76,0,0,0-.71-.66A2.4,2.4,0,0,0,18.4,26a2.08,2.08,0,0,0-.58.11,2.35,2.35,0,0,0-.64.33,3.3,3.3,0,0,0-.66.54,2.67,2.67,0,0,0-.72,1.25,2.64,2.64,0,0,0,0,1.22,3.21,3.21,0,0,0,.1.38c-.23,0-.52.11-.25,1,.18.68.36.87.49.88Zm0,0"/><path class="cls-2" d="M18.58,34.35a2.18,2.18,0,0,1-.73-.13A3.11,3.11,0,0,1,15.95,32a1.69,1.69,0,0,1-.51-1c-.17-.58-.16-1,0-1.18a.5.5,0,0,1,.14-.12l0-.14a2.84,2.84,0,0,1,0-1.33,2.91,2.91,0,0,1,.78-1.36,3.57,3.57,0,0,1,.71-.58,2.56,2.56,0,0,1,.69-.35,2.36,2.36,0,0,1,.65-.12,2.65,2.65,0,0,1,1.6.35,2.13,2.13,0,0,1,.74.66,1.13,1.13,0,0,1,.57.4,3,3,0,0,1,.3,2.35l0,.16a.5.5,0,0,1,.15.12c.18.22.19.6,0,1.17a1.71,1.71,0,0,1-.52,1,3.17,3.17,0,0,1-1.91,2.23A2.18,2.18,0,0,1,18.58,34.35ZM15.9,30.12s-.15.13,0,.73.3.71.3.71h.2v.19a2.63,2.63,0,0,0,1.61,2,1.71,1.71,0,0,0,1.13,0,2.68,2.68,0,0,0,1.61-2l0-.2H21a2.25,2.25,0,0,0,.28-.7c.17-.6.06-.72.06-.72l-.37,0L21,29.8a3.46,3.46,0,0,0,.1-.35,2.54,2.54,0,0,0-.19-1.93.59.59,0,0,0-.37-.25l-.13,0-.07-.12a1.56,1.56,0,0,0-.6-.56,2.18,2.18,0,0,0-1.32-.28,1.85,1.85,0,0,0-.52.1,2.11,2.11,0,0,0-.57.29,3.14,3.14,0,0,0-.62.51,2.43,2.43,0,0,0-.65,1.14,2.39,2.39,0,0,0,0,1.11,3,3,0,0,0,.1.35l.12.37Z"/><path class="cls-4" d="M52.49,35.53a12.88,12.88,0,0,1-2.25-1.09l-1.08,3.43-.15.47L48.53,37c1.11-1.55-.09-1.63-.29-1.63s-1.41.08-.29,1.63l-.48,1.37-.15-.47-1.09-3.43A12.89,12.89,0,0,1,44,35.53c-1.55.56-1.45,1.84-1.48,4.23H54c0-2.39.05-3.67-1.49-4.23Zm0,0"/><path class="cls-4" d="M45.79,32.26a2.87,2.87,0,0,0,1.77,2.19,2,2,0,0,0,1.29,0,2.91,2.91,0,0,0,1.77-2.18c.14,0,.31-.2.5-.88.26-.92,0-1.06-.25-1A3.55,3.55,0,0,0,51,30c.4-2.4-.79-2.49-.79-2.49a1.84,1.84,0,0,0-.71-.66A2.4,2.4,0,0,0,48,26.51a2.08,2.08,0,0,0-.58.11,2.35,2.35,0,0,0-.64.33,3.29,3.29,0,0,0-.66.54,2.67,2.67,0,0,0-.72,1.25,2.63,2.63,0,0,0,0,1.22,3.19,3.19,0,0,0,.1.38c-.23,0-.52.11-.25,1,.18.68.35.87.49.88Zm0,0"/><path class="cls-5" d="M51.82,35.06A12.88,12.88,0,0,1,49.56,34l-1.08,3.43-.15.47-.48-1.37c1.11-1.55-.09-1.63-.29-1.63s-1.41.08-.29,1.63l-.48,1.37-.15-.47L45.55,34a12.89,12.89,0,0,1-2.25,1.09c-1.55.56-1.45,1.84-1.48,4.23h11.5c0-2.39.05-3.67-1.49-4.23Zm0,0"/><path class="cls-2" d="M53.56,39.53h-12v-.74c0-2.12,0-3.39,1.64-4a12.74,12.74,0,0,0,2.2-1.06l.28-.18,1.11,3.49.19-.55c-.42-.62-.54-1.1-.36-1.46a1.16,1.16,0,0,1,1.86,0c.18.36.07.83-.36,1.46l.19.54,1.1-3.49.28.18a12.76,12.76,0,0,0,2.2,1.06c1.6.58,1.62,1.86,1.65,4ZM42.06,39h11v-.22c0-2.18-.09-3.08-1.32-3.52h0a14.36,14.36,0,0,1-2-.94l-1.36,4.31-.78-2.2.08-.11c.49-.68.44-1,.39-1s-.35-.19-.48-.19-.41,0-.48.19-.1.36.39,1l.08.11-.77,2.2-1.37-4.31a14.42,14.42,0,0,1-2,.94c-1.24.45-1.29,1.34-1.32,3.51Z"/><path class="cls-5" d="M45.11,31.79A2.87,2.87,0,0,0,46.88,34a2,2,0,0,0,1.29,0,2.91,2.91,0,0,0,1.77-2.18c.14,0,.31-.2.5-.88.26-.92,0-1.06-.25-1a3.55,3.55,0,0,0,.1-.38c.4-2.4-.79-2.49-.79-2.49a1.84,1.84,0,0,0-.71-.66A2.4,2.4,0,0,0,47.34,26a2.08,2.08,0,0,0-.58.11,2.35,2.35,0,0,0-.64.33,3.29,3.29,0,0,0-.66.54,2.67,2.67,0,0,0-.72,1.25,2.63,2.63,0,0,0,0,1.22,3.19,3.19,0,0,0,.1.38c-.23,0-.52.11-.25,1,.18.68.35.87.49.88Zm0,0"/><path class="cls-2" d="M47.52,34.35a2.18,2.18,0,0,1-.73-.13A3.11,3.11,0,0,1,44.89,32a1.66,1.66,0,0,1-.51-1c-.17-.58-.16-1,0-1.18a.5.5,0,0,1,.14-.12l0-.14a2.83,2.83,0,0,1,0-1.33,2.89,2.89,0,0,1,.78-1.36,3.47,3.47,0,0,1,.71-.58,2.51,2.51,0,0,1,.69-.35,2.35,2.35,0,0,1,.65-.12,2.66,2.66,0,0,1,1.6.35,2.21,2.21,0,0,1,.73.66,1.13,1.13,0,0,1,.57.4,3,3,0,0,1,.3,2.35l0,.16a.5.5,0,0,1,.15.12c.18.22.19.6,0,1.17a1.7,1.7,0,0,1-.52,1,3.17,3.17,0,0,1-1.91,2.23A2.18,2.18,0,0,1,47.52,34.35Zm-2.69-4.23s-.15.13,0,.73.29.71.3.71h.2v.19a2.63,2.63,0,0,0,1.61,2,1.71,1.71,0,0,0,1.13,0,2.68,2.68,0,0,0,1.61-2l0-.2h.2a2.3,2.3,0,0,0,.28-.7c.17-.6.06-.72.06-.72l-.37,0L50,29.8a3.46,3.46,0,0,0,.1-.35,2.53,2.53,0,0,0-.19-1.93.6.6,0,0,0-.37-.25l-.13,0-.07-.12a1.64,1.64,0,0,0-.61-.56,2.19,2.19,0,0,0-1.32-.28,1.87,1.87,0,0,0-.52.1,2.09,2.09,0,0,0-.57.29,3.06,3.06,0,0,0-.62.51A2.42,2.42,0,0,0,45,28.33a2.38,2.38,0,0,0,0,1.11,3,3,0,0,0,.1.35l.12.37Z"/><path class="cls-4" d="M33.63,13.9h5.74c0-2.39.07-3.67-1.48-4.23a12.85,12.85,0,0,1-2.25-1.09L34.55,12l-.15.47-.48-1.37c1.11-1.55-.09-1.63-.29-1.63s-1.41.08-.29,1.63l-.48,1.37L32.7,12,31.61,8.58a12.85,12.85,0,0,1-2.25,1.09c-1.55.56-1.45,1.84-1.48,4.23Zm0,0"/><path class="cls-4" d="M31.19,6.4A2.87,2.87,0,0,0,33,8.6a2,2,0,0,0,1.29,0A2.91,2.91,0,0,0,36,6.41c.14,0,.31-.2.5-.88.26-.92,0-1.06-.25-1a3.5,3.5,0,0,0,.1-.38c.4-2.4-.79-2.49-.79-2.49A1.84,1.84,0,0,0,34.88,1,2.4,2.4,0,0,0,33.42.65a2.08,2.08,0,0,0-.58.11,2.36,2.36,0,0,0-.64.33,3.28,3.28,0,0,0-.66.54,2.68,2.68,0,0,0-.72,1.25,2.64,2.64,0,0,0,0,1.22,3.18,3.18,0,0,0,.1.38c-.23,0-.52.11-.25,1,.18.68.35.87.49.88Zm0,0"/><path class="cls-5" d="M33.09,13.51h5.74c0-2.39.07-3.67-1.48-4.23a12.85,12.85,0,0,1-2.25-1.09L34,11.62l-.15.47-.48-1.37c1.11-1.55-.09-1.63-.29-1.63s-1.41.08-.29,1.63l-.48,1.37-.15-.47L31.07,8.19a12.85,12.85,0,0,1-2.25,1.09c-1.55.56-1.45,1.84-1.48,4.23Zm0,0"/><path class="cls-2" d="M39.08,13.76h-12V13c0-2.12,0-3.39,1.64-4A12.7,12.7,0,0,0,30.93,8l.28-.18,1.11,3.49.19-.54c-.42-.62-.54-1.1-.36-1.46a1.16,1.16,0,0,1,1.85,0c.18.36.07.83-.36,1.46l.19.54L34.95,7.8l.28.18A12.72,12.72,0,0,0,37.43,9c1.6.58,1.62,1.85,1.64,4Zm-11.5-.5h11V13c0-2.16-.08-3.06-1.31-3.5a14.38,14.38,0,0,1-2-.95l-1.36,4.31-.78-2.2.08-.11c.49-.68.44-1,.39-1s-.35-.19-.48-.19-.41,0-.48.19-.1.36.39,1l.08.11-.78,2.2L30.92,8.57a14.44,14.44,0,0,1-2,.94c-1.24.45-1.3,1.34-1.32,3.51Z"/><path class="cls-5" d="M30.64,6a2.87,2.87,0,0,0,1.77,2.19,2,2,0,0,0,1.29,0A2.91,2.91,0,0,0,35.48,6c.14,0,.31-.2.5-.88.26-.92,0-1.06-.25-1a3.5,3.5,0,0,0,.1-.38c.4-2.4-.79-2.49-.79-2.49a1.84,1.84,0,0,0-.71-.66A2.4,2.4,0,0,0,32.88.26a2.08,2.08,0,0,0-.58.11,2.36,2.36,0,0,0-.64.33,3.28,3.28,0,0,0-.66.54,2.68,2.68,0,0,0-.72,1.25,2.64,2.64,0,0,0,0,1.22,3.18,3.18,0,0,0,.1.38c-.23,0-.52.11-.25,1,.18.68.35.87.49.88Zm0,0"/><path class="cls-2" d="M33.06,8.57a2.18,2.18,0,0,1-.73-.13A3.1,3.1,0,0,1,30.42,6.2c-.21-.13-.37-.44-.51-1s-.16-1,0-1.18a.5.5,0,0,1,.14-.12l0-.14a2.84,2.84,0,0,1,0-1.33,2.91,2.91,0,0,1,.78-1.36,3.48,3.48,0,0,1,.71-.58,2.53,2.53,0,0,1,.69-.35A2.33,2.33,0,0,1,32.87,0a2.69,2.69,0,0,1,1.6.35A2.2,2.2,0,0,1,35.2,1a1.13,1.13,0,0,1,.57.4,3,3,0,0,1,.3,2.35l0,.16a.5.5,0,0,1,.15.12c.18.22.19.6,0,1.17a1.7,1.7,0,0,1-.52,1,3.17,3.17,0,0,1-1.91,2.24A2.19,2.19,0,0,1,33.06,8.57ZM30.37,4.34s-.15.13,0,.73.29.7.3.71h.2V6A2.62,2.62,0,0,0,32.5,8a1.72,1.72,0,0,0,1.13,0,2.68,2.68,0,0,0,1.61-2l0-.2h.2a2.3,2.3,0,0,0,.28-.7c.17-.59.07-.72.06-.72l-.38,0L35.49,4a3.14,3.14,0,0,0,.09-.35,2.53,2.53,0,0,0-.19-1.93A.6.6,0,0,0,35,1.48l-.13,0-.07-.12a1.63,1.63,0,0,0-.61-.56A2.14,2.14,0,0,0,32.9.51a1.87,1.87,0,0,0-.52.1,2.08,2.08,0,0,0-.57.29,3.07,3.07,0,0,0-.62.51,2.43,2.43,0,0,0-.65,1.14,2.39,2.39,0,0,0,0,1.11,3,3,0,0,0,.1.35l.12.37Z"/><g class="cls-6"><polygon class="cls-7" points="29.91 26.8 26.73 23.66 31.15 23.04 33.15 19.04 35.11 23.06 39.53 23.72 36.31 26.83 37.05 31.24 33.1 29.14 29.13 31.2 29.91 26.8"/></g><g class="cls-6"><polygon class="cls-7" points="40.1 29.53 39.53 28.96 40.33 28.85 40.69 28.12 41.05 28.85 41.84 28.97 41.26 29.53 41.4 30.33 40.68 29.95 39.96 30.32 40.1 29.53"/></g><g class="cls-6"><polygon class="cls-7" points="26.47 19.34 26.22 19.09 26.57 19.04 26.73 18.72 26.88 19.04 27.23 19.09 26.98 19.34 27.04 19.69 26.72 19.52 26.41 19.69 26.47 19.34"/></g><g class="cls-6"><polygon class="cls-7" points="31.81 35.96 31.47 35.63 31.95 35.56 32.16 35.13 32.37 35.56 32.84 35.63 32.5 35.97 32.58 36.44 32.16 36.21 31.73 36.43 31.81 35.96"/></g><g class="cls-6"><circle class="cls-7" cx="22.3" cy="23.27" r="0.27"/></g><g class="cls-6"><circle class="cls-7" cx="25.88" cy="30.04" r="0.49"/></g><g class="cls-6"><circle class="cls-7" cx="38.04" cy="19.21" r="0.44"/></g></g></g></svg>