<svg xmlns="http://www.w3.org/2000/svg" viewBox="0 0 65.55 62.46"><defs><style>.cls-1{fill:#f04e24;}.cls-2{fill:#22366b;}.cls-3{fill:#bad5ea;}.cls-4{fill:#fff;}</style></defs><title>sr-level-adv</title><g id="Layer_2" data-name="Layer 2"><g id="final_icons_bios"><path class="cls-1" d="M32.7,41.06a16,16,0,0,1-3-.28.5.5,0,1,1,.19-1,15,15,0,0,0,2.78.26h.1a.48.48,0,0,1,.51.49.5.5,0,0,1-.49.51Zm3.08-.31a.5.5,0,0,1-.1-1,14.74,14.74,0,0,0,2.77-.86.5.5,0,0,1,.39.92,15.74,15.74,0,0,1-3,.91Zm-8.83-.8a.5.5,0,0,1-.19,0A15.91,15.91,0,0,1,24,38.48a.5.5,0,0,1,.55-.84A14.86,14.86,0,0,0,27.14,39a.5.5,0,0,1-.19,1Zm14.33-1.51a.5.5,0,0,1-.28-.91,15.07,15.07,0,0,0,2.23-1.85.5.5,0,1,1,.71.71,16,16,0,0,1-2.38,2A.5.5,0,0,1,41.27,38.44ZM22,36.68a.5.5,0,0,1-.35-.14,15.85,15.85,0,0,1-2-2.37.5.5,0,1,1,.82-.57,14.9,14.9,0,0,0,1.86,2.22.5.5,0,0,1-.35.86Zm23.51-2.47a.5.5,0,0,1-.42-.78,14.83,14.83,0,0,0,1.36-2.56.5.5,0,1,1,.92.38A15.81,15.81,0,0,1,45.89,34,.5.5,0,0,1,45.48,34.21ZM18.59,31.76a.5.5,0,0,1-.46-.3,15.76,15.76,0,0,1-.94-2.95.5.5,0,0,1,1-.21,14.78,14.78,0,0,0,.88,2.76.5.5,0,0,1-.46.7ZM47.75,28.7h-.1a.5.5,0,0,1-.39-.59,15,15,0,0,0,.28-2.88V24.8a.5.5,0,0,1,.49-.51h0a.5.5,0,0,1,.5.49v.44a15.88,15.88,0,0,1-.3,3.08A.5.5,0,0,1,47.75,28.7ZM17.35,25.93a.5.5,0,0,1-.5-.49v-.23a16,16,0,0,1,.26-2.85.5.5,0,0,1,1,.18,14.9,14.9,0,0,0-.24,2.68v.21a.5.5,0,0,1-.49.51Zm30.3-3.62a.5.5,0,0,1-.49-.39,14.8,14.8,0,0,0-.92-2.75.5.5,0,0,1,.91-.41,15.75,15.75,0,0,1,1,2.93.5.5,0,0,1-.38.6ZM18.43,20.07a.5.5,0,0,1-.46-.68,15.78,15.78,0,0,1,1.42-2.75.5.5,0,1,1,.84.54,14.82,14.82,0,0,0-1.33,2.58A.5.5,0,0,1,18.43,20.07Zm26.8-3.2a.5.5,0,0,1-.41-.21,15,15,0,0,0-1.9-2.19.5.5,0,1,1,.69-.72,16,16,0,0,1,2,2.34.5.5,0,0,1-.41.79ZM21.66,15.06a.5.5,0,0,1-.36-.85,15.93,15.93,0,0,1,2.35-2,.5.5,0,0,1,.57.82A15,15,0,0,0,22,14.91.5.5,0,0,1,21.66,15.06Zm19.25-2.3a.5.5,0,0,1-.27-.08,14.81,14.81,0,0,0-2.58-1.31.5.5,0,0,1,.36-.93,15.8,15.8,0,0,1,2.76,1.4.5.5,0,0,1-.27.92Zm-14.36-1.1a.5.5,0,0,1-.2-1,15.7,15.7,0,0,1,2.94-1,.5.5,0,1,1,.21,1,14.78,14.78,0,0,0-2.75.9A.49.49,0,0,1,26.55,11.66Zm8.81-1.05h-.09a14.93,14.93,0,0,0-2.57-.22h-.31a.53.53,0,0,1-.51-.49.5.5,0,0,1,.49-.51h.34a16,16,0,0,1,2.75.24.5.5,0,0,1-.08,1Z"/><path class="cls-2" d="M11.3,54l.23-.4a.15.15,0,0,1,.22,0,2.14,2.14,0,0,0,1,.4.54.54,0,0,0,.59-.5c0-.33-.28-.56-.82-.77s-1.21-.63-1.21-1.39a1.29,1.29,0,0,1,1.45-1.24,2.28,2.28,0,0,1,1.29.43.16.16,0,0,1,0,.21l-.25.37a.17.17,0,0,1-.23.08,2.12,2.12,0,0,0-.9-.35.51.51,0,0,0-.57.45c0,.3.24.51.76.72s1.35.63,1.35,1.46a1.36,1.36,0,0,1-1.48,1.28,2.08,2.08,0,0,1-1.42-.5C11.27,54.15,11.24,54.12,11.3,54Z"/><path class="cls-2" d="M15.06,50.25a.12.12,0,0,1,.12-.12h2.63a.12.12,0,0,1,.12.12v.53a.12.12,0,0,1-.12.12H15.9V52h1.59a.13.13,0,0,1,.12.12v.54a.12.12,0,0,1-.12.12H15.9v1.13h1.91a.12.12,0,0,1,.12.12v.53a.12.12,0,0,1-.12.12H15.18a.12.12,0,0,1-.12-.12Z"/><path class="cls-2" d="M18.86,50.18a.12.12,0,0,1,.12-.12h.16l2.69,2.85h0V50.25a.12.12,0,0,1,.12-.12h.59a.13.13,0,0,1,.12.12v4.34a.12.12,0,0,1-.12.12H22.4l-2.7-3h0v2.78a.12.12,0,0,1-.12.12H19a.13.13,0,0,1-.12-.12Z"/><path class="cls-2" d="M23.85,50.25a.13.13,0,0,1,.12-.12h.6a.13.13,0,0,1,.12.12v4.27a.13.13,0,0,1-.12.12H24a.13.13,0,0,1-.12-.12Z"/><path class="cls-2" d="M27.87,50.06a2.32,2.32,0,1,1-2.32,2.33A2.32,2.32,0,0,1,27.87,50.06Zm0,3.81a1.48,1.48,0,1,0-1.48-1.48A1.49,1.49,0,0,0,27.87,53.87Z"/><path class="cls-2" d="M31,50.25a.12.12,0,0,1,.12-.12H33a1.4,1.4,0,0,1,1.41,1.39,1.42,1.42,0,0,1-1,1.3l.88,1.64a.12.12,0,0,1-.11.19h-.68a.11.11,0,0,1-.1-.06l-.86-1.71h-.72v1.65a.13.13,0,0,1-.12.12h-.59a.12.12,0,0,1-.12-.12Zm1.9,1.94a.66.66,0,0,0,.64-.66.64.64,0,0,0-.64-.63H31.88v1.28Z"/><path class="cls-2" d="M36.77,50.25a.12.12,0,0,1,.12-.12h.59a.13.13,0,0,1,.12.12v3.62h1.65a.12.12,0,0,1,.12.12v.53a.12.12,0,0,1-.12.12H36.89a.12.12,0,0,1-.12-.12Z"/><path class="cls-2" d="M40,50.25a.12.12,0,0,1,.12-.12h2.63a.12.12,0,0,1,.12.12v.53a.12.12,0,0,1-.12.12H40.87V52h1.59a.13.13,0,0,1,.12.12v.54a.12.12,0,0,1-.12.12H40.87v1.13h1.91a.12.12,0,0,1,.12.12v.53a.12.12,0,0,1-.12.12H40.15a.12.12,0,0,1-.12-.12Z"/><path class="cls-2" d="M43.24,50.29a.11.11,0,0,1,.11-.17H44a.12.12,0,0,1,.11.07L45.36,53h0l1.24-2.78a.12.12,0,0,1,.11-.07h.66a.11.11,0,0,1,.11.17l-2,4.34a.12.12,0,0,1-.11.07h-.06a.12.12,0,0,1-.11-.07Z"/><path class="cls-2" d="M48.11,50.25a.12.12,0,0,1,.12-.12h2.63a.12.12,0,0,1,.12.12v.53a.12.12,0,0,1-.12.12H48.95V52h1.59a.13.13,0,0,1,.12.12v.54a.12.12,0,0,1-.12.12H48.95v1.13h1.91A.12.12,0,0,1,51,54v.53a.12.12,0,0,1-.12.12H48.23a.12.12,0,0,1-.12-.12Z"/><path class="cls-2" d="M51.91,50.25a.12.12,0,0,1,.12-.12h.59a.13.13,0,0,1,.12.12v3.62h1.65a.12.12,0,0,1,.12.12v.53a.12.12,0,0,1-.12.12H52a.12.12,0,0,1-.12-.12Z"/><path class="cls-2" d="M18.64,62.23l2-4.34a.11.11,0,0,1,.11-.07h.06a.11.11,0,0,1,.11.07l2,4.34a.11.11,0,0,1-.11.17h-.56a.19.19,0,0,1-.19-.13l-.32-.7H19.81l-.32.7a.19.19,0,0,1-.19.13h-.56A.11.11,0,0,1,18.64,62.23Zm2.79-1.37-.65-1.42h0l-.63,1.42Z"/><path class="cls-2" d="M23.5,58a.12.12,0,0,1,.12-.12h1.53a2.26,2.26,0,1,1,0,4.52H23.62a.12.12,0,0,1-.12-.12Zm1.57,3.61a1.48,1.48,0,0,0,0-2.95h-.74v2.95Z"/><path class="cls-2" d="M27.65,58a.11.11,0,0,1,.11-.17h.66a.12.12,0,0,1,.11.07l1.24,2.78h0L31,57.95a.12.12,0,0,1,.11-.07h.66a.11.11,0,0,1,.11.17l-2,4.34a.12.12,0,0,1-.11.07h-.06a.12.12,0,0,1-.11-.07Z"/><path class="cls-2" d="M32.51,58a.13.13,0,0,1,.12-.12h.6a.13.13,0,0,1,.12.12v4.27a.13.13,0,0,1-.12.12h-.6a.13.13,0,0,1-.12-.12Z"/><path class="cls-2" d="M34.27,61.76l.23-.4a.15.15,0,0,1,.22,0,2.14,2.14,0,0,0,1,.4.54.54,0,0,0,.59-.5c0-.33-.28-.56-.82-.77s-1.21-.63-1.21-1.39a1.29,1.29,0,0,1,1.45-1.24,2.28,2.28,0,0,1,1.29.43.16.16,0,0,1,0,.21l-.25.37a.17.17,0,0,1-.23.08,2.12,2.12,0,0,0-.9-.35.51.51,0,0,0-.57.45c0,.3.24.51.76.72s1.35.63,1.35,1.46a1.36,1.36,0,0,1-1.48,1.28A2.08,2.08,0,0,1,34.3,62C34.25,61.9,34.21,61.87,34.27,61.76Z"/><path class="cls-2" d="M40,57.81a2.32,2.32,0,1,1-2.32,2.33A2.32,2.32,0,0,1,40,57.81Zm0,3.81a1.48,1.48,0,1,0-1.48-1.48A1.49,1.49,0,0,0,40,61.62Z"/><path class="cls-2" d="M43.2,58a.12.12,0,0,1,.12-.12h1.85a1.4,1.4,0,0,1,1.41,1.39,1.42,1.42,0,0,1-1,1.3l.88,1.64a.12.12,0,0,1-.11.19h-.68a.11.11,0,0,1-.1-.06l-.86-1.71H44v1.65a.13.13,0,0,1-.12.12h-.59a.12.12,0,0,1-.12-.12Zm1.9,1.94a.66.66,0,0,0,.64-.66.64.64,0,0,0-.64-.63H44v1.28Z"/><path class="cls-2" d="M65.05,44.16H.5a.5.5,0,0,1,0-1H65.05a.5.5,0,0,1,0,1Z"/><path class="cls-3" d="M23.33,35.19a12.76,12.76,0,0,1-2.23-1.08L20,37.51l-.15.46-.48-1.36c1.1-1.54-.09-1.62-.29-1.62s-1.39.08-.29,1.62L18.35,38l-.15-.46-1.08-3.39a12.76,12.76,0,0,1-2.23,1.08c-1.54.56-1.44,1.82-1.47,4.19H24.81c0-2.37.05-3.63-1.48-4.19Zm0,0"/><path class="cls-3" d="M16.69,32a2.84,2.84,0,0,0,1.75,2.17,1.94,1.94,0,0,0,1.28,0A2.88,2.88,0,0,0,21.48,32c.14,0,.31-.2.5-.87.26-.91,0-1.05-.25-1a3.67,3.67,0,0,0,.1-.38c.39-2.38-.78-2.46-.78-2.46a1.74,1.74,0,0,0-.7-.66,2.38,2.38,0,0,0-1.44-.31,2.06,2.06,0,0,0-.57.11,2.33,2.33,0,0,0-.63.32,3.27,3.27,0,0,0-.65.54,2.65,2.65,0,0,0-.71,1.24,2.61,2.61,0,0,0,0,1.21,3.18,3.18,0,0,0,.1.38c-.23,0-.51.11-.25,1,.18.68.36.86.49.87Zm0,0"/><path class="cls-4" d="M22.66,34.72a12.76,12.76,0,0,1-2.23-1.08L19.36,37l-.15.46-.48-1.36c1.1-1.54-.09-1.62-.29-1.62s-1.39.08-.29,1.62l-.48,1.36L17.53,37l-1.08-3.39a12.76,12.76,0,0,1-2.23,1.08c-1.54.56-1.44,1.82-1.47,4.19H24.14c0-2.37.05-3.63-1.48-4.19Zm0,0"/><path class="cls-2" d="M24.39,39.16H12.5v-.74c0-2.1,0-3.36,1.63-3.94a12.6,12.6,0,0,0,2.18-1.05l.28-.18,1.1,3.45.19-.53c-.42-.62-.53-1.09-.35-1.45a1.16,1.16,0,0,1,1.84,0c.18.35.07.83-.35,1.45l.19.53,1.09-3.45.28.18a12.66,12.66,0,0,0,2.18,1.05c1.59.58,1.6,1.85,1.63,3.95ZM13,38.66H23.89v-.22c0-2.15-.09-3-1.31-3.49h0a14.4,14.4,0,0,1-2-.93l-1.34,4.27-.77-2.19.08-.11c.48-.67.43-.95.39-1s-.34-.19-.48-.19-.4,0-.48.19-.09.36.39,1l.08.11-.77,2.19L16.31,34a14.33,14.33,0,0,1-2,.93c-1.22.44-1.28,1.33-1.3,3.47Z"/><path class="cls-4" d="M16,31.49a2.84,2.84,0,0,0,1.75,2.17,1.94,1.94,0,0,0,1.28,0,2.88,2.88,0,0,0,1.75-2.16c.14,0,.31-.2.5-.87.26-.91,0-1.05-.25-1a3.67,3.67,0,0,0,.1-.38c.39-2.38-.78-2.46-.78-2.46a1.74,1.74,0,0,0-.7-.66,2.38,2.38,0,0,0-1.44-.31,2.06,2.06,0,0,0-.57.11,2.33,2.33,0,0,0-.63.32,3.27,3.27,0,0,0-.65.54A2.65,2.65,0,0,0,15.67,28a2.61,2.61,0,0,0,0,1.21,3.18,3.18,0,0,0,.1.38c-.23,0-.51.11-.25,1,.18.68.36.86.49.87Zm0,0"/><path class="cls-2" d="M18.41,34a2.15,2.15,0,0,1-.72-.12,3.08,3.08,0,0,1-1.89-2.23,1.68,1.68,0,0,1-.51-1c-.17-.58-.15-.95,0-1.17a.49.49,0,0,1,.14-.12l0-.14a2.81,2.81,0,0,1,0-1.32,2.88,2.88,0,0,1,.77-1.35,3.5,3.5,0,0,1,.7-.58,2.52,2.52,0,0,1,.68-.35,2.34,2.34,0,0,1,.64-.12,2.67,2.67,0,0,1,1.58.34,2.1,2.1,0,0,1,.73.65,1.12,1.12,0,0,1,.57.4,3,3,0,0,1,.3,2.33l0,.15a.5.5,0,0,1,.14.12c.18.22.19.59,0,1.16a1.7,1.7,0,0,1-.52,1,3.15,3.15,0,0,1-1.89,2.21A2.17,2.17,0,0,1,18.41,34Zm-2.66-4.19s-.15.13,0,.72.3.7.3.7h.2v.19a2.6,2.6,0,0,0,1.59,2,1.69,1.69,0,0,0,1.12,0,2.65,2.65,0,0,0,1.59-2l0-.2h.2a2.26,2.26,0,0,0,.27-.69c.17-.59.06-.71.06-.71l-.37,0,.07-.36c0-.12.07-.24.1-.35a2.5,2.5,0,0,0-.19-1.91.59.59,0,0,0-.37-.25l-.13,0-.07-.12a1.54,1.54,0,0,0-.6-.55,2.14,2.14,0,0,0-1.3-.28,1.82,1.82,0,0,0-.51.1,2.09,2.09,0,0,0-.57.29,3.09,3.09,0,0,0-.62.51,2.4,2.4,0,0,0-.65,1.12,2.36,2.36,0,0,0,0,1.1,3.13,3.13,0,0,0,.09.35l.12.37Z"/><path class="cls-3" d="M52,35.19a12.76,12.76,0,0,1-2.23-1.08l-1.07,3.39-.15.46-.48-1.36C49.17,35.07,48,35,47.78,35s-1.39.08-.29,1.62L47,38l-.15-.46-1.08-3.39a12.76,12.76,0,0,1-2.23,1.08c-1.54.56-1.44,1.82-1.47,4.19H53.47c0-2.37.05-3.63-1.48-4.19Zm0,0"/><path class="cls-3" d="M45.35,32a2.84,2.84,0,0,0,1.75,2.17,1.94,1.94,0,0,0,1.28,0A2.88,2.88,0,0,0,50.14,32c.14,0,.31-.2.5-.87.26-.91,0-1.05-.25-1a3.51,3.51,0,0,0,.1-.38c.39-2.38-.78-2.46-.78-2.46a1.83,1.83,0,0,0-.7-.66,2.38,2.38,0,0,0-1.44-.31,2.06,2.06,0,0,0-.57.11,2.33,2.33,0,0,0-.63.32,3.26,3.26,0,0,0-.65.54A2.65,2.65,0,0,0,45,28.47a2.61,2.61,0,0,0,0,1.21,3.16,3.16,0,0,0,.1.38c-.23,0-.51.11-.25,1,.18.68.35.86.49.87Zm0,0"/><path class="cls-4" d="M51.32,34.72a12.76,12.76,0,0,1-2.23-1.08L48,37l-.15.46-.48-1.36c1.1-1.54-.09-1.62-.29-1.62s-1.39.08-.29,1.62l-.48,1.36L46.19,37l-1.08-3.39a12.76,12.76,0,0,1-2.23,1.08c-1.54.56-1.44,1.82-1.47,4.19H52.8c0-2.37.05-3.63-1.48-4.19Zm0,0"/><path class="cls-2" d="M53.06,39.16H41.16v-.74c0-2.1,0-3.36,1.63-3.94A12.6,12.6,0,0,0,45,33.44l.28-.18,1.1,3.46.19-.53c-.42-.62-.53-1.09-.35-1.45a1.15,1.15,0,0,1,1.84,0c.18.35.07.83-.35,1.45l.19.53L49,33.26l.28.18a12.66,12.66,0,0,0,2.18,1.05C53,35.06,53,36.33,53,38.44Zm-11.39-.5H52.55v-.22c0-2.15-.09-3-1.31-3.49h0a14.4,14.4,0,0,1-2-.93l-1.34,4.27-.77-2.19L47.2,36c.48-.67.43-.95.39-1s-.34-.19-.48-.19-.4,0-.48.19-.09.36.39,1l.08.11-.77,2.19L45,34A14.33,14.33,0,0,1,43,35c-1.22.44-1.28,1.33-1.3,3.47Z"/><path class="cls-4" d="M44.68,31.49a2.84,2.84,0,0,0,1.75,2.17,1.94,1.94,0,0,0,1.28,0,2.88,2.88,0,0,0,1.75-2.16c.14,0,.31-.2.5-.87.26-.91,0-1.05-.25-1a3.51,3.51,0,0,0,.1-.38c.39-2.38-.78-2.46-.78-2.46a1.83,1.83,0,0,0-.7-.66,2.38,2.38,0,0,0-1.44-.31,2.06,2.06,0,0,0-.57.11,2.33,2.33,0,0,0-.63.32,3.26,3.26,0,0,0-.65.54A2.65,2.65,0,0,0,44.33,28a2.61,2.61,0,0,0,0,1.21,3.16,3.16,0,0,0,.1.38c-.23,0-.51.11-.25,1,.18.68.35.86.49.87Zm0,0"/><path class="cls-2" d="M47.07,34a2.15,2.15,0,0,1-.72-.12,3.08,3.08,0,0,1-1.89-2.22,1.65,1.65,0,0,1-.51-1c-.17-.58-.15-.95,0-1.17a.51.51,0,0,1,.14-.12l0-.14a2.8,2.8,0,0,1,0-1.32,2.88,2.88,0,0,1,.77-1.35,3.5,3.5,0,0,1,.7-.58,2.52,2.52,0,0,1,.68-.35,2.34,2.34,0,0,1,.64-.12,2.68,2.68,0,0,1,1.58.34,2.18,2.18,0,0,1,.73.65,1.12,1.12,0,0,1,.57.4,3,3,0,0,1,.3,2.33l0,.15a.48.48,0,0,1,.14.12c.18.22.19.59,0,1.16a1.69,1.69,0,0,1-.52,1A3.14,3.14,0,0,1,47.8,33.9,2.17,2.17,0,0,1,47.07,34Zm-2.66-4.19s-.15.13,0,.72.29.7.29.7h.2v.19a2.6,2.6,0,0,0,1.59,2,1.69,1.69,0,0,0,1.12,0,2.65,2.65,0,0,0,1.59-2l0-.2h.2a2.26,2.26,0,0,0,.27-.69c.17-.59.06-.71.06-.71l-.37,0,.07-.36a3.38,3.38,0,0,0,.1-.35,2.5,2.5,0,0,0-.19-1.91A.59.59,0,0,0,49,27l-.13,0-.07-.12a1.61,1.61,0,0,0-.6-.56,2.17,2.17,0,0,0-1.3-.28,1.85,1.85,0,0,0-.51.1,2.09,2.09,0,0,0-.57.29,3.09,3.09,0,0,0-.62.51,2.4,2.4,0,0,0-.65,1.12,2.36,2.36,0,0,0,0,1.1,3,3,0,0,0,.09.35l.12.37Z"/><path class="cls-3" d="M33.31,13.77H39c0-2.37.07-3.63-1.47-4.19A12.72,12.72,0,0,1,35.3,8.5l-1.08,3.39-.15.46L33.59,11c1.1-1.54-.09-1.62-.29-1.62S31.91,9.46,33,11l-.48,1.36-.15-.46L31.31,8.5a12.72,12.72,0,0,1-2.23,1.08c-1.54.56-1.44,1.82-1.47,4.19Zm0,0"/><path class="cls-3" d="M30.89,6.35a2.84,2.84,0,0,0,1.75,2.17,1.94,1.94,0,0,0,1.28,0,2.88,2.88,0,0,0,1.75-2.16c.14,0,.31-.2.5-.87.26-.91,0-1.05-.25-1a3.47,3.47,0,0,0,.1-.38c.39-2.38-.78-2.46-.78-2.46a1.82,1.82,0,0,0-.7-.66A2.38,2.38,0,0,0,33.11.64a2.06,2.06,0,0,0-.57.11,2.34,2.34,0,0,0-.63.32,3.25,3.25,0,0,0-.65.54,2.65,2.65,0,0,0-.71,1.24,2.62,2.62,0,0,0,0,1.21,3.15,3.15,0,0,0,.1.38c-.23,0-.51.11-.25,1,.18.68.35.86.49.87Zm0,0"/><path class="cls-4" d="M32.77,13.38h5.69c0-2.37.07-3.63-1.47-4.19a12.72,12.72,0,0,1-2.23-1.08l-1.08,3.39-.15.46-.48-1.36C34.16,9.08,33,9,32.76,9s-1.39.08-.29,1.62L32,12l-.15-.46L30.77,8.12a12.72,12.72,0,0,1-2.23,1.08C27,9.75,27.1,11,27.07,13.38Zm0,0"/><path class="cls-2" d="M38.71,13.63H26.82V12.9c0-2.1,0-3.36,1.63-3.94a12.58,12.58,0,0,0,2.18-1.05l.28-.18L32,11.18l.19-.53c-.42-.62-.53-1.09-.35-1.45a1.15,1.15,0,0,1,1.84,0c.18.35.07.83-.35,1.45l.19.53,1.1-3.46.28.18A12.6,12.6,0,0,0,37.08,9c1.59.57,1.6,1.84,1.63,3.94Zm-11.39-.5H38.21V12.9c0-2.15-.08-3-1.3-3.47a14.3,14.3,0,0,1-2-.93l-1.35,4.27-.77-2.19.08-.11c.48-.67.43-.95.39-1s-.34-.19-.48-.19-.4,0-.48.19-.09.36.39,1l.08.11L32,12.76,30.63,8.5a14.34,14.34,0,0,1-2,.93c-1.22.44-1.28,1.33-1.3,3.47Z"/><path class="cls-4" d="M30.35,6a2.84,2.84,0,0,0,1.75,2.17,1.94,1.94,0,0,0,1.28,0A2.88,2.88,0,0,0,35.14,6c.14,0,.31-.2.5-.87.26-.91,0-1.05-.25-1a3.47,3.47,0,0,0,.1-.38c.39-2.38-.78-2.46-.78-2.46A1.82,1.82,0,0,0,34,.57,2.38,2.38,0,0,0,32.57.26,2.06,2.06,0,0,0,32,.37a2.34,2.34,0,0,0-.63.32,3.25,3.25,0,0,0-.65.54A2.65,2.65,0,0,0,30,2.47a2.62,2.62,0,0,0,0,1.21,3.15,3.15,0,0,0,.1.38c-.23,0-.51.11-.25,1,.18.68.35.86.49.87Zm0,0"/><path class="cls-2" d="M32.75,8.49A2.18,2.18,0,0,1,32,8.37a3.08,3.08,0,0,1-1.89-2.22,1.65,1.65,0,0,1-.51-1c-.17-.57-.15-.95,0-1.17a.5.5,0,0,1,.14-.12l0-.14a2.82,2.82,0,0,1,0-1.32,2.87,2.87,0,0,1,.77-1.35,3.48,3.48,0,0,1,.7-.58,2.48,2.48,0,0,1,.68-.35A2.29,2.29,0,0,1,32.56,0a2.64,2.64,0,0,1,1.58.34,2.18,2.18,0,0,1,.73.65,1.12,1.12,0,0,1,.57.4,3,3,0,0,1,.3,2.33l0,.15a.49.49,0,0,1,.14.12c.18.22.19.59,0,1.16a1.68,1.68,0,0,1-.52,1,3.15,3.15,0,0,1-1.89,2.21A2.18,2.18,0,0,1,32.75,8.49ZM30.09,4.31s-.15.13,0,.72.29.7.29.7h.2v.19a2.6,2.6,0,0,0,1.59,2,1.71,1.71,0,0,0,1.12,0,2.65,2.65,0,0,0,1.59-2l0-.2h.2A2.25,2.25,0,0,0,35.4,5c.17-.59.06-.71.06-.71l-.37,0L35.15,4a3.36,3.36,0,0,0,.1-.35,2.51,2.51,0,0,0-.19-1.91.59.59,0,0,0-.37-.25l-.13,0-.07-.12a1.6,1.6,0,0,0-.6-.56,2.19,2.19,0,0,0-1.3-.28,1.83,1.83,0,0,0-.51.1,2,2,0,0,0-.57.29,3,3,0,0,0-.62.51,2.39,2.39,0,0,0-.65,1.12,2.38,2.38,0,0,0,0,1.1,3.08,3.08,0,0,0,.09.35l.12.37Z"/></g></g></svg>