<svg xmlns="http://www.w3.org/2000/svg" viewBox="0 0 92.19 63"><defs><style>.cls-1{fill:#f04e24;}.cls-2{fill:#22366b;}.cls-3{fill:#f04d23;}.cls-4{fill:#bad5ea;}.cls-5{fill:#fff;}.cls-6{opacity:0.52;}.cls-7{fill:#79b1e0;}</style></defs><title>stakeh-expert</title><g id="Layer_2" data-name="Layer 2"><g id="final_icons_bios"><path class="cls-1" d="M45.91,41.45a16.19,16.19,0,0,1-2.73-.23.5.5,0,1,1,.17-1,15.24,15.24,0,0,0,2.56.22h.33a.52.52,0,0,1,.51.49.5.5,0,0,1-.49.51Zm3.32-.35a.5.5,0,0,1-.11-1,14.87,14.87,0,0,0,2.76-.89.5.5,0,1,1,.4.92,15.9,15.9,0,0,1-2.94,1Zm-8.85-.66a.5.5,0,0,1-.18,0A16,16,0,0,1,37.43,39a.5.5,0,0,1,.53-.85,14.94,14.94,0,0,0,2.59,1.29.5.5,0,0,1-.18,1Zm14.32-1.71a.5.5,0,0,1-.28-.91,15.06,15.06,0,0,0,2.22-1.87.5.5,0,0,1,.71.7,16.15,16.15,0,0,1-2.36,2A.5.5,0,0,1,54.69,38.72ZM35.33,37.27a.5.5,0,0,1-.34-.14,16.14,16.14,0,0,1-2-2.32.5.5,0,0,1,.81-.59,15.13,15.13,0,0,0,1.92,2.18.5.5,0,0,1-.34.86Zm23.54-2.81a.5.5,0,0,1-.42-.77,15,15,0,0,0,1.35-2.56.5.5,0,1,1,.93.38,16.05,16.05,0,0,1-1.44,2.74A.5.5,0,0,1,58.86,34.46Zm-27-2a.5.5,0,0,1-.45-.29,15.9,15.9,0,0,1-1-2.92.5.5,0,0,1,1-.23,14.88,14.88,0,0,0,1,2.74.5.5,0,0,1-.45.71Zm29.28-3.5H61a.5.5,0,0,1-.4-.59,15.07,15.07,0,0,0,.28-2.89q0-.67-.06-1.32a.5.5,0,0,1,1-.09c0,.46.06.93.06,1.41a16.12,16.12,0,0,1-.3,3.08A.5.5,0,0,1,61.11,28.94Zm-30.68-2.3a.5.5,0,0,1-.5-.48c0-.23,0-.47,0-.7a16.16,16.16,0,0,1,.18-2.38.5.5,0,1,1,1,.15,15.23,15.23,0,0,0-.17,2.23q0,.33,0,.66a.5.5,0,0,1-.48.52Zm30.36-5a.5.5,0,0,1-.48-.36,14.89,14.89,0,0,0-1.07-2.69.5.5,0,0,1,.89-.46A16,16,0,0,1,61.28,21a.5.5,0,0,1-.34.62Zm-29.48-.9a.49.49,0,0,1-.17,0,.5.5,0,0,1-.3-.64,15.94,15.94,0,0,1,1.32-2.8.5.5,0,0,1,.86.51,14.94,14.94,0,0,0-1.24,2.62A.5.5,0,0,1,31.32,20.75Zm26.75-4.4a.5.5,0,0,1-.39-.19,15.09,15.09,0,0,0-2-2.09.5.5,0,0,1,.65-.76,16.05,16.05,0,0,1,2.14,2.23.5.5,0,0,1-.39.81Zm-23.69-.73a.5.5,0,0,1-.37-.83,16.11,16.11,0,0,1,2.27-2.09.5.5,0,0,1,.6.8,15.07,15.07,0,0,0-2.13,2A.5.5,0,0,1,34.37,15.63Zm19.17-3.15a.5.5,0,0,1-.25-.06,14.92,14.92,0,0,0-2.65-1.18.5.5,0,1,1,.31-.95,15.93,15.93,0,0,1,2.83,1.26.5.5,0,0,1-.25.94ZM39.13,12a.5.5,0,0,1-.22-.95A15.91,15.91,0,0,1,41.81,10a.5.5,0,0,1,.26,1,14.91,14.91,0,0,0-2.71,1A.5.5,0,0,1,39.13,12Zm8.75-1.44h-.06a15.34,15.34,0,0,0-2.9-.09.52.52,0,0,1-.53-.47.5.5,0,0,1,.47-.53,16.31,16.31,0,0,1,3.09.09.5.5,0,0,1-.06,1Z"/><path class="cls-2" d="M0,54.53l.23-.4a.15.15,0,0,1,.22,0,2.15,2.15,0,0,0,1,.4.54.54,0,0,0,.59-.5c0-.33-.28-.56-.83-.78S0,52.56,0,51.8a1.3,1.3,0,0,1,1.47-1.25,2.29,2.29,0,0,1,1.3.44.16.16,0,0,1,0,.21l-.25.37a.17.17,0,0,1-.23.08,2.14,2.14,0,0,0-.91-.36.52.52,0,0,0-.57.46c0,.31.24.51.77.73S3,53.11,3,53.95a1.38,1.38,0,0,1-1.5,1.29,2.1,2.1,0,0,1-1.43-.51C0,54.67,0,54.64,0,54.53Z"/><path class="cls-2" d="M4.44,51.39h-1a.12.12,0,0,1-.12-.12v-.53a.12.12,0,0,1,.12-.12H6.29a.12.12,0,0,1,.12.12v.53a.12.12,0,0,1-.12.12h-1V55a.13.13,0,0,1-.12.12H4.57A.13.13,0,0,1,4.44,55Z"/><path class="cls-2" d="M6.26,55l2-4.38a.12.12,0,0,1,.11-.07h.07a.11.11,0,0,1,.11.07l2,4.38a.11.11,0,0,1-.11.17H9.9A.19.19,0,0,1,9.71,55l-.32-.7H7.44l-.32.7a.19.19,0,0,1-.19.13H6.37A.11.11,0,0,1,6.26,55Zm2.81-1.39-.65-1.43h0l-.64,1.43Z"/><path class="cls-2" d="M11.17,50.77a.15.15,0,0,1,.16-.16h.57a.16.16,0,0,1,.16.16v1.76l1.64-1.85a.16.16,0,0,1,.12-.07h.65a.14.14,0,0,1,.1.23l-1.7,1.92,1.82,2.18a.14.14,0,0,1-.12.23h-.71a.14.14,0,0,1-.12,0L12.06,53v2a.16.16,0,0,1-.16.16h-.57a.15.15,0,0,1-.16-.16Z"/><path class="cls-2" d="M15.43,50.73a.12.12,0,0,1,.12-.12H18.2a.12.12,0,0,1,.12.12v.53a.12.12,0,0,1-.12.12H16.27v1.07h1.61a.13.13,0,0,1,.12.12v.54a.12.12,0,0,1-.12.12H16.27v1.14H18.2a.12.12,0,0,1,.12.12V55a.12.12,0,0,1-.12.12H15.55a.12.12,0,0,1-.12-.12Z"/><path class="cls-2" d="M19.26,50.73a.13.13,0,0,1,.12-.12H20a.12.12,0,0,1,.12.12v1.73h2.12V50.73a.12.12,0,0,1,.12-.12H23a.13.13,0,0,1,.12.12V55a.13.13,0,0,1-.12.12h-.6a.12.12,0,0,1-.12-.12v-1.8H20.11V55a.12.12,0,0,1-.12.12h-.61a.13.13,0,0,1-.12-.12Z"/><path class="cls-2" d="M26.29,50.54a2.35,2.35,0,1,1-2.34,2.35A2.34,2.34,0,0,1,26.29,50.54Zm0,3.84A1.5,1.5,0,1,0,24.8,52.9,1.5,1.5,0,0,0,26.29,54.39Z"/><path class="cls-2" d="M29.49,50.73a.12.12,0,0,1,.12-.12h.6a.13.13,0,0,1,.12.12v3.66H32a.12.12,0,0,1,.12.12V55a.12.12,0,0,1-.12.12H29.61a.12.12,0,0,1-.12-.12Z"/><path class="cls-2" d="M32.78,50.73a.12.12,0,0,1,.12-.12h1.54a2.28,2.28,0,1,1,0,4.56H32.9a.12.12,0,0,1-.12-.12Zm1.58,3.64a1.49,1.49,0,0,0,0-3h-.74v3Z"/><path class="cls-2" d="M37.6,50.73a.12.12,0,0,1,.12-.12h2.65a.12.12,0,0,1,.12.12v.53a.12.12,0,0,1-.12.12H38.44v1.07h1.61a.13.13,0,0,1,.12.12v.54a.12.12,0,0,1-.12.12H38.44v1.14h1.93a.12.12,0,0,1,.12.12V55a.12.12,0,0,1-.12.12H37.72A.12.12,0,0,1,37.6,55Z"/><path class="cls-2" d="M41.43,50.73a.12.12,0,0,1,.12-.12h1.86A1.41,1.41,0,0,1,44.84,52a1.44,1.44,0,0,1-1,1.32L44.77,55a.12.12,0,0,1-.11.19H44a.11.11,0,0,1-.1-.06L43,53.39h-.72V55a.13.13,0,0,1-.12.12h-.6a.12.12,0,0,1-.12-.12Zm1.92,2A.66.66,0,0,0,44,52a.65.65,0,0,0-.64-.63H42.28v1.3Z"/><path class="cls-2" d="M47.69,50.64a.11.11,0,0,1,.12-.1h.1a.12.12,0,0,1,.11.06l1.43,3.08h0l1.43-3.08a.11.11,0,0,1,.11-.06h.1a.11.11,0,0,1,.12.1L52,55a.11.11,0,0,1-.12.15H51.3a.14.14,0,0,1-.12-.1l-.38-2.47h0l-1.14,2.56a.11.11,0,0,1-.11.07H49.4a.12.12,0,0,1-.11-.07L48.14,52.6h0l-.38,2.47a.13.13,0,0,1-.12.1H47a.12.12,0,0,1-.12-.15Z"/><path class="cls-2" d="M52.31,55l2-4.38a.12.12,0,0,1,.11-.07h.07a.11.11,0,0,1,.11.07l2,4.38a.11.11,0,0,1-.11.17H56a.19.19,0,0,1-.19-.13l-.32-.7H53.5l-.32.7a.19.19,0,0,1-.19.13h-.57A.11.11,0,0,1,52.31,55Zm2.81-1.39-.65-1.43h0l-.64,1.43Z"/><path class="cls-2" d="M57.23,50.66a.12.12,0,0,1,.12-.12h.16l2.71,2.88h0V50.73a.12.12,0,0,1,.12-.12H61a.13.13,0,0,1,.12.12v4.38a.12.12,0,0,1-.12.12H60.8l-2.72-3h0V55a.12.12,0,0,1-.12.12h-.59a.13.13,0,0,1-.12-.12Z"/><path class="cls-2" d="M61.68,55l2-4.38a.12.12,0,0,1,.11-.07h.07a.11.11,0,0,1,.11.07L66,55a.11.11,0,0,1-.11.17h-.57a.19.19,0,0,1-.19-.13l-.32-.7H62.86l-.32.7a.19.19,0,0,1-.19.13h-.57A.11.11,0,0,1,61.68,55Zm2.81-1.39-.65-1.43h0l-.64,1.43Z"/><path class="cls-2" d="M68.58,50.54a2.46,2.46,0,0,1,1.59.61.13.13,0,0,1,0,.18l-.4.42a.11.11,0,0,1-.17,0,1.48,1.48,0,0,0-1-.38,1.5,1.5,0,0,0,0,3,2,2,0,0,0,.78-.16v-.55h-.52a.12.12,0,0,1-.12-.12V53a.12.12,0,0,1,.12-.12h1.25a.12.12,0,0,1,.12.12V54.7a.13.13,0,0,1-.05.1,3.29,3.29,0,0,1-1.62.42,2.34,2.34,0,0,1,0-4.68Z"/><path class="cls-2" d="M71.2,50.73a.12.12,0,0,1,.12-.12H74a.12.12,0,0,1,.12.12v.53a.12.12,0,0,1-.12.12H72.05v1.07h1.61a.13.13,0,0,1,.12.12v.54a.12.12,0,0,1-.12.12H72.05v1.14H74a.12.12,0,0,1,.12.12V55a.12.12,0,0,1-.12.12H71.33A.12.12,0,0,1,71.2,55Z"/><path class="cls-2" d="M75.51,50.64a.11.11,0,0,1,.12-.1h.1a.12.12,0,0,1,.11.06l1.43,3.08h0l1.43-3.08a.11.11,0,0,1,.11-.06h.1a.11.11,0,0,1,.12.1L79.83,55a.11.11,0,0,1-.12.15h-.59a.14.14,0,0,1-.12-.1l-.38-2.47h0l-1.14,2.56a.11.11,0,0,1-.11.07h-.12a.12.12,0,0,1-.11-.07L76,52.6h0l-.38,2.47a.13.13,0,0,1-.12.1h-.59a.12.12,0,0,1-.12-.15Z"/><path class="cls-2" d="M80.73,50.73a.12.12,0,0,1,.12-.12h2.65a.12.12,0,0,1,.12.12v.53a.12.12,0,0,1-.12.12H81.58v1.07h1.61a.13.13,0,0,1,.12.12v.54a.12.12,0,0,1-.12.12H81.58v1.14h1.93a.12.12,0,0,1,.12.12V55a.12.12,0,0,1-.12.12H80.86a.12.12,0,0,1-.12-.12Z"/><path class="cls-2" d="M84.57,50.66a.12.12,0,0,1,.12-.12h.16l2.71,2.88h0V50.73a.12.12,0,0,1,.12-.12h.6a.13.13,0,0,1,.12.12v4.38a.12.12,0,0,1-.12.12h-.16l-2.72-3h0V55a.12.12,0,0,1-.12.12h-.59a.13.13,0,0,1-.12-.12Z"/><path class="cls-2" d="M90.22,51.39h-1a.12.12,0,0,1-.12-.12v-.53a.12.12,0,0,1,.12-.12h2.85a.12.12,0,0,1,.12.12v.53a.12.12,0,0,1-.12.12h-1V55a.13.13,0,0,1-.12.12h-.61a.13.13,0,0,1-.12-.12Z"/><path class="cls-2" d="M35,58.56a.12.12,0,0,1,.12-.12h2.65a.12.12,0,0,1,.12.12v.53a.12.12,0,0,1-.12.12H35.8v1.07h1.61a.13.13,0,0,1,.12.12v.54a.12.12,0,0,1-.12.12H35.8v1.14h1.93a.12.12,0,0,1,.12.12v.53a.12.12,0,0,1-.12.12H35.08a.12.12,0,0,1-.12-.12Z"/><path class="cls-2" d="M39.75,60.66l-1.3-2a.12.12,0,0,1,.11-.18h.76a.13.13,0,0,1,.1.06l.83,1.38h0l.85-1.38a.12.12,0,0,1,.1-.06H42a.12.12,0,0,1,.11.18l-1.31,2,1.35,2.16A.12.12,0,0,1,42,63h-.7a.13.13,0,0,1-.11-.06l-.93-1.49h0l-.92,1.49a.14.14,0,0,1-.11.06h-.7a.12.12,0,0,1-.12-.18Z"/><path class="cls-2" d="M42.91,58.56a.12.12,0,0,1,.12-.12h1.53a1.45,1.45,0,1,1,0,2.91h-.81v1.53a.13.13,0,0,1-.12.12H43a.12.12,0,0,1-.12-.12Zm1.6,2a.67.67,0,0,0,.67-.68.65.65,0,0,0-.67-.63h-.76v1.31Z"/><path class="cls-2" d="M46.77,58.56a.12.12,0,0,1,.12-.12h2.65a.12.12,0,0,1,.12.12v.53a.12.12,0,0,1-.12.12H47.62v1.07h1.61a.13.13,0,0,1,.12.12v.54a.12.12,0,0,1-.12.12H47.62v1.14h1.93a.12.12,0,0,1,.12.12v.53a.12.12,0,0,1-.12.12H46.9a.12.12,0,0,1-.12-.12Z"/><path class="cls-2" d="M50.61,58.56a.12.12,0,0,1,.12-.12h1.86A1.41,1.41,0,0,1,54,59.84a1.44,1.44,0,0,1-1,1.32l.89,1.65a.12.12,0,0,1-.11.19h-.68a.11.11,0,0,1-.1-.06l-.87-1.73h-.72v1.66a.13.13,0,0,1-.12.12h-.6a.12.12,0,0,1-.12-.12Zm1.92,2a.66.66,0,0,0,.64-.66.65.65,0,0,0-.64-.63H51.46v1.3Z"/><path class="cls-2" d="M55.56,59.22h-1a.12.12,0,0,1-.12-.12v-.53a.12.12,0,0,1,.12-.12h2.85a.12.12,0,0,1,.12.12v.53a.12.12,0,0,1-.12.12h-1v3.65a.13.13,0,0,1-.12.12h-.61a.13.13,0,0,1-.12-.12Z"/><path class="cls-2" d="M78.58,44.58H13.4a.5.5,0,1,1,0-1H78.58a.5.5,0,0,1,0,1Z"/><polygon class="cls-3" points="27.92 60.86 26.99 59.56 28.59 59.61 29.54 58.33 29.98 59.86 31.5 60.37 30.18 61.26 30.17 62.86 28.91 61.88 27.38 62.37 27.92 60.86"/><polygon class="cls-3" points="61.42 60.86 60.49 59.56 62.09 59.61 63.03 58.33 63.48 59.86 65 60.37 63.67 61.26 63.66 62.86 62.4 61.88 60.88 62.37 61.42 60.86"/><path class="cls-4" d="M36.46,35.53a12.89,12.89,0,0,1-2.25-1.09l-1.08,3.43-.15.47L32.5,37c1.11-1.55-.09-1.63-.29-1.63s-1.41.08-.29,1.63l-.48,1.37-.15-.47-1.09-3.43a12.89,12.89,0,0,1-2.25,1.09c-1.55.56-1.45,1.84-1.49,4.23H38c0-2.39.05-3.67-1.49-4.23Zm0,0"/><path class="cls-4" d="M29.75,32.26a2.87,2.87,0,0,0,1.77,2.19,2,2,0,0,0,1.29,0,2.91,2.91,0,0,0,1.77-2.18c.14,0,.31-.2.5-.88.26-.92,0-1.06-.25-1a3.71,3.71,0,0,0,.1-.38c.4-2.4-.79-2.49-.79-2.49a1.76,1.76,0,0,0-.71-.66A2.4,2.4,0,0,0,32,26.51a2.08,2.08,0,0,0-.58.11,2.35,2.35,0,0,0-.64.33,3.3,3.3,0,0,0-.66.54,2.67,2.67,0,0,0-.72,1.25,2.64,2.64,0,0,0,0,1.22,3.21,3.21,0,0,0,.1.38c-.23,0-.52.11-.25,1,.18.68.36.87.49.88Zm0,0"/><path class="cls-5" d="M35.78,35.05A12.89,12.89,0,0,1,33.53,34l-1.08,3.43-.15.47-.48-1.37c1.11-1.55-.09-1.63-.29-1.63s-1.41.08-.29,1.63l-.48,1.37-.15-.47L29.51,34a12.89,12.89,0,0,1-2.25,1.09c-1.55.56-1.45,1.84-1.49,4.23h11.5c0-2.39.05-3.67-1.49-4.23Zm0,0"/><path class="cls-2" d="M37.53,39.53h-12v-.74c0-2.12,0-3.39,1.64-4a12.81,12.81,0,0,0,2.2-1.06l.28-.18,1.11,3.49.19-.55c-.42-.62-.54-1.1-.36-1.46a1.16,1.16,0,0,1,1.86,0c.18.36.07.84-.36,1.46l.19.54,1.1-3.49.28.18a12.78,12.78,0,0,0,2.2,1.06c1.6.58,1.62,1.86,1.65,4ZM26,39H37v-.22c0-2.17-.09-3.08-1.32-3.52h0a14.34,14.34,0,0,1-2-.94l-1.36,4.31-.78-2.2.08-.11c.49-.68.44-1,.39-1s-.35-.19-.48-.19-.41,0-.48.19-.1.36.39,1l.08.11-.78,2.2-1.36-4.31a14.42,14.42,0,0,1-2,.94c-1.24.45-1.3,1.34-1.32,3.51Z"/><path class="cls-5" d="M29.07,31.79A2.87,2.87,0,0,0,30.84,34a2,2,0,0,0,1.29,0,2.91,2.91,0,0,0,1.77-2.18c.14,0,.31-.2.5-.88.26-.92,0-1.06-.25-1a3.71,3.71,0,0,0,.1-.38c.4-2.4-.79-2.49-.79-2.49a1.76,1.76,0,0,0-.71-.66A2.4,2.4,0,0,0,31.31,26a2.08,2.08,0,0,0-.58.11,2.35,2.35,0,0,0-.64.33,3.3,3.3,0,0,0-.66.54,2.67,2.67,0,0,0-.72,1.25,2.64,2.64,0,0,0,0,1.22,3.21,3.21,0,0,0,.1.38c-.23,0-.52.11-.25,1,.18.68.36.87.49.88Zm0,0"/><path class="cls-2" d="M31.49,34.35a2.18,2.18,0,0,1-.73-.13A3.11,3.11,0,0,1,28.85,32a1.68,1.68,0,0,1-.51-1c-.17-.58-.16-1,0-1.18a.51.51,0,0,1,.14-.12l0-.14a2.84,2.84,0,0,1,0-1.33,2.91,2.91,0,0,1,.78-1.36,3.59,3.59,0,0,1,.71-.58,2.53,2.53,0,0,1,.69-.35,2.34,2.34,0,0,1,.65-.13,2.68,2.68,0,0,1,1.6.35,2.13,2.13,0,0,1,.74.66,1.13,1.13,0,0,1,.57.4,3,3,0,0,1,.3,2.35l0,.16a.5.5,0,0,1,.15.12c.18.22.19.6,0,1.17a1.7,1.7,0,0,1-.52,1,3.17,3.17,0,0,1-1.91,2.24A2.19,2.19,0,0,1,31.49,34.35ZM28.8,30.12s-.15.13,0,.73.3.71.3.71h.2v.19a2.63,2.63,0,0,0,1.61,2,1.71,1.71,0,0,0,1.13,0,2.68,2.68,0,0,0,1.61-2l0-.2h.2a2.25,2.25,0,0,0,.28-.7c.17-.59.07-.72.06-.72l-.37,0,.06-.36a3.5,3.5,0,0,0,.1-.35,2.53,2.53,0,0,0-.19-1.93.59.59,0,0,0-.37-.25l-.13,0-.07-.12a1.56,1.56,0,0,0-.6-.56,2.19,2.19,0,0,0-1.32-.28,1.83,1.83,0,0,0-.52.1,2.11,2.11,0,0,0-.57.29,3.17,3.17,0,0,0-.62.52A2.43,2.43,0,0,0,29,28.33a2.38,2.38,0,0,0,0,1.11,3,3,0,0,0,.1.35l.12.37Z"/><path class="cls-4" d="M65.4,35.53a12.88,12.88,0,0,1-2.25-1.09l-1.08,3.43-.15.47L61.43,37c1.11-1.55-.09-1.63-.29-1.63s-1.41.08-.29,1.63l-.48,1.37-.15-.47-1.09-3.43a12.89,12.89,0,0,1-2.25,1.09c-1.55.56-1.45,1.84-1.48,4.23h11.5c0-2.39.05-3.67-1.49-4.23Zm0,0"/><path class="cls-4" d="M58.69,32.26a2.87,2.87,0,0,0,1.77,2.19,2,2,0,0,0,1.29,0,2.91,2.91,0,0,0,1.77-2.18c.14,0,.31-.2.5-.88.26-.92,0-1.06-.25-1a3.55,3.55,0,0,0,.1-.38c.4-2.4-.79-2.49-.79-2.49a1.84,1.84,0,0,0-.71-.66,2.4,2.4,0,0,0-1.46-.31,2.08,2.08,0,0,0-.58.11,2.35,2.35,0,0,0-.64.33,3.29,3.29,0,0,0-.66.54,2.67,2.67,0,0,0-.72,1.25,2.63,2.63,0,0,0,0,1.22,3.19,3.19,0,0,0,.1.38c-.23,0-.52.11-.25,1,.18.68.35.87.49.88Zm0,0"/><path class="cls-5" d="M64.72,35.05A12.88,12.88,0,0,1,62.47,34l-1.08,3.43-.15.47-.48-1.37c1.11-1.55-.09-1.63-.29-1.63s-1.41.08-.29,1.63l-.48,1.37-.15-.47L58.45,34a12.89,12.89,0,0,1-2.25,1.09c-1.55.56-1.45,1.84-1.48,4.23h11.5c0-2.39.05-3.67-1.49-4.23Zm0,0"/><path class="cls-2" d="M66.47,39.53h-12v-.74c0-2.12,0-3.39,1.64-4a12.76,12.76,0,0,0,2.2-1.06l.28-.18,1.11,3.49.19-.54c-.42-.62-.54-1.1-.36-1.46a1.16,1.16,0,0,1,1.86,0c.18.36.07.84-.36,1.46l.19.54,1.1-3.49.28.18a12.78,12.78,0,0,0,2.2,1.06c1.6.58,1.62,1.86,1.65,4ZM55,39H66v-.22c0-2.17-.09-3.08-1.32-3.52h0a14.34,14.34,0,0,1-2-.94l-1.36,4.3-.78-2.2.08-.11c.49-.68.44-1,.39-1s-.35-.19-.48-.19-.41,0-.48.19-.1.36.39,1l.08.11-.78,2.2-1.36-4.31a14.47,14.47,0,0,1-2,.94C55.05,35.74,55,36.63,55,38.8Z"/><path class="cls-5" d="M58,31.79A2.87,2.87,0,0,0,59.78,34a2,2,0,0,0,1.29,0,2.91,2.91,0,0,0,1.77-2.18c.14,0,.31-.2.5-.88.26-.92,0-1.06-.25-1a3.55,3.55,0,0,0,.1-.38c.4-2.4-.79-2.49-.79-2.49a1.84,1.84,0,0,0-.71-.66A2.4,2.4,0,0,0,60.25,26a2.08,2.08,0,0,0-.58.11,2.35,2.35,0,0,0-.64.33,3.29,3.29,0,0,0-.66.54,2.67,2.67,0,0,0-.72,1.25,2.63,2.63,0,0,0,0,1.22,3.19,3.19,0,0,0,.1.38c-.23,0-.52.11-.25,1,.18.68.35.87.49.88Zm0,0"/><path class="cls-2" d="M60.43,34.35a2.18,2.18,0,0,1-.73-.13A3.11,3.11,0,0,1,57.79,32a1.67,1.67,0,0,1-.51-1c-.17-.58-.16-1,0-1.18a.51.51,0,0,1,.14-.12l0-.14a2.82,2.82,0,0,1,0-1.33,2.88,2.88,0,0,1,.78-1.36,3.51,3.51,0,0,1,.7-.58,2.54,2.54,0,0,1,.69-.35,2.32,2.32,0,0,1,.65-.13,2.67,2.67,0,0,1,1.6.35,2.21,2.21,0,0,1,.73.66,1.13,1.13,0,0,1,.57.4,3,3,0,0,1,.3,2.35l0,.16a.5.5,0,0,1,.15.12c.18.22.19.6,0,1.17a1.7,1.7,0,0,1-.52,1,3.17,3.17,0,0,1-1.9,2.23A2.19,2.19,0,0,1,60.43,34.35Zm-2.69-4.23s-.15.13,0,.73.29.7.3.71h.2v.19a2.63,2.63,0,0,0,1.61,2,1.72,1.72,0,0,0,1.13,0,2.67,2.67,0,0,0,1.6-2l0-.2h.2a2.24,2.24,0,0,0,.28-.7c.17-.59.07-.72.06-.72l-.37,0,.06-.36a3.46,3.46,0,0,0,.1-.35,2.52,2.52,0,0,0-.19-1.93.59.59,0,0,0-.37-.25l-.13,0-.07-.12a1.63,1.63,0,0,0-.61-.56,2.17,2.17,0,0,0-1.32-.28,1.86,1.86,0,0,0-.52.1,2.12,2.12,0,0,0-.57.29,3.13,3.13,0,0,0-.62.51,2.41,2.41,0,0,0-.65,1.14,2.38,2.38,0,0,0,0,1.11,2.86,2.86,0,0,0,.1.35l.12.37Z"/><path class="cls-4" d="M46.53,13.9h5.74c0-2.39.07-3.67-1.48-4.23a12.85,12.85,0,0,1-2.25-1.09L47.45,12l-.15.47-.48-1.37c1.11-1.55-.09-1.63-.29-1.63s-1.41.08-.29,1.63l-.48,1.37L45.6,12,44.51,8.58a12.85,12.85,0,0,1-2.25,1.09c-1.55.56-1.45,1.84-1.48,4.23Zm0,0"/><path class="cls-4" d="M44.09,6.4A2.87,2.87,0,0,0,45.86,8.6a2,2,0,0,0,1.29,0,2.91,2.91,0,0,0,1.77-2.18c.14,0,.31-.2.5-.88.26-.92,0-1.06-.25-1a3.5,3.5,0,0,0,.1-.38c.4-2.4-.79-2.49-.79-2.49A1.84,1.84,0,0,0,47.79,1,2.4,2.4,0,0,0,46.33.65a2.08,2.08,0,0,0-.58.11,2.36,2.36,0,0,0-.64.33,3.28,3.28,0,0,0-.66.54,2.68,2.68,0,0,0-.72,1.25,2.64,2.64,0,0,0,0,1.22,3.18,3.18,0,0,0,.1.38c-.23,0-.52.11-.25,1,.18.68.35.87.49.88Zm0,0"/><path class="cls-5" d="M46,13.51h5.74c0-2.39.07-3.67-1.48-4.23A12.85,12.85,0,0,1,48,8.19L46.9,11.62l-.15.47-.48-1.37c1.11-1.55-.09-1.63-.29-1.63s-1.41.08-.29,1.63l-.48,1.37-.15-.47L44,8.19a12.85,12.85,0,0,1-2.25,1.09c-1.55.56-1.45,1.84-1.48,4.23Zm0,0"/><path class="cls-2" d="M52,13.76H40V13c0-2.12,0-3.39,1.64-4A12.75,12.75,0,0,0,43.83,8l.28-.18,1.11,3.49.19-.54c-.42-.62-.54-1.1-.36-1.46a1.16,1.16,0,0,1,1.85,0c.18.36.07.84-.36,1.46l.19.54L47.85,7.8l.28.18A12.72,12.72,0,0,0,50.33,9c1.6.58,1.62,1.86,1.64,4Zm-11.5-.5h11V13c0-2.17-.08-3.06-1.31-3.51a14.34,14.34,0,0,1-2-.94l-1.36,4.31L46,10.67l.08-.11c.49-.68.44-1,.39-1s-.35-.19-.48-.19-.41,0-.48.19-.1.36.39,1l.08.11-.78,2.2L43.83,8.57a14.45,14.45,0,0,1-2,.94c-1.24.45-1.29,1.34-1.32,3.51Z"/><path class="cls-5" d="M43.55,6a2.87,2.87,0,0,0,1.77,2.19,2,2,0,0,0,1.29,0A2.91,2.91,0,0,0,48.38,6c.14,0,.31-.2.5-.88.26-.92,0-1.06-.25-1a3.5,3.5,0,0,0,.1-.38c.4-2.4-.79-2.49-.79-2.49a1.84,1.84,0,0,0-.71-.66A2.4,2.4,0,0,0,45.78.26a2.08,2.08,0,0,0-.58.11,2.36,2.36,0,0,0-.64.33,3.28,3.28,0,0,0-.66.54,2.68,2.68,0,0,0-.72,1.25,2.64,2.64,0,0,0,0,1.22,3.18,3.18,0,0,0,.1.38c-.23,0-.52.11-.25,1,.18.68.35.87.49.88Zm0,0"/><path class="cls-2" d="M46,8.57a2.19,2.19,0,0,1-.73-.12A3.11,3.11,0,0,1,43.33,6.2a1.65,1.65,0,0,1-.51-1c-.17-.58-.16-1,0-1.18A.5.5,0,0,1,43,3.9l0-.14a2.84,2.84,0,0,1,0-1.33,2.89,2.89,0,0,1,.78-1.36,3.49,3.49,0,0,1,.7-.58,2.55,2.55,0,0,1,.69-.35A2.32,2.32,0,0,1,45.77,0a2.69,2.69,0,0,1,1.6.35A2.21,2.21,0,0,1,48.1,1a1.13,1.13,0,0,1,.57.4A3,3,0,0,1,49,3.76l0,.16a.51.51,0,0,1,.15.12c.18.22.19.6,0,1.17a1.7,1.7,0,0,1-.52,1,3.17,3.17,0,0,1-1.9,2.24A2.2,2.2,0,0,1,46,8.57ZM43.28,4.34s-.15.13,0,.73.29.7.3.71h.2V6A2.62,2.62,0,0,0,45.4,8a1.72,1.72,0,0,0,1.13,0,2.67,2.67,0,0,0,1.6-2l0-.2h.2a2.24,2.24,0,0,0,.28-.7c.17-.59.07-.72.06-.72l-.37,0L48.39,4a3.18,3.18,0,0,0,.1-.35,2.49,2.49,0,0,0-.2-1.95.6.6,0,0,0-.35-.24h-.14l-.06-.12a1.63,1.63,0,0,0-.61-.56A2.18,2.18,0,0,0,45.8.51a1.87,1.87,0,0,0-.52.1,2.13,2.13,0,0,0-.57.29,3.08,3.08,0,0,0-.62.51,2.42,2.42,0,0,0-.65,1.14,2.39,2.39,0,0,0,0,1.11,2.72,2.72,0,0,0,.1.35l.12.37Z"/><g class="cls-6"><polygon class="cls-7" points="42.81 26.79 39.63 23.66 44.06 23.04 46.06 19.04 48.02 23.06 52.44 23.72 49.22 26.83 49.95 31.24 46.01 29.14 42.04 31.2 42.81 26.79"/></g><g class="cls-6"><polygon class="cls-7" points="53.01 29.53 52.43 28.96 53.23 28.85 53.59 28.12 53.95 28.85 54.75 28.97 54.17 29.53 54.3 30.33 53.58 29.95 52.87 30.32 53.01 29.53"/></g><g class="cls-6"><polygon class="cls-7" points="39.37 19.34 39.12 19.09 39.47 19.04 39.63 18.72 39.79 19.04 40.14 19.09 39.88 19.34 39.94 19.69 39.63 19.52 39.31 19.69 39.37 19.34"/></g><g class="cls-6"><polygon class="cls-7" points="44.72 35.96 44.38 35.63 44.85 35.56 45.06 35.13 45.27 35.56 45.75 35.63 45.4 35.97 45.48 36.44 45.06 36.21 44.63 36.43 44.72 35.96"/></g><g class="cls-6"><circle class="cls-7" cx="35.2" cy="23.27" r="0.27"/></g><g class="cls-6"><circle class="cls-7" cx="38.79" cy="30.04" r="0.49"/></g><g class="cls-6"><circle class="cls-7" cx="50.95" cy="19.21" r="0.44"/></g></g></g></svg>