<svg xmlns="http://www.w3.org/2000/svg" viewBox="0 0 66.53 67.57"><defs><style>.cls-1{opacity:0.52;}.cls-2{fill:#79b1e0;}.cls-3{fill:#fff;}.cls-4{fill:#22366b;}.cls-5{fill:#bad5ea;}.cls-6{fill:#f04e24;}.cls-7{fill:#f04d23;}</style></defs><title>technical-expert</title><g id="Layer_2" data-name="Layer 2"><g id="final_icons_bios"><g class="cls-1"><path class="cls-2" d="M60.82,43.7l-.28-.15-.68-.38c0-.13,0-.27,0-.4a8.55,8.55,0,0,0,0-1.91l.94-.52a1.48,1.48,0,0,0,.64-1.87l-.58-1.4a1.41,1.41,0,0,0-.9-.83,1.47,1.47,0,0,0-.88,0l-1,.28a6.54,6.54,0,0,0-.87-1,2.78,2.78,0,0,0-.35-.32,4,4,0,0,0-.39-.31l0-.09.26-.87a1.5,1.5,0,0,0-.86-1.79l-.11,0-1.28-.52a1.48,1.48,0,0,0-1.88.64l-.46.84a9.82,9.82,0,0,0-2.24,0l-.47-.83c0-.06-.07-.1-.09-.15a1.53,1.53,0,0,0-.69-.51,1.47,1.47,0,0,0-1.08,0l-1.39.59a1.49,1.49,0,0,0-.86,1.78l.25.87a9,9,0,0,0-1.68,1.66l-.9-.26a1.51,1.51,0,0,0-1.79.87l-.57,1.4a1.52,1.52,0,0,0,0,1.06,1.45,1.45,0,0,0,.51.68l.17.11.83.46a8.61,8.61,0,0,0,0,2.42l-.83.47a1.49,1.49,0,0,0-.65,1.86l.54,1.3,0,.1a1.51,1.51,0,0,0,1.79.87l1-.28h0c.07.08.12.15.2.23l0,0a3.76,3.76,0,0,0,.42.46,9.4,9.4,0,0,0,1,.85l0,.14-.09.31H56.62l-.09-.31L56.47,49A9.36,9.36,0,0,0,58,47.51l1.1.32A1.51,1.51,0,0,0,60.89,47l.56-1.39A1.46,1.46,0,0,0,60.82,43.7Zm-6.2-.24a3.93,3.93,0,0,1-5.12,2.11,3.81,3.81,0,0,1-1.72-1.38h0a3.92,3.92,0,0,1,4.72-5.86,3.86,3.86,0,0,1,.76.41A4,4,0,0,1,54.62,43.46Z"/></g><g class="cls-1"><path class="cls-2" d="M38.37,42.88a1.42,1.42,0,0,0-1-1.36,1.16,1.16,0,0,0-.25-.06l-2.19-.26c-.09-.29-.17-.59-.28-.87a12.45,12.45,0,0,0-.88-2l1.38-1.76A1.42,1.42,0,0,0,35,34.75l-.95-.95-1.44-1.42a1.41,1.41,0,0,0-1.89-.09L29,33.63a12.67,12.67,0,0,0-3-1.25l-.08-.67-.17-1.44a1.41,1.41,0,0,0-1-1.19,1.26,1.26,0,0,0-.43-.07H21a1.42,1.42,0,0,0-1.4,1.27l-.24,2.09a12.2,12.2,0,0,0-3,1.23l-1.58-1.24a1.43,1.43,0,0,0-1.9.11l-2.36,2.39a1.42,1.42,0,0,0-.09,1.9l1.24,1.55a13.15,13.15,0,0,0-1.21,2.95l-2,.23a1.42,1.42,0,0,0-1.25,1.42v3.35a1.15,1.15,0,0,0,.08.41,1.43,1.43,0,0,0,1.2,1l1.2.14.68.08a11.26,11.26,0,0,0,.46,1.38h8.76a5.66,5.66,0,0,1-.87-.7,4.9,4.9,0,0,1-.46-.53,5.56,5.56,0,0,1,7.79-7.81,5.33,5.33,0,0,1,.5.44,5.56,5.56,0,0,1,0,7.85,5.07,5.07,0,0,1-.94.76h8.77a13.11,13.11,0,0,0,.46-1.34l2.2-.27a1.42,1.42,0,0,0,1.25-1.42Z"/><path class="cls-3" d="M34.5,49.32h-9l.15-.09a5,5,0,0,0,.93-.75,5.51,5.51,0,0,0,0-7.78,5.15,5.15,0,0,0-.5-.43A5.51,5.51,0,0,0,18.35,48a4.71,4.71,0,0,0,.46.53,5.64,5.64,0,0,0,.86.7l.14.09h-9v0a11.3,11.3,0,0,1-.45-1.36l-.65-.07-1.2-.14a1.48,1.48,0,0,1-1.25-1,1.21,1.21,0,0,1-.08-.42V42.91A1.46,1.46,0,0,1,8.5,41.44l1.92-.22a13.25,13.25,0,0,1,1.19-2.9L10.39,36.8a1.48,1.48,0,0,1,.1-2l2.36-2.39a1.48,1.48,0,0,1,2-.12l1.56,1.22a12.17,12.17,0,0,1,2.93-1.21l.23-2.05A1.46,1.46,0,0,1,21,29h3.36a1.3,1.3,0,0,1,.44.07,1.46,1.46,0,0,1,1,1.23l.24,2.08a12.81,12.81,0,0,1,3,1.23l1.66-1.33a1.46,1.46,0,0,1,2,.1l1.44,1.42.95.95a1.48,1.48,0,0,1,.12,1.94L33.8,38.39a12.57,12.57,0,0,1,.87,1.93c.11.28.2.58.28.84l2.16.25.26.06a1.47,1.47,0,0,1,1.06,1.4h0v3.36a1.46,1.46,0,0,1-1.3,1.47L35,48a13.11,13.11,0,0,1-.46,1.31Zm-8.64-.1h8.57a13.37,13.37,0,0,0,.45-1.3v0h0l2.2-.27a1.36,1.36,0,0,0,1.21-1.37V42.88a1.37,1.37,0,0,0-1-1.31l-.24-.06-2.22-.26v0c-.08-.27-.17-.58-.28-.87a12.42,12.42,0,0,0-.88-1.95l0,0,1.4-1.79A1.38,1.38,0,0,0,35,34.78L34,33.83l-1.44-1.42a1.36,1.36,0,0,0-1.82-.09L29,33.69l0,0a12.71,12.71,0,0,0-3-1.25h0l-.25-2.15a1.37,1.37,0,0,0-1-1.14,1.22,1.22,0,0,0-.41-.06H21a1.36,1.36,0,0,0-1.35,1.23l-.24,2.12h0a12,12,0,0,0-3,1.23l0,0,0,0-1.58-1.24a1.38,1.38,0,0,0-1.83.11L10.56,34.9a1.38,1.38,0,0,0-.09,1.83l1.26,1.57,0,0a13.17,13.17,0,0,0-1.21,2.94v0l-2,.23A1.36,1.36,0,0,0,7.3,42.91v3.35a1.11,1.11,0,0,0,.07.39,1.38,1.38,0,0,0,1.16,1l1.92.22v0a11.15,11.15,0,0,0,.44,1.35h8.57a5.5,5.5,0,0,1-.75-.62,4.74,4.74,0,0,1-.47-.54,5.61,5.61,0,0,1,7.86-7.88,5.23,5.23,0,0,1,.51.44,5.61,5.61,0,0,1,0,7.92A5.11,5.11,0,0,1,25.86,49.22Z"/></g><path class="cls-3" d="M37.42,41.94a1.2,1.2,0,0,0-.08-.41,1.38,1.38,0,0,0-1.2-1l-1.53-.18L34,40.27a12.87,12.87,0,0,0-1.17-2.83l1.38-1.76a1.42,1.42,0,0,0-.08-1.84l0,0-1.44-1.42-.95-.95a1.41,1.41,0,0,0-1.89-.09l-1.69,1.35a12.43,12.43,0,0,0-2.14-1c-.28-.1-.58-.2-.87-.28l-.25-2.11a1,1,0,0,0-.06-.24,1.41,1.41,0,0,0-1.38-1H20a1.42,1.42,0,0,0-1.4,1.27l-.24,2.09a12.2,12.2,0,0,0-3,1.23l-1.58-1.24a1.43,1.43,0,0,0-1.9.11L9.58,33.92a1.42,1.42,0,0,0-.09,1.9l1.24,1.55a13.15,13.15,0,0,0-1.21,2.95l-2,.23A1.42,1.42,0,0,0,6.3,42v3.35a1.45,1.45,0,0,0,1,1.36l.26,0,1.89.22c.08.29.17.59.27.87a11.62,11.62,0,0,0,.62,1.46H33.11A14.18,14.18,0,0,0,34,47l2.2-.27a1.42,1.42,0,0,0,1.25-1.42ZM25.68,47.56a5.55,5.55,0,0,1-7.37.47,4,4,0,0,1-.48-.42,5.56,5.56,0,1,1,7.82-7.91,4.54,4.54,0,0,1,.45.51A5.55,5.55,0,0,1,25.68,47.56Z"/><path class="cls-4" d="M33.42,49.77H10.05l-.14-.28A12.11,12.11,0,0,1,9.27,48c-.06-.19-.12-.38-.18-.57l-1.55-.18-.31-.06a2,2,0,0,1-1.42-1.83V42A1.93,1.93,0,0,1,7.49,40l1.63-.19a13.74,13.74,0,0,1,1-2.44l-1-1.29a1.91,1.91,0,0,1,.13-2.56l2.36-2.39A1.94,1.94,0,0,1,14.14,31l1.32,1a12.61,12.61,0,0,1,2.47-1l.2-1.75A1.91,1.91,0,0,1,20,27.57h3.36a1.92,1.92,0,0,1,1.86,1.37,1.36,1.36,0,0,1,.08.32L25.53,31l.59.2a12.82,12.82,0,0,1,1.92.85l1.43-1.14a1.9,1.9,0,0,1,2.55.13l2.39,2.38A2,2,0,0,1,34.56,36l-1.17,1.51a13.43,13.43,0,0,1,1,2.32l1.86.22a1.87,1.87,0,0,1,1.62,1.37,1.6,1.6,0,0,1,.09.54v3.36a1.91,1.91,0,0,1-1.69,1.92l-1.87.23a14.31,14.31,0,0,1-.81,2Zm-8.44-1h7.81a13.82,13.82,0,0,0,.71-1.92l.09-.32,2.53-.31a.91.91,0,0,0,.81-.92V41.93a.68.68,0,0,0,0-.24A.89.89,0,0,0,36.1,41l-2.53-.29-.09-.32a12.32,12.32,0,0,0-1.12-2.72l-.16-.29,1.58-2a.92.92,0,0,0,0-1.19l-2.42-2.4a.91.91,0,0,0-1.22-.06l-2,1.56-.29-.17a11.86,11.86,0,0,0-2.06-.94c-.28-.1-.56-.19-.83-.26l-.33-.09-.29-2.46a.46.46,0,0,0,0-.12.92.92,0,0,0-.88-.69H20a.91.91,0,0,0-.91.82l-.28,2.43-.33.09a11.57,11.57,0,0,0-2.85,1.18l-.29.17-1.85-1.45a.94.94,0,0,0-1.24.07L9.93,34.27a.93.93,0,0,0-.06,1.23l1.46,1.81-.17.29A12.68,12.68,0,0,0,10,40.45l-.09.32L7.61,41A.91.91,0,0,0,6.8,42v3.35a1,1,0,0,0,.66.88l.17,0,2.23.26.09.33c.07.28.16.57.26.84a10.57,10.57,0,0,0,.46,1.12h7.8c-.16-.1-.32-.22-.48-.34a4.39,4.39,0,0,1-.53-.46A6.06,6.06,0,1,1,26,39.35a5.13,5.13,0,0,1,.5.57A6.08,6.08,0,0,1,25,48.77ZM21.73,38.6a5.06,5.06,0,0,0-3.56,8.66,3.66,3.66,0,0,0,.43.37,5,5,0,0,0,6.72-.42h0a5,5,0,0,0,.38-6.68,4.06,4.06,0,0,0-.41-.47A5.06,5.06,0,0,0,21.73,38.6Z"/><path class="cls-3" d="M60.54,43.55a1.44,1.44,0,0,0-.64-.78l0,0-1-.53a8.93,8.93,0,0,0,0-2.3l.94-.52a1.48,1.48,0,0,0,.64-1.87L60,36.24l0-.12a1.49,1.49,0,0,0-1.78-.85l-.93.27-.08,0-.28-.34c-.11-.13-.23-.27-.36-.4a7.75,7.75,0,0,0-1-.86l.28-1a1.43,1.43,0,0,0,0-.89,1.45,1.45,0,0,0-.83-.9l-1.39-.57a1.48,1.48,0,0,0-1.88.64l-.46.84a11.12,11.12,0,0,0-1.86,0l-.38,0-.31-.55-.16-.28a1.49,1.49,0,0,0-1.87-.64l-1.39.59A1.49,1.49,0,0,0,44.37,33l.25.87a9,9,0,0,0-1.68,1.66l-.9-.26a1.51,1.51,0,0,0-1.79.87l-.57,1.4a1.48,1.48,0,0,0,.65,1.86l.27.15.56.31c0,.12,0,.25,0,.37a9.28,9.28,0,0,0,.06,2l-.83.47a1.49,1.49,0,0,0-.65,1.86l.59,1.4a1.47,1.47,0,0,0,.9.84,1.5,1.5,0,0,0,.89,0l1-.29a8.74,8.74,0,0,0,.91,1,2.48,2.48,0,0,0,.24.22l0,0,.45.36,0,.09-.24.82.65.18H55.85a.28.28,0,0,0,0-.09l-.3-1.08a9.36,9.36,0,0,0,1.54-1.53l1.1.32A1.51,1.51,0,0,0,59.95,46l.56-1.39A1.4,1.4,0,0,0,60.54,43.55Zm-12.78.64a3.92,3.92,0,0,1,3.77-6.81,3.79,3.79,0,0,1,1.71,1.36,3.92,3.92,0,0,1-4.69,5.89,3.79,3.79,0,0,1-.77-.43Z"/><path class="cls-4" d="M56.35,49.77l-11.42,0-1.14-.31.31-1.07-.2-.17-.13-.11-.18-.18a8.65,8.65,0,0,1-.71-.72l-.68.2a2,2,0,0,1-2.4-1.16l-.59-1.4a2,2,0,0,1,.87-2.49l.54-.31a9.62,9.62,0,0,1,0-1.82v-.06l-.53-.3a2,2,0,0,1-.87-2.48l.57-1.4a2,2,0,0,1,2.39-1.17l.59.17A9.49,9.49,0,0,1,44,33.69l-.16-.55A2,2,0,0,1,45,30.76l1.39-.59a2,2,0,0,1,2.5.86l.31.55h.07a11.63,11.63,0,0,1,1.61,0l.31-.56a2,2,0,0,1,2.51-.86l1.38.56a2,2,0,0,1,1.16,2.39l-.19.64a7.62,7.62,0,0,1,.77.7c.13.12.24.26.36.4l.1.12.68-.19a2,2,0,0,1,2.38,1.14L61,37.33a2,2,0,0,1-.86,2.49l-.65.36a9.41,9.41,0,0,1,0,1.75l.75.42a1.93,1.93,0,0,1,.82,1h0A1.91,1.91,0,0,1,61,44.83l-.55,1.37A2,2,0,0,1,58,47.37l-.79-.23a9.82,9.82,0,0,1-1.14,1.13l.26,1Zm-11.22-1H55.19l-.25-.86.26-.21a8.84,8.84,0,0,0,1.46-1.44l.21-.27,1.43.42a1,1,0,0,0,1.19-.58L60,44.43a.92.92,0,0,0,0-.72h0a.94.94,0,0,0-.42-.51l-1.27-.71,0-.33a8.47,8.47,0,0,0,0-2.18l0-.34L59.62,39A1,1,0,0,0,60,37.72l-.58-1.42a1,1,0,0,0-1.19-.55L57,36.11l-.28-.26-.26-.32c-.11-.13-.21-.25-.33-.36a7.19,7.19,0,0,0-.93-.82l-.28-.21.38-1.29a.92.92,0,0,0,0-.57,1,1,0,0,0-.55-.61l-1.4-.57a1,1,0,0,0-1.25.42l-.62,1.13-.33,0a10.51,10.51,0,0,0-1.78,0l-.69.06-.63-1.11a1,1,0,0,0-1.24-.43l-1.39.59a1,1,0,0,0-.58,1.19l.34,1.2-.27.21a8.5,8.5,0,0,0-1.59,1.57l-.21.27-1.23-.35a1,1,0,0,0-1.2.59l-.57,1.4A1,1,0,0,0,40.57,39l1.13.64-.05.34c0,.13,0,.23,0,.33a8.7,8.7,0,0,0,.05,1.94l0,.34-1.13.64a1,1,0,0,0-.44,1.23l.59,1.4a1,1,0,0,0,.6.56,1,1,0,0,0,.6,0L43.23,46l.21.26a8.18,8.18,0,0,0,.86.9l.17.16.09.08,0,0,.39.31.28.21-.22.75ZM50,45.43a4.38,4.38,0,0,1-2.42-.72h-.07l-.12-.13a4.42,4.42,0,0,1,4.29-7.65,4.28,4.28,0,0,1,1.93,1.53,4.41,4.41,0,0,1-3.61,7Zm-2.1-1.72.13.09a3.34,3.34,0,0,0,.67.37A3.42,3.42,0,0,0,52.83,39a3.29,3.29,0,0,0-1.48-1.18,3.42,3.42,0,0,0-3.41,5.85Zm-.18.49h0Z"/><path class="cls-5" d="M44.95,24.46a1.75,1.75,0,0,0,2.33,0l1.3-1.21a1.75,1.75,0,0,0,.22-2.32L48,19.83a10.12,10.12,0,0,0,1-2.23l1.33-.1A1.75,1.75,0,0,0,52,15.82L52,14a1.75,1.75,0,0,0-1.49-1.8l-1.3-.2a10.22,10.22,0,0,0-.87-2.39l.88-1a1.75,1.75,0,0,0,0-2.33L48,5a1.75,1.75,0,0,0-2.32-.22l-1,.76A10.53,10.53,0,0,0,42.2,4.39l-.1-1.26a1.75,1.75,0,0,0-1.68-1.61l-1.77-.07a1.75,1.75,0,0,0-1.8,1.49l-.19,1.21a10.17,10.17,0,0,0-2.51.92l-.89-.76a1.75,1.75,0,0,0-2.33,0l-1.3,1.21a1.75,1.75,0,0,0-.22,2.32l.68.92A10.55,10.55,0,0,0,29,11.19l-1.12.09A1.75,1.75,0,0,0,26.24,13l-.07,1.77a1.75,1.75,0,0,0,1.49,1.8l1.06.17a10.3,10.3,0,0,0,1,2.61l-.72.84a1.75,1.75,0,0,0,0,2.33l1.21,1.3a1.75,1.75,0,0,0,2.32.22l.89-.65A10.58,10.58,0,0,0,36,24.51l.09,1.13a1.75,1.75,0,0,0,1.68,1.61l1.78.07a1.75,1.75,0,0,0,1.8-1.49l.18-1.21a10.25,10.25,0,0,0,2.47-1Zm-9.33-6.91a4.61,4.61,0,1,1,6.52.25,4.61,4.61,0,0,1-6.52-.25Zm0,0"/><path class="cls-3" d="M44,23.51a1.75,1.75,0,0,0,2.33,0l1.3-1.21a1.75,1.75,0,0,0,.22-2.32l-.78-1.06a10.12,10.12,0,0,0,1-2.23l1.33-.1A1.75,1.75,0,0,0,51,14.87l.06-1.77a1.75,1.75,0,0,0-1.49-1.8l-1.3-.2a10.22,10.22,0,0,0-.87-2.39l.88-1a1.75,1.75,0,0,0,0-2.33l-1.21-1.3a1.75,1.75,0,0,0-2.32-.22l-1,.76a10.53,10.53,0,0,0-2.45-1.15l-.1-1.26A1.75,1.75,0,0,0,39.48.57L37.7.5A1.75,1.75,0,0,0,35.91,2L35.72,3.2a10.17,10.17,0,0,0-2.51.92l-.89-.76a1.75,1.75,0,0,0-2.33,0l-1.3,1.21a1.75,1.75,0,0,0-.22,2.32l.68.92A10.55,10.55,0,0,0,28,10.24l-1.12.09A1.75,1.75,0,0,0,25.29,12l-.07,1.77a1.75,1.75,0,0,0,1.49,1.8l1.06.17a10.3,10.3,0,0,0,1,2.61l-.72.84a1.75,1.75,0,0,0,0,2.33l1.21,1.3a1.75,1.75,0,0,0,2.32.22l.89-.65a10.58,10.58,0,0,0,2.6,1.17l.09,1.13a1.75,1.75,0,0,0,1.68,1.61l1.78.07a1.75,1.75,0,0,0,1.8-1.49l.18-1.21a10.25,10.25,0,0,0,2.47-1ZM34.67,16.6a4.61,4.61,0,1,1,6.52.25,4.61,4.61,0,0,1-6.52-.25Zm0,0"/><path class="cls-4" d="M38.68,26.87h-.08l-1.78-.07a2.25,2.25,0,0,1-2.16-2.07l-.06-.79a11,11,0,0,1-2.1-.95l-.62.45a2.24,2.24,0,0,1-3-.29l-1.2-1.3a2.24,2.24,0,0,1-.06-3l.5-.59a10.88,10.88,0,0,1-.77-2.1l-.72-.11a2.25,2.25,0,0,1-1.91-2.31L24.79,12a2.25,2.25,0,0,1,2.07-2.16l.79-.06a11,11,0,0,1,.88-1.89l-.48-.65a2.24,2.24,0,0,1,.29-3L29.65,3a2.24,2.24,0,0,1,3-.06l.63.54a10.68,10.68,0,0,1,2-.73l.14-.88A2.23,2.23,0,0,1,37.72,0l1.77.06a2.25,2.25,0,0,1,2.16,2.07l.08.93a11,11,0,0,1,2,.92l.76-.56a2.24,2.24,0,0,1,3,.29L48.63,5a2.25,2.25,0,0,1,.06,3L48,8.78a10.79,10.79,0,0,1,.68,1.87l1,.15a2.25,2.25,0,0,1,1.91,2.31l-.07,1.77A2.25,2.25,0,0,1,49.45,17l-1,.08a10.65,10.65,0,0,1-.78,1.73l.58.8a2.24,2.24,0,0,1-.29,3l-1.3,1.2a2.24,2.24,0,0,1-3,.06L43,23.31a10.76,10.76,0,0,1-2,.76l-.13.89A2.26,2.26,0,0,1,38.68,26.87Zm-6.23-5.08.29.18a10,10,0,0,0,2.48,1.12l.33.1.11,1.47a1.25,1.25,0,0,0,1.2,1.15l1.78.07a1.23,1.23,0,0,0,1.29-1.06l.23-1.54.32-.08a9.77,9.77,0,0,0,2.35-.92l.3-.17,1.2,1a1.25,1.25,0,0,0,1.66,0l1.3-1.21a1.24,1.24,0,0,0,.16-1.66l-1-1.33.17-.28a9.68,9.68,0,0,0,1-2.12l.1-.32L49.37,16a1.25,1.25,0,0,0,1.15-1.2l.07-1.77a1.25,1.25,0,0,0-1.06-1.28l-1.64-.25-.08-.33A9.8,9.8,0,0,0,47,8.94l-.15-.3,1.1-1.28a1.25,1.25,0,0,0,0-1.66l-1.21-1.3A1.25,1.25,0,0,0,45,4.23l-1.31,1L43.43,5a10.09,10.09,0,0,0-2.33-1.1l-.32-.1-.13-1.59a1.25,1.25,0,0,0-1.2-1.15L37.68,1A1.24,1.24,0,0,0,36.4,2.06l-.24,1.55-.33.07a9.71,9.71,0,0,0-2.39.87l-.3.16L32,3.74a1.25,1.25,0,0,0-1.66,0L29,5a1.25,1.25,0,0,0-.16,1.66l.88,1.2-.18.29a10.06,10.06,0,0,0-1.06,2.27l-.1.32-1.45.11A1.25,1.25,0,0,0,25.79,12l-.07,1.77a1.25,1.25,0,0,0,1.06,1.28l1.39.22.07.33a9.8,9.8,0,0,0,.91,2.49l.16.3-.94,1.1a1.25,1.25,0,0,0,0,1.66l1.21,1.3a1.24,1.24,0,0,0,1.66.16Zm5.61-3.21h-.2a5.09,5.09,0,1,1,.2,0Zm0-9.22a4.11,4.11,0,0,0-3,6.9h0a4.11,4.11,0,1,0,3-6.9Z"/><path class="cls-5" d="M23.15,22a.37.37,0,0,0,.46.18L24,22a.37.37,0,0,0,.23-.43l-.07-.27a2.14,2.14,0,0,0,.38-.35l.27.09a.37.37,0,0,0,.45-.2l.16-.34a.37.37,0,0,0-.14-.47L25,19.92a2.16,2.16,0,0,0,0-.54l.26-.13a.37.37,0,0,0,.18-.46l-.13-.35a.37.37,0,0,0-.43-.23l-.26.06a2.23,2.23,0,0,0-.38-.42l.08-.25a.37.37,0,0,0-.2-.45L23.8,17a.37.37,0,0,0-.47.14l-.14.22a2.15,2.15,0,0,0-.56,0l-.11-.22a.37.37,0,0,0-.46-.18l-.35.13a.37.37,0,0,0-.23.43l.06.24a2.23,2.23,0,0,0-.41.37L20.89,18a.37.37,0,0,0-.45.2l-.16.34a.37.37,0,0,0,.14.47l.19.12a2.18,2.18,0,0,0,0,.59l-.21.11a.37.37,0,0,0-.18.46l.13.35a.37.37,0,0,0,.43.23l.23-.05a2.24,2.24,0,0,0,.41.44l-.08.23a.37.37,0,0,0,.2.45l.34.16a.37.37,0,0,0,.47-.14l.13-.22a2.17,2.17,0,0,0,.56,0Zm-1.26-2.11a1,1,0,1,1,1.25.58,1,1,0,0,1-1.25-.58Zm0,0"/><path class="cls-5" d="M21,16.62a.37.37,0,0,0,.49,0l.3-.23a.37.37,0,0,0,.09-.48l-.14-.24a2.14,2.14,0,0,0,.26-.45h.28a.37.37,0,0,0,.37-.32l0-.37a.37.37,0,0,0-.28-.41l-.27-.07a2.16,2.16,0,0,0-.13-.52l.21-.2a.37.37,0,0,0,0-.49l-.23-.3a.37.37,0,0,0-.48-.09l-.23.14a2.23,2.23,0,0,0-.49-.29v-.27a.37.37,0,0,0-.32-.37l-.37,0a.37.37,0,0,0-.41.28l-.06.25a2.15,2.15,0,0,0-.55.14l-.17-.18a.37.37,0,0,0-.49,0l-.3.23a.37.37,0,0,0-.09.48l.12.21a2.23,2.23,0,0,0-.28.48h-.24a.37.37,0,0,0-.37.32l0,.37a.37.37,0,0,0,.28.41l.22.06a2.18,2.18,0,0,0,.15.57l-.17.16a.37.37,0,0,0,0,.49l.23.3a.37.37,0,0,0,.48.09l.2-.12a2.24,2.24,0,0,0,.52.3v.24a.37.37,0,0,0,.32.37l.37.05a.37.37,0,0,0,.41-.28l.06-.25a2.17,2.17,0,0,0,.54-.15ZM19.15,15a1,1,0,1,1,1.37.19A1,1,0,0,1,19.15,15Zm0,0"/><path class="cls-5" d="M56.66,29.19a.37.37,0,0,0,.46.18l.35-.13a.37.37,0,0,0,.23-.43l-.07-.27a2.14,2.14,0,0,0,.38-.35l.27.09a.37.37,0,0,0,.45-.2l.16-.34a.37.37,0,0,0-.14-.47l-.24-.15a2.16,2.16,0,0,0,0-.54l.26-.13A.37.37,0,0,0,59,26l-.13-.35a.37.37,0,0,0-.43-.23l-.26.06a2.23,2.23,0,0,0-.38-.42l.08-.25a.37.37,0,0,0-.2-.45l-.34-.16a.37.37,0,0,0-.47.14l-.14.22a2.15,2.15,0,0,0-.56,0L56,24.31a.37.37,0,0,0-.46-.18l-.35.13a.37.37,0,0,0-.23.43l.06.24a2.23,2.23,0,0,0-.41.37l-.23-.07a.37.37,0,0,0-.45.2l-.16.34a.37.37,0,0,0,.14.47l.19.12a2.18,2.18,0,0,0,0,.59l-.21.11a.37.37,0,0,0-.18.46l.13.35a.37.37,0,0,0,.43.23L54.5,28a2.24,2.24,0,0,0,.41.44l-.08.23a.37.37,0,0,0,.2.45l.34.16a.37.37,0,0,0,.47-.14l.13-.22a2.17,2.17,0,0,0,.56,0Zm-1.26-2.11a1,1,0,1,1,1.25.58,1,1,0,0,1-1.25-.58Zm0,0"/><path class="cls-5" d="M16.47,23.45a.5.5,0,0,0,.62.24l.48-.18a.5.5,0,0,0,.31-.59l-.09-.37a2.89,2.89,0,0,0,.51-.48l.36.12a.5.5,0,0,0,.61-.27l.21-.46a.5.5,0,0,0-.19-.64l-.32-.2a2.92,2.92,0,0,0,0-.72l.34-.17a.5.5,0,0,0,.24-.62l-.18-.48a.5.5,0,0,0-.59-.31l-.36.09a3,3,0,0,0-.52-.57l.11-.34a.5.5,0,0,0-.27-.61l-.46-.21a.5.5,0,0,0-.64.19l-.18.3a2.91,2.91,0,0,0-.76,0l-.15-.3A.5.5,0,0,0,15,16.6l-.48.18a.5.5,0,0,0-.31.59l.08.32a3,3,0,0,0-.56.51l-.3-.1a.5.5,0,0,0-.61.27l-.21.46a.5.5,0,0,0,.19.64l.26.16a3,3,0,0,0,0,.79l-.28.14a.5.5,0,0,0-.24.62l.18.48a.5.5,0,0,0,.59.31l.31-.07a3,3,0,0,0,.56.6l-.1.31a.5.5,0,0,0,.27.61l.46.21a.5.5,0,0,0,.64-.19l.18-.3a2.93,2.93,0,0,0,.76,0Zm-1.7-2.85a1.32,1.32,0,1,1,1.69.78,1.32,1.32,0,0,1-1.69-.78Zm0,0"/><path class="cls-4" d="M66,49.77H.5a.5.5,0,0,1,0-1H66a.5.5,0,0,1,0,1Z"/><path class="cls-6" d="M4.29,35.11a.5.5,0,0,1-.42-.77,30.34,30.34,0,0,1,1.78-2.49.5.5,0,1,1,.78.62c-.6.75-1.18,1.56-1.72,2.41A.5.5,0,0,1,4.29,35.11Zm3.76-4.69a.5.5,0,0,1-.35-.85,22.26,22.26,0,0,1,2.32-2,.5.5,0,1,1,.6.8A21.35,21.35,0,0,0,8.4,30.27.5.5,0,0,1,8.05,30.41Zm30.86-.49h0c-.55,0-1.1,0-1.63-.08s-1-.11-1.45-.19a.5.5,0,0,1,.16-1c.43.07.89.13,1.38.18s1,.07,1.54.08a.5.5,0,0,1,0,1Zm3-.23a.5.5,0,0,1-.08-1A17.32,17.32,0,0,0,44.67,28a.5.5,0,0,1,.32.95,18.35,18.35,0,0,1-3,.75ZM33,28.92l-.17,0c-.82-.29-1.59-.62-2.4-1L30,27.76a.5.5,0,1,1,.39-.92l.42.18c.8.34,1.55.66,2.34.94a.5.5,0,0,1-.17,1Zm14.57-1.17a.5.5,0,0,1-.24-.94,17.83,17.83,0,0,0,2.44-1.61.5.5,0,0,1,.62.79,18.82,18.82,0,0,1-2.58,1.7A.5.5,0,0,1,47.58,27.76Zm-34.72-.92a.5.5,0,0,1-.23-.94,16.25,16.25,0,0,1,2.88-1.16.5.5,0,0,1,.28,1,15.18,15.18,0,0,0-2.7,1.09A.5.5,0,0,1,12.87,26.84Zm14.57-.15-.17,0c-.91-.32-1.84-.61-2.84-.88a.5.5,0,0,1,.26-1c1,.28,2,.57,2.91.9a.5.5,0,0,1-.17,1Zm-5.82-1.48h-.06a15.06,15.06,0,0,0-2.91,0,.52.52,0,0,1-.54-.46.5.5,0,0,1,.46-.54,16.07,16.07,0,0,1,3.1.05.5.5,0,0,1-.06,1Zm30.7-1.14a.5.5,0,0,1-.36-.84A22.05,22.05,0,0,0,53.81,21a.5.5,0,1,1,.81.58,23,23,0,0,1-1.95,2.38A.5.5,0,0,1,52.31,24.08Zm3.51-4.87a.5.5,0,0,1-.44-.74c.46-.83.9-1.72,1.31-2.65a.5.5,0,0,1,.92.4c-.42,1-.87,1.88-1.35,2.74A.5.5,0,0,1,55.82,19.21Zm2.42-5.5-.16,0a.5.5,0,0,1-.31-.64c.1-.28.19-.57.29-.87a.5.5,0,0,1,1,.3q-.14.45-.29.89A.5.5,0,0,1,58.24,13.71Z"/><path class="cls-4" d="M16.52,55.89h-1a.12.12,0,0,1-.12-.12v-.54a.12.12,0,0,1,.13-.12h2.87a.12.12,0,0,1,.13.12v.54a.12.12,0,0,1-.12.12h-1v3.68a.13.13,0,0,1-.12.12h-.61a.13.13,0,0,1-.12-.12Z"/><path class="cls-4" d="M19.19,55.23a.12.12,0,0,1,.13-.12H22a.12.12,0,0,1,.12.12v.54a.12.12,0,0,1-.12.12H20V57h1.62a.13.13,0,0,1,.13.12v.54a.12.12,0,0,1-.12.12H20v1.15H22a.12.12,0,0,1,.12.12v.54a.12.12,0,0,1-.12.12H19.32a.12.12,0,0,1-.12-.12Z"/><path class="cls-4" d="M25.06,55a2.22,2.22,0,0,1,1.59.61.12.12,0,0,1,0,.18l-.4.41a.11.11,0,0,1-.16,0,1.55,1.55,0,0,0-1-.39,1.52,1.52,0,0,0,0,3,1.57,1.57,0,0,0,1-.37.12.12,0,0,1,.16,0l.41.42a.13.13,0,0,1,0,.18,2.25,2.25,0,0,1-1.59.64,2.36,2.36,0,1,1,0-4.72Z"/><path class="cls-4" d="M27.51,55.23a.13.13,0,0,1,.13-.12h.61a.12.12,0,0,1,.13.12V57h2.14V55.23a.12.12,0,0,1,.13-.12h.6a.13.13,0,0,1,.12.12v4.34a.13.13,0,0,1-.12.12h-.6a.12.12,0,0,1-.12-.12V57.76H28.37v1.81a.12.12,0,0,1-.12.12h-.61a.13.13,0,0,1-.12-.12Z"/><path class="cls-4" d="M32.55,55.16a.12.12,0,0,1,.13-.12h.16l2.73,2.9h0V55.23a.12.12,0,0,1,.12-.12h.6a.13.13,0,0,1,.12.12v4.42a.12.12,0,0,1-.12.12h-.16l-2.74-3h0v2.82a.12.12,0,0,1-.12.12h-.6a.13.13,0,0,1-.12-.12Z"/><path class="cls-4" d="M37.62,55.23a.13.13,0,0,1,.13-.12h.61a.13.13,0,0,1,.13.12v4.34a.13.13,0,0,1-.12.12h-.61a.13.13,0,0,1-.12-.12Z"/><path class="cls-4" d="M41.71,55a2.22,2.22,0,0,1,1.59.61.12.12,0,0,1,0,.18l-.4.41a.11.11,0,0,1-.16,0,1.55,1.55,0,0,0-1-.39,1.52,1.52,0,0,0,0,3,1.57,1.57,0,0,0,1-.37.12.12,0,0,1,.16,0l.41.42a.13.13,0,0,1,0,.18,2.25,2.25,0,0,1-1.59.64,2.36,2.36,0,1,1,0-4.72Z"/><path class="cls-4" d="M43.56,59.53l2-4.42a.12.12,0,0,1,.11-.07h.07a.11.11,0,0,1,.11.07l2,4.42a.12.12,0,0,1-.11.17h-.57a.19.19,0,0,1-.19-.13l-.32-.71h-2l-.32.71a.2.2,0,0,1-.19.13h-.57A.12.12,0,0,1,43.56,59.53Zm2.83-1.4-.66-1.44h0l-.64,1.44Z"/><path class="cls-4" d="M48.5,55.23a.12.12,0,0,1,.13-.12h.6a.13.13,0,0,1,.13.12v3.68H51a.12.12,0,0,1,.13.12v.54a.12.12,0,0,1-.12.12h-2.4a.12.12,0,0,1-.12-.12Z"/><path class="cls-4" d="M22.17,63.1a.12.12,0,0,1,.13-.12H25a.12.12,0,0,1,.12.12v.54a.12.12,0,0,1-.12.12H23v1.08h1.62a.13.13,0,0,1,.13.12v.54a.12.12,0,0,1-.12.12H23v1.15H25a.12.12,0,0,1,.12.13v.54a.12.12,0,0,1-.12.12H22.29a.12.12,0,0,1-.12-.12Z"/><path class="cls-4" d="M27,65.21l-1.31-2.05a.12.12,0,0,1,.11-.18h.76a.13.13,0,0,1,.1.06l.84,1.39h0L28.35,63a.12.12,0,0,1,.1-.06h.76a.12.12,0,0,1,.11.18L28,65.21l1.37,2.17a.12.12,0,0,1-.11.18h-.71a.13.13,0,0,1-.11-.06L27.51,66h0l-.93,1.5a.14.14,0,0,1-.11.06h-.71c-.12,0-.17-.1-.12-.18Z"/><path class="cls-4" d="M30.17,63.1a.12.12,0,0,1,.13-.12h1.54a1.46,1.46,0,1,1,0,2.93H31v1.54a.13.13,0,0,1-.12.12h-.6a.12.12,0,0,1-.12-.12Zm1.61,2a.68.68,0,0,0,.68-.68.65.65,0,0,0-.68-.64H31V65.1Z"/><path class="cls-4" d="M34,63.1a.12.12,0,0,1,.13-.12h2.67a.12.12,0,0,1,.12.12v.54a.12.12,0,0,1-.12.12H34.9v1.08h1.62a.13.13,0,0,1,.13.12v.54a.12.12,0,0,1-.12.12H34.9v1.15h1.94a.12.12,0,0,1,.12.13v.54a.12.12,0,0,1-.12.12H34.17a.12.12,0,0,1-.12-.12Z"/><path class="cls-4" d="M37.9,63.1A.12.12,0,0,1,38,63H39.9a1.42,1.42,0,0,1,1.43,1.41,1.45,1.45,0,0,1-1,1.33l.9,1.67a.12.12,0,0,1-.11.19h-.69a.11.11,0,0,1-.11-.06l-.87-1.74h-.73v1.67a.13.13,0,0,1-.12.12H38a.12.12,0,0,1-.12-.12Zm1.93,2a.67.67,0,0,0,.65-.67.65.65,0,0,0-.65-.64H38.76v1.31Z"/><path class="cls-4" d="M42.88,63.76h-1a.12.12,0,0,1-.12-.12V63.1a.12.12,0,0,1,.13-.12h2.87a.12.12,0,0,1,.13.12v.54a.12.12,0,0,1-.12.12h-1v3.68a.13.13,0,0,1-.12.12H43a.13.13,0,0,1-.12-.12Z"/><polygon class="cls-7" points="48.24 65.36 47.3 64.05 48.91 64.1 49.86 62.81 50.31 64.35 51.83 64.86 50.5 65.76 50.49 67.36 49.22 66.38 47.69 66.87 48.24 65.36"/><polygon class="cls-7" points="15.23 65.92 13.82 65.16 15.29 64.5 15.58 62.92 16.66 64.11 18.25 63.9 17.45 65.29 18.14 66.74 16.57 66.41 15.4 67.52 15.23 65.92"/></g></g></svg>