<svg xmlns="http://www.w3.org/2000/svg" viewBox="0 0 65.55 63.64"><defs><style>.cls-1,.cls-5{fill:#22366b;}.cls-2{fill:#f04e24;}.cls-3{fill:#fff;}.cls-3,.cls-4,.cls-5{fill-rule:evenodd;}.cls-4{fill:#bad5ea;}</style></defs><title>toyota-trained</title><g id="Layer_2" data-name="Layer 2"><g id="final_icons_bios"><path class="cls-1" d="M21.08,52.08h-1A.12.12,0,0,1,20,52v-.53a.12.12,0,0,1,.12-.12h2.82a.12.12,0,0,1,.12.12V52a.12.12,0,0,1-.12.12h-1v3.62a.13.13,0,0,1-.12.12h-.6a.13.13,0,0,1-.12-.12Z"/><path class="cls-1" d="M25.66,51.25a2.32,2.32,0,1,1-2.32,2.33A2.32,2.32,0,0,1,25.66,51.25Zm0,3.81a1.48,1.48,0,1,0-1.48-1.48A1.49,1.49,0,0,0,25.66,55.05Z"/><path class="cls-1" d="M29.62,53.65,28.14,51.5a.12.12,0,0,1,.1-.19h.66a.13.13,0,0,1,.1.06l1,1.48,1-1.48a.13.13,0,0,1,.1-.06h.66a.12.12,0,0,1,.1.19l-1.49,2.15v2.06a.13.13,0,0,1-.12.12h-.59a.12.12,0,0,1-.12-.12Z"/><path class="cls-1" d="M34.43,51.25a2.32,2.32,0,1,1-2.32,2.33A2.32,2.32,0,0,1,34.43,51.25Zm0,3.81a1.48,1.48,0,1,0-1.48-1.48A1.49,1.49,0,0,0,34.43,55.05Z"/><path class="cls-1" d="M38.16,52.08h-1a.12.12,0,0,1-.12-.12v-.53a.12.12,0,0,1,.12-.12H40a.12.12,0,0,1,.12.12V52a.12.12,0,0,1-.12.12H39v3.62a.13.13,0,0,1-.12.12h-.6a.13.13,0,0,1-.12-.12Z"/><path class="cls-1" d="M40,55.66l2-4.34a.11.11,0,0,1,.11-.07h.06a.11.11,0,0,1,.11.07l2,4.34a.11.11,0,0,1-.11.17h-.56a.18.18,0,0,1-.19-.13l-.32-.7H41.13l-.32.7a.19.19,0,0,1-.19.13h-.56A.11.11,0,0,1,40,55.66Zm2.79-1.37-.65-1.42h0l-.63,1.42Z"/><path class="cls-1" d="M20.27,59.83h-1a.12.12,0,0,1-.12-.12v-.53a.12.12,0,0,1,.12-.12H22.1a.12.12,0,0,1,.12.12v.53a.12.12,0,0,1-.12.12h-1v3.62a.13.13,0,0,1-.12.12h-.6a.13.13,0,0,1-.12-.12Z"/><path class="cls-1" d="M22.9,59.18a.12.12,0,0,1,.12-.12h1.85a1.4,1.4,0,0,1,1.41,1.39,1.42,1.42,0,0,1-1,1.3l.88,1.64a.12.12,0,0,1-.11.19h-.68a.11.11,0,0,1-.1-.06l-.86-1.71h-.72v1.65a.13.13,0,0,1-.12.12H23a.12.12,0,0,1-.12-.12Zm1.9,1.94a.66.66,0,0,0,.64-.66.64.64,0,0,0-.64-.63H23.75v1.28Z"/><path class="cls-1" d="M26.61,63.41l2-4.34a.11.11,0,0,1,.11-.07h.06a.11.11,0,0,1,.11.07l2,4.34a.11.11,0,0,1-.11.17h-.56a.18.18,0,0,1-.19-.13l-.32-.7H27.79l-.32.7a.19.19,0,0,1-.19.13h-.56A.11.11,0,0,1,26.61,63.41ZM29.4,62l-.65-1.42h0L28.1,62Z"/><path class="cls-1" d="M31.48,59.18a.13.13,0,0,1,.12-.12h.6a.13.13,0,0,1,.12.12v4.27a.13.13,0,0,1-.12.12h-.6a.13.13,0,0,1-.12-.12Z"/><path class="cls-1" d="M33.5,59.11a.12.12,0,0,1,.12-.12h.16l2.69,2.85h0V59.18a.12.12,0,0,1,.12-.12h.59a.13.13,0,0,1,.12.12v4.34a.12.12,0,0,1-.12.12H37l-2.7-3h0v2.78a.12.12,0,0,1-.12.12h-.59a.13.13,0,0,1-.12-.12Z"/><path class="cls-1" d="M38.5,59.18a.12.12,0,0,1,.12-.12h2.63a.12.12,0,0,1,.12.12v.53a.12.12,0,0,1-.12.12H39.34v1.06h1.59a.13.13,0,0,1,.12.12v.54a.12.12,0,0,1-.12.12H39.34V62.8h1.91a.12.12,0,0,1,.12.12v.53a.12.12,0,0,1-.12.12H38.62a.12.12,0,0,1-.12-.12Z"/><path class="cls-1" d="M42.29,59.18a.12.12,0,0,1,.12-.12h1.53a2.26,2.26,0,1,1,0,4.52H42.41a.12.12,0,0,1-.12-.12Zm1.57,3.61a1.48,1.48,0,0,0,0-2.95h-.74v2.95Z"/><path class="cls-2" d="M16.54,20.75h0a10.36,10.36,0,0,1-3.08-.6.5.5,0,0,1,.34-.94,9.4,9.4,0,0,0,2.79.54.5.5,0,0,1,0,1Zm3-.33a.5.5,0,0,1-.13-1A9.32,9.32,0,0,0,22,18.3a.5.5,0,0,1,.54.84,10.34,10.34,0,0,1-2.87,1.26ZM11,18.77a.5.5,0,0,1-.3-.1,10.43,10.43,0,0,1-2.2-2.24.5.5,0,1,1,.81-.58,9.47,9.47,0,0,0,2,2,.5.5,0,0,1-.3.9Zm13.52-1.5a.5.5,0,0,1-.38-.82A9.44,9.44,0,0,0,25.62,14a.5.5,0,1,1,.92.39,10.44,10.44,0,0,1-1.65,2.67A.5.5,0,0,1,24.5,17.26ZM7.53,14a.5.5,0,0,1-.47-.34,10.53,10.53,0,0,1-.5-2.46q0-.43,0-.85A10.34,10.34,0,0,1,6.77,8a.5.5,0,1,1,1,.22,9.42,9.42,0,0,0-.23,2.06q0,.38,0,.77A9.57,9.57,0,0,0,8,13.32a.5.5,0,0,1-.32.63Zm19.3-2.14h0a.5.5,0,0,1-.45-.55,9.34,9.34,0,0,0,0-.94q0-.38,0-.77a9.67,9.67,0,0,0-.16-1.13.5.5,0,0,1,1-.2,10.65,10.65,0,0,1,.17,1.25q0,.43,0,.85c0,.35,0,.7-.05,1A.5.5,0,0,1,26.82,11.83ZM25.64,6a.5.5,0,0,1-.44-.26,9.43,9.43,0,0,0-1.73-2.25.5.5,0,0,1,.69-.72A10.41,10.41,0,0,1,26.08,5.3a.5.5,0,0,1-.44.74ZM8.35,5.87A.49.49,0,0,1,8.1,5.8a.5.5,0,0,1-.18-.68,10.44,10.44,0,0,1,2-2.45.5.5,0,1,1,.68.73A9.47,9.47,0,0,0,8.78,5.62.5.5,0,0,1,8.35,5.87Zm13-3.92a.49.49,0,0,1-.22-.05A9.36,9.36,0,0,0,18.46,1a.5.5,0,0,1,.16-1,10.34,10.34,0,0,1,3,1,.5.5,0,0,1-.22.95Zm-8.69-.09a.5.5,0,0,1-.21-1,10.4,10.4,0,0,1,3-.9.5.5,0,0,1,.14,1,9.39,9.39,0,0,0-2.72.81A.5.5,0,0,1,12.69,1.86Z"/><path class="cls-2" d="M21.53,5.91a.42.42,0,0,0-.6,0l-4.59,5.39L13.57,9A.42.42,0,0,0,13,9l-.83,1a.42.42,0,0,0,0,.6l4.07,3.49a.43.43,0,0,0,.6,0l5.69-6.69a.43.43,0,0,0,0-.6Zm0,0"/><path class="cls-3" d="M56.75,27.78C55.64,19,43.88,13.33,30.48,15S7.1,25.19,8.2,33.92c.61,4.8,4.43,8.68,10,10.92h24C51.48,41.52,57.64,34.74,56.75,27.78Z"/><path class="cls-4" d="M57.71,28.85c-1.11-8.73-12.88-14.44-26.28-12.73S8,26.28,9.16,35c.51,4.09,3.37,7.52,7.65,9.83h5.55c-5.49-2-9.39-5.94-10-10.82a10.83,10.83,0,0,1-.08-1.35,12.05,12.05,0,0,1,1.88-6.29l0,0c.3,1.79,1.81,3.29,4.17,4.36a24.34,24.34,0,0,0,9.14,1.84l.08.71c.64,5,2.32,9.31,4.3,11.59h5.87c1.68-2.55,2.43-7.53,1.72-13.1,0-.23-.06-.47-.09-.7,6.71-2,11.36-5.48,11.36-9,0-.11,0-.23,0-.35l0,0a11.66,11.66,0,0,1,3.65,7C55.22,35.45,49.53,42,41,44.85h4.78C53.58,41.26,58.5,35.12,57.71,28.85ZM34.61,41.22h-.18c-1.9,0-3.9-3.77-4.61-8.69,1.19,0,2.4-.14,3.64-.3a36.07,36.07,0,0,0,3.6-.63C37.63,36.72,36.55,41,34.61,41.22Zm-5-12.73c.09-3.58,1.08-6.22,2.61-6.41h.18c1.48,0,3,2.26,3.94,5.57-1.07.23-2.19.42-3.34.57S30.67,28.46,29.57,28.49Zm8.94-1.41c-1.51-5.36-4.21-9-6.8-8.68-1.29.17-2.36,1.3-3.13,3.08a19.44,19.44,0,0,0-1.28,7h0c-5.13-.15-8.89-1.5-9.16-3.62-.35-2.82,5.7-5.91,13.52-6.9s14.46.49,14.82,3.31a2.12,2.12,0,0,1,0,.24C46.49,23.58,43.26,25.72,38.51,27.08Z"/><path class="cls-5" d="M56.75,27.77C55.65,19,43.88,13.33,30.47,15S7.09,25.2,8.2,33.93c.61,4.79,4.43,8.67,10,10.91h7.19c-7.52-1.41-13.19-5.93-13.95-11.9a10.83,10.83,0,0,1-.08-1.35,12.06,12.06,0,0,1,1.88-6.3v0c.3,1.79,1.81,3.29,4.17,4.36a24.22,24.22,0,0,0,9.15,1.83c0,.23.06.48.08.72.77,6,3,10.91,5.47,12.67h3.74c2.34-1.92,3.51-7.65,2.68-14.18,0-.24-.07-.48-.1-.71,6.72-1.94,11.36-5.47,11.36-9,0-.12,0-.23,0-.36l0,0a11.7,11.7,0,0,1,3.64,7c1,7.8-6.76,15.29-17.56,17.23h6.29C51.47,41.53,57.64,34.74,56.75,27.77ZM33.66,40.13h-.18c-1.9,0-3.9-3.77-4.61-8.68,1.19,0,2.4-.14,3.64-.3s2.45-.36,3.61-.63C36.68,35.62,35.61,39.88,33.66,40.13Zm-5-12.72c.08-3.58,1.07-6.22,2.6-6.42h.18c1.47,0,3,2.26,4,5.57-1.07.23-2.19.43-3.35.58S29.72,27.36,28.63,27.41ZM37.56,26c-1.51-5.36-4.21-9-6.8-8.68-1.29.17-2.36,1.3-3.13,3.08a19.37,19.37,0,0,0-1.28,7c-5.14-.14-8.89-1.5-9.16-3.61-.36-2.82,5.69-5.91,13.52-6.9s14.45.49,14.82,3.31a2,2,0,0,1,0,.23C45.55,22.49,42.31,24.64,37.56,26Z"/><path class="cls-1" d="M65.05,45.35H.5a.5.5,0,0,1,0-1H65.05a.5.5,0,0,1,0,1Z"/></g></g></svg>