<?xml version="1.0" encoding="UTF-8"?>
<svg width="41px" height="33px" viewBox="0 0 41 33" version="1.1" xmlns="http://www.w3.org/2000/svg" xmlns:xlink="http://www.w3.org/1999/xlink">
    <!-- Generator: Sketch 47.1 (45422) - http://www.bohemiancoding.com/sketch -->
    <title>australia copy 2</title>
    <desc>Created with Sketch.</desc>
    <defs></defs>
    <g id="KM&amp;T-–-Knowledge-Base" stroke="none" stroke-width="1" fill="none" fill-rule="evenodd">
        <g id="Edit-Proposals-–-Live-Copy" transform="translate(-741.000000, -281.000000)">
            <rect id="Rectangle-Copy-16" stroke="#0070E0" x="713.5" y="257.5" width="191" height="84"></rect>
            <g id="australia" transform="translate(741.000000, 281.000000)" fill-rule="nonzero" fill="#0070E0">
                <path d="M34.3339457,9.06236208 C33.9087742,5.81310668 31.4200545,3.564468 31.0058788,0 C29.5342721,1.99756818 29.3766654,3.79904481 29.2263892,5.62251302 C29.1402554,6.67261079 28.6087909,8.25600428 27.7987658,8.01226431 C26.2721801,7.55410647 24.8720462,6.41970766 23.6368495,5.32196147 C22.7975022,4.57791314 23.4334269,3.62494483 24.0583558,2.87539861 C24.6283056,2.19915763 24.303929,0.890658841 23.9392345,1.11973776 C22.0442889,2.29262183 20.1365148,-0.3097147 18.2415692,1.47160298 C16.7241466,2.89739018 15.6538872,5.25048885 12.4742638,4.20955424 C11.6092596,3.92732901 8.95560271,6.50034344 8.50477426,8.14421377 C7.85418849,10.5156387 6.37158599,11.1937124 4.57010482,11.9102712 C-0.74820478,14.0177973 -0.969953734,16.4570296 1.58474082,21.3538206 C2.56336843,23.221272 3.86270734,24.9805981 3.41920943,27.2603915 C3.09116759,28.9409145 4.8083475,29.2103113 5.25184541,28.9189229 C7.31356088,27.5426167 10.011201,27.7295451 11.8933182,26.1040011 C15.3313433,23.131473 19.2275274,23.3898741 21.9123391,26.9158568 C22.4547993,27.6269178 22.7443558,27.8138462 23.2446654,26.9946599 C23.3802805,27.1614294 23.5158955,27.3336968 23.6551759,27.5004662 C24.6796194,28.4992503 25.6857365,29.345926 26.3491508,30.8211942 C27.3955859,33.1706276 33.9894101,33.6471118 35.3400629,31.3599879 C36.6522302,29.1315081 38.2906068,27.1009526 39.4378369,24.7808413 C41.3071256,21.0056207 40.1745566,17.7563653 38.0157114,14.4136457 C36.8263306,12.5718511 34.6216696,11.2431934 34.3339457,9.06236208 Z" id="Shape"></path>
            </g>
        </g>
    </g>
</svg>
