<?xml version="1.0" encoding="UTF-8"?>
<svg width="48px" height="37px" viewBox="0 0 48 37" version="1.1" xmlns="http://www.w3.org/2000/svg" xmlns:xlink="http://www.w3.org/1999/xlink">
    <!-- Generator: Sketch 47.1 (45422) - http://www.bohemiancoding.com/sketch -->
    <title>north america</title>
    <desc>Created with Sketch.</desc>
    <defs>
        <polygon id="path-1" points="24.1739044 11.8928571 0.142994844 11.8928571 0.142994844 0.140716945 24.1739044 0.140716945 24.1739044 11.8928571"></polygon>
        <polygon id="path-3" points="0.0679591837 0.0488928571 35.2750464 0.0488928571 35.2750464 27.3571015 0.0679591837 27.3571015"></polygon>
    </defs>
    <g id="KM&amp;T-–-Knowledge-Base" stroke="none" stroke-width="1" fill="none" fill-rule="evenodd">
        <g id="Edit-Proposals-–-Lost" transform="translate(-691.000000, -272.000000)">
            <rect id="Rectangle-Copy-15" stroke="#C4CDD5" x="642.5" y="256.5" width="145" height="111"></rect>
            <g id="north-america" transform="translate(691.000000, 272.000000)">
                <g id="Group-3" transform="translate(17.178571, 25.058250)">
                    <mask id="mask-2" fill="white">
                        <use xlink:href="#path-1"></use>
                    </mask>
                    <g id="Clip-2"></g>
                    <path d="M22.7033699,1.57087653 C21.222426,2.37770306 19.6848495,3.09108571 17.8301301,4.00381531 C18.051375,1.95692245 16.610074,1.7160449 15.2741097,1.14027959 C10.6812015,-0.859608163 5.94350255,0.822947959 1.29396173,0.456345918 C0.907915816,0.42935102 0.639665816,0.667963265 0.457686224,1.09100918 C-0.600022959,3.60021327 1.12934949,7.55845816 3.84016582,8.52026939 C6.25082908,9.37391224 9.12418112,8.96068265 10.9987219,11.2484531 C11.2667832,11.575601 11.5742985,11.238448 11.9114515,11.007198 C14.6887168,9.08602959 16.5239923,9.32709592 18.4842372,11.8929327 C19.5126862,10.6996827 17.4759872,9.4698102 18.8385689,8.56708571 C21.0108087,7.11559082 21.3774107,4.15615714 23.7119974,2.86965204 C24.4425587,2.45623367 24.1718546,1.89783571 23.817523,1.41815714 C23.3748444,0.813131633 23.0967781,1.35925918 22.7033699,1.57087653" id="Fill-1" fill="#0070E0" mask="url(#mask-2)"></path>
                </g>
                <path d="M6.13573265,20.6320117 C7.61988571,19.2065679 8.96170204,19.4566954 10.5092837,19.4544301 C11.7735133,20.2518179 13.0194316,21.1082923 13.8853449,22.3521342 C14.3348194,23.0137923 14.8654673,22.916573 15.313998,22.5569556 C15.8873092,22.0963434 15.2101714,21.8148791 15.0317786,21.4380832 C14.2326918,19.7056903 12.4293194,19.5414556 11.0297378,18.7516189 C11.0431408,17.3003128 11.04635,15.8586342 11.0693806,14.4171444 C11.0818398,13.6375015 11.172452,12.7360985 10.1666561,12.5477005 C8.19451837,12.1792107 6.15725306,11.570976 4.21305408,11.7516342 C2.75948265,11.8811342 0.31465102,11.9970423 0.983293878,14.8124403 C-1.49853776,15.5430015 1.59643673,16.6305372 0.813773469,17.5702617 C0.362411224,18.0993995 -0.419308163,18.9898536 1.07145204,19.4563179 C2.77269694,20.0026342 4.56398776,22.1544862 6.13573265,20.6320117" id="Fill-4" fill="#0070E0"></path>
                <g id="Group-8" transform="translate(12.081633, 0.139883)">
                    <mask id="mask-4" fill="white">
                        <use xlink:href="#path-3"></use>
                    </mask>
                    <g id="Clip-7"></g>
                    <path d="M23.4308163,14.3976628 C22.938301,14.0446526 23.8555612,12.2512852 24.2597296,12.5910811 C24.7843367,13.0139383 25.3848316,13.1215403 25.9738112,13.5897036 C24.9315816,13.4179179 24.5219388,15.1659791 23.4308163,14.3976628 M23.5442704,19.953326 C22.4793878,19.4870505 21.352398,19.1321526 20.3613265,18.5544995 C19.7478061,18.195826 18.3508673,17.9353158 19.1040816,16.8441934 C19.5930102,16.1494995 20.2291837,15.0451628 21.752602,15.7323056 C23.3817347,16.4760811 25.0108673,16.9253668 24.9751888,19.2775097 C24.8145408,19.8117444 24.4485051,20.3497546 23.5442704,19.953326 M35.2670408,23.5891423 C34.878352,21.7240403 34.0022449,20.2062852 32.575102,18.8771168 C31.2253571,17.6125097 30.4778061,15.975826 31.5651531,14.0748566 C31.8294388,13.6123566 32.0333163,13.0781219 31.6180102,12.6269485 C29.6171786,10.4843464 27.4347449,8.57016276 24.5900867,7.79807092 C25.7791837,5.49123418 27.6556122,3.81868316 30.0228571,2.65393827 C30.7177398,2.30847908 31.6859694,1.98944847 31.5311735,0.973836224 C31.3895918,-0.0191229592 30.262602,0.496234184 29.7151531,0.0488362245 L23.9235204,0.15832602 C22.7285714,0.549091327 21.4752908,0.505672959 20.255801,0.69822398 C17.497602,1.14939745 15.9911735,2.87858112 16.2781122,5.59317296 C16.4480102,7.20720357 15.7759694,7.66781582 14.3735561,7.89434643 C12.4403061,8.20205051 10.6129592,7.93398929 8.72520408,7.45449949 C6.38438776,6.85796888 5.2725,8.1812852 5.96530612,10.4692444 C6.37872449,10.8600097 7.01131122,10.7750607 7.45852041,11.0922036 C6.84877551,10.8014893 6.15408163,10.7467444 5.55188776,10.4352648 C3.71887755,10.6901117 1.87265306,10.8260301 0.0679591837,11.3036321 L0.19255102,17.988173 C2.13127551,19.1019485 3.44515306,20.7877138 4.70428571,22.6075097 C5.77841837,24.1724587 7.52836735,24.670826 9.39913265,24.6425097 C11.84,24.6198566 14.2791684,24.5518974 16.727398,24.5198056 C19.2777551,24.4877138 21.7639286,24.6387342 23.0910204,27.3571015 L23.5403061,27.3476628 C25.2638265,26.8153158 27.0855102,26.5000607 28.4845255,25.2069485 C28.9185204,24.8067444 28.5277551,25.4259281 28.673301,25.3579689 C28.7978929,25.8110301 29.0865306,26.1829179 29.5075,26.3075097 C31.5179592,26.9266934 32.6543878,24.5594485 34.6027398,24.7671015 C35.2162602,24.8369485 35.3066837,24.1347036 35.2670408,23.5891423" id="Fill-6" fill="#0070E0" mask="url(#mask-4)"></path>
                </g>
            </g>
        </g>
    </g>
</svg>
