<?xml version="1.0" encoding="UTF-8"?>
<svg width="30px" height="36px" viewBox="0 0 30 36" version="1.1" xmlns="http://www.w3.org/2000/svg" xmlns:xlink="http://www.w3.org/1999/xlink">
    <!-- Generator: Sketch 47.1 (45422) - http://www.bohemiancoding.com/sketch -->
    <title>united-kingdom</title>
    <desc>Created with Sketch.</desc>
    <defs>
        <rect id="path-1" x="480" y="256" width="146" height="112"></rect>
        <filter x="-5.1%" y="-6.7%" width="110.3%" height="113.4%" filterUnits="objectBoundingBox" id="filter-2">
            <feOffset dx="0" dy="0" in="SourceAlpha" result="shadowOffsetOuter1"></feOffset>
            <feMorphology radius="1" operator="erode" in="SourceAlpha" result="shadowInner"></feMorphology>
            <feOffset dx="0" dy="0" in="shadowInner" result="shadowInner"></feOffset>
            <feComposite in="shadowOffsetOuter1" in2="shadowInner" operator="out" result="shadowOffsetOuter1"></feComposite>
            <feGaussianBlur stdDeviation="2.5" in="shadowOffsetOuter1" result="shadowBlurOuter1"></feGaussianBlur>
            <feColorMatrix values="0 0 0 0 0   0 0 0 0 0.439215686   0 0 0 0 0.878431373  0 0 0 0.1 0" type="matrix" in="shadowBlurOuter1"></feColorMatrix>
        </filter>
    </defs>
    <g id="KM&amp;T-–-Knowledge-Base" stroke="none" stroke-width="1" fill="none" fill-rule="evenodd">
        <g id="Edit-Proposals-–-Lost" transform="translate(-538.000000, -273.000000)">
            <g id="Rectangle-Copy-10">
                <use fill="black" fill-opacity="1" filter="url(#filter-2)" xlink:href="#path-1"></use>
                <rect stroke="#C4CDD5" stroke-width="1" x="480.5" y="256.5" width="145" height="111"></rect>
            </g>
            <g id="united-kingdom" transform="translate(538.000000, 273.000000)" fill-rule="nonzero" fill="#C4CDD5">
                <path d="M4.83336842,5.07968421 C4.89763158,5.12252632 4.95021053,5.14394737 5.01252632,5.18678947 C5.069,5.27052632 5.07873684,5.364 5.07289474,5.45552632 C5.07289474,5.46136842 5.07678947,5.47110526 5.07678947,5.47694737 C5.04952632,5.77684211 4.81,6.10010526 5.04757895,6.28510526 C6.36594737,7.31915789 7.82257895,8.08447368 6.28415789,10.2071053 C5.61426316,11.1321053 7.49736842,10.5926842 7.60057895,10.9276316 C7.548,12.4991579 5.33968421,11.8721053 5.83821053,13.1690526 C6.34452632,14.4874211 6.97547368,13.0405263 7.56552632,12.8535789 C7.61421053,12.8399474 7.85568421,13.134 7.83815789,13.2566842 C7.38636842,16.2166842 9.38047368,14.0005789 10.3249474,14.4231579 C8.72226316,16.7483158 9.52652632,17.3831579 12.0892632,17.0462632 C14.7961053,16.6898947 15.0103158,19.4356842 15.3764211,20.8066316 C15.9450526,22.9467895 13.875,22.6936316 12.4105789,22.5047368 C11.9159474,22.4424211 11.0591053,22.5436842 11.3200526,22.902 C11.8049474,23.5660526 10.1360526,24.4326316 11.6102105,24.7364211 C13.1681053,25.0596842 12.6929474,25.8600526 12.0055263,26.6058947 C10.7864737,27.934 11.0045789,29.081 12.6384211,29.6710526 C13.1817368,29.8696842 13.7075263,30.1072632 14.9635789,30.6291579 C10.9072105,30.4577895 10.4748947,34.0837895 7.67068421,35.1022632 C8.88194737,35.5891053 9.56352632,35.223 10.3074211,35.112 C12.9246842,34.7322632 15.1407895,33.1295789 17.9644737,33.1918947 C21.0296316,33.2542105 24.1785263,32.9387368 27.1677368,32.0098421 C27.7538947,31.8287368 28.601,31.4606842 28.5932105,30.6700526 C28.5834737,29.7197368 27.1404737,30.6272105 26.9204211,29.6671579 C27.1521579,29.3906316 27.306,29.1238421 27.5396842,28.9641579 C28.7334211,28.1384737 29.8492632,27.1433684 29.5045789,25.5796316 C29.1462632,23.9399474 27.6253684,23.9555263 26.3401053,24.0762632 C25.4482105,24.1522105 25.5689474,23.8153158 25.4540526,23.1687895 C24.7276842,19.0364737 20.3402632,17.1572632 19.2263684,13.2099474 C19.1153684,12.8146316 18.5506316,12.4251579 18.1124737,12.2693684 C16.3715263,11.6501053 16.3481579,10.7426316 17.4094737,9.41452632 C17.9566842,8.72515789 18.241,7.83521053 18.7395263,7.09910526 C19.7521579,5.61326316 19.4405789,4.94531579 17.6042105,4.99984211 C16.1748421,5.04268421 14.7454737,5.00957895 13.0902105,5.00957895 C13.4660526,3.51205263 14.5078947,3.21215789 15.1524737,2.53642105 C15.7074737,1.96194737 16.1164211,0.768210526 14.8350526,0.968789474 C12.6442632,1.31736842 9.70957895,0.376789474 8.65605263,3.47115789 C8.56842105,3.72236842 8.47884211,3.958 8.38536842,4.17610526 C7.70963158,5.68921053 6.74373684,6.27147368 5.01642105,5.18678947 L5.01642105,5.18678947 L5.01642105,5.18678947 L5.01642105,5.18678947 C4.97942105,5.13031579 4.97747368,5.07773684 4.90931579,5.02905263 C4.89373684,5.03489474 4.87621053,5.03878947 4.86063158,5.04463158 C4.85478947,5.05826316 4.84505263,5.06994737 4.83921053,5.07968421 L4.83336842,5.07968421 Z" id="Shape"></path>
                <path d="M0.938631579,18.2341579 C0.895789474,18.8281053 1.34368421,19.2409474 1.73705263,19.3052105 C3.44878947,19.5836842 5.18389474,19.8816316 6.90536842,19.8602105 C7.74078947,19.8563158 8.51778947,19.1299474 8.58205263,17.8446842 C7.82647368,16.8963158 7.73494737,15.1144737 5.82457895,15.0093158 C4.34847368,14.9216842 1.02431579,17.1436316 0.938631579,18.2341579 Z" id="Shape"></path>
                <path d="M6.44384211,1.56273684 C4.60357895,2.05347368 3.54226316,3.03105263 3.67273684,5.00763158 C2.24726316,5.14784211 2.94831579,5.79631579 3.27352632,6.30457895 C3.42931579,5.95015789 3.774,5.63078947 4.02131579,5.26078947 C4.29978947,5.18873684 4.58021053,5.11278947 4.85868421,5.04268421 C5.36305263,3.93073684 6.96963158,3.34068421 6.44384211,1.56273684 Z" id="Shape"></path>
                <path d="M3.20731579,6.85373684 C3.50331579,6.75052632 3.42347368,6.54410526 3.27157895,6.30457895 C3.19563158,6.47205263 3.15084211,6.64731579 3.20731579,6.85373684 Z" id="Shape"></path>
            </g>
        </g>
    </g>
</svg>