<svg xmlns="http://www.w3.org/2000/svg" viewBox="0 0 96 129.15"><defs><style>.cls-1{fill:#fff;}.cls-2{fill:#0070E0;}.cls-3,.cls-4,.cls-5{fill:none;stroke-miterlimit:10;}.cls-3,.cls-4{stroke:#d4e8f8;}.cls-4{stroke-width:2px;}.cls-5{stroke:#fff;stroke-width:1.94px;}.cls-6{fill:#c4cce0;}</style></defs><title>csVector</title><g id="Layer_2" data-name="Layer 2"><g id="Documents"><polygon class="cls-1" points="96 0 0 1 0 127 95.95 129.15 96 0"/><polygon class="cls-2" points="86 13 9 13.9 9 54 86 54 86 13"/><polygon class="cls-2" points="86 84 55 85 55 111 86 111 86 84"/><polyline class="cls-3" points="35 46 46 25 58 42 67 27 75 36 90 16"/><line class="cls-4" x1="12" y1="66" x2="81" y2="66"/><line class="cls-4" x1="86" y1="75" x2="12" y2="75"/><line class="cls-4" x1="46" y1="84" x2="12" y2="84"/><line class="cls-4" x1="48" y1="93" x2="12" y2="93"/><line class="cls-4" x1="43" y1="102" x2="12" y2="102"/><line class="cls-4" x1="46" y1="111" x2="12" y2="111"/><polyline class="cls-5" points="15.4 29.57 22.97 36.65 28.01 24.26 31.79 33.7 36.84 30.16 41.88 43.14 45.66 31.34 50.71 39.6 60.8 23.08 67.1 43.14 77.19 28.39"/><rect class="cls-1" x="61" y="88" width="5" height="20"/><rect class="cls-1" x="68" y="97" width="5" height="11"/><rect class="cls-6" x="75" y="90" width="5" height="18"/></g></g></svg>