<?xml version="1.0" encoding="utf-8"?>
<!-- Generator: Adobe Illustrator 22.0.1, SVG Export Plug-In . SVG Version: 6.00 Build 0)  -->
<svg version="1.1" id="Layer_1" xmlns="http://www.w3.org/2000/svg" xmlns:xlink="http://www.w3.org/1999/xlink" x="0px" y="0px"
	 viewBox="0 0 25 33" style="enable-background:new 0 0 25 33;" xml:space="preserve">
<style type="text/css">
	.st0{filter:url(#Adobe_OpacityMaskFilter);}
	.st1{fill:#FFFFFF;}
	.st2{mask:url(#mask-2_2_);}
	.st3{fill:#A6CCF5;}
	.st4{fill:#0070E0;}
</style>
<title>Page 1</title>
<desc>Created with Sketch.</desc>
<g id="KM_x26_T-_x2013_-Knowledge-Base">
	<g id="Proposals" transform="translate(-294.000000, -374.000000)">
		<g id="field-copy" transform="translate(285.000000, 357.000000)">
			<defs>
				<filter id="Adobe_OpacityMaskFilter" filterUnits="userSpaceOnUse" x="9" y="17" width="24.7" height="32.3">
					<feColorMatrix  type="matrix" values="1 0 0 0 0  0 1 0 0 0  0 0 1 0 0  0 0 0 1 0"/>
				</filter>
			</defs>
			<mask maskUnits="userSpaceOnUse" x="9" y="17" width="24.7" height="32.3" id="mask-2_2_">
				<g class="st0">
					<rect id="path-1_4_" y="0" class="st1" width="935" height="68"/>
				</g>
			</mask>
			<g id="Page-1" class="st2">
				<g transform="translate(9.000000, 17.000000)">
					<path id="Fill-1" class="st3" d="M0,0v32.3h24.7V8.2L15.1,0H0z M2,2h12.3l8.4,7.1v21.2H2V2z"/>
					<polygon id="Fill-2" class="st4" points="6,14.9 10.8,14.9 10.8,9.8 6,9.8 					"/>
					<polygon id="Fill-3" class="st4" points="6,18.8 19.9,18.8 19.9,16.7 6,16.7 					"/>
					<polygon id="Fill-4" class="st4" points="6,22.9 15.7,22.9 15.7,20.8 6,20.8 					"/>
					<polygon id="Fill-5" class="st4" points="6,26.9 17.3,26.9 17.3,24.8 6,24.8 					"/>
					<path id="Fill-6" class="st3" d="M13,0v10h11.7V8.2L15.1,0H13z M15,2.6l6.4,5.5H15V2.6z"/>
				</g>
			</g>
		</g>
	</g>
</g>
</svg>
