<?xml version="1.0" encoding="UTF-8"?>
<svg width="94px" height="72px" viewBox="0 0 94 72" version="1.1" xmlns="http://www.w3.org/2000/svg" xmlns:xlink="http://www.w3.org/1999/xlink">
    <!-- Generator: Sketch 47.1 (45422) - http://www.bohemiancoding.com/sketch -->
    <title>Logo</title>
    <desc>Created with Sketch.</desc>
    <defs>
        <polygon id="path-1" points="8.2216 10.1818182 0.166327273 10.1818182 0.166327273 0.349454545 8.2216 0.349454545"></polygon>
        <polygon id="path-3" points="0.317672727 10.1818182 7.76785455 10.1818182 7.76785455 0.349454545 0.317672727 0.349454545 0.317672727 10.1818182"></polygon>
        <polygon id="path-5" points="0.250618182 10.1818182 8.66516364 10.1818182 8.66516364 0.349163636 0.250618182 0.349163636"></polygon>
        <polygon id="path-7" points="0.000290909091 0.487272727 47.3588364 0.487272727 47.3588364 28.3519273 0.000290909091 28.3519273"></polygon>
    </defs>
    <g id="Page-1" stroke="none" stroke-width="1" fill="none" fill-rule="evenodd">
        <g id="Create-Proposal" transform="translate(-38.000000, -38.000000)">
            <g id="Logo" transform="translate(38.000000, 38.000000)">
                <g id="Page-1">
                    <polygon id="Fill-1" fill="#0175E6" points="3.11185455 40.0482909 5.89149091 40.0482909 5.89149091 45.0970182 5.96712727 45.0970182 9.63549091 40.0482909 12.6987636 40.0482909 8.97367273 44.9646545 13.3794909 52.3770182 10.3351273 52.3770182 7.32858182 47.1770182 5.89149091 49.0679273 5.89149091 52.3770182 3.11185455 52.3770182"></polygon>
                    <g id="Group-40" transform="translate(0.000000, 0.240073)">
                        <path d="M14.4950545,42.7578182 L16.7641455,42.7578182 L16.9532364,43.9498182 L17.0288727,43.9498182 C17.4325091,43.5709091 17.8732364,43.24 18.3525091,42.9563636 C18.8310545,42.6734545 19.3925091,42.5309091 20.0354182,42.5309091 C21.0565091,42.5309091 21.7968727,42.8654545 22.2572364,43.5330909 C22.7176,44.2014545 22.9474182,45.1287273 22.9474182,46.3134545 L22.9474182,52.1367273 L20.1677818,52.1367273 L20.1677818,46.6727273 C20.1677818,45.9912727 20.0761455,45.5258182 19.8936,45.2727273 C19.7103273,45.0210909 19.4179636,44.8945455 19.0143273,44.8945455 C18.6616,44.8945455 18.3583273,44.9738182 18.1066909,45.1316364 C17.8543273,45.2887273 17.5772364,45.5127273 17.2746909,45.8029091 L17.2746909,52.1367273 L14.4950545,52.1367273 L14.4950545,42.7578182 Z" id="Fill-2" fill="#0175E6"></path>
                        <path d="M27.6178909,47.4474182 C27.6178909,48.2670545 27.7597091,48.9165091 28.0433455,49.3957818 C28.3269818,49.8743273 28.7589818,50.1136 29.3386182,50.1136 C29.9058909,50.1136 30.3342545,49.8743273 30.6244364,49.3957818 C30.9146182,48.9165091 31.0593455,48.2670545 31.0593455,47.4474182 C31.0593455,46.6285091 30.9146182,45.9790545 30.6244364,45.4997818 C30.3342545,45.0212364 29.9058909,44.7812364 29.3386182,44.7812364 C28.7589818,44.7812364 28.3269818,45.0212364 28.0433455,45.4997818 C27.7597091,45.9790545 27.6178909,46.6285091 27.6178909,47.4474182 M24.7626182,47.4474182 C24.7626182,46.6663273 24.8884364,45.9696 25.1408,45.3579636 C25.3931636,44.7470545 25.7298909,44.2328727 26.1524364,43.8168727 C26.5749818,43.4016 27.0629818,43.0830545 27.6178909,42.8619636 C28.1728,42.6423273 28.7458909,42.5310545 29.3386182,42.5310545 C29.9313455,42.5310545 30.5015273,42.6423273 31.0498909,42.8619636 C31.5982545,43.0830545 32.0833455,43.4016 32.5058909,43.8168727 C32.9284364,44.2328727 33.2651636,44.7470545 33.5175273,45.3579636 C33.7691636,45.9696 33.8957091,46.6663273 33.8957091,47.4474182 C33.8957091,48.2292364 33.7691636,48.9252364 33.5175273,49.5368727 C33.2651636,50.1485091 32.9284364,50.6619636 32.5058909,51.0779636 C32.0833455,51.4939636 31.5982545,51.8125091 31.0498909,52.0336 C30.5015273,52.2532364 29.9313455,52.3637818 29.3386182,52.3637818 C28.7458909,52.3637818 28.1728,52.2532364 27.6178909,52.0336 C27.0629818,51.8125091 26.5749818,51.4939636 26.1524364,51.0779636 C25.7298909,50.6619636 25.3931636,50.1485091 25.1408,49.5368727 C24.8884364,48.9252364 24.7626182,48.2292364 24.7626182,47.4474182" id="Fill-4" fill="#0175E6"></path>
                        <path d="M34.8789091,42.7578182 L37.6396364,42.7578182 L38.5472727,47.1069091 C38.6229091,47.5738182 38.692,48.0341818 38.7552727,48.488 C38.8185455,48.9418182 38.8876364,49.408 38.9632727,49.8872727 L39.0389091,49.8872727 C39.1269091,49.408 39.212,48.9352727 39.2941818,48.4690909 C39.3763636,48.0021818 39.4738182,47.5490909 39.5872727,47.1069091 L40.6272727,42.7578182 L43.0287273,42.7578182 L44.0876364,47.1069091 C44.2010909,47.5738182 44.3021818,48.0341818 44.3901818,48.488 C44.4781818,48.9418182 44.5727273,49.408 44.6738182,49.8872727 L44.7494545,49.8872727 C44.8374545,49.408 44.9101818,48.9418182 44.9669091,48.488 C45.0236364,48.0341818 45.0956364,47.5738182 45.1843636,47.1069091 L46.0730909,42.7578182 L48.6447273,42.7578182 L46.3945455,52.1367273 L43.1421818,52.1367273 L42.2912727,48.3927273 C42.1901818,47.952 42.1021818,47.5105455 42.0265455,47.0698182 C41.9509091,46.6283636 41.8687273,46.1556364 41.7807273,45.6516364 L41.7050909,45.6516364 C41.6170909,46.1556364 41.5378182,46.6283636 41.4687273,47.0698182 C41.3989091,47.5105455 41.3203636,47.952 41.2323636,48.3927273 L40.4003636,52.1367273 L37.2236364,52.1367273 L34.8789091,42.7578182 Z" id="Fill-6" fill="#0175E6"></path>
                        <path d="M50.3274182,38.8821091 L53.1070545,38.8821091 L53.1070545,49.3388364 C53.1070545,49.6282909 53.1608727,49.8304727 53.2677818,49.9439273 C53.3746909,50.0566545 53.4852364,50.1133818 53.5986909,50.1133818 L53.7594182,50.1133818 C53.8037818,50.1133818 53.8634182,50.1017455 53.9390545,50.0762909 L54.2794182,52.1373818 C54.1281455,52.1999273 53.9354182,52.2537455 53.7026909,52.2973818 C53.4692364,52.3417455 53.1950545,52.3635636 52.8801455,52.3635636 C52.4008727,52.3635636 51.9972364,52.2886545 51.6699636,52.1373818 C51.3419636,51.9861091 51.0808727,51.7752 50.8852364,51.5032 C50.6896,51.2326545 50.5477818,50.9046545 50.4597818,50.5206545 C50.3717818,50.1359273 50.3274182,49.7046545 50.3274182,49.2253818 L50.3274182,38.8821091 Z" id="Fill-8" fill="#0175E6"></path>
                        <path d="M61.2376,46.4829818 C61.2376,45.9411636 61.1176,45.4997091 60.8783273,45.1600727 C60.6390545,44.8197091 60.2354182,44.6495273 59.6681455,44.6495273 C59.2266909,44.6495273 58.8390545,44.7978909 58.5052364,45.0938909 C58.1714182,45.3898909 57.9539636,45.8531636 57.8528727,46.4829818 L61.2376,46.4829818 Z M55.1866909,47.4473455 C55.1866909,46.6909818 55.3125091,46.0080727 55.5648727,45.3964364 C55.8172364,44.7848 56.1474182,44.2677091 56.5576,43.8451636 C56.9670545,43.4233455 57.4368727,43.0989818 57.9663273,42.8713455 C58.4957818,42.6451636 59.0441455,42.5309818 59.6114182,42.5309818 C60.2797818,42.5309818 60.8623273,42.6451636 61.3605091,42.8713455 C61.8586909,43.0989818 62.2746909,43.4138909 62.6085091,43.8168 C62.9423273,44.2211636 63.1917818,44.6960727 63.3554182,45.2451636 C63.5190545,45.7935273 63.6012364,46.3884364 63.6012364,47.0320727 C63.6012364,47.2844364 63.5888727,47.5135273 63.5634182,47.7215273 C63.5379636,47.9295273 63.5132364,48.0902545 63.4877818,48.2037091 L57.8717818,48.2037091 C57.9976,48.9222545 58.2783273,49.4422545 58.7132364,49.7644364 C59.1481455,50.0851636 59.6805091,50.2466182 60.3110545,50.2466182 C60.9794182,50.2466182 61.6536,50.0386182 62.3343273,49.6218909 L63.2608727,51.3055273 C62.7816,51.6328 62.2492364,51.8917091 61.6630545,52.0800727 C61.0768727,52.2691636 60.5001455,52.3637091 59.9328727,52.3637091 C59.2645091,52.3637091 58.6405091,52.2538909 58.0608727,52.0335273 C57.4805091,51.8124364 56.9765091,51.4917091 56.5481455,51.0691636 C56.1197818,50.6466182 55.7852364,50.1331636 55.5459636,49.5280727 C55.3066909,48.9222545 55.1866909,48.2291636 55.1866909,47.4473455 L55.1866909,47.4473455 Z" id="Fill-10" fill="#0175E6"></path>
                        <path d="M67.8934545,47.4098182 C67.8934545,48.3429091 68.0418182,49.0236364 68.3378182,49.452 C68.6338182,49.8803636 69.0534545,50.0949091 69.5952727,50.0949091 C69.8978182,50.0949091 70.172,50.0316364 70.4178182,49.9058182 C70.6636364,49.78 70.9,49.5589091 71.1269091,49.244 L71.1269091,45.4054545 C70.8745455,45.1785455 70.6163636,45.0214545 70.3516364,44.9327273 C70.0869091,44.8447273 69.8287273,44.8003636 69.5763636,44.8003636 C69.1349091,44.8003636 68.7443636,45.0112727 68.404,45.4338182 C68.0636364,45.8563636 67.8934545,46.5152727 67.8934545,47.4098182 M65.0381818,47.4476364 C65.0381818,46.6789091 65.1487273,45.9916364 65.3690909,45.3865455 C65.5894545,44.7814545 65.8796364,44.268 66.2389091,43.8454545 C66.5981818,43.4236364 67.0141818,43.0985455 67.4869091,42.8716364 C67.9596364,42.6447273 68.4418182,42.5312727 68.9334545,42.5312727 C69.4629091,42.5312727 69.8978182,42.6192727 70.2381818,42.796 C70.5785455,42.9727273 70.9123636,43.212 71.2403636,43.5145455 L71.1269091,42.0774545 L71.1269091,38.8818182 L73.9065455,38.8818182 L73.9065455,52.1370909 L71.6374545,52.1370909 L71.4483636,51.2105455 L71.3727273,51.2105455 C71.0447273,51.5385455 70.6607273,51.8127273 70.2192727,52.0330909 C69.7778182,52.2534545 69.3305455,52.364 68.8767273,52.364 C68.2970909,52.364 67.7705455,52.2505455 67.2978182,52.0236364 C66.8250909,51.7967273 66.4214545,51.4723636 66.0876364,51.0498182 C65.7538182,50.628 65.4949091,50.1138182 65.3123636,49.5087273 C65.1298182,48.9036364 65.0381818,48.2163636 65.0381818,47.4476364" id="Fill-12" fill="#0175E6"></path>
                        <path d="M79.9197818,47.4850909 C80.2848727,47.4850909 80.5910545,47.3563636 80.8368727,47.0981818 C81.0826909,46.8392727 81.2056,46.4450909 81.2056,45.9163636 C81.2056,45.424 81.0826909,45.0494545 80.8368727,44.7912727 C80.5910545,44.5323636 80.2848727,44.4036364 79.9197818,44.4036364 C79.5539636,44.4036364 79.2485091,44.5294545 79.0026909,44.7810909 C78.7568727,45.0341818 78.6339636,45.4116364 78.6339636,45.9163636 C78.6339636,46.4450909 78.7568727,46.8392727 79.0026909,47.0981818 C79.2485091,47.3563636 79.5539636,47.4850909 79.9197818,47.4850909 M78.0666909,53.3098182 C78.0666909,53.6618182 78.2557818,53.9301818 78.6339636,54.1127273 C79.0121455,54.2952727 79.5161455,54.3869091 80.1466909,54.3869091 C80.7765091,54.3869091 81.2936,54.2770909 81.6972364,54.056 C82.1008727,53.8356364 82.3023273,53.5614545 82.3023273,53.2334545 C82.3023273,52.944 82.1794182,52.7483636 81.9336,52.648 C81.6877818,52.5469091 81.3314182,52.4967273 80.8652364,52.4967273 L79.9008727,52.4967273 C79.5728727,52.4967273 79.3081455,52.4872727 79.1066909,52.4683636 C78.9045091,52.4487273 78.7285091,52.4203636 78.5772364,52.3825455 C78.2368727,52.6850909 78.0666909,52.9941818 78.0666909,53.3098182 M75.7786909,53.744 C75.7786909,52.9876364 76.2259636,52.3570909 77.1212364,51.8538182 L77.1212364,51.7774545 C76.8688727,51.6145455 76.6608727,51.4065455 76.4972364,51.1541818 C76.3328727,50.9018182 76.2514182,50.5803636 76.2514182,50.1898182 C76.2514182,49.8487273 76.3517818,49.5250909 76.5539636,49.216 C76.7554182,48.9069091 77.0077818,48.6458182 77.3103273,48.4312727 L77.3103273,48.3549091 C76.9823273,48.1287273 76.6892364,47.8036364 76.4310545,47.3810909 C76.1721455,46.9592727 76.0434182,46.4705455 76.0434182,45.9163636 C76.0434182,45.3483636 76.1503273,44.8545455 76.3648727,44.432 C76.5786909,44.0094545 76.8659636,43.656 77.2252364,43.3730909 C77.5845091,43.0887273 77.9968727,42.8778182 78.4637818,42.7396364 C78.9299636,42.6007273 79.4157818,42.5309091 79.9197818,42.5309091 C80.4739636,42.5309091 80.9597818,42.6072727 81.3757818,42.7578182 L84.7983273,42.7578182 L84.7983273,44.7810909 L83.3045091,44.7810909 C83.3925091,44.9207273 83.4652364,45.0967273 83.5219636,45.3112727 C83.5786909,45.5258182 83.6070545,45.7585455 83.6070545,46.0109091 C83.6070545,46.5527273 83.5125091,47.0218182 83.3234182,47.4189091 C83.1343273,47.816 82.8725091,48.144 82.5386909,48.4029091 C82.2048727,48.6610909 81.8136,48.8538182 81.3663273,48.9796364 C80.9190545,49.1054545 80.4361455,49.168 79.9197818,49.168 C79.5539636,49.168 79.1757818,49.1054545 78.7852364,48.9796364 C78.6594182,49.08 78.5706909,49.1810909 78.5205091,49.2821818 C78.4696,49.3825455 78.4448727,49.5149091 78.4448727,49.6792727 C78.4448727,49.9185455 78.5488727,50.0952727 78.7568727,50.208 C78.9648727,50.3214545 79.3336,50.3789091 79.8630545,50.3789091 L81.3757818,50.3789091 C82.5350545,50.3789091 83.4208727,50.5643636 84.0325091,50.936 C84.6441455,51.3083636 84.9496,51.9170909 84.9496,52.7614545 C84.9496,53.2530909 84.8266909,53.7032727 84.5808727,54.1127273 C84.3350545,54.5229091 83.9852364,54.8756364 83.5314182,55.1716364 C83.0776,55.4683636 82.5292364,55.7018182 81.8863273,55.8712727 C81.2434182,56.0421818 80.5183273,56.1272727 79.7117818,56.1272727 C79.1568727,56.1272727 78.6434182,56.0792727 78.1706909,55.9854545 C77.6979636,55.8909091 77.2819636,55.7483636 76.9226909,55.56 C76.5634182,55.3709091 76.2826909,55.1250909 76.0812364,54.8225455 C75.8790545,54.52 75.7786909,54.1607273 75.7786909,53.744" id="Fill-14" fill="#0175E6"></path>
                        <path d="M91.6246545,46.4829818 C91.6246545,45.9411636 91.5046545,45.4997091 91.2653818,45.1600727 C91.0261091,44.8197091 90.6224727,44.6495273 90.0552,44.6495273 C89.6137455,44.6495273 89.2261091,44.7978909 88.8922909,45.0938909 C88.5584727,45.3898909 88.3410182,45.8531636 88.2399273,46.4829818 L91.6246545,46.4829818 Z M85.5737455,47.4473455 C85.5737455,46.6909818 85.6995636,46.0080727 85.9519273,45.3964364 C86.2042909,44.7848 86.5344727,44.2677091 86.9446545,43.8451636 C87.3541091,43.4233455 87.8239273,43.0989818 88.3533818,42.8713455 C88.8828364,42.6451636 89.4312,42.5309818 89.9984727,42.5309818 C90.6668364,42.5309818 91.2493818,42.6451636 91.7475636,42.8713455 C92.2457455,43.0989818 92.6617455,43.4138909 92.9955636,43.8168 C93.3293818,44.2211636 93.5788364,44.6960727 93.7424727,45.2451636 C93.9061091,45.7935273 93.9882909,46.3884364 93.9882909,47.0320727 C93.9882909,47.2844364 93.9759273,47.5135273 93.9504727,47.7215273 C93.9250182,47.9295273 93.9002909,48.0902545 93.8748364,48.2037091 L88.2588364,48.2037091 C88.3846545,48.9222545 88.6653818,49.4422545 89.1002909,49.7644364 C89.5352,50.0851636 90.0675636,50.2466182 90.6981091,50.2466182 C91.3664727,50.2466182 92.0406545,50.0386182 92.7213818,49.6218909 L93.6479273,51.3055273 C93.1686545,51.6328 92.6362909,51.8917091 92.0501091,52.0800727 C91.4639273,52.2691636 90.8872,52.3637091 90.3199273,52.3637091 C89.6515636,52.3637091 89.0275636,52.2538909 88.4479273,52.0335273 C87.8675636,51.8124364 87.3635636,51.4917091 86.9352,51.0691636 C86.5068364,50.6466182 86.1722909,50.1331636 85.9330182,49.5280727 C85.6937455,48.9222545 85.5737455,48.2291636 85.5737455,47.4473455 L85.5737455,47.4473455 Z" id="Fill-16" fill="#0175E6"></path>
                        <path d="M7.46094545,68.8906182 C8.98603636,68.8906182 9.74894545,68.3298909 9.74894545,67.2077091 C9.74894545,66.6651636 9.55985455,66.2709818 9.18167273,66.0258909 C8.80349091,65.7800727 8.22967273,65.6571636 7.46094545,65.6571636 L5.89149091,65.6571636 L5.89149091,68.8906182 L7.46094545,68.8906182 Z M7.19621818,63.6906182 C7.87694545,63.6906182 8.37149091,63.5553455 8.68058182,63.2840727 C8.98967273,63.0128 9.14385455,62.6440727 9.14385455,62.1778909 C9.14385455,61.7117091 8.98603636,61.3771636 8.67112727,61.1757091 C8.35549091,60.9742545 7.8704,60.8731636 7.21512727,60.8731636 L5.89149091,60.8731636 L5.89149091,63.6906182 L7.19621818,63.6906182 Z M3.11185455,58.7175273 L7.32858182,58.7175273 C7.97149091,58.7175273 8.56712727,58.7648 9.11549091,58.8593455 C9.66385455,58.9538909 10.1431273,59.1204364 10.5525818,59.3604364 C10.9620364,59.6004364 11.2834909,59.9153455 11.5169455,60.3058909 C11.7496727,60.6964364 11.8667636,61.1880727 11.8667636,61.7808 C11.8667636,62.0578909 11.8253091,62.3349818 11.7438545,62.6128 C11.6616727,62.8898909 11.5387636,63.1480727 11.3751273,63.3880727 C11.2114909,63.6280727 10.9969455,63.8418909 10.7322182,64.0302545 C10.4674909,64.2200727 10.1584,64.3589818 9.80567273,64.4469818 L9.80567273,64.5226182 C10.6878545,64.6869818 11.3533091,65.0011636 11.8005818,65.4680727 C12.2478545,65.9349818 12.4718545,66.5837091 12.4718545,67.4157091 C12.4718545,68.0462545 12.3489455,68.5880727 12.1031273,69.0418909 C11.8573091,69.4957091 11.5169455,69.8709818 11.0820364,70.1669818 C10.6471273,70.4629818 10.1394909,70.6840727 9.55985455,70.8288 C8.97949091,70.9735273 8.35549091,71.0462545 7.68785455,71.0462545 L3.11185455,71.0462545 L3.11185455,58.7175273 Z" id="Fill-18" fill="#0175E6"></path>
                        <g id="Group-22" transform="translate(13.818182, 61.090909)">
                            <mask id="mask-2" fill="white">
                                <use xlink:href="#path-1"></use>
                            </mask>
                            <g id="Clip-21"></g>
                            <path d="M2.8136,7.13781818 C2.8136,7.44036364 2.91105455,7.66436364 3.10669091,7.80909091 C3.30232727,7.95381818 3.56341818,8.02654545 3.89141818,8.02654545 C4.21941818,8.02654545 4.49650909,7.95745455 4.72341818,7.81854545 C4.95032727,7.67963636 5.1896,7.48472727 5.44196364,7.23236364 L5.44196364,5.58727273 C4.44632727,5.72618182 3.75905455,5.92763636 3.38087273,6.19236364 C3.00269091,6.45709091 2.8136,6.772 2.8136,7.13781818 M0.166327273,7.34581818 C0.166327273,6.36254545 0.582327273,5.59381818 1.41432727,5.03890909 C2.24632727,4.48472727 3.58887273,4.11236364 5.44196364,3.92327273 C5.41650909,3.50727273 5.29069091,3.17636364 5.06378182,2.93054545 C4.83687273,2.68472727 4.47105455,2.56181818 3.96705455,2.56181818 C3.56341818,2.56181818 3.16050909,2.63818182 2.75687273,2.78945455 C2.35323636,2.94 1.92487273,3.148 1.47105455,3.41272727 L0.487781818,1.57854545 C1.09287273,1.21345455 1.72632727,0.916727273 2.38814545,0.689818182 C3.04996364,0.462909091 3.75250909,0.349454545 4.49650909,0.349454545 C5.70669091,0.349454545 6.63032727,0.693454545 7.26669091,1.38 C7.90305455,2.06727273 8.2216,3.13563636 8.2216,4.58509091 L8.2216,9.95527273 L5.95250909,9.95527273 L5.74450909,8.99090909 L5.68778182,8.99090909 C5.28414545,9.34363636 4.85869091,9.63090909 4.41141818,9.85127273 C3.96414545,10.0716364 3.47541818,10.1821818 2.94596364,10.1821818 C2.5176,10.1821818 2.13287273,10.1094545 1.79250909,9.96472727 C1.45214545,9.82 1.16196364,9.61781818 0.922690909,9.35963636 C0.683418182,9.10145455 0.497236364,8.80181818 0.364872727,8.46145455 C0.232509091,8.12109091 0.166327273,7.74945455 0.166327273,7.34581818" id="Fill-20" fill="#0175E6" mask="url(#mask-2)"></path>
                        </g>
                        <g id="Group-25" transform="translate(23.272727, 61.090909)">
                            <mask id="mask-4" fill="white">
                                <use xlink:href="#path-3"></use>
                            </mask>
                            <g id="Clip-24"></g>
                            <path d="M1.56567273,7.13781818 C1.99403636,7.46581818 2.40349091,7.71163636 2.79476364,7.87527273 C3.18530909,8.03890909 3.5824,8.12109091 3.98603636,8.12109091 C4.40203636,8.12109091 4.70458182,8.052 4.89367273,7.91309091 C5.08276364,7.77490909 5.17730909,7.57927273 5.17730909,7.32690909 C5.17730909,7.17563636 5.12349091,7.04036364 5.01658182,6.92036364 C4.90894545,6.80036364 4.76421818,6.69054545 4.58167273,6.58945455 C4.39912727,6.48836364 4.19403636,6.39745455 3.96712727,6.31527273 C3.74021818,6.23381818 3.50676364,6.14218182 3.26749091,6.04109091 C2.97730909,5.92763636 2.68712727,5.79527273 2.39767273,5.644 C2.10749091,5.49272727 1.84276364,5.30654545 1.60349091,5.08618182 C1.36349091,4.86581818 1.16858182,4.60763636 1.01730909,4.31090909 C0.866036364,4.01490909 0.7904,3.67090909 0.7904,3.28036364 C0.7904,2.852 0.875490909,2.45490909 1.04567273,2.08909091 C1.21585455,1.724 1.45876364,1.41490909 1.77367273,1.16254545 C2.08858182,0.910181818 2.46676364,0.711636364 2.90821818,0.566909091 C3.34894545,0.422181818 3.84058182,0.349454545 4.38312727,0.349454545 C5.10167273,0.349454545 5.73221818,0.472363636 6.27403636,0.718181818 C6.81585455,0.964 7.28858182,1.23818182 7.69221818,1.54072727 L6.44421818,3.20472727 C6.10385455,2.95236364 5.76930909,2.75745455 5.44203636,2.61854545 C5.11403636,2.48036364 4.78603636,2.41054545 4.45876364,2.41054545 C3.75258182,2.41054545 3.39985455,2.65636364 3.39985455,3.148 C3.39985455,3.29927273 3.45003636,3.42872727 3.55112727,3.53563636 C3.65149091,3.64254545 3.78749091,3.74072727 3.95767273,3.82872727 C4.12785455,3.91672727 4.32349091,4.00181818 4.54385455,4.084 C4.76421818,4.16618182 4.99403636,4.25127273 5.23403636,4.33927273 C5.53658182,4.45272727 5.83549091,4.58218182 6.13221818,4.72690909 C6.42821818,4.87236364 6.69949091,5.052 6.94530909,5.26581818 C7.19112727,5.48036364 7.38967273,5.74145455 7.54094545,6.05054545 C7.69221818,6.35963636 7.76785455,6.72836364 7.76785455,7.15672727 C7.76785455,7.58509091 7.68567273,7.98218182 7.52203636,8.348 C7.35767273,8.71381818 7.11185455,9.03163636 6.78458182,9.30290909 C6.45658182,9.57418182 6.05294545,9.78872727 5.5744,9.94581818 C5.09512727,10.1029091 4.54021818,10.1821818 3.9104,10.1821818 C3.29294545,10.1821818 2.65876364,10.0621818 2.01003636,9.82290909 C1.36058182,9.58363636 0.796218182,9.26872727 0.317672727,8.87745455 L1.56567273,7.13781818 Z" id="Fill-23" fill="#0175E6" mask="url(#mask-4)"></path>
                        </g>
                        <g id="Group-28" transform="translate(32.000000, 61.090909)">
                            <mask id="mask-6" fill="white">
                                <use xlink:href="#path-5"></use>
                            </mask>
                            <g id="Clip-27"></g>
                            <path d="M6.30152727,4.30116364 C6.30152727,3.75934545 6.18152727,3.31789091 5.94225455,2.97825455 C5.70298182,2.63789091 5.29934545,2.46770909 4.73207273,2.46770909 C4.29061818,2.46770909 3.90298182,2.61607273 3.56916364,2.91207273 C3.23534545,3.20807273 3.01789091,3.67134545 2.9168,4.30116364 L6.30152727,4.30116364 Z M0.250618182,5.26552727 C0.250618182,4.50916364 0.376436364,3.82625455 0.6288,3.21461818 C0.881163636,2.60298182 1.21134545,2.08589091 1.62152727,1.66334545 C2.03098182,1.24152727 2.5008,0.917163636 3.03025455,0.689527273 C3.55970909,0.463345455 4.10807273,0.349163636 4.67534545,0.349163636 C5.34370909,0.349163636 5.92625455,0.463345455 6.42443636,0.689527273 C6.92261818,0.917163636 7.33861818,1.23207273 7.67243636,1.63498182 C8.00625455,2.03934545 8.25570909,2.51425455 8.41934545,3.06334545 C8.58298182,3.61170909 8.66516364,4.20661818 8.66516364,4.85025455 C8.66516364,5.10261818 8.6528,5.33170909 8.62734545,5.53970909 C8.60189091,5.74770909 8.57716364,5.90843636 8.55170909,6.02189091 L2.93570909,6.02189091 C3.06152727,6.74043636 3.34225455,7.26043636 3.77716364,7.58261818 C4.21207273,7.90334545 4.74443636,8.0648 5.37498182,8.0648 C6.04334545,8.0648 6.71752727,7.8568 7.39825455,7.44007273 L8.3248,9.12370909 C7.84552727,9.45098182 7.31316364,9.70989091 6.72698182,9.89825455 C6.1408,10.0873455 5.56407273,10.1818909 4.9968,10.1818909 C4.32843636,10.1818909 3.70443636,10.0720727 3.1248,9.85170909 C2.54443636,9.63061818 2.04043636,9.30989091 1.61207273,8.88734545 C1.18370909,8.4648 0.849163636,7.95134545 0.609890909,7.34625455 C0.370618182,6.74043636 0.250618182,6.04734545 0.250618182,5.26552727 L0.250618182,5.26552727 Z" id="Fill-26" fill="#0175E6" mask="url(#mask-6)"></path>
                        </g>
                        <g id="Group-31">
                            <mask id="mask-8" fill="white">
                                <use xlink:href="#path-7"></use>
                            </mask>
                            <g id="Clip-30"></g>
                            <path d="M33.4264727,0.4872 L13.9326545,0.4872 C6.24974545,0.4872 0.000290909091,6.73738182 0.000290909091,14.4195636 C0.000290909091,22.1024727 6.24974545,28.3519273 13.9326545,28.3519273 L33.4264727,28.3519273 C41.1086545,28.3519273 47.3588364,22.1024727 47.3588364,14.4195636 C47.3588364,6.73738182 41.1086545,0.4872 33.4264727,0.4872" id="Fill-29" fill="#76B4D3" mask="url(#mask-8)"></path>
                        </g>
                        <path d="M33.4264727,25.6001455 L13.9326545,25.6001455 C7.78356364,25.6001455 2.75229091,20.5688727 2.75229091,14.4197818 C2.75229091,8.27069091 7.78356364,3.23941818 13.9326545,3.23941818 L33.4264727,3.23941818 C39.5755636,3.23941818 44.6068364,8.27069091 44.6068364,14.4197818 C44.6068364,20.5688727 39.5755636,25.6001455 33.4264727,25.6001455" id="Fill-32" fill="#0175E6"></path>
                        <polygon id="Fill-34" fill="#0175E6" points="25.1210909 24.8132364 28.9596364 33.1703273 32.8730909 24.8132364"></polygon>
                        <path d="M15.4066182,11.1917818 C17.1600727,12.9445091 17.1600727,15.7866909 15.4066182,17.5401455 C13.6538909,19.2928727 10.8117091,19.2928727 9.05825455,17.5401455 C7.30552727,15.7866909 7.30552727,12.9445091 9.05825455,11.1917818 C10.8117091,9.43832727 13.6538909,9.43832727 15.4066182,11.1917818" id="Fill-36" fill="#FFFFFF"></path>
                        <path d="M39.0284364,11.1917818 C40.7818909,12.9445091 40.7818909,15.7866909 39.0284364,17.5401455 C37.2749818,19.2928727 34.4335273,19.2928727 32.6800727,17.5401455 C30.9273455,15.7866909 30.9273455,12.9445091 32.6800727,11.1917818 C34.4335273,9.43832727 37.2749818,9.43832727 39.0284364,11.1917818" id="Fill-38" fill="#FFFFFF"></path>
                    </g>
                </g>
            </g>
        </g>
    </g>
</svg>