<svg xmlns="http://www.w3.org/2000/svg" xmlns:xlink="http://www.w3.org/1999/xlink" viewBox="0 0 144.08 165.19"><defs><style>.cls-1{fill:none;}.cls-2{fill:#76b4d3;}.cls-3{fill:#0175e6;}.cls-4{fill:#a5a5a5;opacity:0.81;}.cls-5{clip-path:url(#clip-path);}.cls-6{fill:#e6e6e6;stroke:#e6e6e6;stroke-miterlimit:10;stroke-width:0.75px;}.cls-7{fill:#fff;}</style><clipPath id="clip-path"><rect class="cls-1" x="63.6" y="29.74" width="16.4" height="8.54" transform="translate(143.59 68.03) rotate(-180)"/></clipPath></defs><title>Asset 8</title><g id="Layer_2" data-name="Layer 2"><g id="Laptop"><circle class="cls-2" cx="72.23" cy="131.16" r="9.61"/><circle class="cls-3" cx="28.27" cy="25.02" r="7.91"/><circle class="cls-3" cx="112.15" cy="25.02" r="7.91"/><path class="cls-2" d="M87.32,0H53.37a24.27,24.27,0,0,0,0,48.53H87.32A24.27,24.27,0,1,0,87.32,0Z"/><rect class="cls-3" x="33.9" y="4.79" width="72.89" height="38.94" rx="19.47" ry="19.47"/><path class="cls-3" d="M93.8,87.56V65.35a9.45,9.45,0,0,0-9.46-9.45H59.9a9.45,9.45,0,0,0-9.45,9.45V86.93c0,1.58.08,3.21,0,3.95l-.07,19.7a21.48,21.48,0,0,0,21.69,21.58h.13a21.24,21.24,0,0,0,21.45-21.45l.07-20.17C93.7,89.89,93.83,88.93,93.8,87.56Z"/><rect class="cls-3" x="16.66" y="31.71" width="8.43" height="48.2" rx="4.21" ry="4.21" transform="translate(-37.28 42.84) rotate(-56.92)"/><rect class="cls-3" x="119" y="31.71" width="8.43" height="48.2" rx="4.21" ry="4.21" transform="translate(102.73 -77.89) rotate(56.92)"/><ellipse class="cls-4" cx="73.04" cy="161.12" rx="21.7" ry="4.07"/><g class="cls-5"><path class="cls-6" d="M71.87,36.59a6,6,0,1,0-6-6A6,6,0,0,0,71.87,36.59Zm-4.58-6a4.58,4.58,0,1,1,4.58,4.58A4.59,4.59,0,0,1,67.29,30.55Zm-.09,1.1a4.77,4.77,0,1,1,5.7,3.63A4.78,4.78,0,0,1,67.2,31.65Z"/></g><rect class="cls-7" x="40.49" y="19.7" width="19.25" height="4.25" rx="2.12" ry="2.12"/><rect class="cls-7" x="81.16" y="19.7" width="19.25" height="4.25" rx="2.12" ry="2.12"/></g></g></svg>