<svg xmlns="http://www.w3.org/2000/svg" xmlns:xlink="http://www.w3.org/1999/xlink" viewBox="0 0 99.7 165.19"><defs><style>.cls-1{fill:none;}.cls-2{fill:#76b4d3;}.cls-3{fill:#0175e6;}.cls-4{fill:#fff;}.cls-5{fill:#a5a5a5;opacity:0.81;}.cls-6{clip-path:url(#clip-path);}.cls-7{fill:#e6e6e6;stroke:#e6e6e6;stroke-miterlimit:10;stroke-width:0.75px;}</style><clipPath id="clip-path"><rect class="cls-1" x="42.8" y="28.99" width="16.4" height="8.54"/></clipPath></defs><title>Asset 10</title><g id="Layer_2" data-name="Layer 2"><g id="Laptop"><circle class="cls-2" cx="51.86" cy="131.16" r="9.61"/><circle class="cls-3" cx="7.91" cy="25.02" r="7.91"/><circle class="cls-3" cx="91.79" cy="25.02" r="7.91"/><path class="cls-2" d="M67,0H33a24.27,24.27,0,1,0,0,48.53H67A24.27,24.27,0,0,0,67,0Z"/><rect class="cls-3" x="13.54" y="4.79" width="72.89" height="38.94" rx="19.47" ry="19.47"/><circle class="cls-4" cx="30.05" cy="24.17" r="7.82"/><circle class="cls-4" cx="71.18" cy="24.17" r="7.82"/><path class="cls-3" d="M73.43,87.56V65.35A9.45,9.45,0,0,0,64,55.9H39.54a9.46,9.46,0,0,0-9.46,9.45V86.93c0,1.58.08,3.21,0,3.95L30,110.58a21.48,21.48,0,0,0,21.7,21.58h.13A21.25,21.25,0,0,0,73.3,110.71l.06-20.17C73.34,89.89,73.46,88.93,73.43,87.56Z"/><rect class="cls-3" x="12.81" y="69.91" width="8.43" height="48.2" rx="4.21" ry="4.21"/><rect class="cls-3" x="80.91" y="69.91" width="8.43" height="48.2" rx="4.21" ry="4.21"/><ellipse class="cls-5" cx="52.68" cy="161.12" rx="21.7" ry="4.07"/><g class="cls-6"><path class="cls-7" d="M51.35,31.45a6,6,0,1,0,6,6A6,6,0,0,0,51.35,31.45Zm4.58,6a4.58,4.58,0,1,1-4.58-4.58A4.58,4.58,0,0,1,55.93,37.48Z"/></g></g></g></svg>