<svg id="File_-_Acrobat" data-name="File - Acrobat" xmlns="http://www.w3.org/2000/svg" width="100" height="120" viewBox="0 0 100 120">
  <metadata><?xpacket begin="﻿" id="W5M0MpCehiHzreSzNTczkc9d"?>
<x:xmpmeta xmlns:x="adobe:ns:meta/" x:xmptk="Adobe XMP Core 5.6-c140 79.160451, 2017/05/06-01:08:21        ">
   <rdf:RDF xmlns:rdf="http://www.w3.org/1999/02/22-rdf-syntax-ns#">
      <rdf:Description rdf:about=""/>
   </rdf:RDF>
</x:xmpmeta>
                                                                                                    
                                                                                                    
                                                                                                    
                                                                                                    
                                                                                                    
                                                                                                    
                                                                                                    
                                                                                                    
                                                                                                    
                                                                                                    
                                                                                                    
                                                                                                    
                                                                                                    
                                                                                                    
                                                                                                    
                                                                                                    
                                                                                                    
                                                                                                    
                                                                                                    
                                                                                                    
                           
<?xpacket end="w"?></metadata>
<defs>
    <style>
      .cls-1 {
        fill: #fff;
      }

      .cls-1, .cls-2 {
        stroke: #bdc4c9;
        stroke-width: 4px;
      }

      .cls-1, .cls-2, .cls-3, .cls-4, .cls-5 {
        fill-rule: evenodd;
      }

      .cls-2, .cls-5 {
        fill: none;
      }

      .cls-3 {
        fill: #ecc1c2;
      }

      .cls-4 {
        fill: #de9b9d;
      }

      .cls-5 {
        stroke: #ebc1c2;
        stroke-width: 2px;
      }
    </style>
  </defs>
  <path id="Page" class="cls-1" d="M442,161h65l31,32v84H442V161Z" transform="translate(-440 -159)"/>
  <path id="Page_Flip" data-name="Page Flip" class="cls-2" d="M536,195H504V163" transform="translate(-440 -159)"/>
  <path id="Graph_Curves" data-name="Graph Curves" class="cls-3" d="M462,257h56s1.08-24-7-24-8.324,10.916-17,16-14,8-14,8h20s-3.488-1.9-14-8-8.5-16-17-16S462,257,462,257Zm-4,4h64s2.264-32-11-32-7.88,11.064-21,18-26,14-26,14h54s-16.136-6.751-29-15-7.714-17-20-17S458,251.3,458,261Zm31.727-9.477" transform="translate(-440 -159)"/>
  <path id="Intersects" class="cls-4" d="M490.022,245.994l-4.957,2.965L490,251.971l5.028-2.959Zm-26.029,15L518.005,261l-7.058-4-40.869-.016Z" transform="translate(-440 -159)"/>
  <path id="Lines" class="cls-5" d="M462,209v-4h48v4H462Zm0,12v-4h48v4H462Zm0-36v-4h28v4H462Zm0,12v-4h28v4H462Z" transform="translate(-440 -159)"/>
</svg>
