<?xml version="1.0" encoding="utf-8"?>
<!-- Generator: Adobe Illustrator 22.0.1, SVG Export Plug-In . SVG Version: 6.00 Build 0)  -->
<svg version="1.1" id="Layer_1" xmlns="http://www.w3.org/2000/svg" xmlns:xlink="http://www.w3.org/1999/xlink" x="0px" y="0px"
	 viewBox="0 0 137.7 33" style="enable-background:new 0 0 137.7 33;" xml:space="preserve">
<style type="text/css">
	.st0{fill:#0175E6;}
	.st1{filter:url(#Adobe_OpacityMaskFilter);}
	.st2{fill:#FFFFFF;}
	.st3{mask:url(#mask-2_1_);fill:#0175E6;}
	.st4{filter:url(#Adobe_OpacityMaskFilter_1_);}
	.st5{mask:url(#mask-4_1_);fill:#0175E6;}
	.st6{filter:url(#Adobe_OpacityMaskFilter_2_);}
	.st7{mask:url(#mask-6_1_);fill:#0175E6;}
	.st8{filter:url(#Adobe_OpacityMaskFilter_3_);}
	.st9{mask:url(#mask-8_1_);fill:#76B4D3;}
</style>
<polygon id="Fill-1" class="st0" points="57.7,0.8 60.2,0.8 60.2,5.3 60.2,5.3 63.5,0.8 66.1,0.8 62.9,5.1 66.7,11.7 64.1,11.7 
	61.4,7.1 60.2,8.8 60.2,11.7 57.7,11.7 "/>
<path id="Fill-2" class="st0" d="M67.7,3.4h2l0.2,1H70c0.4-0.3,0.7-0.6,1.2-0.9c0.4-0.2,0.9-0.4,1.5-0.4c0.9,0,1.6,0.3,2,0.9
	c0.4,0.6,0.6,1.4,0.6,2.4v5.1h-2.4V6.9c0-0.6-0.1-1-0.2-1.2c-0.2-0.2-0.4-0.3-0.8-0.3c-0.3,0-0.6,0.1-0.8,0.2
	c-0.2,0.1-0.5,0.3-0.7,0.6v5.6h-2.4V3.4z"/>
<path id="Fill-4" class="st0" d="M79.3,7.5c0,0.7,0.1,1.3,0.4,1.7c0.2,0.4,0.6,0.6,1.1,0.6c0.5,0,0.9-0.2,1.1-0.6
	c0.3-0.4,0.4-1,0.4-1.7c0-0.7-0.1-1.3-0.4-1.7c-0.3-0.4-0.6-0.6-1.1-0.6c-0.5,0-0.9,0.2-1.1,0.6C79.4,6.2,79.3,6.8,79.3,7.5
	 M76.8,7.5c0-0.7,0.1-1.3,0.3-1.8c0.2-0.5,0.5-1,0.9-1.4c0.4-0.4,0.8-0.6,1.3-0.8c0.5-0.2,1-0.3,1.5-0.3s1,0.1,1.5,0.3
	c0.5,0.2,0.9,0.5,1.3,0.8c0.4,0.4,0.7,0.8,0.9,1.4c0.2,0.5,0.3,1.2,0.3,1.8c0,0.7-0.1,1.3-0.3,1.8c-0.2,0.5-0.5,1-0.9,1.4
	c-0.4,0.4-0.8,0.6-1.3,0.8c-0.5,0.2-1,0.3-1.5,0.3s-1-0.1-1.5-0.3c-0.5-0.2-0.9-0.5-1.3-0.8c-0.4-0.4-0.7-0.8-0.9-1.4
	C76.9,8.8,76.8,8.2,76.8,7.5"/>
<path id="Fill-6" class="st0" d="M85.7,3.4h2.4l0.8,3.8C89,7.7,89,8.1,89.1,8.5c0.1,0.4,0.1,0.8,0.2,1.2h0.1
	c0.1-0.4,0.2-0.8,0.2-1.2c0.1-0.4,0.2-0.8,0.3-1.2l0.9-3.8h2.1l0.9,3.8C93.9,7.7,94,8.1,94,8.5c0.1,0.4,0.2,0.8,0.2,1.2h0.1
	c0.1-0.4,0.1-0.8,0.2-1.2c0-0.4,0.1-0.8,0.2-1.2l0.8-3.8h2.3l-2,8.3h-2.9l-0.7-3.3C92.1,8,92,7.6,92,7.2c-0.1-0.4-0.1-0.8-0.2-1.2
	h-0.1c-0.1,0.4-0.1,0.9-0.2,1.2c-0.1,0.4-0.1,0.8-0.2,1.2l-0.7,3.3h-2.8L85.7,3.4z"/>
<path id="Fill-8" class="st0" d="M99.3,0h2.4v9.2c0,0.3,0,0.4,0.1,0.5c0.1,0.1,0.2,0.1,0.3,0.1h0.1c0,0,0.1,0,0.2,0l0.3,1.8
	c-0.1,0.1-0.3,0.1-0.5,0.1c-0.2,0-0.4,0.1-0.7,0.1c-0.4,0-0.8-0.1-1.1-0.2c-0.3-0.1-0.5-0.3-0.7-0.6c-0.2-0.2-0.3-0.5-0.4-0.9
	c-0.1-0.3-0.1-0.7-0.1-1.1V0z"/>
<path id="Fill-10" class="st0" d="M108.9,6.7c0-0.5-0.1-0.9-0.3-1.2c-0.2-0.3-0.6-0.4-1.1-0.4c-0.4,0-0.7,0.1-1,0.4
	c-0.3,0.3-0.5,0.7-0.6,1.2H108.9z M103.6,7.5c0-0.7,0.1-1.3,0.3-1.8c0.2-0.5,0.5-1,0.9-1.4c0.4-0.4,0.8-0.7,1.2-0.9
	c0.5-0.2,0.9-0.3,1.4-0.3c0.6,0,1.1,0.1,1.5,0.3c0.4,0.2,0.8,0.5,1.1,0.8c0.3,0.4,0.5,0.8,0.7,1.3c0.1,0.5,0.2,1,0.2,1.6
	c0,0.2,0,0.4,0,0.6c0,0.2,0,0.3-0.1,0.4h-4.9c0.1,0.6,0.4,1.1,0.7,1.4c0.4,0.3,0.9,0.4,1.4,0.4c0.6,0,1.2-0.2,1.8-0.5l0.8,1.5
	c-0.4,0.3-0.9,0.5-1.4,0.7c-0.5,0.2-1,0.2-1.5,0.2c-0.6,0-1.1-0.1-1.6-0.3c-0.5-0.2-1-0.5-1.3-0.8s-0.7-0.8-0.9-1.4
	C103.7,8.8,103.6,8.2,103.6,7.5L103.6,7.5z"/>
<path id="Fill-12" class="st0" d="M114.7,7.5c0,0.8,0.1,1.4,0.4,1.8c0.3,0.4,0.6,0.6,1.1,0.6c0.3,0,0.5-0.1,0.7-0.2
	c0.2-0.1,0.4-0.3,0.6-0.6V5.7c-0.2-0.2-0.4-0.3-0.7-0.4c-0.2-0.1-0.5-0.1-0.7-0.1c-0.4,0-0.7,0.2-1,0.6
	C114.9,6.1,114.7,6.7,114.7,7.5 M112.2,7.5c0-0.7,0.1-1.3,0.3-1.8c0.2-0.5,0.4-1,0.8-1.4c0.3-0.4,0.7-0.7,1.1-0.9
	c0.4-0.2,0.8-0.3,1.3-0.3c0.5,0,0.8,0.1,1.1,0.2c0.3,0.2,0.6,0.4,0.9,0.6l-0.1-1.3V0h2.4v11.7h-2l-0.2-0.8h-0.1
	c-0.3,0.3-0.6,0.5-1,0.7c-0.4,0.2-0.8,0.3-1.2,0.3c-0.5,0-1-0.1-1.4-0.3c-0.4-0.2-0.8-0.5-1.1-0.9c-0.3-0.4-0.5-0.8-0.7-1.4
	C112.3,8.8,112.2,8.2,112.2,7.5"/>
<path id="Fill-14" class="st0" d="M125.3,7.6c0.3,0,0.6-0.1,0.8-0.3c0.2-0.2,0.3-0.6,0.3-1c0-0.4-0.1-0.8-0.3-1
	c-0.2-0.2-0.5-0.3-0.8-0.3c-0.3,0-0.6,0.1-0.8,0.3c-0.2,0.2-0.3,0.6-0.3,1c0,0.5,0.1,0.8,0.3,1C124.7,7.5,125,7.6,125.3,7.6
	 M123.7,12.7c0,0.3,0.2,0.5,0.5,0.7c0.3,0.2,0.8,0.2,1.3,0.2c0.6,0,1-0.1,1.4-0.3c0.4-0.2,0.5-0.4,0.5-0.7c0-0.3-0.1-0.4-0.3-0.5
	c-0.2-0.1-0.5-0.1-0.9-0.1h-0.8c-0.3,0-0.5,0-0.7,0c-0.2,0-0.3,0-0.5-0.1C123.8,12.2,123.7,12.4,123.7,12.7 M121.7,13.1
	c0-0.7,0.4-1.2,1.2-1.7v-0.1c-0.2-0.1-0.4-0.3-0.5-0.5c-0.1-0.2-0.2-0.5-0.2-0.8c0-0.3,0.1-0.6,0.3-0.9c0.2-0.3,0.4-0.5,0.7-0.7V8.3
	c-0.3-0.2-0.5-0.5-0.8-0.9c-0.2-0.4-0.3-0.8-0.3-1.3c0-0.5,0.1-0.9,0.3-1.3c0.2-0.4,0.4-0.7,0.8-0.9c0.3-0.3,0.7-0.4,1.1-0.6
	c0.4-0.1,0.8-0.2,1.3-0.2c0.5,0,0.9,0.1,1.3,0.2h3v1.8h-1.3c0.1,0.1,0.1,0.3,0.2,0.5s0.1,0.4,0.1,0.6c0,0.5-0.1,0.9-0.2,1.2
	c-0.2,0.3-0.4,0.6-0.7,0.9c-0.3,0.2-0.6,0.4-1,0.5c-0.4,0.1-0.8,0.2-1.3,0.2c-0.3,0-0.7-0.1-1-0.2c-0.1,0.1-0.2,0.2-0.2,0.3
	c0,0.1-0.1,0.2-0.1,0.3c0,0.2,0.1,0.4,0.3,0.5c0.2,0.1,0.5,0.2,1,0.2h1.3c1,0,1.8,0.2,2.3,0.5c0.5,0.3,0.8,0.9,0.8,1.6
	c0,0.4-0.1,0.8-0.3,1.2c-0.2,0.4-0.5,0.7-0.9,0.9c-0.4,0.3-0.9,0.5-1.4,0.6c-0.6,0.2-1.2,0.2-1.9,0.2c-0.5,0-0.9,0-1.4-0.1
	c-0.4-0.1-0.8-0.2-1.1-0.4c-0.3-0.2-0.6-0.4-0.7-0.6C121.8,13.8,121.7,13.5,121.7,13.1"/>
<path id="Fill-16" class="st0" d="M135.6,6.7c0-0.5-0.1-0.9-0.3-1.2c-0.2-0.3-0.6-0.4-1.1-0.4c-0.4,0-0.7,0.1-1,0.4
	c-0.3,0.3-0.5,0.7-0.6,1.2H135.6z M130.3,7.5c0-0.7,0.1-1.3,0.3-1.8c0.2-0.5,0.5-1,0.9-1.4c0.4-0.4,0.8-0.7,1.2-0.9
	c0.5-0.2,0.9-0.3,1.4-0.3c0.6,0,1.1,0.1,1.5,0.3c0.4,0.2,0.8,0.5,1.1,0.8c0.3,0.4,0.5,0.8,0.7,1.3c0.1,0.5,0.2,1,0.2,1.6
	c0,0.2,0,0.4,0,0.6c0,0.2,0,0.3-0.1,0.4h-4.9c0.1,0.6,0.4,1.1,0.7,1.4c0.4,0.3,0.9,0.4,1.4,0.4c0.6,0,1.2-0.2,1.8-0.5l0.8,1.5
	c-0.4,0.3-0.9,0.5-1.4,0.7c-0.5,0.2-1,0.2-1.5,0.2c-0.6,0-1.1-0.1-1.6-0.3c-0.5-0.2-1-0.5-1.3-0.8s-0.7-0.8-0.9-1.4
	C130.4,8.8,130.3,8.2,130.3,7.5L130.3,7.5z"/>
<path id="Fill-18" class="st0" d="M61.5,26.4c1.3,0,2-0.5,2-1.5c0-0.5-0.2-0.8-0.5-1c-0.3-0.2-0.8-0.3-1.5-0.3h-1.4v2.8H61.5z
	 M61.3,21.8c0.6,0,1-0.1,1.3-0.4c0.3-0.2,0.4-0.6,0.4-1s-0.1-0.7-0.4-0.9c-0.3-0.2-0.7-0.3-1.3-0.3h-1.2v2.5H61.3z M57.7,17.5h3.7
	c0.6,0,1.1,0,1.6,0.1c0.5,0.1,0.9,0.2,1.3,0.4c0.4,0.2,0.6,0.5,0.8,0.8c0.2,0.3,0.3,0.8,0.3,1.3c0,0.2,0,0.5-0.1,0.7
	c-0.1,0.2-0.2,0.5-0.3,0.7c-0.1,0.2-0.3,0.4-0.6,0.6c-0.2,0.2-0.5,0.3-0.8,0.4v0.1c0.8,0.1,1.4,0.4,1.8,0.8c0.4,0.4,0.6,1,0.6,1.7
	c0,0.6-0.1,1-0.3,1.4c-0.2,0.4-0.5,0.7-0.9,1c-0.4,0.3-0.8,0.5-1.3,0.6c-0.5,0.1-1.1,0.2-1.6,0.2h-4V17.5z"/>
<g id="Clip-21">
</g>
<defs>
	<filter id="Adobe_OpacityMaskFilter" filterUnits="userSpaceOnUse" x="67.3" y="19.9" width="7.1" height="8.7">
		<feColorMatrix  type="matrix" values="1 0 0 0 0  0 1 0 0 0  0 0 1 0 0  0 0 0 1 0"/>
	</filter>
</defs>
<mask maskUnits="userSpaceOnUse" x="67.3" y="19.9" width="7.1" height="8.7" id="mask-2_1_">
	<g class="st1">
		<polygon id="path-1_1_" class="st2" points="74.4,28.5 67.3,28.5 67.3,19.9 74.4,19.9 		"/>
	</g>
</mask>
<path id="Fill-20" class="st3" d="M69.6,25.8c0,0.3,0.1,0.5,0.3,0.6s0.4,0.2,0.7,0.2c0.3,0,0.5-0.1,0.7-0.2c0.2-0.1,0.4-0.3,0.6-0.5
	v-1.4c-0.9,0.1-1.5,0.3-1.8,0.5C69.8,25.2,69.6,25.5,69.6,25.8 M67.3,26c0-0.9,0.4-1.5,1.1-2c0.7-0.5,1.9-0.8,3.5-1
	c0-0.4-0.1-0.7-0.3-0.9c-0.2-0.2-0.5-0.3-1-0.3c-0.4,0-0.7,0.1-1.1,0.2c-0.4,0.1-0.7,0.3-1.1,0.5l-0.9-1.6c0.5-0.3,1.1-0.6,1.7-0.8
	c0.6-0.2,1.2-0.3,1.9-0.3c1.1,0,1.9,0.3,2.4,0.9c0.6,0.6,0.8,1.5,0.8,2.8v4.7h-2l-0.2-0.8h0c-0.4,0.3-0.7,0.6-1.1,0.8
	s-0.8,0.3-1.3,0.3c-0.4,0-0.7-0.1-1-0.2s-0.6-0.3-0.8-0.5s-0.4-0.5-0.5-0.8C67.3,26.7,67.3,26.4,67.3,26"/>
<g id="Clip-24">
</g>
<defs>
	<filter id="Adobe_OpacityMaskFilter_1_" filterUnits="userSpaceOnUse" x="75.7" y="19.9" width="6.6" height="8.7">
		<feColorMatrix  type="matrix" values="1 0 0 0 0  0 1 0 0 0  0 0 1 0 0  0 0 0 1 0"/>
	</filter>
</defs>
<mask maskUnits="userSpaceOnUse" x="75.7" y="19.9" width="6.6" height="8.7" id="mask-4_1_">
	<g class="st4">
		<polygon id="path-3_1_" class="st2" points="75.7,28.5 82.3,28.5 82.3,19.9 75.7,19.9 		"/>
	</g>
</mask>
<path id="Fill-23" class="st5" d="M76.8,25.8c0.4,0.3,0.7,0.5,1.1,0.6c0.3,0.1,0.7,0.2,1,0.2c0.4,0,0.6-0.1,0.8-0.2
	c0.2-0.1,0.2-0.3,0.2-0.5c0-0.1,0-0.3-0.1-0.4c-0.1-0.1-0.2-0.2-0.4-0.3c-0.2-0.1-0.3-0.2-0.5-0.2c-0.2-0.1-0.4-0.2-0.6-0.2
	c-0.3-0.1-0.5-0.2-0.8-0.3c-0.3-0.1-0.5-0.3-0.7-0.5c-0.2-0.2-0.4-0.4-0.5-0.7c-0.1-0.3-0.2-0.6-0.2-0.9c0-0.4,0.1-0.7,0.2-1
	c0.1-0.3,0.4-0.6,0.6-0.8c0.3-0.2,0.6-0.4,1-0.5c0.4-0.1,0.8-0.2,1.3-0.2c0.6,0,1.2,0.1,1.7,0.3c0.5,0.2,0.9,0.5,1.2,0.7l-1.1,1.5
	c-0.3-0.2-0.6-0.4-0.9-0.5c-0.3-0.1-0.6-0.2-0.9-0.2c-0.6,0-0.9,0.2-0.9,0.6c0,0.1,0,0.2,0.1,0.3c0.1,0.1,0.2,0.2,0.4,0.3
	c0.1,0.1,0.3,0.2,0.5,0.2c0.2,0.1,0.4,0.1,0.6,0.2c0.3,0.1,0.5,0.2,0.8,0.3c0.3,0.1,0.5,0.3,0.7,0.5c0.2,0.2,0.4,0.4,0.5,0.7
	s0.2,0.6,0.2,1s-0.1,0.7-0.2,1c-0.1,0.3-0.4,0.6-0.6,0.8c-0.3,0.2-0.6,0.4-1.1,0.6c-0.4,0.1-0.9,0.2-1.5,0.2c-0.5,0-1.1-0.1-1.7-0.3
	c-0.6-0.2-1.1-0.5-1.5-0.8L76.8,25.8z"/>
<g id="Clip-27">
</g>
<defs>
	<filter id="Adobe_OpacityMaskFilter_2_" filterUnits="userSpaceOnUse" x="83.4" y="19.9" width="7.4" height="8.7">
		<feColorMatrix  type="matrix" values="1 0 0 0 0  0 1 0 0 0  0 0 1 0 0  0 0 0 1 0"/>
	</filter>
</defs>
<mask maskUnits="userSpaceOnUse" x="83.4" y="19.9" width="7.4" height="8.7" id="mask-6_1_">
	<g class="st6">
		<polygon id="path-5_1_" class="st2" points="83.4,28.5 90.8,28.5 90.8,19.9 83.4,19.9 		"/>
	</g>
</mask>
<path id="Fill-26" class="st7" d="M88.7,23.3c0-0.5-0.1-0.9-0.3-1.2c-0.2-0.3-0.6-0.4-1.1-0.4c-0.4,0-0.7,0.1-1,0.4
	c-0.3,0.3-0.5,0.7-0.6,1.2H88.7z M83.4,24.2c0-0.7,0.1-1.3,0.3-1.8c0.2-0.5,0.5-1,0.9-1.4c0.4-0.4,0.8-0.7,1.2-0.9
	c0.5-0.2,0.9-0.3,1.4-0.3c0.6,0,1.1,0.1,1.5,0.3c0.4,0.2,0.8,0.5,1.1,0.8c0.3,0.4,0.5,0.8,0.7,1.3c0.1,0.5,0.2,1,0.2,1.6
	c0,0.2,0,0.4,0,0.6s0,0.3-0.1,0.4h-4.9c0.1,0.6,0.4,1.1,0.7,1.4c0.4,0.3,0.9,0.4,1.4,0.4c0.6,0,1.2-0.2,1.8-0.5l0.8,1.5
	c-0.4,0.3-0.9,0.5-1.4,0.7c-0.5,0.2-1,0.2-1.5,0.2c-0.6,0-1.1-0.1-1.6-0.3c-0.5-0.2-1-0.5-1.3-0.8s-0.7-0.8-0.9-1.4
	C83.5,25.5,83.4,24.9,83.4,24.2L83.4,24.2z"/>
<g id="Clip-30">
</g>
<defs>
	<filter id="Adobe_OpacityMaskFilter_3_" filterUnits="userSpaceOnUse" x="0" y="0.3" width="47.4" height="27.9">
		<feColorMatrix  type="matrix" values="1 0 0 0 0  0 1 0 0 0  0 0 1 0 0  0 0 0 1 0"/>
	</filter>
</defs>
<mask maskUnits="userSpaceOnUse" x="0" y="0.3" width="47.4" height="27.9" id="mask-8_1_">
	<g class="st8">
		<polygon id="path-7_1_" class="st2" points="0,0.3 47.4,0.3 47.4,28.2 0,28.2 		"/>
	</g>
</mask>
<path id="Fill-29" class="st9" d="M33.4,0.3H13.9C6.2,0.3,0,6.6,0,14.3c0,7.7,6.2,13.9,13.9,13.9h19.5c7.7,0,13.9-6.2,13.9-13.9
	C47.4,6.6,41.1,0.3,33.4,0.3"/>
<path id="Fill-32" class="st0" d="M33.4,25.4H13.9c-6.1,0-11.2-5-11.2-11.2s5-11.2,11.2-11.2h19.5c6.1,0,11.2,5,11.2,11.2
	S39.6,25.4,33.4,25.4"/>
<polygon id="Fill-34" class="st0" points="25.1,24.7 29,33 32.9,24.7 "/>
<path id="Fill-36" class="st2" d="M15.4,11c1.8,1.8,1.8,4.6,0,6.3c-1.8,1.8-4.6,1.8-6.3,0c-1.8-1.8-1.8-4.6,0-6.3
	C10.8,9.3,13.7,9.3,15.4,11"/>
<path id="Fill-38" class="st2" d="M39,11c1.8,1.8,1.8,4.6,0,6.3c-1.8,1.8-4.6,1.8-6.3,0c-1.8-1.8-1.8-4.6,0-6.3
	C34.4,9.3,37.3,9.3,39,11"/>
</svg>
