<svg xmlns="http://www.w3.org/2000/svg" viewBox="0 0 25.97 33.97"><defs><style>.cls-1{fill:#d4e8f8;}.cls-2{fill:#0470e0;}</style></defs><title>bio-hover</title><g id="Layer_2" data-name="Layer 2"><g id="Web"><path class="cls-1" d="M17,34H0V0H26V25H17ZM2,32H15V23h9V2H2Z"/><path class="cls-1" d="M17.39,34H0V0H26V25.39ZM2,32H16.58L24,24.58V2H2Z"/><path class="cls-2" d="M11.18,10.83a.75.75,0,0,0,0,1.5.75.75,0,0,0,0-1.5Zm3.6,0a.75.75,0,0,0,0,1.5.75.75,0,0,0,0-1.5ZM13,5a6,6,0,1,0,6,6A6,6,0,0,0,13,5Zm0,10.8A4.81,4.81,0,0,1,8.18,11c0-.17,0-.34,0-.51a6,6,0,0,0,3.13-3.22,6,6,0,0,0,4.9,2.53,6.07,6.07,0,0,0,1.35-.15A5,5,0,0,1,17.78,11,4.8,4.8,0,0,1,13,15.78Z"/><rect class="cls-2" x="4.98" y="18.98" width="16" height="2"/><rect class="cls-2" x="4.98" y="22.98" width="8" height="2"/><rect class="cls-2" x="4.98" y="26.98" width="8" height="2"/></g></g></svg>